<svg width="19" height="12" viewBox="0 0 19 12" fill="none" xmlns="http://www.w3.org/2000/svg">
<path fill-rule="evenodd" clip-rule="evenodd" d="M2.83093 6.61693L6.49231 10.5527L5.76013 11.2339L1.31681 6.45749L1 6.11693L1.31681 5.77637L5.76013 1L6.49231 1.68112L2.83093 5.61693H18.262V6.61693H2.83093Z" fill="#E9CC58"/>
<path d="M2.83093 6.61693V6.36693H2.25692L2.64789 6.78721L2.83093 6.61693ZM6.49231 10.5527L6.66259 10.7358L6.84563 10.5655L6.67535 10.3825L6.49231 10.5527ZM5.76013 11.2339L5.57709 11.4041L5.74737 11.5872L5.93041 11.4169L5.76013 11.2339ZM1.31681 6.45749L1.49986 6.28721H1.49986L1.31681 6.45749ZM1 6.11693L0.816957 5.94665L0.65855 6.11693L0.816957 6.28721L1 6.11693ZM1.31681 5.77637L1.13377 5.60609H1.13377L1.31681 5.77637ZM5.76013 1L5.93041 0.816957L5.74737 0.646677L5.57709 0.82972L5.76013 1ZM6.49231 1.68112L6.67535 1.8514L6.84563 1.66836L6.66259 1.49808L6.49231 1.68112ZM2.83093 5.61693L2.64789 5.44665L2.25692 5.86693H2.83093V5.61693ZM18.262 5.61693H18.512V5.36693H18.262V5.61693ZM18.262 6.61693V6.86693H18.512V6.61693H18.262ZM2.64789 6.78721L6.30926 10.723L6.67535 10.3825L3.01398 6.44665L2.64789 6.78721ZM6.32203 10.3697L5.58985 11.0508L5.93041 11.4169L6.66259 10.7358L6.32203 10.3697ZM5.94318 11.0636L1.49986 6.28721L1.13377 6.62777L5.57709 11.4041L5.94318 11.0636ZM1.49986 6.28721L1.18304 5.94665L0.816957 6.28721L1.13377 6.62777L1.49986 6.28721ZM1.18304 6.28721L1.49986 5.94665L1.13377 5.60609L0.816957 5.94665L1.18304 6.28721ZM1.49986 5.94665L5.94318 1.17028L5.57709 0.82972L1.13377 5.60609L1.49986 5.94665ZM5.58985 1.18304L6.32203 1.86416L6.66259 1.49808L5.93041 0.816957L5.58985 1.18304ZM6.30926 1.51084L2.64789 5.44665L3.01398 5.78721L6.67535 1.8514L6.30926 1.51084ZM2.83093 5.86693H18.262V5.36693H2.83093V5.86693ZM18.012 5.61693V6.61693H18.512V5.61693H18.012ZM18.262 6.36693H2.83093V6.86693H18.262V6.36693Z" fill="#E9CC58"/>
</svg>
