<svg width="28" height="28" viewBox="0 0 28 28" fill="none" xmlns="http://www.w3.org/2000/svg">
<path fill-rule="evenodd" clip-rule="evenodd" d="M7.64383 0.75C7.64383 0.335786 7.30805 0 6.89383 0C6.47962 0 6.14383 0.335786 6.14383 0.75V1.48909H5.11806C2.3945 1.48909 0.124302 3.60004 0.124302 6.2803V22.5753C0.124302 25.2549 2.39459 27.3658 5.11806 27.3658H12.5197C12.9339 27.3658 13.2697 27.03 13.2697 26.6158C13.2697 26.2016 12.9339 25.8658 12.5197 25.8658H5.11806C3.15298 25.8658 1.6243 24.3582 1.6243 22.5753V6.2803C1.6243 4.49665 3.15306 2.98909 5.11806 2.98909H6.14383V3.75C6.14383 4.16421 6.47962 4.5 6.89383 4.5C7.30805 4.5 7.64383 4.16421 7.64383 3.75V2.98909H13.2493V3.75C13.2493 4.16421 13.5851 4.5 13.9993 4.5C14.4135 4.5 14.7493 4.16421 14.7493 3.75V2.98909H20.2493V3.75C20.2493 4.16421 20.5851 4.5 20.9993 4.5C21.4135 4.5 21.7493 4.16421 21.7493 3.75V2.98909H22.2305C24.1949 2.98909 25.7243 4.49672 25.7243 6.2803V13.0582C25.7243 13.4724 26.0601 13.8082 26.4743 13.8082C26.8885 13.8082 27.2243 13.4724 27.2243 13.0582V6.2803C27.2243 3.59996 24.9533 1.48909 22.2305 1.48909H21.7493V0.75C21.7493 0.335786 21.4135 0 20.9993 0C20.5851 0 20.2493 0.335786 20.2493 0.75V1.48909H14.7493V0.75C14.7493 0.335786 14.4135 0 13.9993 0C13.5851 0 13.2493 0.335786 13.2493 0.75V1.48909H7.64383V0.75ZM7.7868 10.919C7.7868 11.5418 7.30211 12.0467 6.70422 12.0467C6.10632 12.0467 5.62163 11.5418 5.62163 10.919C5.62163 10.2962 6.10632 9.79129 6.70422 9.79129C7.30211 9.79129 7.7868 10.2962 7.7868 10.919ZM11.2721 12.0467C11.87 12.0467 12.3547 11.5418 12.3547 10.919C12.3547 10.2962 11.87 9.79129 11.2721 9.79129C10.6742 9.79129 10.1895 10.2962 10.1895 10.919C10.1895 11.5418 10.6742 12.0467 11.2721 12.0467ZM16.9225 10.919C16.9225 11.5418 16.4378 12.0467 15.8399 12.0467C15.242 12.0467 14.7573 11.5418 14.7573 10.919C14.7573 10.2962 15.242 9.79129 15.8399 9.79129C16.4378 9.79129 16.9225 10.2962 16.9225 10.919ZM20.4074 12.0467C21.0053 12.0467 21.49 11.5418 21.49 10.919C21.49 10.2962 21.0053 9.79129 20.4074 9.79129C19.8095 9.79129 19.3248 10.2962 19.3248 10.919C19.3248 11.5418 19.8095 12.0467 20.4074 12.0467ZM7.7868 15.6553C7.7868 16.2781 7.30211 16.7829 6.70422 16.7829C6.10632 16.7829 5.62163 16.2781 5.62163 15.6553C5.62163 15.0325 6.10632 14.5276 6.70422 14.5276C7.30211 14.5276 7.7868 15.0325 7.7868 15.6553ZM11.2721 16.7829C11.87 16.7829 12.3547 16.2781 12.3547 15.6553C12.3547 15.0325 11.87 14.5276 11.2721 14.5276C10.6742 14.5276 10.1895 15.0325 10.1895 15.6553C10.1895 16.2781 10.6742 16.7829 11.2721 16.7829ZM7.7868 20.3911C7.7868 21.0139 7.30211 21.5188 6.70422 21.5188C6.10632 21.5188 5.62163 21.0139 5.62163 20.3911C5.62163 19.7683 6.10632 19.2634 6.70422 19.2634C7.30211 19.2634 7.7868 19.7683 7.7868 20.3911ZM11.2721 21.5188C11.87 21.5188 12.3547 21.0139 12.3547 20.3911C12.3547 19.7683 11.87 19.2634 11.2721 19.2634C10.6742 19.2634 10.1895 19.7683 10.1895 20.3911C10.1895 21.0139 10.6742 21.5188 11.2721 21.5188ZM16.5897 21.0771C16.5897 18.4033 18.663 16.2885 21.1568 16.2885C23.6505 16.2885 25.7238 18.4033 25.7238 21.0771C25.7238 23.7509 23.6505 25.8657 21.1568 25.8657C18.663 25.8657 16.5897 23.7509 16.5897 21.0771ZM21.1568 14.7885C17.7774 14.7885 15.0897 17.6332 15.0897 21.0771C15.0897 24.5211 17.7774 27.3657 21.1568 27.3657C24.5361 27.3657 27.2238 24.5211 27.2238 21.0771C27.2238 17.6332 24.5361 14.7885 21.1568 14.7885ZM21.2429 17.4949C21.5143 17.4956 21.7744 17.6082 21.9663 17.808C22.1583 18.0078 22.2665 18.2786 22.2674 18.5613V19.8425H22.8457C23.1175 19.8434 23.3779 19.9565 23.5698 20.1571C23.7617 20.3576 23.8694 20.6292 23.8694 20.9123C23.8687 21.195 23.7606 21.4658 23.5688 21.6656C23.377 21.8654 23.117 21.978 22.8457 21.9788H21.2429C20.9716 21.978 20.7116 21.8654 20.5198 21.6656C20.328 21.4658 20.2199 21.195 20.2192 20.9123V18.5613C20.2199 18.2787 20.328 18.0078 20.5198 17.808C20.7116 17.6082 20.9716 17.4956 21.2429 17.4949Z" fill="#E9CC58"/>
</svg>
