<svg width="68" height="68" viewBox="0 0 68 68" fill="none" xmlns="http://www.w3.org/2000/svg">
<mask id="path-1-inside-1_31:1144" fill="white">
<path fill-rule="evenodd" clip-rule="evenodd" d="M16.5488 61.7724C16.5488 58.3385 20.9139 58.5014 20.9139 61.6401C20.9139 64.4696 16.5488 64.242 16.5488 61.7724ZM4.5687 63.7628H12.8773C12.1331 61.8509 12.3436 59.5641 13.8239 57.5925C15.2859 55.6452 16.6811 55.9652 16.6811 55.2909V46.8253C15.9571 46.8415 13.6682 47.4554 13.0691 47.7107C11.9495 48.1879 11.1573 48.7041 10.3647 49.5036C8.3797 51.5057 8.2366 52.6503 7.3395 55.3408C6.5798 57.6191 5.88289 59.7088 5.12319 61.987C5.01059 62.3247 4.8025 63.0205 4.5687 63.7628ZM24.5806 63.7628H40.0938V59.1269C40.0938 56.8498 41.0478 55.1377 42.1163 53.8743C44.1434 51.4776 46.443 51.6247 46.443 50.9259C46.443 45.0657 46.8187 45.9514 45.2794 45.608C44.8694 45.5165 44.3636 45.4022 43.8735 45.2943C40.3608 44.5208 41.1701 44.3147 40.1188 46.0566L35.9515 53.0005C35.4163 53.8976 34.981 55.0264 33.6123 55.0264C32.2109 55.0264 31.7596 53.8124 31.224 52.9173C30.6806 52.0093 30.1613 51.1447 29.5868 50.1895C29.2198 49.5791 26.4782 45.2369 26.3372 44.7089C25.7204 44.7089 24.1074 45.1278 23.3512 45.2943C22.3163 45.5222 20.7816 45.6572 20.7816 46.164V55.2909C20.7816 55.7395 21.1064 55.6685 21.5287 55.8666C24.2967 57.1648 25.8056 60.6485 24.5806 63.7628ZM44.3794 63.7628H52.6071C52.6674 63.7591 52.7287 63.7565 52.7922 63.7565V58.8624C52.7922 55.865 48.3692 53.5112 45.4811 56.1809C44.9393 56.6817 44.1943 57.8769 44.1943 58.8624V63.7565C44.2578 63.7565 44.3191 63.7591 44.3794 63.7628ZM56.8927 63.7628H62.7027C61.636 60.7025 60.072 55.8987 59.8527 55.241C58.9279 52.4677 58.8176 51.4839 56.7941 49.4372C55.3301 47.9563 52.4158 46.867 50.5435 46.8253C50.5435 52.0538 50.2113 51.0505 51.7179 51.6033C54.5375 52.6379 56.8927 55.9246 56.8927 59.3915V63.7628ZM67.3071 64.9468C67.4147 65.1902 67.4747 65.459 67.4747 65.7411C67.4747 66.8291 66.5845 67.7193 65.4965 67.7193H54.9523L54.9012 67.7248H52.5277C52.4829 67.7248 52.439 67.7225 52.3957 67.7193H44.5909C44.5475 67.7225 44.5037 67.7248 44.4589 67.7248H42.2355L42.1772 67.7193H19.1086C19.073 67.7214 19.0374 67.7233 19.0018 67.7248H18.4364C18.4007 67.7233 18.3651 67.7214 18.3295 67.7193H1.9782C0.890198 67.7193 0 66.8291 0 65.7411C0 65.6779 0.00310879 65.6154 0.00900879 65.5537C0.00310879 65.4993 0 65.4439 0 65.3875C0 64.0333 0.74561 62.2912 1.25481 60.7641C2.04151 58.4048 3.6196 53.3386 4.4166 51.3597C5.0086 49.8897 5.6531 48.6084 6.727 47.4533L8.3157 45.8673C10.108 44.2575 12.514 43.5806 14.8809 43.041C18.3514 42.2498 21.74 41.5343 25.1467 40.7407V35.7142C23.5953 34.8933 22.2206 33.6636 21.0779 32.3756C15.892 26.5303 16.6811 20.9883 16.6811 13.2275C16.6811 5.598 25.8386 0 32.6864 0H34.5383C38.7692 0 42.9238 2.00139 45.2945 3.92629C47.8236 5.97979 50.5435 8.723 50.5435 13.2275V20.7672C50.5435 26.7662 47.2515 32.9767 42.0779 35.7142V40.7407C45.4846 41.5343 48.8732 42.2498 52.3437 43.041C54.295 43.4859 55.5755 43.7389 57.0829 44.651C57.7003 45.0246 58.4907 45.475 58.9764 45.9322C59.1548 46.1001 59.1972 46.1638 59.3867 46.3155C60.9684 47.5818 62.0969 49.5773 62.8465 51.4535C63.3778 52.783 67.1258 63.8601 67.3071 64.9468ZM29.2473 37.4338C32.4018 38.1687 34.8228 38.1687 37.9774 37.4338C37.9774 38.6985 38.0178 40.0239 37.9872 41.2796C37.9641 42.2277 35.697 45.5778 35.1923 46.4211C34.947 46.8309 34.7183 47.2076 34.4478 47.6608C34.2148 48.0509 33.8536 48.5333 33.7446 48.9417H33.4801C33.1792 47.8151 29.2997 42.4505 29.2394 41.4099C29.1689 40.193 29.2473 38.6845 29.2473 37.4338ZM20.7816 20.6349C22.8385 20.4637 24.4684 17.9157 25.5436 17.1957C26.1359 17.3337 27.639 17.9067 29.2208 18.2804C32.8776 19.1444 36.2563 18.8119 39.8016 17.8295C40.4515 17.6494 41.0219 17.3493 41.6811 17.1957C42.7562 17.9157 44.3861 20.4637 46.443 20.6349C46.443 26.268 43.8412 30.3223 38.9932 32.7618C34.1163 35.2157 28.3326 33.9336 24.4523 30.0595C21.886 27.4974 20.7816 24.5548 20.7816 20.6349ZM20.7816 16.1375C20.7816 13.9083 20.5361 12.0141 21.3518 10.4908C23.4517 6.5692 28.8975 3.9682 33.6123 3.9682C38.2971 3.9682 43.65 6.5062 45.8263 10.4051C46.6826 11.9391 46.443 13.8592 46.443 16.1375C45.3521 15.407 43.6403 12.6984 42.2102 12.6984C41.0481 12.6984 34.6825 16.7661 26.9947 13.3637C24.6856 12.3418 24.5815 12.4036 22.7988 14.1865C22.2381 14.7472 21.3674 15.7452 20.7816 16.1375Z"/>
</mask>
<path fill-rule="evenodd" clip-rule="evenodd" d="M16.5488 61.7724C16.5488 58.3385 20.9139 58.5014 20.9139 61.6401C20.9139 64.4696 16.5488 64.242 16.5488 61.7724ZM4.5687 63.7628H12.8773C12.1331 61.8509 12.3436 59.5641 13.8239 57.5925C15.2859 55.6452 16.6811 55.9652 16.6811 55.2909V46.8253C15.9571 46.8415 13.6682 47.4554 13.0691 47.7107C11.9495 48.1879 11.1573 48.7041 10.3647 49.5036C8.3797 51.5057 8.2366 52.6503 7.3395 55.3408C6.5798 57.6191 5.88289 59.7088 5.12319 61.987C5.01059 62.3247 4.8025 63.0205 4.5687 63.7628ZM24.5806 63.7628H40.0938V59.1269C40.0938 56.8498 41.0478 55.1377 42.1163 53.8743C44.1434 51.4776 46.443 51.6247 46.443 50.9259C46.443 45.0657 46.8187 45.9514 45.2794 45.608C44.8694 45.5165 44.3636 45.4022 43.8735 45.2943C40.3608 44.5208 41.1701 44.3147 40.1188 46.0566L35.9515 53.0005C35.4163 53.8976 34.981 55.0264 33.6123 55.0264C32.2109 55.0264 31.7596 53.8124 31.224 52.9173C30.6806 52.0093 30.1613 51.1447 29.5868 50.1895C29.2198 49.5791 26.4782 45.2369 26.3372 44.7089C25.7204 44.7089 24.1074 45.1278 23.3512 45.2943C22.3163 45.5222 20.7816 45.6572 20.7816 46.164V55.2909C20.7816 55.7395 21.1064 55.6685 21.5287 55.8666C24.2967 57.1648 25.8056 60.6485 24.5806 63.7628ZM44.3794 63.7628H52.6071C52.6674 63.7591 52.7287 63.7565 52.7922 63.7565V58.8624C52.7922 55.865 48.3692 53.5112 45.4811 56.1809C44.9393 56.6817 44.1943 57.8769 44.1943 58.8624V63.7565C44.2578 63.7565 44.3191 63.7591 44.3794 63.7628ZM56.8927 63.7628H62.7027C61.636 60.7025 60.072 55.8987 59.8527 55.241C58.9279 52.4677 58.8176 51.4839 56.7941 49.4372C55.3301 47.9563 52.4158 46.867 50.5435 46.8253C50.5435 52.0538 50.2113 51.0505 51.7179 51.6033C54.5375 52.6379 56.8927 55.9246 56.8927 59.3915V63.7628ZM67.3071 64.9468C67.4147 65.1902 67.4747 65.459 67.4747 65.7411C67.4747 66.8291 66.5845 67.7193 65.4965 67.7193H54.9523L54.9012 67.7248H52.5277C52.4829 67.7248 52.439 67.7225 52.3957 67.7193H44.5909C44.5475 67.7225 44.5037 67.7248 44.4589 67.7248H42.2355L42.1772 67.7193H19.1086C19.073 67.7214 19.0374 67.7233 19.0018 67.7248H18.4364C18.4007 67.7233 18.3651 67.7214 18.3295 67.7193H1.9782C0.890198 67.7193 0 66.8291 0 65.7411C0 65.6779 0.00310879 65.6154 0.00900879 65.5537C0.00310879 65.4993 0 65.4439 0 65.3875C0 64.0333 0.74561 62.2912 1.25481 60.7641C2.04151 58.4048 3.6196 53.3386 4.4166 51.3597C5.0086 49.8897 5.6531 48.6084 6.727 47.4533L8.3157 45.8673C10.108 44.2575 12.514 43.5806 14.8809 43.041C18.3514 42.2498 21.74 41.5343 25.1467 40.7407V35.7142C23.5953 34.8933 22.2206 33.6636 21.0779 32.3756C15.892 26.5303 16.6811 20.9883 16.6811 13.2275C16.6811 5.598 25.8386 0 32.6864 0H34.5383C38.7692 0 42.9238 2.00139 45.2945 3.92629C47.8236 5.97979 50.5435 8.723 50.5435 13.2275V20.7672C50.5435 26.7662 47.2515 32.9767 42.0779 35.7142V40.7407C45.4846 41.5343 48.8732 42.2498 52.3437 43.041C54.295 43.4859 55.5755 43.7389 57.0829 44.651C57.7003 45.0246 58.4907 45.475 58.9764 45.9322C59.1548 46.1001 59.1972 46.1638 59.3867 46.3155C60.9684 47.5818 62.0969 49.5773 62.8465 51.4535C63.3778 52.783 67.1258 63.8601 67.3071 64.9468ZM29.2473 37.4338C32.4018 38.1687 34.8228 38.1687 37.9774 37.4338C37.9774 38.6985 38.0178 40.0239 37.9872 41.2796C37.9641 42.2277 35.697 45.5778 35.1923 46.4211C34.947 46.8309 34.7183 47.2076 34.4478 47.6608C34.2148 48.0509 33.8536 48.5333 33.7446 48.9417H33.4801C33.1792 47.8151 29.2997 42.4505 29.2394 41.4099C29.1689 40.193 29.2473 38.6845 29.2473 37.4338ZM20.7816 20.6349C22.8385 20.4637 24.4684 17.9157 25.5436 17.1957C26.1359 17.3337 27.639 17.9067 29.2208 18.2804C32.8776 19.1444 36.2563 18.8119 39.8016 17.8295C40.4515 17.6494 41.0219 17.3493 41.6811 17.1957C42.7562 17.9157 44.3861 20.4637 46.443 20.6349C46.443 26.268 43.8412 30.3223 38.9932 32.7618C34.1163 35.2157 28.3326 33.9336 24.4523 30.0595C21.886 27.4974 20.7816 24.5548 20.7816 20.6349ZM20.7816 16.1375C20.7816 13.9083 20.5361 12.0141 21.3518 10.4908C23.4517 6.5692 28.8975 3.9682 33.6123 3.9682C38.2971 3.9682 43.65 6.5062 45.8263 10.4051C46.6826 11.9391 46.443 13.8592 46.443 16.1375C45.3521 15.407 43.6403 12.6984 42.2102 12.6984C41.0481 12.6984 34.6825 16.7661 26.9947 13.3637C24.6856 12.3418 24.5815 12.4036 22.7988 14.1865C22.2381 14.7472 21.3674 15.7452 20.7816 16.1375Z" fill="#E9CC58" stroke="#171B29" stroke-width="2.6" mask="url(#path-1-inside-1_31:1144)"/>
</svg>
