<svg width="68" height="65" viewBox="0 0 68 65" fill="none" xmlns="http://www.w3.org/2000/svg">
<mask id="path-1-inside-1_31:1133" fill="white">
<path fill-rule="evenodd" clip-rule="evenodd" d="M33.6574 18.5764C33.5391 18.5749 33.4217 18.5554 33.3093 18.5184L19.73 14.1977V20.7322C24.1298 22.6519 28.8807 23.6442 33.6859 23.6442C38.47 23.6442 43.2005 22.6605 47.5841 20.7573V14.198L34.0056 18.5184C33.8932 18.5554 33.7758 18.5749 33.6574 18.5764ZM47.5841 23.2747C43.1668 25.0706 38.4367 25.992 33.6568 25.9811C28.8726 26.0267 24.1354 25.1013 19.73 23.2683V29.0219C19.73 32.7156 21.1973 36.258 23.8091 38.8698C26.421 41.4816 29.9634 42.9489 33.657 42.9489C37.3507 42.9489 40.8931 41.4816 43.5049 38.8698C46.1168 36.258 47.5841 32.7156 47.5841 29.0219V23.2747ZM17.4088 21.575V29.0219C17.4088 33.3312 19.1207 37.464 22.1678 40.5111C22.3385 40.6818 22.5126 40.8483 22.69 41.0106H21.3897C15.7207 41.0167 10.2855 43.2707 6.27581 47.2781C2.26615 51.2856 0.00927558 56.7196 6.10353e-05 62.3886C5.42152e-05 63.0792 0.273581 63.7416 0.760791 64.231C1.248 64.7204 1.90922 64.9969 2.59978 64.9999H64.7144C65.4049 64.9969 66.0662 64.7204 66.5534 64.231C67.0406 63.7416 67.3141 63.0792 67.3141 62.3886C67.3049 56.7196 65.048 51.2856 61.0384 47.2781C57.0287 43.2707 51.5935 41.0167 45.9245 41.0106H44.6241C44.8016 40.8482 44.9757 40.6816 45.1463 40.5111C46.655 39.0023 47.8519 37.2111 48.6684 35.2398C49.485 33.2685 49.9053 31.1556 49.9053 29.0219V13.4594L58.0299 10.8743V26.8182C56.9238 27.0442 55.8985 27.5901 55.0883 28.4004C54 29.4886 53.3886 30.9646 53.3886 32.5037V35.9854C53.3886 36.2932 53.5109 36.5884 53.7286 36.8061C53.9462 37.0237 54.2414 37.146 54.5492 37.146H63.8339C64.1417 37.146 64.4369 37.0237 64.6546 36.8061C64.8722 36.5884 64.9945 36.2932 64.9945 35.9854V32.5037C64.9945 30.9646 64.3831 29.4886 63.2949 28.4004C62.4841 27.5896 61.4581 27.0435 60.3511 26.8177V9.37958C60.3536 9.34851 60.3549 9.31727 60.3549 9.28593C60.3549 9.03825 60.2756 8.79707 60.1288 8.59765C59.9819 8.39823 59.7751 8.25103 59.5385 8.17756L34.0056 0.0534576C33.779 -0.0178192 33.5359 -0.0178192 33.3093 0.0534576L7.77635 8.17756C7.53982 8.25103 7.33299 8.39823 7.18611 8.59765C7.03923 8.79707 6.95999 9.03825 6.95999 9.28593C6.95999 9.5336 7.03923 9.77478 7.18611 9.9742C7.33299 10.1736 7.53982 10.3208 7.77635 10.3943L17.4088 13.4592V21.3832C17.4035 21.4471 17.4035 21.5113 17.4088 21.575ZM11.9545 9.29173L33.6574 16.1972L55.3604 9.29173L33.6574 2.37463L11.9545 9.29173ZM25.8964 43.297C28.2571 44.5803 30.9215 45.2701 33.657 45.2701C35.7908 45.2701 37.9036 44.8498 39.875 44.0333C40.3868 43.8213 40.8865 43.5836 41.3722 43.3216C41.4229 43.3283 41.4742 43.3318 41.5259 43.3318H43.7343L33.6692 54.0093L23.8138 43.3318H25.6142C25.7101 43.3318 25.8048 43.3199 25.8964 43.297ZM20.6746 43.346L32.4969 56.1745V62.6788H2.59978C2.52485 62.6758 2.454 62.6439 2.40207 62.5898C2.35015 62.5357 2.32117 62.4636 2.32123 62.3886C2.33045 57.3352 4.34277 52.4917 7.91713 48.9195C11.3225 45.5161 15.8811 43.5314 20.6746 43.346ZM34.8181 56.1769L46.892 43.3575C51.5929 43.6015 56.0515 45.5759 59.397 48.9195C62.9714 52.4917 64.9837 57.3352 64.9929 62.3886C64.993 62.4636 64.964 62.5357 64.9121 62.5898C64.8602 62.6439 64.7893 62.6758 64.7144 62.6788H34.8181V56.1769ZM62.6733 34.8248H55.7098V32.5037C55.7098 31.5802 56.0766 30.6946 56.7296 30.0417C57.3825 29.3887 58.2682 29.0219 59.1916 29.0219C60.115 29.0219 61.0006 29.3887 61.6535 30.0417C62.3065 30.6946 62.6733 31.5802 62.6733 32.5037V34.8248Z"/>
</mask>
<path fill-rule="evenodd" clip-rule="evenodd" d="M33.6574 18.5764C33.5391 18.5749 33.4217 18.5554 33.3093 18.5184L19.73 14.1977V20.7322C24.1298 22.6519 28.8807 23.6442 33.6859 23.6442C38.47 23.6442 43.2005 22.6605 47.5841 20.7573V14.198L34.0056 18.5184C33.8932 18.5554 33.7758 18.5749 33.6574 18.5764ZM47.5841 23.2747C43.1668 25.0706 38.4367 25.992 33.6568 25.9811C28.8726 26.0267 24.1354 25.1013 19.73 23.2683V29.0219C19.73 32.7156 21.1973 36.258 23.8091 38.8698C26.421 41.4816 29.9634 42.9489 33.657 42.9489C37.3507 42.9489 40.8931 41.4816 43.5049 38.8698C46.1168 36.258 47.5841 32.7156 47.5841 29.0219V23.2747ZM17.4088 21.575V29.0219C17.4088 33.3312 19.1207 37.464 22.1678 40.5111C22.3385 40.6818 22.5126 40.8483 22.69 41.0106H21.3897C15.7207 41.0167 10.2855 43.2707 6.27581 47.2781C2.26615 51.2856 0.00927558 56.7196 6.10353e-05 62.3886C5.42152e-05 63.0792 0.273581 63.7416 0.760791 64.231C1.248 64.7204 1.90922 64.9969 2.59978 64.9999H64.7144C65.4049 64.9969 66.0662 64.7204 66.5534 64.231C67.0406 63.7416 67.3141 63.0792 67.3141 62.3886C67.3049 56.7196 65.048 51.2856 61.0384 47.2781C57.0287 43.2707 51.5935 41.0167 45.9245 41.0106H44.6241C44.8016 40.8482 44.9757 40.6816 45.1463 40.5111C46.655 39.0023 47.8519 37.2111 48.6684 35.2398C49.485 33.2685 49.9053 31.1556 49.9053 29.0219V13.4594L58.0299 10.8743V26.8182C56.9238 27.0442 55.8985 27.5901 55.0883 28.4004C54 29.4886 53.3886 30.9646 53.3886 32.5037V35.9854C53.3886 36.2932 53.5109 36.5884 53.7286 36.8061C53.9462 37.0237 54.2414 37.146 54.5492 37.146H63.8339C64.1417 37.146 64.4369 37.0237 64.6546 36.8061C64.8722 36.5884 64.9945 36.2932 64.9945 35.9854V32.5037C64.9945 30.9646 64.3831 29.4886 63.2949 28.4004C62.4841 27.5896 61.4581 27.0435 60.3511 26.8177V9.37958C60.3536 9.34851 60.3549 9.31727 60.3549 9.28593C60.3549 9.03825 60.2756 8.79707 60.1288 8.59765C59.9819 8.39823 59.7751 8.25103 59.5385 8.17756L34.0056 0.0534576C33.779 -0.0178192 33.5359 -0.0178192 33.3093 0.0534576L7.77635 8.17756C7.53982 8.25103 7.33299 8.39823 7.18611 8.59765C7.03923 8.79707 6.95999 9.03825 6.95999 9.28593C6.95999 9.5336 7.03923 9.77478 7.18611 9.9742C7.33299 10.1736 7.53982 10.3208 7.77635 10.3943L17.4088 13.4592V21.3832C17.4035 21.4471 17.4035 21.5113 17.4088 21.575ZM11.9545 9.29173L33.6574 16.1972L55.3604 9.29173L33.6574 2.37463L11.9545 9.29173ZM25.8964 43.297C28.2571 44.5803 30.9215 45.2701 33.657 45.2701C35.7908 45.2701 37.9036 44.8498 39.875 44.0333C40.3868 43.8213 40.8865 43.5836 41.3722 43.3216C41.4229 43.3283 41.4742 43.3318 41.5259 43.3318H43.7343L33.6692 54.0093L23.8138 43.3318H25.6142C25.7101 43.3318 25.8048 43.3199 25.8964 43.297ZM20.6746 43.346L32.4969 56.1745V62.6788H2.59978C2.52485 62.6758 2.454 62.6439 2.40207 62.5898C2.35015 62.5357 2.32117 62.4636 2.32123 62.3886C2.33045 57.3352 4.34277 52.4917 7.91713 48.9195C11.3225 45.5161 15.8811 43.5314 20.6746 43.346ZM34.8181 56.1769L46.892 43.3575C51.5929 43.6015 56.0515 45.5759 59.397 48.9195C62.9714 52.4917 64.9837 57.3352 64.9929 62.3886C64.993 62.4636 64.964 62.5357 64.9121 62.5898C64.8602 62.6439 64.7893 62.6758 64.7144 62.6788H34.8181V56.1769ZM62.6733 34.8248H55.7098V32.5037C55.7098 31.5802 56.0766 30.6946 56.7296 30.0417C57.3825 29.3887 58.2682 29.0219 59.1916 29.0219C60.115 29.0219 61.0006 29.3887 61.6535 30.0417C62.3065 30.6946 62.6733 31.5802 62.6733 32.5037V34.8248Z" fill="#E9CC58"/>
<path d="M33.3093 18.5184L33.403 18.2334L33.4002 18.2325L33.3093 18.5184ZM33.6574 18.5764L33.6537 18.8765L33.6612 18.8764L33.6574 18.5764ZM19.73 14.1977L19.821 13.9118L19.43 13.7874V14.1977H19.73ZM19.73 20.7322H19.43V20.9286L19.61 21.0072L19.73 20.7322ZM47.5841 20.7573L47.7036 21.0325L47.8841 20.9541V20.7573H47.5841ZM47.5841 14.198H47.8841V13.7877L47.4931 13.9121L47.5841 14.198ZM34.0056 18.5184L33.9146 18.2325L33.9119 18.2334L34.0056 18.5184ZM47.5841 23.2747H47.8841V22.8289L47.4711 22.9968L47.5841 23.2747ZM33.6568 25.9811L33.6575 25.681L33.654 25.6811L33.6568 25.9811ZM19.73 23.2683L19.8452 22.9913L19.43 22.8186V23.2683H19.73ZM17.4088 21.575H17.7088V21.5626L17.7078 21.5502L17.4088 21.575ZM22.1678 40.5111L21.9557 40.7233L22.1678 40.5111ZM22.69 41.0106V41.3106H23.4624L22.8925 40.7892L22.69 41.0106ZM21.3897 41.0106V40.7106H21.3894L21.3897 41.0106ZM6.27581 47.2781L6.48789 47.4903L6.27581 47.2781ZM6.10353e-05 62.3886L-0.299939 62.3881V62.3886L6.10353e-05 62.3886ZM0.760791 64.231L0.973395 64.0193H0.973394L0.760791 64.231ZM2.59978 64.9999L2.59844 65.2999H2.59978V64.9999ZM64.7144 64.9999V65.2999L64.7157 65.2999L64.7144 64.9999ZM66.5534 64.231L66.766 64.4427L66.766 64.4427L66.5534 64.231ZM67.3141 62.3886L67.6141 62.3886V62.3881L67.3141 62.3886ZM45.9245 41.0106L45.9248 40.7106H45.9245V41.0106ZM44.6241 41.0106L44.4216 40.7892L43.8516 41.3106H44.6241V41.0106ZM45.1463 40.5111L44.9341 40.299L45.1463 40.5111ZM48.6684 35.2398L48.9456 35.3546V35.3546L48.6684 35.2398ZM49.9053 13.4594L49.8143 13.1735L49.6053 13.2401V13.4594H49.9053ZM58.0299 10.8743H58.3299V10.464L57.939 10.5884L58.0299 10.8743ZM58.0299 26.8182L58.09 27.1121L58.3299 27.0631V26.8182H58.0299ZM63.2949 28.4004L63.0827 28.6125L63.2949 28.4004ZM60.3511 26.8177H60.0511V27.0627L60.2911 27.1117L60.3511 26.8177ZM60.3511 9.37958L60.0521 9.35538L60.0511 9.36746V9.37958H60.3511ZM59.5385 8.17756L59.4476 8.46345L59.4495 8.46406L59.5385 8.17756ZM34.0056 0.0534576L34.0966 -0.232422L34.0956 -0.232724L34.0056 0.0534576ZM33.3093 0.0534576L33.2193 -0.232726L33.2183 -0.23242L33.3093 0.0534576ZM7.77635 8.17756L7.86533 8.46407L7.86731 8.46344L7.77635 8.17756ZM7.77635 10.3943L7.86731 10.1084L7.86533 10.1078L7.77635 10.3943ZM17.4088 13.4592H17.7088V13.2398L17.4998 13.1733L17.4088 13.4592ZM17.4088 21.3832L17.7078 21.408L17.7088 21.3956V21.3832H17.4088ZM33.6574 16.1972L33.5665 16.4831L33.6574 16.512L33.7484 16.4831L33.6574 16.1972ZM11.9545 9.29173L11.8634 9.0059L10.9658 9.29197L11.8635 9.57761L11.9545 9.29173ZM55.3604 9.29173L55.4514 9.57761L56.3491 9.29197L55.4515 9.0059L55.3604 9.29173ZM33.6574 2.37463L33.7485 2.0888L33.6574 2.05976L33.5663 2.0888L33.6574 2.37463ZM25.8964 43.297L26.0396 43.0334L25.9369 42.9775L25.8234 43.006L25.8964 43.297ZM39.875 44.0333L39.9898 44.3105H39.9898L39.875 44.0333ZM41.3722 43.3216L41.4119 43.0242L41.3155 43.0113L41.2298 43.0575L41.3722 43.3216ZM43.7343 43.3318L43.9526 43.5376L44.4294 43.0318H43.7343V43.3318ZM33.6692 54.0093L33.4488 54.2127L33.6669 54.4491L33.8875 54.215L33.6692 54.0093ZM23.8138 43.3318V43.0318H23.1287L23.5934 43.5352L23.8138 43.3318ZM32.4969 56.1745H32.7969V56.0574L32.7175 55.9712L32.4969 56.1745ZM20.6746 43.346L20.8952 43.1427L20.8013 43.0409L20.663 43.0462L20.6746 43.346ZM32.4969 62.6788V62.9788H32.7969V62.6788H32.4969ZM2.59978 62.6788L2.58775 62.9788H2.59978V62.6788ZM2.40207 62.5898L2.61849 62.382H2.61849L2.40207 62.5898ZM2.32123 62.3886L2.02124 62.3881L2.02123 62.3884L2.32123 62.3886ZM7.91713 48.9195L8.1292 49.1317L7.91713 48.9195ZM46.892 43.3575L46.9076 43.0579L46.7688 43.0507L46.6736 43.1518L46.892 43.3575ZM34.8181 56.1769L34.5997 55.9712L34.5181 56.0579V56.1769H34.8181ZM59.397 48.9195L59.6091 48.7073L59.397 48.9195ZM64.9929 62.3886L65.2929 62.3884V62.3881L64.9929 62.3886ZM64.7144 62.6788V62.979L64.7264 62.9785L64.7144 62.6788ZM34.8181 62.6788H34.5181V62.9788H34.8181V62.6788ZM55.7098 34.8248H55.4098V35.1248H55.7098V34.8248ZM62.6733 34.8248V35.1248H62.9733V34.8248H62.6733ZM56.7296 30.0417L56.5175 29.8296L56.7296 30.0417ZM61.6535 30.0417L61.4414 30.2538L61.6535 30.0417ZM33.2155 18.8034C33.357 18.8499 33.5048 18.8745 33.6537 18.8764L33.6612 18.2764C33.5734 18.2754 33.4864 18.2608 33.403 18.2334L33.2155 18.8034ZM19.639 14.4836L33.2183 18.8043L33.4002 18.2325L19.821 13.9118L19.639 14.4836ZM20.03 20.7322V14.1977H19.43V20.7322H20.03ZM19.61 21.0072C24.0476 22.9433 28.8394 23.9442 33.6859 23.9442V23.3442C28.922 23.3442 24.2119 22.3604 19.85 20.4573L19.61 21.0072ZM33.6859 23.9442C38.5112 23.9442 43.2822 22.9521 47.7036 21.0325L47.4646 20.4821C43.1187 22.369 38.4289 23.3442 33.6859 23.3442V23.9442ZM47.2841 14.198V20.7573H47.8841V14.198H47.2841ZM34.0966 18.8043L47.675 14.4838L47.4931 13.9121L33.9146 18.2325L34.0966 18.8043ZM33.6612 18.8764C33.8101 18.8745 33.9579 18.8499 34.0994 18.8034L33.9119 18.2334C33.8285 18.2608 33.7414 18.2754 33.6537 18.2764L33.6612 18.8764ZM47.4711 22.9968C43.0899 24.778 38.3983 25.6919 33.6575 25.6811L33.6562 26.2811C38.475 26.2921 43.2438 25.3632 47.6971 23.5526L47.4711 22.9968ZM33.654 25.6811C28.9103 25.7263 24.2133 24.8088 19.8452 22.9913L19.6147 23.5453C24.0575 25.3939 28.8348 26.3271 33.6597 26.281L33.654 25.6811ZM20.03 29.0219V23.2683H19.43V29.0219H20.03ZM24.0213 38.6577C21.4657 36.1021 20.03 32.636 20.03 29.0219H19.43C19.43 32.7951 20.9289 36.4138 23.597 39.0819L24.0213 38.6577ZM33.657 42.6489C30.0429 42.6489 26.5768 41.2132 24.0213 38.6577L23.597 39.0819C26.2651 41.75 29.8838 43.2489 33.657 43.2489V42.6489ZM43.2928 38.6577C40.7372 41.2132 37.2712 42.6489 33.657 42.6489V43.2489C37.4303 43.2489 41.049 41.75 43.7171 39.0819L43.2928 38.6577ZM47.2841 29.0219C47.2841 32.636 45.8484 36.1021 43.2928 38.6577L43.7171 39.0819C46.3852 36.4138 47.8841 32.7951 47.8841 29.0219H47.2841ZM47.2841 23.2747V29.0219H47.8841V23.2747H47.2841ZM17.7088 29.0219V21.575H17.1088V29.0219H17.7088ZM22.3799 40.299C19.3891 37.3081 17.7088 33.2516 17.7088 29.0219H17.1088C17.1088 33.4108 18.8523 37.6199 21.9557 40.7233L22.3799 40.299ZM22.8925 40.7892C22.7184 40.63 22.5475 40.4665 22.3799 40.299L21.9557 40.7233C22.1295 40.8971 22.3069 41.0667 22.4875 41.2319L22.8925 40.7892ZM21.3897 41.3106H22.69V40.7106H21.3897V41.3106ZM6.48789 47.4903C10.4414 43.539 15.8004 41.3167 21.39 41.3106L21.3894 40.7106C15.6409 40.7168 10.1296 43.0023 6.06374 47.066L6.48789 47.4903ZM0.300061 62.3891C0.309146 56.7995 2.5344 51.4417 6.48789 47.4903L6.06374 47.066C1.9979 51.1296 -0.290595 56.6397 -0.299939 62.3881L0.300061 62.3891ZM0.973394 64.0193C0.542158 63.5862 0.300055 62.9998 0.300061 62.3886L-0.299939 62.3886C-0.299947 63.1585 0.00500273 63.8971 0.548187 64.4427L0.973394 64.0193ZM2.60111 64.6999C1.98989 64.6972 1.40463 64.4525 0.973395 64.0193L0.548186 64.4427C1.09137 64.9883 1.82856 65.2965 2.59844 65.2999L2.60111 64.6999ZM64.7144 64.6999H2.59978V65.2999H64.7144V64.6999ZM66.3408 64.0193C65.9095 64.4525 65.3243 64.6972 64.7131 64.6999L64.7157 65.2999C65.4856 65.2965 66.2228 64.9883 66.766 64.4427L66.3408 64.0193ZM67.0141 62.3886C67.0141 62.9998 66.772 63.5862 66.3408 64.0193L66.766 64.4427C67.3092 63.8971 67.6141 63.1585 67.6141 62.3886L67.0141 62.3886ZM60.8263 47.4903C64.7798 51.4417 67.005 56.7995 67.0141 62.3891L67.6141 62.3881C67.6048 56.6397 65.3163 51.1296 61.2504 47.066L60.8263 47.4903ZM45.9242 41.3106C51.5137 41.3167 56.8728 43.539 60.8263 47.4903L61.2504 47.066C57.1846 43.0023 51.6732 40.7168 45.9248 40.7106L45.9242 41.3106ZM44.6241 41.3106H45.9245V40.7106H44.6241V41.3106ZM44.9341 40.299C44.7668 40.4664 44.5959 40.6298 44.4216 40.7892L44.8265 41.232C45.0074 41.0665 45.1847 40.8969 45.3584 40.7233L44.9341 40.299ZM48.3913 35.125C47.5898 37.0599 46.4151 38.8181 44.9341 40.299L45.3584 40.7233C46.895 39.1866 48.114 37.3623 48.9456 35.3546L48.3913 35.125ZM49.6053 29.0219C49.6053 31.1162 49.1927 33.1901 48.3913 35.125L48.9456 35.3546C49.7772 33.3469 50.2053 31.195 50.2053 29.0219H49.6053ZM49.6053 13.4594V29.0219H50.2053V13.4594H49.6053ZM57.939 10.5884L49.8143 13.1735L49.9962 13.7453L58.1209 11.1602L57.939 10.5884ZM58.3299 26.8182V10.8743H57.7299V26.8182H58.3299ZM55.3004 28.6125C56.0688 27.8441 57.041 27.3264 58.09 27.1121L57.9699 26.5242C56.8065 26.762 55.7283 27.3361 54.8761 28.1882L55.3004 28.6125ZM53.6886 32.5037C53.6886 31.0442 54.2684 29.6445 55.3004 28.6125L54.8761 28.1882C53.7316 29.3328 53.0886 30.8851 53.0886 32.5037H53.6886ZM53.6886 35.9854V32.5037H53.0886V35.9854H53.6886ZM53.9407 36.594C53.7793 36.4326 53.6886 36.2137 53.6886 35.9854H53.0886C53.0886 36.3728 53.2425 36.7443 53.5164 37.0182L53.9407 36.594ZM54.5492 36.846C54.321 36.846 54.1021 36.7553 53.9407 36.594L53.5164 37.0182C53.7903 37.2921 54.1619 37.446 54.5492 37.446V36.846ZM63.8339 36.846H54.5492V37.446H63.8339V36.846ZM64.4424 36.594C64.2811 36.7553 64.0622 36.846 63.8339 36.846V37.446C64.2213 37.446 64.5928 37.2921 64.8667 37.0182L64.4424 36.594ZM64.6945 35.9854C64.6945 36.2137 64.6038 36.4326 64.4424 36.594L64.8667 37.0182C65.1406 36.7443 65.2945 36.3728 65.2945 35.9854H64.6945ZM64.6945 32.5037V35.9854H65.2945V32.5037H64.6945ZM63.0827 28.6125C64.1147 29.6445 64.6945 31.0442 64.6945 32.5037H65.2945C65.2945 30.8851 64.6515 29.3328 63.507 28.1882L63.0827 28.6125ZM60.2911 27.1117C61.3409 27.3258 62.3139 27.8436 63.0827 28.6125L63.507 28.1882C62.6543 27.3355 61.5752 26.7612 60.411 26.5238L60.2911 27.1117ZM60.0511 9.37958V26.8177H60.6511V9.37958H60.0511ZM60.0549 9.28593C60.0549 9.30917 60.0539 9.33234 60.0521 9.35538L60.6501 9.40378C60.6533 9.36469 60.6549 9.32538 60.6549 9.28593H60.0549ZM59.8872 8.77556C59.9961 8.92344 60.0549 9.10228 60.0549 9.28593H60.6549C60.6549 8.97423 60.5552 8.6707 60.3703 8.41974L59.8872 8.77556ZM59.4495 8.46406C59.6249 8.51854 59.7783 8.62769 59.8872 8.77556L60.3703 8.41974C60.1855 8.16877 59.9252 7.98352 59.6275 7.89106L59.4495 8.46406ZM33.9146 0.339335L59.4476 8.46344L59.6295 7.89169L34.0966 -0.23242L33.9146 0.339335ZM33.3993 0.339639C33.5673 0.286787 33.7476 0.286787 33.9156 0.339639L34.0956 -0.232724C33.8104 -0.322425 33.5045 -0.322425 33.2193 -0.232724L33.3993 0.339639ZM7.86731 8.46344L33.4002 0.339335L33.2183 -0.23242L7.68539 7.89169L7.86731 8.46344ZM7.42766 8.77556C7.53657 8.62769 7.68994 8.51854 7.86533 8.46406L7.68736 7.89106C7.38969 7.98352 7.12941 8.16877 6.94456 8.41974L7.42766 8.77556ZM7.25999 9.28593C7.25999 9.10227 7.31875 8.92344 7.42766 8.77556L6.94456 8.41974C6.75971 8.67071 6.65999 8.97423 6.65999 9.28593H7.25999ZM7.42766 9.79629C7.31875 9.64842 7.25999 9.46958 7.25999 9.28593H6.65999C6.65999 9.59762 6.75971 9.90114 6.94456 10.1521L7.42766 9.79629ZM7.86533 10.1078C7.68994 10.0533 7.53657 9.94416 7.42766 9.79629L6.94456 10.1521C7.12941 10.4031 7.3897 10.5883 7.68736 10.6808L7.86533 10.1078ZM17.4998 13.1733L7.86731 10.1084L7.68539 10.6802L17.3179 13.745L17.4998 13.1733ZM17.7088 21.3832V13.4592H17.1088V21.3832H17.7088ZM17.7078 21.5502C17.7039 21.503 17.7039 21.4554 17.7078 21.408L17.1098 21.3584C17.1032 21.4389 17.1032 21.5196 17.1098 21.5998L17.7078 21.5502ZM33.7484 15.9113L12.0454 9.00585L11.8635 9.57761L33.5665 16.4831L33.7484 15.9113ZM55.2694 9.00585L33.5665 15.9113L33.7484 16.4831L55.4514 9.57761L55.2694 9.00585ZM33.5663 2.66046L55.2693 9.57756L55.4515 9.0059L33.7485 2.0888L33.5663 2.66046ZM12.0456 9.57756L33.7485 2.66046L33.5663 2.0888L11.8634 9.0059L12.0456 9.57756ZM33.657 44.9701C30.972 44.9701 28.3568 44.293 26.0396 43.0334L25.7531 43.5605C28.1574 44.8675 30.871 45.5701 33.657 45.5701V44.9701ZM39.7602 43.7561C37.8252 44.5576 35.7514 44.9701 33.657 44.9701V45.5701C35.8302 45.5701 37.982 45.1421 39.9898 44.3105L39.7602 43.7561ZM41.2298 43.0575C40.753 43.3148 40.2625 43.548 39.7602 43.7561L39.9898 44.3105C40.511 44.0945 41.02 43.8525 41.5147 43.5856L41.2298 43.0575ZM41.5259 43.0318C41.4875 43.0318 41.4495 43.0292 41.4119 43.0242L41.3325 43.6189C41.3963 43.6274 41.4608 43.6318 41.5259 43.6318V43.0318ZM43.7343 43.0318H41.5259V43.6318H43.7343V43.0318ZM33.8875 54.215L43.9526 43.5376L43.516 43.126L33.4509 53.8035L33.8875 54.215ZM23.5934 43.5352L33.4488 54.2127L33.8897 53.8058L24.0343 43.1283L23.5934 43.5352ZM25.6142 43.0318H23.8138V43.6318H25.6142V43.0318ZM25.8234 43.006C25.7556 43.023 25.6854 43.0318 25.6142 43.0318V43.6318C25.7349 43.6318 25.8541 43.6168 25.9693 43.588L25.8234 43.006ZM32.7175 55.9712L20.8952 43.1427L20.454 43.5493L32.2763 56.3778L32.7175 55.9712ZM32.7969 62.6788V56.1745H32.1969V62.6788H32.7969ZM2.59978 62.9788H32.4969V62.3788H2.59978V62.9788ZM2.18565 62.7975C2.29128 62.9076 2.43539 62.9724 2.58776 62.9785L2.61179 62.379C2.61432 62.3791 2.61672 62.3802 2.61849 62.382L2.18565 62.7975ZM2.02123 62.3884C2.02111 62.5409 2.08004 62.6875 2.18565 62.7975L2.61849 62.382C2.62025 62.3838 2.62124 62.3863 2.62123 62.3888L2.02123 62.3884ZM7.70506 48.7073C4.07453 52.3356 2.03059 57.2553 2.02124 62.3881L2.62123 62.3891C2.6303 57.4152 4.611 52.6477 8.1292 49.1317L7.70506 48.7073ZM20.663 43.0462C15.7942 43.2345 11.164 45.2505 7.70506 48.7073L8.1292 49.1317C11.4811 45.7818 15.968 43.8282 20.6862 43.6458L20.663 43.0462ZM46.6736 43.1518L34.5997 55.9712L35.0365 56.3826L47.1104 43.5631L46.6736 43.1518ZM59.6091 48.7073C56.2109 45.3112 51.6823 43.3058 46.9076 43.0579L46.8764 43.6571C51.5034 43.8973 55.892 45.8407 59.185 49.1317L59.6091 48.7073ZM65.2929 62.3881C65.2836 57.2553 63.2396 52.3356 59.6091 48.7073L59.185 49.1317C62.7032 52.6477 64.6839 57.4152 64.6929 62.3891L65.2929 62.3881ZM65.1285 62.7975C65.2341 62.6875 65.2931 62.5409 65.2929 62.3884L64.6929 62.3888C64.6929 62.3863 64.6939 62.3838 64.6957 62.382L65.1285 62.7975ZM64.7264 62.9785C64.8788 62.9724 65.0229 62.9075 65.1285 62.7975L64.6957 62.382C64.6974 62.3802 64.6998 62.3791 64.7024 62.379L64.7264 62.9785ZM34.8181 62.9788H64.7144V62.3788H34.8181V62.9788ZM34.5181 56.1769V62.6788H35.1181V56.1769H34.5181ZM55.7098 35.1248H62.6733V34.5248H55.7098V35.1248ZM55.4098 32.5037V34.8248H56.0098V32.5037H55.4098ZM56.5175 29.8296C55.8082 30.5388 55.4098 31.5007 55.4098 32.5037H56.0098C56.0098 31.6598 56.345 30.8505 56.9417 30.2538L56.5175 29.8296ZM59.1916 28.7219C58.1886 28.7219 57.2267 29.1203 56.5175 29.8296L56.9417 30.2538C57.5384 29.6571 58.3477 29.3219 59.1916 29.3219V28.7219ZM61.8657 29.8296C61.1565 29.1203 60.1946 28.7219 59.1916 28.7219V29.3219C60.0354 29.3219 60.8447 29.6571 61.4414 30.2538L61.8657 29.8296ZM62.9733 32.5037C62.9733 31.5007 62.5749 30.5388 61.8657 29.8296L61.4414 30.2538C62.0381 30.8505 62.3733 31.6598 62.3733 32.5037H62.9733ZM62.9733 34.8248V32.5037H62.3733V34.8248H62.9733Z" fill="#171B29" mask="url(#path-1-inside-1_31:1133)"/>
</svg>
