<svg width="68" height="68" viewBox="0 0 68 68" fill="none" xmlns="http://www.w3.org/2000/svg">
<path d="M31.8062 6.04062V6.64062C31.8062 7.38329 31.7315 7.88102 31.5243 8.19564C31.3585 8.44734 31.0254 8.69688 30.1484 8.69688C29.7646 8.69688 29.5243 8.54137 29.3331 8.2396C29.1172 7.89895 28.9741 7.37558 28.8979 6.70195C28.7918 5.76429 28.8272 4.7245 28.8598 3.76662C28.8747 3.32932 28.889 2.9091 28.889 2.52346C28.889 1.81129 29.0819 1.35123 29.3185 1.06783C29.5481 0.792655 29.8534 0.641524 30.1793 0.6H30.5521C31.2308 0.682844 31.8062 1.19309 31.8062 1.99222V2.65625V3.25625H32.4062C32.5939 3.25625 32.7707 3.2555 32.9385 3.25478C33.7044 3.25153 34.283 3.24907 34.858 3.3224C35.5323 3.4084 36.2052 3.60153 37.118 4.05714L37.3635 3.56531L37.118 4.05714C39.6348 5.31339 41.6344 8.11331 41.6344 11.2891C41.6344 12.3297 41.3558 13.3033 41.0813 14.2627C41.0711 14.2982 41.061 14.3337 41.0509 14.3692C40.5942 15.9673 40.0916 17.7794 39.5672 19.6701C38.2931 24.2636 36.8904 29.3208 35.7061 32.8996C34.6658 36.043 32.5666 38.5933 29.8952 40.5167L30.2458 41.0036L29.8952 40.5167C29.7693 40.6073 29.621 40.692 29.44 40.7954C29.4004 40.818 29.3592 40.8415 29.3163 40.8662C29.1022 40.9895 28.8351 41.1479 28.6245 41.3437C28.5833 41.382 28.5657 41.3967 28.5618 41.3999L28.5531 41.4068C28.5509 41.4085 28.5383 41.4184 28.5239 41.4311C28.5074 41.4456 28.4821 41.4695 28.455 41.5023C28.427 41.5364 28.407 41.568 28.3934 41.5922C28.3852 41.6068 28.3786 41.62 28.3756 41.6261C28.3725 41.6315 28.3642 41.6451 28.3478 41.6702L28.3482 41.6704C28.3352 41.691 28.3228 41.7122 28.3197 41.718L28.3139 41.7291L28.3104 41.7363L28.3083 41.7405L28.3069 41.7435L28.305 41.7477L28.2994 41.7596L28.2804 41.8002L28.223 41.9232L28.2113 41.9482C28.1781 42.0194 28.1342 42.1135 28.1253 42.1353L31.8062 6.04062ZM31.8062 6.04062H32.4062C34.1292 6.04062 35.6502 6.14259 37.0344 7.42565C38.1862 8.49328 38.6508 9.61976 38.7127 10.7891C38.7723 11.9139 38.454 13.0428 38.1467 14.0963C38.1466 14.0968 38.1464 14.0972 38.1463 14.0977L36.2572 20.7047L36.2568 20.7063C35.3944 23.6908 34.5878 26.5091 33.752 29.485C33.6589 29.8167 33.5808 30.1046 33.5109 30.3623C33.3732 30.8702 33.2673 31.2608 33.1405 31.6379C32.942 32.2281 32.6899 32.7984 32.1913 33.7856C30.9514 36.2403 28.4074 38.4036 25.8431 39.4525C18.7416 42.3574 10.9757 38.4792 8.79483 30.7676C8.5646 29.9536 8.33449 29.1566 8.10582 28.3645C7.82012 27.375 7.53668 26.3933 7.25808 25.3958C6.25779 21.8148 5.23619 18.2483 4.18959 14.6602C4.12853 14.4509 4.0657 14.2445 4.00364 14.0407C3.77011 13.2738 3.54743 12.5424 3.47042 11.8213C3.36729 10.8559 3.5155 9.89607 4.11177 8.74992C4.53788 7.93079 5.26693 7.22551 6.0313 6.76033L6.30906 7.21674L6.03131 6.76033C7.10657 6.10598 8.49387 6.04062 9.69529 6.04062H10.2953V6.64062C10.2953 7.47551 10.5218 7.98705 10.7859 8.28259C11.0484 8.57626 11.3955 8.71125 11.7557 8.71233C12.5111 8.71459 13.2125 8.15117 13.2125 7.30471V1.99222C13.2125 1.18775 12.6336 0.679343 11.9532 0.6H11.5995C11.2275 0.644198 10.8798 0.82983 10.6404 1.18325L10.1437 0.846774L10.6404 1.18326C10.4127 1.5194 10.2953 1.97222 10.2953 2.65625V3.25625H9.69529H8.10154C7.22138 3.25625 6.21597 3.52163 5.26898 3.95562C4.33259 4.38475 3.49809 4.95824 2.93634 5.53878M31.8062 6.04062L2.93634 5.53878M2.93634 5.53878L2.01831 6.67947C1.41318 7.54839 1.0668 8.28895 0.865997 9.06402C0.661774 9.85232 0.599998 10.7064 0.599998 11.8203C0.599998 11.947 0.648018 12.271 0.762856 12.8082C0.872833 13.3226 1.03178 13.9792 1.22603 14.735C1.61429 16.2456 2.1384 18.1324 2.68026 20.0304C3.45187 22.7332 4.25195 25.4332 4.74722 27.1046C4.94935 27.7867 5.10071 28.2974 5.17865 28.5672C5.30604 29.0081 5.42528 29.432 5.54043 29.8414C6.23537 32.3121 6.78126 34.2528 8.06886 36.1931C9.12772 37.7886 10.2462 38.9802 11.7688 40.1533L13.3516 41.1962L13.3753 41.2118L13.3974 41.2296C13.531 41.337 13.6397 41.4822 13.7218 41.6052C13.8107 41.7384 13.8996 41.8942 13.9861 42.0587C14.1592 42.3881 14.3406 42.7878 14.5114 43.1867C14.7381 43.7161 14.9646 44.2897 15.1293 44.7068C15.207 44.9036 15.2709 45.0655 15.3147 45.1715C15.315 45.1724 15.3154 45.1732 15.3157 45.1741L18.5179 52.7189C18.5181 52.7192 18.5182 52.7194 18.5183 52.7197C18.8066 53.3919 19.0291 53.9075 19.3185 54.5687L2.93634 5.53878ZM59.4313 48.323L59.7717 48.4863C60.0069 48.5991 60.3608 48.704 60.6544 48.7883C60.7241 48.8083 60.7917 48.8275 60.8566 48.8459C61.0959 48.9139 61.2995 48.9717 61.4404 49.0225C61.8714 49.1777 62.3947 49.4406 62.7812 49.6642C65.1768 51.0506 67.4 54.0901 67.4 57.1094V58.4375C67.4 60.5567 66.3259 62.7362 64.6638 64.3982C63.0018 66.0603 60.8224 67.1344 58.7031 67.1344H57.375C56.2681 67.1344 55.0755 66.7679 53.9884 66.23C52.9034 65.6931 51.9704 65.0086 51.3872 64.4253C49.5404 62.5785 48.6781 60.3733 48.6781 57.375C48.6781 54.8745 49.8547 52.9743 51.0491 51.4887L50.5815 51.1128L59.4313 48.323ZM59.4313 48.323V47.9453M59.4313 48.323V47.9453M59.4313 47.9453C59.4313 47.2661 59.4432 46.6187 59.4546 45.9973M59.4313 47.9453L59.4546 45.9973M59.4546 45.9973C59.5184 42.5264 59.5672 39.8663 57.4449 36.9913M59.4546 45.9973L57.4449 36.9913M57.4449 36.9913C55.6369 34.5423 52.4606 32.475 49.2734 32.475M57.4449 36.9913L49.2734 32.475M49.2734 32.475C47.1726 32.475 45.5931 32.7406 44.222 33.335M49.2734 32.475L44.222 33.335M44.222 33.335C42.8519 33.929 41.6431 34.8716 40.3144 36.2995M44.222 33.335L40.3144 36.2995M40.3144 36.2995C38.0357 38.7486 37.7875 41.373 37.7875 45.2891M40.3144 36.2995L37.7875 45.2891M37.7875 45.2891V45.3047M37.7875 45.2891V45.3047M37.7875 45.3047V45.3202M37.7875 45.3047V45.3202M37.7875 45.3202V45.3358M37.7875 45.3202V45.3358M37.7875 45.3358V45.3513M37.7875 45.3358V45.3513M37.7875 45.3513V45.3669M37.7875 45.3513V45.3669M37.7875 45.3669V45.3825M37.7875 45.3669V45.3825M37.7875 45.3825V45.398M37.7875 45.3825V45.398M37.7875 45.398V45.4136M37.7875 45.398V45.4136M37.7875 45.4136V45.4292M37.7875 45.4136V45.4292M37.7875 45.4292V45.4447M37.7875 45.4292V45.4447M37.7875 45.4447V45.4603M37.7875 45.4447V45.4603M37.7875 45.4603V45.4759M37.7875 45.4603V45.4759M37.7875 45.4759V45.4914M37.7875 45.4759V45.4914M37.7875 45.4914V45.507M37.7875 45.4914V45.507M37.7875 45.507V45.5225M37.7875 45.507V45.5225M37.7875 45.5225V45.5381M37.7875 45.5225V45.5381M37.7875 45.5381V45.5537M37.7875 45.5381V45.5537M37.7875 45.5537V45.5692M37.7875 45.5537V45.5692M37.7875 45.5692V45.5848M37.7875 45.5692V45.5848M37.7875 45.5848V45.6004M37.7875 45.5848V45.6004M37.7875 45.6004V45.6159M37.7875 45.6004V45.6159M37.7875 45.6159V45.6315M37.7875 45.6159V45.6315M37.7875 45.6315V45.6471M37.7875 45.6315V45.6471M37.7875 45.6471V45.6626M37.7875 45.6471V45.6626M37.7875 45.6626V45.6782M37.7875 45.6626V45.6782M37.7875 45.6782V45.6938M37.7875 45.6782V45.6938M37.7875 45.6938V45.7093M37.7875 45.6938V45.7093M37.7875 45.7093V45.7249M37.7875 45.7093V45.7249M37.7875 45.7249V45.7404M37.7875 45.7249V45.7404M37.7875 45.7404V45.756M37.7875 45.7404V45.756M37.7875 45.756V45.7716M37.7875 45.756V45.7716M37.7875 45.7716V45.7871M37.7875 45.7716V45.7871M37.7875 45.7871V45.8027M37.7875 45.7871V45.8027M37.7875 45.8027V45.8183M37.7875 45.8027V45.8183M37.7875 45.8183V45.8338M37.7875 45.8183V45.8338M37.7875 45.8338V45.8494M37.7875 45.8338V45.8494M37.7875 45.8494V45.865M37.7875 45.8494V45.865M37.7875 45.865V45.8805M37.7875 45.865V45.8805M37.7875 45.8805V45.8961M37.7875 45.8805V45.8961M37.7875 45.8961V45.9116M37.7875 45.8961V45.9116M37.7875 45.9116V45.9272M37.7875 45.9116V45.9272M37.7875 45.9272V45.9428M37.7875 45.9272V45.9428M37.7875 45.9428V45.9583M37.7875 45.9428V45.9583M37.7875 45.9583V45.9739M37.7875 45.9583V45.9739M37.7875 45.9739V45.9895M37.7875 45.9739V45.9895M37.7875 45.9895V46.005M37.7875 45.9895V46.005M37.7875 46.005V46.0206M37.7875 46.005V46.0206M37.7875 46.0206V46.0362M37.7875 46.0206V46.0362M37.7875 46.0362V46.0517M37.7875 46.0362V46.0517M37.7875 46.0517V46.0673M37.7875 46.0517V46.0673M37.7875 46.0673V46.0828M37.7875 46.0673V46.0828M37.7875 46.0828V46.0984M37.7875 46.0828V46.0984M37.7875 46.0984V46.114M37.7875 46.0984V46.114M37.7875 46.114V46.1295M37.7875 46.114V46.1295M37.7875 46.1295V46.1451M37.7875 46.1295V46.1451M37.7875 46.1451V46.1607M37.7875 46.1451V46.1607M37.7875 46.1607V46.1762M37.7875 46.1607V46.1762M37.7875 46.1762V46.1918M37.7875 46.1762V46.1918M37.7875 46.1918V46.2074M37.7875 46.1918V46.2074M37.7875 46.2074V46.2229M37.7875 46.2074V46.2229M37.7875 46.2229V46.2385M37.7875 46.2229V46.2385M37.7875 46.2385V46.2541M37.7875 46.2385V46.2541M37.7875 46.2541V46.2696M37.7875 46.2541V46.2696M37.7875 46.2696V46.2852M37.7875 46.2696V46.2852M37.7875 46.2852V46.3007M37.7875 46.2852V46.3007M37.7875 46.3007V46.3163M37.7875 46.3007V46.3163M37.7875 46.3163V46.3319M37.7875 46.3163V46.3319M37.7875 46.3319V46.3474M37.7875 46.3319V46.3474M37.7875 46.3474V46.363M37.7875 46.3474V46.363M37.7875 46.363V46.3786M37.7875 46.363V46.3786M37.7875 46.3786V46.3941M37.7875 46.3786V46.3941M37.7875 46.3941V46.4097M37.7875 46.3941V46.4097M37.7875 46.4097V46.4253M37.7875 46.4097V46.4253M37.7875 46.4253V46.4408M37.7875 46.4253V46.4408M37.7875 46.4408V46.4564M37.7875 46.4408V46.4564M37.7875 46.4564V46.4719M37.7875 46.4564V46.4719M37.7875 46.4719V46.4875M37.7875 46.4719V46.4875M37.7875 46.4875V46.5031M37.7875 46.4875V46.5031M37.7875 46.5031V46.5186M37.7875 46.5031V46.5186M37.7875 46.5186V46.5342M37.7875 46.5186V46.5342M37.7875 46.5342V46.5498M37.7875 46.5342V46.5498M37.7875 46.5498V46.5653M37.7875 46.5498V46.5653M37.7875 46.5653V46.5809M37.7875 46.5653V46.5809M37.7875 46.5809V46.5965M37.7875 46.5809V46.5965M37.7875 46.5965V46.612M37.7875 46.5965V46.612M37.7875 46.612V46.6276M37.7875 46.612V46.6276M37.7875 46.6276V46.6432M37.7875 46.6276V46.6432M37.7875 46.6432V46.6587M37.7875 46.6432V46.6587M37.7875 46.6587V46.6743M37.7875 46.6587V46.6743M37.7875 46.6743V46.6898M37.7875 46.6743V46.6898M37.7875 46.6898V46.7054M37.7875 46.6898V46.7054M37.7875 46.7054V46.721M37.7875 46.7054V46.721M37.7875 46.721V46.7365M37.7875 46.721V46.7365M37.7875 46.7365V46.7521M37.7875 46.7365V46.7521M37.7875 46.7521V46.7677M37.7875 46.7521V46.7677M37.7875 46.7677V46.7832M37.7875 46.7677V46.7832M37.7875 46.7832V46.7988M37.7875 46.7832V46.7988M37.7875 46.7988V46.8144M37.7875 46.7988V46.8144M37.7875 46.8144V46.8299M37.7875 46.8144V46.8299M37.7875 46.8299V46.8455M37.7875 46.8299V46.8455M37.7875 46.8455V46.861M37.7875 46.8455V46.861M37.7875 46.861V46.8766M37.7875 46.861V46.8766M37.7875 46.8766V46.8922M37.7875 46.8766V46.8922M37.7875 46.8922V46.9077M37.7875 46.8922V46.9077M37.7875 46.9077V46.9233M37.7875 46.9077V46.9233M37.7875 46.9233V46.9389M37.7875 46.9233V46.9389M37.7875 46.9389V46.9544M37.7875 46.9389V46.9544M37.7875 46.9544V46.97M37.7875 46.9544V46.97M37.7875 46.97V46.9856M37.7875 46.97V46.9856M37.7875 46.9856V47.0011M37.7875 46.9856V47.0011M37.7875 47.0011V47.0167M37.7875 47.0011V47.0167M37.7875 47.0167V47.0322M37.7875 47.0167V47.0322M37.7875 47.0322V47.0478M37.7875 47.0322V47.0478M37.7875 47.0478V47.0634M37.7875 47.0478V47.0634M37.7875 47.0634V47.0789M37.7875 47.0634V47.0789M37.7875 47.0789V47.0945M37.7875 47.0789V47.0945M37.7875 47.0945V47.1101M37.7875 47.0945V47.1101M37.7875 47.1101V47.1256M37.7875 47.1101V47.1256M37.7875 47.1256V47.1412M37.7875 47.1256V47.1412M37.7875 47.1412V47.1568M37.7875 47.1412V47.1568M37.7875 47.1568V47.1723M37.7875 47.1568V47.1723M37.7875 47.1723V47.1879M37.7875 47.1723V47.1879M37.7875 47.1879V47.2034M37.7875 47.1879V47.2034M37.7875 47.2034V47.219M37.7875 47.2034V47.219M37.7875 47.219V47.2346M37.7875 47.219V47.2346M37.7875 47.2346V47.2501M37.7875 47.2346V47.2501M37.7875 47.2501V47.2657M37.7875 47.2501V47.2657M37.7875 47.2657V47.2813M37.7875 47.2657V47.2813M37.7875 47.2813V47.2968M37.7875 47.2813V47.2968M37.7875 47.2968V47.3124M37.7875 47.2968V47.3124M37.7875 47.3124V47.328M37.7875 47.3124V47.328M37.7875 47.328V47.3435M37.7875 47.328V47.3435M37.7875 47.3435V47.3591M37.7875 47.3435V47.3591M37.7875 47.3591V47.3747M37.7875 47.3591V47.3747M37.7875 47.3747V47.3902M37.7875 47.3747V47.3902M37.7875 47.3902V47.4058M37.7875 47.3902V47.4058M37.7875 47.4058V47.4213M37.7875 47.4058V47.4213M37.7875 47.4213V47.4369M37.7875 47.4213V47.4369M37.7875 47.4369V47.4525M37.7875 47.4369V47.4525M37.7875 47.4525V47.468M37.7875 47.4525V47.468M37.7875 47.468V47.4836M37.7875 47.468V47.4836M37.7875 47.4836V47.4992M37.7875 47.4836V47.4992M37.7875 47.4992V47.5147M37.7875 47.4992V47.5147M37.7875 47.5147V47.5303M37.7875 47.5147V47.5303M37.7875 47.5303V47.5459M37.7875 47.5303V47.5459M37.7875 47.5459V47.5614M37.7875 47.5459V47.5614M37.7875 47.5614V47.577M37.7875 47.5614V47.577M37.7875 47.577V47.5925M37.7875 47.577V47.5925M37.7875 47.5925V47.6081M37.7875 47.5925V47.6081M37.7875 47.6081V47.6237M37.7875 47.6081V47.6237M37.7875 47.6237V47.6392M37.7875 47.6237V47.6392M37.7875 47.6392V47.6548M37.7875 47.6392V47.6548M37.7875 47.6548V47.6704M37.7875 47.6548V47.6704M37.7875 47.6704V47.6859M37.7875 47.6704V47.6859M37.7875 47.6859V47.7015M37.7875 47.6859V47.7015M37.7875 47.7015V47.7171M37.7875 47.7015V47.7171M37.7875 47.7171V47.7326M37.7875 47.7171V47.7326M37.7875 47.7326V47.7482M37.7875 47.7326V47.7482M37.7875 47.7482V47.7637M37.7875 47.7482V47.7637M37.7875 47.7637V47.7793M37.7875 47.7637V47.7793M37.7875 47.7793V47.7949M37.7875 47.7793V47.7949M37.7875 47.7949V47.8104M37.7875 47.7949V47.8104M37.7875 47.8104V47.826M37.7875 47.8104V47.826M37.7875 47.826V47.8416M37.7875 47.826V47.8416M37.7875 47.8416V47.8571M37.7875 47.8416V47.8571M37.7875 47.8571V47.8727M37.7875 47.8571V47.8727M37.7875 47.8727V47.8883M37.7875 47.8727V47.8883M37.7875 47.8883V47.9038M37.7875 47.8883V47.9038M37.7875 47.9038V47.9194M37.7875 47.9038V47.9194M37.7875 47.9194V47.935M37.7875 47.9194V47.935M37.7875 47.935V47.9505M37.7875 47.935V47.9505M37.7875 47.9505V47.9661M37.7875 47.9505V47.9661M37.7875 47.9661V47.9816M37.7875 47.9661V47.9816M37.7875 47.9816V47.9972M37.7875 47.9816V47.9972M37.7875 47.9972V48.0128M37.7875 47.9972V48.0128M37.7875 48.0128V48.0283M37.7875 48.0128V48.0283M37.7875 48.0283V48.0439M37.7875 48.0283V48.0439M37.7875 48.0439V48.0595M37.7875 48.0439V48.0595M37.7875 48.0595V48.075M37.7875 48.0595V48.075M37.7875 48.075V48.0906M37.7875 48.075V48.0906M37.7875 48.0906V48.1062M37.7875 48.0906V48.1062M37.7875 48.1062V48.1217M37.7875 48.1062V48.1217M37.7875 48.1217V48.1373M37.7875 48.1217V48.1373M37.7875 48.1373V48.1528M37.7875 48.1373V48.1528M37.7875 48.1528V48.1684M37.7875 48.1528V48.1684M37.7875 48.1684V48.184M37.7875 48.1684V48.184M37.7875 48.184V48.1995M37.7875 48.184V48.1995M37.7875 48.1995V48.2151M37.7875 48.1995V48.2151M37.7875 48.2151V48.2307M37.7875 48.2151V48.2307M37.7875 48.2307V48.2462M37.7875 48.2307V48.2462M37.7875 48.2462V48.2618M37.7875 48.2462V48.2618M37.7875 48.2618V48.2774M37.7875 48.2618V48.2774M37.7875 48.2774V48.2929M37.7875 48.2774V48.2929M37.7875 48.2929V48.3085M37.7875 48.2929V48.3085M37.7875 48.3085V48.324M37.7875 48.3085V48.324M37.7875 48.324V48.3396M37.7875 48.324V48.3396M37.7875 48.3396V48.3552M37.7875 48.3396V48.3552M37.7875 48.3552V48.3707M37.7875 48.3552V48.3707M37.7875 48.3707V48.3863M37.7875 48.3707V48.3863M37.7875 48.3863V48.4019M37.7875 48.3863V48.4019M37.7875 48.4019V48.4174M37.7875 48.4019V48.4174M37.7875 48.4174V48.433M37.7875 48.4174V48.433M37.7875 48.433V48.4486M37.7875 48.433V48.4486M37.7875 48.4486V48.4641M37.7875 48.4486V48.4641M37.7875 48.4641V48.4797M37.7875 48.4641V48.4797M37.7875 48.4797V48.4953M37.7875 48.4797V48.4953M37.7875 48.4953V48.5108M37.7875 48.4953V48.5108M37.7875 48.5108V48.5264M37.7875 48.5108V48.5264M37.7875 48.5264V48.5419M37.7875 48.5264V48.5419M37.7875 48.5419V48.5575M37.7875 48.5419V48.5575M37.7875 48.5575V48.5731M37.7875 48.5575V48.5731M37.7875 48.5731V48.5886M37.7875 48.5731V48.5886M37.7875 48.5886V48.6042M37.7875 48.5886V48.6042M37.7875 48.6042V48.6198M37.7875 48.6042V48.6198M37.7875 48.6198V48.6353M37.7875 48.6198V48.6353M37.7875 48.6353V48.6509M37.7875 48.6353V48.6509M37.7875 48.6509V48.6665M37.7875 48.6509V48.6665M37.7875 48.6665V48.682M37.7875 48.6665V48.682M37.7875 48.682V48.6976M37.7875 48.682V48.6976M37.7875 48.6976V48.7131M37.7875 48.6976V48.7131M37.7875 48.7131V48.7287M37.7875 48.7131V48.7287M37.7875 48.7287V48.7443M37.7875 48.7287V48.7443M37.7875 48.7443V48.7598M37.7875 48.7443V48.7598M37.7875 48.7598V48.7754M37.7875 48.7598V48.7754M37.7875 48.7754V48.791M37.7875 48.7754V48.791M37.7875 48.791V48.8065M37.7875 48.791V48.8065M37.7875 48.8065V48.8221M37.7875 48.8065V48.8221M37.7875 48.8221V48.8377M37.7875 48.8221V48.8377M37.7875 48.8377V48.8532M37.7875 48.8377V48.8532M37.7875 48.8532V48.8688M37.7875 48.8532V48.8688M37.7875 48.8688V48.8843M37.7875 48.8688V48.8843M37.7875 48.8843V48.8999M37.7875 48.8843V48.8999M37.7875 48.8999V48.9155M37.7875 48.8999V48.9155M37.7875 48.9155V48.931M37.7875 48.9155V48.931M37.7875 48.931V48.9466M37.7875 48.931V48.9466M37.7875 48.9466V48.9622M37.7875 48.9466V48.9622M37.7875 48.9622V48.9777M37.7875 48.9622V48.9777M37.7875 48.9777V48.9933M37.7875 48.9777V48.9933M37.7875 48.9933V49.0089M37.7875 48.9933V49.0089M37.7875 49.0089V49.0244M37.7875 49.0089V49.0244M37.7875 49.0244V49.04M37.7875 49.0244V49.04M37.7875 49.04V49.0555M37.7875 49.04V49.0555M37.7875 49.0555V49.0711M37.7875 49.0555V49.0711M37.7875 49.0711V49.0867M37.7875 49.0711V49.0867M37.7875 49.0867V49.1022M37.7875 49.0867V49.1022M37.7875 49.1022V49.1178M37.7875 49.1022V49.1178M37.7875 49.1178V49.1334M37.7875 49.1178V49.1334M37.7875 49.1334V49.1489M37.7875 49.1334V49.1489M37.7875 49.1489V49.1645M37.7875 49.1489V49.1645M37.7875 49.1645V49.1801M37.7875 49.1645V49.1801M37.7875 49.1801V49.1956M37.7875 49.1801V49.1956M37.7875 49.1956V49.2112M37.7875 49.1956V49.2112M37.7875 49.2112V49.2268M37.7875 49.2112V49.2268M37.7875 49.2268V49.2423M37.7875 49.2268V49.2423M37.7875 49.2423V49.2579M37.7875 49.2423V49.2579M37.7875 49.2579V49.2734M37.7875 49.2579V49.2734M37.7875 49.2734V49.289M37.7875 49.2734V49.289M37.7875 49.289V49.3046M37.7875 49.289V49.3046M37.7875 49.3046V49.3201M37.7875 49.3046V49.3201M37.7875 49.3201V49.3357M37.7875 49.3201V49.3357M37.7875 49.3357V49.3513M37.7875 49.3357V49.3513M37.7875 49.3513V49.3668M37.7875 49.3513V49.3668M37.7875 49.3668V49.3824M37.7875 49.3668V49.3824M37.7875 49.3824V49.398M37.7875 49.3824V49.398M37.7875 49.398V49.4135M37.7875 49.398V49.4135M37.7875 49.4135V49.4291M37.7875 49.4135V49.4291M37.7875 49.4291V49.4446M37.7875 49.4291V49.4446M37.7875 49.4446V49.4602M37.7875 49.4446V49.4602M37.7875 49.4602V49.4758M37.7875 49.4602V49.4758M37.7875 49.4758V49.4913M37.7875 49.4758V49.4913M37.7875 49.4913V49.5069M37.7875 49.4913V49.5069M37.7875 49.5069V49.5225M37.7875 49.5069V49.5225M37.7875 49.5225V49.538M37.7875 49.5225V49.538M37.7875 49.538V49.5536M37.7875 49.538V49.5536M37.7875 49.5536V49.5692M37.7875 49.5536V49.5692M37.7875 49.5692V49.5847M37.7875 49.5692V49.5847M37.7875 49.5847V49.6003M37.7875 49.5847V49.6003M37.7875 49.6003V49.6158M37.7875 49.6003V49.6158M37.7875 49.6158V49.6314M37.7875 49.6158V49.6314M37.7875 49.6314V49.647M37.7875 49.6314V49.647M37.7875 49.647V49.6625M37.7875 49.647V49.6625M37.7875 49.6625V49.6781M37.7875 49.6625V49.6781M37.7875 49.6781V49.6937M37.7875 49.6781V49.6937M37.7875 49.6937V49.7092M37.7875 49.6937V49.7092M37.7875 49.7092V49.7248M37.7875 49.7092V49.7248M37.7875 49.7248V49.7404M37.7875 49.7248V49.7404M37.7875 49.7404V49.7559M37.7875 49.7404V49.7559M37.7875 49.7559V49.7715M37.7875 49.7559V49.7715M37.7875 49.7715V49.7871M37.7875 49.7715V49.7871M37.7875 49.7871V49.8026M37.7875 49.7871V49.8026M37.7875 49.8026V49.8182M37.7875 49.8026V49.8182M37.7875 49.8182V49.8337M37.7875 49.8182V49.8337M37.7875 49.8337V49.8493M37.7875 49.8337V49.8493M37.7875 49.8493V49.8649M37.7875 49.8493V49.8649M37.7875 49.8649V49.8804M37.7875 49.8649V49.8804M37.7875 49.8804V49.896M37.7875 49.8804V49.896M37.7875 49.896V49.9116M37.7875 49.896V49.9116M37.7875 49.9116V49.9271M37.7875 49.9116V49.9271M37.7875 49.9271V49.9427M37.7875 49.9271V49.9427M37.7875 49.9427V49.9583M37.7875 49.9427V49.9583M37.7875 49.9583V49.9738M37.7875 49.9583V49.9738M37.7875 49.9738V49.9894M37.7875 49.9738V49.9894M37.7875 49.9894V50.0049M37.7875 49.9894V50.0049M37.7875 50.0049V50.0205M37.7875 50.0049V50.0205M37.7875 50.0205V50.0361M37.7875 50.0205V50.0361M37.7875 50.0361V50.0516M37.7875 50.0361V50.0516M37.7875 50.0516V50.0672M37.7875 50.0516V50.0672M37.7875 50.0672V50.0828M37.7875 50.0672V50.0828M37.7875 50.0828V50.0983M37.7875 50.0828V50.0983M37.7875 50.0983V50.1139M37.7875 50.0983V50.1139M37.7875 50.1139V50.1295M37.7875 50.1139V50.1295M37.7875 50.1295V50.145M37.7875 50.1295V50.145M37.7875 50.145V50.1606M37.7875 50.145V50.1606M37.7875 50.1606V50.1762M37.7875 50.1606V50.1762M37.7875 50.1762V50.1917M37.7875 50.1762V50.1917M37.7875 50.1917V50.2073M37.7875 50.1917V50.2073M37.7875 50.2073V50.2228M37.7875 50.2073V50.2228M37.7875 50.2228V50.2384M37.7875 50.2228V50.2384M37.7875 50.2384V50.254M37.7875 50.2384V50.254M37.7875 50.254V50.2695M37.7875 50.254V50.2695M37.7875 50.2695V50.2851M37.7875 50.2695V50.2851M37.7875 50.2851V50.3007M37.7875 50.2851V50.3007M37.7875 50.3007V50.3162M37.7875 50.3007V50.3162M37.7875 50.3162V50.3318M37.7875 50.3162V50.3318M37.7875 50.3318V50.3474M37.7875 50.3318V50.3474M37.7875 50.3474V50.3629M37.7875 50.3474V50.3629M37.7875 50.3629V50.3785M37.7875 50.3629V50.3785M37.7875 50.3785V50.394M37.7875 50.3785V50.394M37.7875 50.394V50.4096M37.7875 50.394V50.4096M37.7875 50.4096V50.4252M37.7875 50.4096V50.4252M37.7875 50.4252V50.4407M37.7875 50.4252V50.4407M37.7875 50.4407V50.4563M37.7875 50.4407V50.4563M37.7875 50.4563V50.4719M37.7875 50.4563V50.4719M37.7875 50.4719V50.4874M37.7875 50.4719V50.4874M37.7875 50.4874V50.503M37.7875 50.4874V50.503M37.7875 50.503V50.5186M37.7875 50.503V50.5186M37.7875 50.5186V50.5341M37.7875 50.5186V50.5341M37.7875 50.5341V50.5497M37.7875 50.5341V50.5497M37.7875 50.5497V50.5653M37.7875 50.5497V50.5653M37.7875 50.5653V50.5808M37.7875 50.5653V50.5808M37.7875 50.5808V50.5964M37.7875 50.5808V50.5964M37.7875 50.5964V50.6119M37.7875 50.5964V50.6119M37.7875 50.6119V50.6275M37.7875 50.6119V50.6275M37.7875 50.6275V50.6431M37.7875 50.6275V50.6431M37.7875 50.6431V50.6586M37.7875 50.6431V50.6586M37.7875 50.6586V50.6742M37.7875 50.6586V50.6742M37.7875 50.6742V50.6898M37.7875 50.6742V50.6898M37.7875 50.6898V50.7053M37.7875 50.6898V50.7053M37.7875 50.7053V50.7209M37.7875 50.7053V50.7209M37.7875 50.7209V50.7365M37.7875 50.7209V50.7365M37.7875 50.7365V50.752M37.7875 50.7365V50.752M37.7875 50.752V50.7676M37.7875 50.752V50.7676M37.7875 50.7676V50.7831M37.7875 50.7676V50.7831M37.7875 50.7831V50.7987M37.7875 50.7831V50.7987M37.7875 50.7987V50.8143M37.7875 50.7987V50.8143M37.7875 50.8143V50.8298M37.7875 50.8143V50.8298M37.7875 50.8298V50.8454M37.7875 50.8298V50.8454M37.7875 50.8454V50.861M37.7875 50.8454V50.861M37.7875 50.861V50.8765M37.7875 50.861V50.8765M37.7875 50.8765V50.8921M37.7875 50.8765V50.8921M37.7875 50.8921V50.9077M37.7875 50.8921V50.9077M37.7875 50.9077V50.9232M37.7875 50.9077V50.9232M37.7875 50.9232V50.9388M37.7875 50.9232V50.9388M37.7875 50.9388V50.9543M37.7875 50.9388V50.9543M37.7875 50.9543V50.9699M37.7875 50.9543V50.9699M37.7875 50.9699V50.9855M37.7875 50.9699V50.9855M37.7875 50.9855V51.001M37.7875 50.9855V51.001M37.7875 51.001V51.0166M37.7875 51.001V51.0166M37.7875 51.0166V51.0322M37.7875 51.0166V51.0322M37.7875 51.0322V51.0477M37.7875 51.0322V51.0477M37.7875 51.0477V51.0633M37.7875 51.0477V51.0633M37.7875 51.0633V51.0789M37.7875 51.0633V51.0789M37.7875 51.0789V51.0944M37.7875 51.0789V51.0944M37.7875 51.0944V51.11M37.7875 51.0944V51.11M37.7875 51.11V51.1256M37.7875 51.11V51.1256M37.7875 51.1256V51.1411M37.7875 51.1256V51.1411M37.7875 51.1411V51.1567M37.7875 51.1411V51.1567M37.7875 51.1567V51.1722M37.7875 51.1567V51.1722M37.7875 51.1722V51.1878M37.7875 51.1722V51.1878M37.7875 51.1878V51.2034M37.7875 51.1878V51.2034M37.7875 51.2034V51.2189M37.7875 51.2034V51.2189M37.7875 51.2189V51.2345M37.7875 51.2189V51.2345M37.7875 51.2345V51.2501M37.7875 51.2345V51.2501M37.7875 51.2501V51.2656M37.7875 51.2501V51.2656M37.7875 51.2656V51.2812M37.7875 51.2656V51.2812M37.7875 51.2812V51.2968M37.7875 51.2812V51.2968M37.7875 51.2968V51.3123M37.7875 51.2968V51.3123M37.7875 51.3123V51.3279M37.7875 51.3123V51.3279M37.7875 51.3279V51.3434M37.7875 51.3279V51.3434M37.7875 51.3434V51.359M37.7875 51.3434V51.359M37.7875 51.359V51.3746M37.7875 51.359V51.3746M37.7875 51.3746V51.3901M37.7875 51.3746V51.3901M37.7875 51.3901V51.4057M37.7875 51.3901V51.4057M37.7875 51.4057V51.4213M37.7875 51.4057V51.4213M37.7875 51.4213V51.4368M37.7875 51.4213V51.4368M37.7875 51.4368V51.4524M37.7875 51.4368V51.4524M37.7875 51.4524V51.468M37.7875 51.4524V51.468M37.7875 51.468V51.4835M37.7875 51.468V51.4835M37.7875 51.4835V51.4991M37.7875 51.4835V51.4991M37.7875 51.4991V51.5147M37.7875 51.4991V51.5147M37.7875 51.5147V51.5302M37.7875 51.5147V51.5302M37.7875 51.5302V51.5458M37.7875 51.5302V51.5458M37.7875 51.5458V51.5613M37.7875 51.5458V51.5613M37.7875 51.5613V51.5769M37.7875 51.5613V51.5769M37.7875 51.5769V51.5925M37.7875 51.5769V51.5925M37.7875 51.5925V51.608M37.7875 51.5925V51.608M37.7875 51.608V51.6236M37.7875 51.608V51.6236M37.7875 51.6236V51.6392M37.7875 51.6236V51.6392M37.7875 51.6392V51.6547M37.7875 51.6392V51.6547M37.7875 51.6547V51.6703M37.7875 51.6547V51.6703M37.7875 51.6703V51.6859M37.7875 51.6703V51.6859M37.7875 51.6859V51.7014M37.7875 51.6859V51.7014M37.7875 51.7014V51.717M37.7875 51.7014V51.717M37.7875 51.717V51.7326M37.7875 51.717V51.7326M37.7875 51.7326V51.7481M37.7875 51.7326V51.7481M37.7875 51.7481V51.7637M37.7875 51.7481V51.7637M37.7875 51.7637V51.7792M37.7875 51.7637V51.7792M37.7875 51.7792V51.7948M37.7875 51.7792V51.7948M37.7875 51.7948V51.8104M37.7875 51.7948V51.8104M37.7875 51.8104V51.8259M37.7875 51.8104V51.8259M37.7875 51.8259V51.8415M37.7875 51.8259V51.8415M37.7875 51.8415V51.8571M37.7875 51.8415V51.8571M37.7875 51.8571V51.8726M37.7875 51.8571V51.8726M37.7875 51.8726V51.8882M37.7875 51.8726V51.8882M37.7875 51.8882V51.9038M37.7875 51.8882V51.9038M37.7875 51.9038V51.9193M37.7875 51.9038V51.9193M37.7875 51.9193V51.9349M37.7875 51.9193V51.9349M37.7875 51.9349V51.9504M37.7875 51.9349V51.9504M37.7875 51.9504V51.966M37.7875 51.9504V51.966M37.7875 51.966V51.9816M37.7875 51.966V51.9816M37.7875 51.9816V51.9971M37.7875 51.9816V51.9971M37.7875 51.9971V52.0127M37.7875 51.9971V52.0127M37.7875 52.0127V52.0283M37.7875 52.0127V52.0283M37.7875 52.0283V52.0438M37.7875 52.0283V52.0438M37.7875 52.0438V52.0594M37.7875 52.0438V52.0594M37.7875 52.0594V52.075M37.7875 52.0594V52.075M37.7875 52.075V52.0905M37.7875 52.075V52.0905M37.7875 52.0905V52.1061M37.7875 52.0905V52.1061M37.7875 52.1061V52.1217M37.7875 52.1061V52.1217M37.7875 52.1217V52.1372M37.7875 52.1217V52.1372M37.7875 52.1372V52.1528M37.7875 52.1372V52.1528M37.7875 52.1528V52.1683M37.7875 52.1528V52.1683M37.7875 52.1683V52.1839M37.7875 52.1683V52.1839M37.7875 52.1839V52.1995M37.7875 52.1839V52.1995M37.7875 52.1995V52.215M37.7875 52.1995V52.215M37.7875 52.215V52.2306M37.7875 52.215V52.2306M37.7875 52.2306V52.2462M37.7875 52.2306V52.2462M37.7875 52.2462V52.2617M37.7875 52.2462V52.2617M37.7875 52.2617V52.2773M37.7875 52.2617V52.2773M37.7875 52.2773V52.2929M37.7875 52.2773V52.2929M37.7875 52.2929V52.3084M37.7875 52.2929V52.3084M37.7875 52.3084V52.324M37.7875 52.3084V52.324M37.7875 52.324V52.3396M37.7875 52.324V52.3396M37.7875 52.3396V52.3551M37.7875 52.3396V52.3551M37.7875 52.3551V52.3707M37.7875 52.3551V52.3707M37.7875 52.3707V52.3862M37.7875 52.3707V52.3862M37.7875 52.3862V52.4018M37.7875 52.3862V52.4018M37.7875 52.4018V52.4174M37.7875 52.4018V52.4174M37.7875 52.4174V52.4329M37.7875 52.4174V52.4329M37.7875 52.4329V52.4485M37.7875 52.4329V52.4485M37.7875 52.4485V52.4641M37.7875 52.4485V52.4641M37.7875 52.4641V52.4796M37.7875 52.4641V52.4796M37.7875 52.4796V52.4952M37.7875 52.4796V52.4952M37.7875 52.4952V52.5108M37.7875 52.4952V52.5108M37.7875 52.5108V52.5263M37.7875 52.5108V52.5263M37.7875 52.5263V52.5419M37.7875 52.5263V52.5419M37.7875 52.5419V52.5574M37.7875 52.5419V52.5574M37.7875 52.5574V52.573M37.7875 52.5574V52.573M37.7875 52.573V52.5886M37.7875 52.573V52.5886M37.7875 52.5886V52.6041M37.7875 52.5886V52.6041M37.7875 52.6041V52.6197M37.7875 52.6041V52.6197M37.7875 52.6197V52.6353M37.7875 52.6197V52.6353M37.7875 52.6353V52.6508M37.7875 52.6353V52.6508M37.7875 52.6508V52.6664M37.7875 52.6508V52.6664M37.7875 52.6664V52.682M37.7875 52.6664V52.682M37.7875 52.682V52.6975M37.7875 52.682V52.6975M37.7875 52.6975V52.7131M37.7875 52.6975V52.7131M37.7875 52.7131V52.7287M37.7875 52.7131V52.7287M37.7875 52.7287V52.7442M37.7875 52.7287V52.7442M37.7875 52.7442V52.7598M37.7875 52.7442V52.7598M37.7875 52.7598V52.7753M37.7875 52.7598V52.7753M37.7875 52.7753V52.7909M37.7875 52.7753V52.7909M37.7875 52.7909V52.8065M37.7875 52.7909V52.8065M37.7875 52.8065V52.822M37.7875 52.8065V52.822M37.7875 52.822V52.8376M37.7875 52.822V52.8376M37.7875 52.8376V52.8532M37.7875 52.8376V52.8532M37.7875 52.8532V52.8687M37.7875 52.8532V52.8687M37.7875 52.8687V52.8843M37.7875 52.8687V52.8843M37.7875 52.8843V52.8999M37.7875 52.8843V52.8999M37.7875 52.8999V52.9154M37.7875 52.8999V52.9154M37.7875 52.9154V52.931M37.7875 52.9154V52.931M37.7875 52.931V52.9466M37.7875 52.931V52.9466M37.7875 52.9466V52.9621M37.7875 52.9466V52.9621M37.7875 52.9621V52.9777M37.7875 52.9621V52.9777M37.7875 52.9777V52.9932M37.7875 52.9777V52.9932M37.7875 52.9932V53.0088M37.7875 52.9932V53.0088M37.7875 53.0088V53.0244M37.7875 53.0088V53.0244M37.7875 53.0244V53.0399M37.7875 53.0244V53.0399M37.7875 53.0399V53.0555M37.7875 53.0399V53.0555M37.7875 53.0555V53.0711M37.7875 53.0555V53.0711M37.7875 53.0711V53.0866M37.7875 53.0711V53.0866M37.7875 53.0866V53.1022M37.7875 53.0866V53.1022M37.7875 53.1022V53.1178M37.7875 53.1022V53.1178M37.7875 53.1178V53.1333M37.7875 53.1178V53.1333M37.7875 53.1333V53.1489M37.7875 53.1333V53.1489M37.7875 53.1489V53.1645M37.7875 53.1489V53.1645M37.7875 53.1645V53.18M37.7875 53.1645V53.18M37.7875 53.18V53.1956M37.7875 53.18V53.1956M37.7875 53.1956V53.2111M37.7875 53.1956V53.2111M37.7875 53.2111V53.2267M37.7875 53.2111V53.2267M37.7875 53.2267V53.2423M37.7875 53.2267V53.2423M37.7875 53.2423V53.2578M37.7875 53.2423V53.2578M37.7875 53.2578C37.7875 53.648 37.7914 54.0318 37.7952 54.4081M37.7875 53.2578L37.7952 54.4081M37.7952 54.4081C37.8055 55.428 37.8152 56.3921 37.7457 57.2752M37.7952 54.4081L37.7457 57.2752M37.7457 57.2752C37.6489 58.5045 37.3961 59.6534 36.7472 60.7188M37.7457 57.2752L36.7472 60.7188M36.7472 60.7188C32.5718 67.575 22.5094 64.6674 22.5094 56.8438M36.7472 60.7188L22.5094 56.8438M22.5094 56.8438V55.7813M22.5094 56.8438V55.7813M22.5094 55.7813C22.5094 55.6823 22.5335 55.5907 22.5421 55.558M22.5094 55.7813L22.5421 55.558M22.5421 55.558L22.5426 55.556M22.5421 55.558L22.5426 55.556M22.5426 55.556C22.556 55.5049 22.5736 55.4482 22.5927 55.3902M22.5426 55.556L22.5927 55.3902M22.5927 55.3902C22.6315 55.273 22.686 55.1227 22.7523 54.9476M22.5927 55.3902L22.7523 54.9476M22.7523 54.9476C22.8856 54.5959 23.0752 54.1211 23.3032 53.5629M22.7523 54.9476L23.3032 53.5629M23.3032 53.5629C23.7598 52.4455 24.3767 50.9785 25.0194 49.4622M23.3032 53.5629L25.0194 49.4622M25.0194 49.4622C25.4856 48.3624 25.9647 47.2378 26.4068 46.2003M25.0194 49.4622L26.4068 46.2003M26.4068 46.2003C27.1867 44.3702 27.8511 42.8109 28.1251 42.1358L26.4068 46.2003ZM22.9452 47.0467L22.9452 47.0468C22.7738 47.4781 22.6391 47.7961 22.4896 48.149C22.4234 48.3053 22.3543 48.4684 22.2779 48.6511C22.2498 48.7181 22.2154 48.8061 22.1775 48.9031C22.1079 49.0811 22.0264 49.2894 21.9508 49.4539C21.8294 49.7184 21.6437 50.0654 21.339 50.2887L20.9844 49.8047L20.4 49.9409C20.3199 49.5969 20.0682 49.0155 19.8625 48.5402C19.8434 48.4963 19.8248 48.4532 19.8067 48.4114L19.8052 48.4076L17.9084 43.9293L17.5552 43.0953H18.4609C18.8758 43.0953 19.1372 43.1321 19.3767 43.1658L19.389 43.1676C19.6138 43.1992 19.8244 43.2281 20.1875 43.2281H22.1797C22.501 43.2281 22.6606 43.2006 22.8303 43.1708L22.8415 43.1688C23.0394 43.134 23.2593 43.0953 23.6406 43.0953H24.2927L24.2386 43.7451C24.2191 43.9788 24.1229 44.2734 24.0262 44.5353C23.9218 44.818 23.7868 45.1395 23.6488 45.4555C23.5282 45.7317 23.4081 45.9979 23.2995 46.2385C23.1499 46.57 23.0222 46.853 22.9452 47.0467ZM62.6837 53.1288C63.7858 54.2309 64.6156 56.1452 64.6156 57.7735C64.6156 60.3084 63.0338 62.7151 60.6764 63.7685C55.222 66.2057 49.5418 60.4478 52.0914 55.0348C54.0782 50.8166 59.5478 49.993 62.6837 53.1288Z" fill="#E9CC58" stroke="#171B29" stroke-width="1.2"/>
<path d="M56.6469 58.0392C56.6469 58.3282 56.7863 58.5951 57.049 58.8098C57.3169 59.0286 57.6874 59.1675 58.0587 59.1797C58.4256 59.1917 58.7546 59.0807 58.9903 58.8514C59.2216 58.6264 59.4312 58.2206 59.4312 57.508C59.4312 57.219 59.2918 56.9521 59.0291 56.7374C58.7612 56.5186 58.3908 56.3797 58.0194 56.3675C57.6526 56.3554 57.3235 56.4665 57.0878 56.6957C56.8565 56.9208 56.6469 57.3266 56.6469 58.0392Z" fill="#E9CC58" stroke="#171B29" stroke-width="1.2"/>
</svg>
