<svg width="72" height="69" viewBox="0 0 72 69" fill="none" xmlns="http://www.w3.org/2000/svg">
<mask id="path-1-inside-1_31:1145" fill="white">
<path fill-rule="evenodd" clip-rule="evenodd" d="M58.6407 24.75C58.6407 25.5586 59.2706 26.2817 59.6261 26.9989C59.9966 27.7467 60.3939 28.3876 60.7511 29.1083L63.468 34.2663C64.2154 35.6541 67.2188 40.6531 67.2188 41.7657C67.2188 43.1414 66.2835 43.5938 65.1094 43.5938C63.8476 43.5938 63.0904 41.3592 62.4313 40.225C61.6696 38.9142 61.0342 37.5839 60.282 36.1868L57.0469 30.1406C56.3492 28.7382 56.3251 28.4062 55.2657 28.4062C53.8646 28.4062 53.9182 29.7335 54.6758 30.9648C54.9378 31.3907 55.0763 31.6815 55.3125 32.1562C56.9036 35.3536 58.8986 38.8217 60.5604 42.0959C61.1216 43.2015 62.9966 46.3282 63.086 47.1567C63.213 48.334 62.4827 49.2188 61.0313 49.2188C59.9576 49.2188 59.4796 48.107 59.0559 47.3973C57.4966 44.7853 56.3275 43.0525 54.8889 40.1736L50.9529 32.719C50.6133 32.0341 50.0966 30.6563 49.2188 30.6563C48.212 30.6563 47.448 31.6444 48.3459 33.076L50.7719 37.6813C51.1247 38.2884 51.4236 38.8606 51.749 39.5167L53.7206 43.1701C54.1642 44.0223 55.5469 46.379 55.5469 47.1094C55.5469 48.3933 54.6809 48.9375 53.4375 48.9375C52.3672 48.9375 51.5808 47.2016 51.0011 46.0301L44.725 34.4469C44.0172 33.2289 43.5116 31.3594 42.3282 31.3594C41.0335 31.3594 41.0567 32.5655 41.0621 33.8902C41.0673 35.2025 41.0625 36.5157 41.0625 37.8282C41.0626 39.2297 40.9246 40.2367 40.9267 41.4892C40.932 44.5853 37.2656 43.8986 37.2656 41.9063L37.2637 35.5762C37.2581 34.5908 37.4099 34.2377 37.4111 33.3329C37.4173 28.7281 38.3401 29.0524 38.9566 25.4566L39.3754 18.8442C39.3564 13.7112 39.6562 7.93379 39.6562 2.53125H51.75C51.9072 4.42016 52.5081 7.85831 53.6012 9.53948C53.9919 10.1404 54.5739 10.6238 55.0892 11.1452C55.6379 11.7003 56.0783 11.9879 56.635 12.5525L58.183 13.9576C58.9751 14.7617 60.5544 15.9566 61.2336 16.9539L64.325 22.7219C64.75 23.4317 65.0063 24.0717 65.3969 24.7438C65.7576 25.3644 66.044 26.0075 66.4343 26.6594L68.5116 30.4884C69.2286 31.666 69.4688 32.0598 69.4688 33.1875C69.4688 34.4155 67.2993 36.2416 65.813 33.3277L62.0219 26.2906C61.4181 25.2516 61.1158 23.625 59.7657 23.625C59.0854 23.625 58.6407 24.0698 58.6407 24.75ZM4.35939 34.875C2.90216 34.875 2.53123 33.7773 2.53123 32.625C2.53123 32.0679 3.18773 31.0454 3.45628 30.5969C4.87194 28.2328 7.22383 23.2912 8.65942 20.8938C9.05926 20.226 9.27976 19.6079 9.67593 18.9572C10.0864 18.2831 10.3266 17.5997 10.7664 16.9539C11.1953 16.3242 11.6783 15.9573 12.1991 15.4334C14.4272 13.1923 18.4195 10.5463 19.3202 7.64834L20.25 2.53125H32.3438C32.3438 7.93379 32.6436 13.7112 32.6246 18.8442L33.0434 25.4566C33.2609 26.7251 33.7174 27.9794 34.0826 29.1986C34.5809 30.8617 34.586 31.3834 34.5889 33.4736C34.5902 34.3784 34.7419 34.7314 34.7363 35.7169L34.7344 41.9063C34.7344 43.9241 31.0825 44.4965 31.075 41.6281C31.0728 40.7716 30.9418 40.6 30.9319 39.8025L30.9377 34.0311C30.9409 32.6637 31.0157 31.3594 29.6719 31.3594C28.5097 31.3594 28.0009 33.1522 27.3263 34.3575L22.9219 42.4688C22.6953 42.9294 22.5121 43.1809 22.2649 43.6399L20.397 47.1157C19.7587 48.222 19.6532 48.9375 18.2812 48.9375C17.0888 48.9375 16.4532 48.1468 16.4532 46.9688C16.4532 46.0517 24.0469 32.8549 24.0469 32.0625C24.0469 31.1373 23.4807 30.6563 22.9219 30.6563C21.871 30.6563 21.1172 32.4314 20.4358 33.7952L14.4579 44.9735C13.9665 45.7896 13.5298 46.5071 12.993 47.3056C12.1215 48.602 12.1352 49.2188 10.5469 49.2188C9.53271 49.2188 8.87618 48.1884 8.88697 47.2482C8.89457 46.5882 10.9588 42.9136 11.3844 42.1813L12.7052 39.7052C12.9387 39.2452 13.0769 38.9423 13.3104 38.4823L15.3292 34.7354C15.7639 33.8588 16.2018 33.138 16.6411 32.2506C17.1442 31.2346 17.8594 30.2189 17.8594 29.5313C17.8594 28.5285 16.7612 28.0723 16.0134 28.5185C15.4442 28.8582 13.8964 32.1788 13.4538 33.0007C13.218 33.4385 13.0764 33.6072 12.8421 34.0764L8.58568 42.0545C7.95774 43.1562 7.80871 43.5938 6.32815 43.5938C5.46861 43.5938 4.78124 42.617 4.78124 41.7657C4.78124 40.6337 8.25927 34.8197 8.99894 33.3271C9.34749 32.6238 9.6981 32.0796 10.0776 31.312C10.65 30.1541 13.3594 25.6438 13.3594 24.75C13.3594 23.956 12.8477 23.625 12.0937 23.625C10.9692 23.625 10.4934 25.3724 10.0294 26.2013C9.70622 26.7787 9.49668 27.1261 9.188 27.7505L5.85065 33.9757C5.58104 34.3815 4.93231 34.875 4.35939 34.875ZM0 32.7657C0 35.3194 1.82266 37.2657 4.07814 37.2657C3.41932 38.5107 2.24998 40.4113 2.24998 41.625C2.24998 44.0976 4.16399 46.125 6.6094 46.125C5.54887 50.6769 10.3233 53.0078 13.0809 51.0497C14.3688 50.1351 14.0684 49.9078 14.625 49.5C15.0575 49.8169 15.8247 51.4688 18.4219 51.4688C21.3662 51.4688 22.2062 48.9057 23.1581 47.205L28.2155 37.9186C28.3116 37.7497 28.2721 37.8017 28.3691 37.6503C28.5303 37.3987 28.4205 37.5516 28.5469 37.4063C28.5469 40.5575 27.8867 43.4525 30.3498 45.3064C30.8261 45.6649 31.9697 46.125 32.7657 46.125C34.4357 46.125 35.0232 45.5134 36 44.8594C37.6258 45.948 39.3475 46.8534 41.5464 45.3432C44.045 43.6272 43.4532 40.9027 43.4532 37.4063C43.4751 37.4314 43.5059 37.44 43.5143 37.4857L47.7312 45.2219C49.4736 48.1318 50.2743 51.4688 53.7187 51.4688C54.538 51.4688 55.3657 51.1822 55.9147 50.8522C56.9895 50.2062 56.9117 49.8394 57.375 49.5C57.7605 49.7825 58.6025 51.75 61.3125 51.75C63.5676 51.75 65.5313 49.7753 65.5313 47.5313L65.3907 46.125C67.9987 46.125 71.0871 43.4333 69.0485 39.3734C68.8543 38.9866 68.6888 38.7254 68.4906 38.3844C68.2796 38.0214 68.1173 37.635 67.9219 37.2657C70.1773 37.2657 72 35.3194 72 32.7657C72 31.066 68.6707 25.7048 67.7813 23.9062L63.1448 15.324C62.3663 14.237 57.9688 10.4975 56.3554 8.89464C54.8359 7.38516 54.9258 6.53599 54.5226 4.11802C54.0327 1.18055 54.3267 0 52.0313 0H39.0937C37.8311 0 37.1376 0.411372 37.116 1.67851L37.1251 9.00016C37.1283 10.3778 36.9835 11.2367 36.9843 12.6563C36.9851 13.875 36.9803 15.0943 36.9848 16.3129C36.9894 17.5393 36.7355 23.9 36.5257 25.1351C36.4293 25.7026 36.1571 25.9774 36.1406 26.7188H35.8594C35.8471 26.1658 35.1453 24.3603 35.1561 20.1096C35.1595 18.7334 35.0082 17.8606 35.0147 16.5947C35.0212 15.329 35.0129 14.0625 35.0158 12.7967C35.0188 11.4499 34.8733 10.6505 34.875 9.28131L34.883 1.82018C34.8813 0.442364 34.2596 0 32.9063 0H19.9687C17.6785 0 17.9647 1.20409 17.4977 3.99766C17.1174 6.27212 17.171 7.38426 15.7151 8.82453C15.0982 9.43487 14.7237 9.8411 14.0415 10.3853L12.2668 11.9855C11.2044 13.0384 9.82189 14.0951 8.89665 15.2248C8.56692 15.6274 8.03722 16.7927 7.7406 17.3031L2.53746 27.0062C2.32654 27.3693 2.16276 27.7573 1.97055 28.1268C1.393 29.2371 0 31.2579 0 32.7657Z"/>
</mask>
<path fill-rule="evenodd" clip-rule="evenodd" d="M58.6407 24.75C58.6407 25.5586 59.2706 26.2817 59.6261 26.9989C59.9966 27.7467 60.3939 28.3876 60.7511 29.1083L63.468 34.2663C64.2154 35.6541 67.2188 40.6531 67.2188 41.7657C67.2188 43.1414 66.2835 43.5938 65.1094 43.5938C63.8476 43.5938 63.0904 41.3592 62.4313 40.225C61.6696 38.9142 61.0342 37.5839 60.282 36.1868L57.0469 30.1406C56.3492 28.7382 56.3251 28.4062 55.2657 28.4062C53.8646 28.4062 53.9182 29.7335 54.6758 30.9648C54.9378 31.3907 55.0763 31.6815 55.3125 32.1562C56.9036 35.3536 58.8986 38.8217 60.5604 42.0959C61.1216 43.2015 62.9966 46.3282 63.086 47.1567C63.213 48.334 62.4827 49.2188 61.0313 49.2188C59.9576 49.2188 59.4796 48.107 59.0559 47.3973C57.4966 44.7853 56.3275 43.0525 54.8889 40.1736L50.9529 32.719C50.6133 32.0341 50.0966 30.6563 49.2188 30.6563C48.212 30.6563 47.448 31.6444 48.3459 33.076L50.7719 37.6813C51.1247 38.2884 51.4236 38.8606 51.749 39.5167L53.7206 43.1701C54.1642 44.0223 55.5469 46.379 55.5469 47.1094C55.5469 48.3933 54.6809 48.9375 53.4375 48.9375C52.3672 48.9375 51.5808 47.2016 51.0011 46.0301L44.725 34.4469C44.0172 33.2289 43.5116 31.3594 42.3282 31.3594C41.0335 31.3594 41.0567 32.5655 41.0621 33.8902C41.0673 35.2025 41.0625 36.5157 41.0625 37.8282C41.0626 39.2297 40.9246 40.2367 40.9267 41.4892C40.932 44.5853 37.2656 43.8986 37.2656 41.9063L37.2637 35.5762C37.2581 34.5908 37.4099 34.2377 37.4111 33.3329C37.4173 28.7281 38.3401 29.0524 38.9566 25.4566L39.3754 18.8442C39.3564 13.7112 39.6562 7.93379 39.6562 2.53125H51.75C51.9072 4.42016 52.5081 7.85831 53.6012 9.53948C53.9919 10.1404 54.5739 10.6238 55.0892 11.1452C55.6379 11.7003 56.0783 11.9879 56.635 12.5525L58.183 13.9576C58.9751 14.7617 60.5544 15.9566 61.2336 16.9539L64.325 22.7219C64.75 23.4317 65.0063 24.0717 65.3969 24.7438C65.7576 25.3644 66.044 26.0075 66.4343 26.6594L68.5116 30.4884C69.2286 31.666 69.4688 32.0598 69.4688 33.1875C69.4688 34.4155 67.2993 36.2416 65.813 33.3277L62.0219 26.2906C61.4181 25.2516 61.1158 23.625 59.7657 23.625C59.0854 23.625 58.6407 24.0698 58.6407 24.75ZM4.35939 34.875C2.90216 34.875 2.53123 33.7773 2.53123 32.625C2.53123 32.0679 3.18773 31.0454 3.45628 30.5969C4.87194 28.2328 7.22383 23.2912 8.65942 20.8938C9.05926 20.226 9.27976 19.6079 9.67593 18.9572C10.0864 18.2831 10.3266 17.5997 10.7664 16.9539C11.1953 16.3242 11.6783 15.9573 12.1991 15.4334C14.4272 13.1923 18.4195 10.5463 19.3202 7.64834L20.25 2.53125H32.3438C32.3438 7.93379 32.6436 13.7112 32.6246 18.8442L33.0434 25.4566C33.2609 26.7251 33.7174 27.9794 34.0826 29.1986C34.5809 30.8617 34.586 31.3834 34.5889 33.4736C34.5902 34.3784 34.7419 34.7314 34.7363 35.7169L34.7344 41.9063C34.7344 43.9241 31.0825 44.4965 31.075 41.6281C31.0728 40.7716 30.9418 40.6 30.9319 39.8025L30.9377 34.0311C30.9409 32.6637 31.0157 31.3594 29.6719 31.3594C28.5097 31.3594 28.0009 33.1522 27.3263 34.3575L22.9219 42.4688C22.6953 42.9294 22.5121 43.1809 22.2649 43.6399L20.397 47.1157C19.7587 48.222 19.6532 48.9375 18.2812 48.9375C17.0888 48.9375 16.4532 48.1468 16.4532 46.9688C16.4532 46.0517 24.0469 32.8549 24.0469 32.0625C24.0469 31.1373 23.4807 30.6563 22.9219 30.6563C21.871 30.6563 21.1172 32.4314 20.4358 33.7952L14.4579 44.9735C13.9665 45.7896 13.5298 46.5071 12.993 47.3056C12.1215 48.602 12.1352 49.2188 10.5469 49.2188C9.53271 49.2188 8.87618 48.1884 8.88697 47.2482C8.89457 46.5882 10.9588 42.9136 11.3844 42.1813L12.7052 39.7052C12.9387 39.2452 13.0769 38.9423 13.3104 38.4823L15.3292 34.7354C15.7639 33.8588 16.2018 33.138 16.6411 32.2506C17.1442 31.2346 17.8594 30.2189 17.8594 29.5313C17.8594 28.5285 16.7612 28.0723 16.0134 28.5185C15.4442 28.8582 13.8964 32.1788 13.4538 33.0007C13.218 33.4385 13.0764 33.6072 12.8421 34.0764L8.58568 42.0545C7.95774 43.1562 7.80871 43.5938 6.32815 43.5938C5.46861 43.5938 4.78124 42.617 4.78124 41.7657C4.78124 40.6337 8.25927 34.8197 8.99894 33.3271C9.34749 32.6238 9.6981 32.0796 10.0776 31.312C10.65 30.1541 13.3594 25.6438 13.3594 24.75C13.3594 23.956 12.8477 23.625 12.0937 23.625C10.9692 23.625 10.4934 25.3724 10.0294 26.2013C9.70622 26.7787 9.49668 27.1261 9.188 27.7505L5.85065 33.9757C5.58104 34.3815 4.93231 34.875 4.35939 34.875ZM0 32.7657C0 35.3194 1.82266 37.2657 4.07814 37.2657C3.41932 38.5107 2.24998 40.4113 2.24998 41.625C2.24998 44.0976 4.16399 46.125 6.6094 46.125C5.54887 50.6769 10.3233 53.0078 13.0809 51.0497C14.3688 50.1351 14.0684 49.9078 14.625 49.5C15.0575 49.8169 15.8247 51.4688 18.4219 51.4688C21.3662 51.4688 22.2062 48.9057 23.1581 47.205L28.2155 37.9186C28.3116 37.7497 28.2721 37.8017 28.3691 37.6503C28.5303 37.3987 28.4205 37.5516 28.5469 37.4063C28.5469 40.5575 27.8867 43.4525 30.3498 45.3064C30.8261 45.6649 31.9697 46.125 32.7657 46.125C34.4357 46.125 35.0232 45.5134 36 44.8594C37.6258 45.948 39.3475 46.8534 41.5464 45.3432C44.045 43.6272 43.4532 40.9027 43.4532 37.4063C43.4751 37.4314 43.5059 37.44 43.5143 37.4857L47.7312 45.2219C49.4736 48.1318 50.2743 51.4688 53.7187 51.4688C54.538 51.4688 55.3657 51.1822 55.9147 50.8522C56.9895 50.2062 56.9117 49.8394 57.375 49.5C57.7605 49.7825 58.6025 51.75 61.3125 51.75C63.5676 51.75 65.5313 49.7753 65.5313 47.5313L65.3907 46.125C67.9987 46.125 71.0871 43.4333 69.0485 39.3734C68.8543 38.9866 68.6888 38.7254 68.4906 38.3844C68.2796 38.0214 68.1173 37.635 67.9219 37.2657C70.1773 37.2657 72 35.3194 72 32.7657C72 31.066 68.6707 25.7048 67.7813 23.9062L63.1448 15.324C62.3663 14.237 57.9688 10.4975 56.3554 8.89464C54.8359 7.38516 54.9258 6.53599 54.5226 4.11802C54.0327 1.18055 54.3267 0 52.0313 0H39.0937C37.8311 0 37.1376 0.411372 37.116 1.67851L37.1251 9.00016C37.1283 10.3778 36.9835 11.2367 36.9843 12.6563C36.9851 13.875 36.9803 15.0943 36.9848 16.3129C36.9894 17.5393 36.7355 23.9 36.5257 25.1351C36.4293 25.7026 36.1571 25.9774 36.1406 26.7188H35.8594C35.8471 26.1658 35.1453 24.3603 35.1561 20.1096C35.1595 18.7334 35.0082 17.8606 35.0147 16.5947C35.0212 15.329 35.0129 14.0625 35.0158 12.7967C35.0188 11.4499 34.8733 10.6505 34.875 9.28131L34.883 1.82018C34.8813 0.442364 34.2596 0 32.9063 0H19.9687C17.6785 0 17.9647 1.20409 17.4977 3.99766C17.1174 6.27212 17.171 7.38426 15.7151 8.82453C15.0982 9.43487 14.7237 9.8411 14.0415 10.3853L12.2668 11.9855C11.2044 13.0384 9.82189 14.0951 8.89665 15.2248C8.56692 15.6274 8.03722 16.7927 7.7406 17.3031L2.53746 27.0062C2.32654 27.3693 2.16276 27.7573 1.97055 28.1268C1.393 29.2371 0 31.2579 0 32.7657Z" fill="#E9CC58" stroke="black" mask="url(#path-1-inside-1_31:1145)"/>
<path d="M26.1951 55.6423L26.195 55.6423C25.6361 55.98 24.8999 56.3522 24.2696 56.6241C18.4127 59.1498 13.1929 59.5115 7.05562 57.4726C6.49449 57.2862 5.07788 56.7181 3.80311 56.0731C3.16531 55.7503 2.57289 55.4133 2.14321 55.0999C1.92778 54.9428 1.76228 54.7981 1.65308 54.6707C1.53822 54.5366 1.51489 54.4556 1.51489 54.4219C1.51489 54.0592 1.56411 53.7312 1.70855 53.4995C1.83899 53.2902 2.06859 53.125 2.5305 53.125C2.57348 53.125 2.67603 53.1535 2.87744 53.2552C3.06051 53.3477 3.28707 53.4796 3.56996 53.6443L3.60086 53.6623C4.1908 54.0058 4.99009 54.4685 6.02607 54.9313C8.10057 55.8581 11.1149 56.7812 15.3274 56.7812C18.9339 56.7812 22.8663 55.3494 25.5366 53.7482L25.4081 53.5338L25.5367 53.7482C25.663 53.6724 25.785 53.6009 25.9043 53.531C26.316 53.2896 26.6956 53.0671 27.1105 52.754C27.2587 52.6422 27.4638 52.4756 27.6942 52.2883C27.7221 52.2656 27.7504 52.2426 27.779 52.2194C28.0461 52.0025 28.3449 51.7611 28.6404 51.5352C28.9367 51.3087 29.2245 51.1019 29.4695 50.9528C29.5921 50.8782 29.6991 50.8211 29.7877 50.7833C29.8813 50.7434 29.9332 50.7344 29.9524 50.7344C30.2797 50.7344 30.5288 50.8401 30.6955 51.0068C30.8622 51.1735 30.968 51.4226 30.968 51.75C30.968 51.9269 30.8669 52.1535 30.6488 52.4241C30.4357 52.6885 30.1377 52.962 29.8065 53.2282C29.4766 53.4933 29.1221 53.7447 28.8004 53.9665C28.7083 54.03 28.6181 54.0916 28.5317 54.1505C28.3209 54.2945 28.133 54.4228 27.9966 54.5247C27.6049 54.8174 27.1748 55.0679 26.7279 55.3281C26.5524 55.4303 26.3744 55.534 26.1951 55.6423Z" fill="#E9CC58" stroke="black" stroke-width="0.5"/>
<path d="M43.9008 54.4698L43.9008 54.4698C51.3707 59.5361 59.8848 60.1932 68.0444 56.1201C68.2092 56.0378 68.3632 55.9617 68.5075 55.8903C68.8096 55.7411 69.0688 55.6129 69.2943 55.494C69.6273 55.3183 69.8667 55.1727 70.0413 55.0255C70.2111 54.8822 70.3161 54.7403 70.3824 54.5699C70.4494 54.3974 70.4831 54.1798 70.4841 53.8747C70.4821 53.8652 70.4783 53.8499 70.4723 53.8298C70.4601 53.7891 70.4401 53.7339 70.4106 53.6725C70.3507 53.5479 70.2581 53.4118 70.125 53.3141C69.9973 53.2205 69.8207 53.1531 69.5668 53.1777C69.3062 53.2029 68.9519 53.3266 68.4837 53.6442L68.3434 53.4373L68.4837 53.6442C62.9445 57.4019 54.2551 57.8074 48.1682 54.7391C47.9911 54.6498 47.8144 54.5653 47.6381 54.4809C47.2491 54.2948 46.8616 54.1094 46.4745 53.8756L46.4745 53.8756C45.9107 53.5349 45.3518 53.1477 44.8559 52.7976M43.9008 54.4698L48.2807 54.5158C48.0936 54.4215 47.9118 54.3346 47.7329 54.249C47.3497 54.0657 46.9804 53.8891 46.6038 53.6616C46.0481 53.3258 45.4953 52.943 45.0001 52.5933M43.9008 54.4698C43.8629 54.444 43.8218 54.4163 43.7779 54.3867C43.3665 54.1089 42.7131 53.6678 42.1392 53.1843C41.8214 52.9166 41.5367 52.643 41.3334 52.3842C41.1239 52.1172 41.031 51.9035 41.031 51.75C41.031 51.5091 41.1426 51.2497 41.3219 51.0482C41.5033 50.8444 41.7217 50.7344 41.906 50.7344C42.2547 50.7344 42.6203 50.9573 43.1142 51.367C43.2522 51.4814 43.399 51.6093 43.5551 51.7454C43.9317 52.0736 44.3626 52.4493 44.8559 52.7976M43.9008 54.4698L45.0001 52.5933M44.8559 52.7976L45.0001 52.5933M44.8559 52.7976C44.8559 52.7976 44.8559 52.7976 44.8559 52.7976L45.0001 52.5933M70.4857 53.8831C70.4857 53.883 70.4856 53.8824 70.4854 53.8813L70.4857 53.8831Z" fill="#E9CC58" stroke="black" stroke-width="0.5"/>
<path d="M4.0412 62.5128L4.0412 62.5128C4.00096 62.4804 3.94242 62.4185 3.88707 62.3601C3.88171 62.3544 3.87639 62.3488 3.87111 62.3432C3.80283 62.2712 3.7187 62.1828 3.62107 62.0872C3.42422 61.8946 3.1812 61.6819 2.92282 61.5301C2.66109 61.3763 2.4148 61.3033 2.19911 61.3393C1.99692 61.373 1.76288 61.513 1.53997 61.9197L4.0412 62.5128ZM4.0412 62.5128C9.2266 66.692 15.9401 67.1723 22.1711 65.2253C22.5642 65.1025 23.1566 64.8817 23.7814 64.6489C24.0914 64.5334 24.4094 64.4149 24.7151 64.3039C25.1808 64.1348 25.6197 63.9822 25.97 63.8786C26.1454 63.8267 26.2936 63.7886 26.4091 63.7666C26.4669 63.7557 26.5126 63.7495 26.5471 63.7471C26.579 63.7449 26.5923 63.7466 26.5928 63.7466C26.5929 63.7466 26.5927 63.7465 26.592 63.7464C27.0174 63.8408 27.3061 64.1816 27.3791 64.5647C27.4503 64.9388 27.3148 65.3475 26.8776 65.5954C26.8002 65.6392 26.6988 65.6805 26.5767 65.726C26.5495 65.7361 26.5211 65.7466 26.4919 65.7573C26.3976 65.7918 26.2956 65.8292 26.2035 65.8687C21.9936 67.674 18.5772 68.2345 13.7818 68.2345M4.0412 62.5128L13.7818 68.2345M13.7818 68.2345C9.53282 68.2345 4.74012 66.0518 1.89301 63.2161C1.67843 63.0024 1.519 62.8148 1.44608 62.6152M13.7818 68.2345L1.44608 62.6152M1.44608 62.6152C1.3801 62.4346 1.37623 62.2185 1.53996 61.9197L1.44608 62.6152Z" fill="#E9CC58" stroke="black" stroke-width="0.5"/>
<path d="M69.2919 63.911L69.2919 63.911C62.359 69.5072 54.7339 69.0741 46.6821 66.2281C46.5675 66.1876 46.4588 66.1497 46.3555 66.1137C46.1203 66.0318 45.913 65.9595 45.727 65.888C45.46 65.7853 45.2574 65.6914 45.1036 65.5874C44.9539 65.4861 44.8556 65.3786 44.7916 65.2481C44.7263 65.1151 44.6874 64.9393 44.6874 64.6878C44.6874 64.2861 44.8565 64.0117 45.1108 63.8745C45.3724 63.7335 45.7797 63.7081 46.3036 63.9312L46.4016 63.7012L46.3036 63.9312C52.7195 66.6639 59.9424 67.5254 65.9492 63.9262C66.8612 63.3797 67.56 62.7842 68.1196 62.3073C68.266 62.1825 68.4029 62.0658 68.5316 61.9603C68.8483 61.7005 69.1033 61.5179 69.3316 61.4228C69.5473 61.3329 69.7262 61.3262 69.9121 61.4072C70.3021 61.5772 70.5129 61.8549 70.5641 62.1475C70.6154 62.4411 70.5148 62.8011 70.1759 63.1496C69.9121 63.4207 69.7584 63.5418 69.5266 63.7244C69.4571 63.7792 69.3805 63.8395 69.2919 63.911Z" fill="#E9CC58" stroke="black" stroke-width="0.5"/>
</svg>
