<svg width="68" height="68" viewBox="0 0 68 68" fill="none" xmlns="http://www.w3.org/2000/svg">
<path d="M38.1468 14.096C38.4541 13.0425 38.7723 11.9137 38.7127 10.7891C38.6508 9.61976 38.1862 8.49329 37.0344 7.42565C35.6502 6.14259 34.1292 6.04062 32.4062 6.04062H31.8062V6.64062C31.8062 7.38329 31.7315 7.88102 31.5243 8.19564C31.3585 8.44734 31.0254 8.69688 30.1484 8.69688C29.7646 8.69688 29.5243 8.54137 29.3331 8.2396C29.1172 7.89895 28.9741 7.37558 28.8979 6.70195C28.7918 5.76429 28.8272 4.7245 28.8598 3.76662C28.8747 3.32932 28.889 2.9091 28.889 2.52346C28.889 1.81129 29.0819 1.35123 29.3185 1.06783C29.5481 0.792655 29.8534 0.641524 30.1793 0.6H30.5521C31.2308 0.682844 31.8062 1.19309 31.8062 1.99222V2.65625V3.25625H32.4062C32.5939 3.25625 32.7707 3.2555 32.9385 3.25478C33.7044 3.25153 34.283 3.24907 34.858 3.3224C35.5323 3.4084 36.2052 3.60153 37.118 4.05714L37.386 3.5203L37.118 4.05714C39.6348 5.31339 41.6344 8.11331 41.6344 11.2891C41.6344 12.3297 41.3558 13.3033 41.0813 14.2627C41.0711 14.2982 41.061 14.3337 41.0509 14.3692C40.5942 15.9673 40.0916 17.7794 39.5672 19.6701C38.2931 24.2636 36.8904 29.3208 35.7061 32.8996C34.6658 36.043 32.5666 38.5933 29.8952 40.5167L30.2458 41.0036L29.8952 40.5167C29.7693 40.6073 29.6211 40.692 29.4401 40.7953C29.4004 40.818 29.3592 40.8415 29.3163 40.8662C29.1022 40.9895 28.8351 41.1479 28.6246 41.3436L38.1468 14.096ZM38.1468 14.096C38.1466 14.0965 38.1465 14.0971 38.1463 14.0977L36.2572 20.7047L36.2568 20.7063C35.3944 23.6908 34.5878 26.5091 33.752 29.485C33.6589 29.8166 33.5808 30.1045 33.5109 30.3622C33.3732 30.8701 33.2673 31.2608 33.1405 31.6379C32.942 32.2281 32.6899 32.7984 32.1913 33.7856C30.9514 36.2403 28.4074 38.4036 25.8431 39.4525C18.7416 42.3574 10.9757 38.4792 8.79483 30.7676C8.56462 29.9536 8.33453 29.1567 8.10587 28.3647C7.82016 27.3751 7.53669 26.3933 7.25808 25.3958C6.25779 21.8148 5.23619 18.2483 4.18959 14.6602C4.12852 14.4509 4.06569 14.2445 4.00363 14.0407C3.77011 13.2737 3.54744 12.5424 3.47042 11.8213C3.3673 10.8559 3.5155 9.89607 4.11177 8.74992C4.53788 7.93079 5.26693 7.22551 6.0313 6.76033L6.34322 7.27288M38.1468 14.096L6.34322 7.27288M6.34322 7.27288L6.03131 6.76033C7.10657 6.10598 8.49387 6.04062 9.69529 6.04062H10.2953V6.64062C10.2953 7.47551 10.5218 7.98705 10.7859 8.28259C11.0484 8.57626 11.3955 8.71125 11.7557 8.71233C12.5111 8.71459 13.2125 8.15117 13.2125 7.30471V1.99222C13.2125 1.18775 12.6336 0.679343 11.9532 0.6H11.5995C11.2275 0.644198 10.8798 0.829831 10.6404 1.18325L10.1437 0.846774L10.6404 1.18326C10.4127 1.5194 10.2953 1.97222 10.2953 2.65625V3.25625H9.69529H8.10154C7.22138 3.25625 6.21597 3.52163 5.26898 3.95562C4.33261 4.38475 3.49812 4.95822 2.93637 5.53874M6.34322 7.27288L2.93637 5.53874M2.93637 5.53874L2.01833 6.67946C1.41319 7.54839 1.0668 8.28895 0.866005 9.06402C0.661781 9.85232 0.599998 10.7064 0.599998 11.8203C0.599998 11.947 0.648018 12.271 0.762856 12.8082C0.872833 13.3226 1.03178 13.9792 1.22604 14.735C1.6143 16.2456 2.1384 18.1324 2.68026 20.0304C3.45187 22.7332 4.25194 25.4331 4.74721 27.1045C4.94934 27.7866 5.10071 28.2974 5.17865 28.5672L4.60223 28.7337L5.17865 28.5672C5.30604 29.0081 5.42528 29.432 5.54043 29.8414C6.23537 32.3121 6.78126 34.2528 8.06886 36.1931C9.12772 37.7886 10.2462 38.9802 11.7688 40.1533L13.3516 41.1962L13.3753 41.2118L13.3974 41.2296C13.531 41.337 13.6397 41.4822 13.7218 41.6052C13.8107 41.7384 13.8996 41.8942 13.9861 42.0587C14.1592 42.3881 14.3406 42.7878 14.5114 43.1867C14.7381 43.7161 14.9646 44.2897 15.1293 44.7067C15.207 44.9036 15.2709 45.0655 15.3147 45.1715C15.315 45.1724 15.3154 45.1732 15.3157 45.1741L18.5179 52.7189C18.518 52.719 18.518 52.7191 18.5181 52.7192C18.8064 53.3916 19.0291 53.9073 19.3185 54.5687L2.93637 5.53874ZM61.4404 49.0225C61.2994 48.9717 61.0958 48.9139 60.8564 48.8459C60.7915 48.8274 60.724 48.8083 60.6544 48.7883C60.3608 48.704 60.0069 48.5991 59.7717 48.4863L59.4313 48.323V47.9453C59.4313 47.2661 59.4432 46.6187 59.4546 45.9973C59.5184 42.5264 59.5672 39.8663 57.4449 36.9913C55.6369 34.5423 52.4606 32.475 49.2734 32.475C47.1726 32.475 45.5931 32.7406 44.222 33.335C42.8519 33.929 41.6431 34.8716 40.3144 36.2995C38.0357 38.7486 37.7875 41.373 37.7875 45.2891V45.3047V45.3202V45.3358V45.3513V45.3669V45.3825V45.398V45.4136V45.4292V45.4447V45.4603V45.4759V45.4914V45.507V45.5225V45.5381V45.5537V45.5692V45.5848V45.6004V45.6159V45.6315V45.6471V45.6626V45.6782V45.6938V45.7093V45.7249V45.7404V45.756V45.7716V45.7871V45.8027V45.8183V45.8338V45.8494V45.865V45.8805V45.8961V45.9116V45.9272V45.9428V45.9583V45.9739V45.9895V46.005V46.0206V46.0362V46.0517V46.0673V46.0829V46.0984V46.114V46.1295V46.1451V46.1607V46.1762V46.1918V46.2074V46.2229V46.2385V46.2541V46.2696V46.2852V46.3007V46.3163V46.3319V46.3474V46.363V46.3786V46.3941V46.4097V46.4253V46.4408V46.4564V46.4719V46.4875V46.5031V46.5186V46.5342V46.5498V46.5653V46.5809V46.5965V46.612V46.6276V46.6432V46.6587V46.6743V46.6898V46.7054V46.721V46.7365V46.7521V46.7677V46.7832V46.7988V46.8144V46.8299V46.8455V46.861V46.8766V46.8922V46.9077V46.9233V46.9389V46.9544V46.97V46.9856V47.0011V47.0167V47.0322V47.0478V47.0634V47.0789V47.0945V47.1101V47.1256V47.1412V47.1568V47.1723V47.1879V47.2034V47.219V47.2346V47.2501V47.2657V47.2813V47.2968V47.3124V47.328V47.3435V47.3591V47.3747V47.3902V47.4058V47.4213V47.4369V47.4525V47.468V47.4836V47.4992V47.5147V47.5303V47.5459V47.5614V47.577V47.5925V47.6081V47.6237V47.6392V47.6548V47.6704V47.6859V47.7015V47.7171V47.7326V47.7482V47.7637V47.7793V47.7949V47.8104V47.826V47.8416V47.8571V47.8727V47.8883V47.9038V47.9194V47.935V47.9505V47.9661V47.9816V47.9972V48.0128V48.0283V48.0439V48.0595V48.075V48.0906V48.1062V48.1217V48.1373V48.1528V48.1684V48.184V48.1995V48.2151V48.2307V48.2462V48.2618V48.2774V48.2929V48.3085V48.324V48.3396V48.3552V48.3707V48.3863V48.4019V48.4174V48.433V48.4486V48.4641V48.4797V48.4953V48.5108V48.5264V48.5419V48.5575V48.5731V48.5886V48.6042V48.6198V48.6353V48.6509V48.6665V48.682V48.6976V48.7131V48.7287V48.7443V48.7598V48.7754V48.791V48.8065V48.8221V48.8377V48.8532V48.8688V48.8843V48.8999V48.9155V48.931V48.9466V48.9622V48.9777V48.9933V49.0089V49.0244V49.04V49.0555V49.0711V49.0867V49.1022V49.1178V49.1334V49.1489V49.1645V49.1801V49.1956V49.2112V49.2268V49.2423V49.2579V49.2734V49.289V49.3046V49.3201V49.3357V49.3513V49.3668V49.3824V49.398V49.4135V49.4291V49.4446V49.4602V49.4758V49.4913V49.5069V49.5225V49.538V49.5536V49.5692V49.5847V49.6003V49.6158V49.6314V49.647V49.6625V49.6781V49.6937V49.7092V49.7248V49.7404V49.7559V49.7715V49.7871V49.8026V49.8182V49.8337V49.8493V49.8649V49.8804V49.896V49.9116V49.9271V49.9427V49.9583V49.9738V49.9894V50.0049V50.0205V50.0361V50.0516V50.0672V50.0828V50.0983V50.1139V50.1295V50.145V50.1606V50.1762V50.1917V50.2073V50.2228V50.2384V50.254V50.2695V50.2851V50.3007V50.3162V50.3318V50.3474V50.3629V50.3785V50.394V50.4096V50.4252V50.4407V50.4563V50.4719V50.4874V50.503V50.5186V50.5341V50.5497V50.5653V50.5808V50.5964V50.6119V50.6275V50.6431V50.6586V50.6742V50.6898V50.7053V50.7209V50.7365V50.752V50.7676V50.7831V50.7987V50.8143V50.8298V50.8454V50.861V50.8765V50.8921V50.9077V50.9232V50.9388V50.9543V50.9699V50.9855V51.001V51.0166V51.0322V51.0477V51.0633V51.0789V51.0944V51.11V51.1256V51.1411V51.1567V51.1722V51.1878V51.2034V51.2189V51.2345V51.2501V51.2656V51.2812V51.2968V51.3123V51.3279V51.3434V51.359V51.3746V51.3901V51.4057V51.4213V51.4368V51.4524V51.468V51.4835V51.4991V51.5147V51.5302V51.5458V51.5613V51.5769V51.5925V51.608V51.6236V51.6392V51.6547V51.6703V51.6859V51.7014V51.717V51.7326V51.7481V51.7637V51.7792V51.7948V51.8104V51.8259V51.8415V51.8571V51.8726V51.8882V51.9038V51.9193V51.9349V51.9504V51.966V51.9816V51.9971V52.0127V52.0283V52.0438V52.0594V52.075V52.0905V52.1061V52.1217V52.1372V52.1528V52.1683V52.1839V52.1995V52.215V52.2306V52.2462V52.2617V52.2773V52.2929V52.3084V52.324V52.3396V52.3551V52.3707V52.3862V52.4018V52.4174V52.4329V52.4485V52.4641V52.4796V52.4952V52.5108V52.5263V52.5419V52.5574V52.573V52.5886V52.6041V52.6197V52.6353V52.6508V52.6664V52.682V52.6975V52.7131V52.7287V52.7442V52.7598V52.7753V52.7909V52.8065V52.822V52.8376V52.8532V52.8687V52.8843V52.8999V52.9154V52.931V52.9466V52.9621V52.9777V52.9932V53.0088V53.0244V53.0399V53.0555V53.0711V53.0866V53.1022V53.1178V53.1333V53.1489V53.1645V53.18V53.1956V53.2111V53.2267V53.2423V53.2578C37.7875 53.648 37.7914 54.0318 37.7952 54.4081C37.8055 55.428 37.8152 56.3921 37.7457 57.2752C37.6489 58.5045 37.3961 59.6534 36.7472 60.7188C32.5718 67.575 22.5094 64.6674 22.5094 56.8438V55.7813C22.5094 55.6823 22.5335 55.5907 22.5421 55.558L22.5426 55.556C22.556 55.5049 22.5736 55.4482 22.5928 55.3902C22.6315 55.273 22.686 55.1227 22.7523 54.9476C22.8856 54.5959 23.0752 54.1211 23.3032 53.5629C23.7598 52.4455 24.3767 50.9785 25.0194 49.4622C25.4855 48.3624 25.9647 47.238 26.4067 46.2005C27.1868 44.3699 27.8515 42.8101 28.1253 42.1353C28.1342 42.1136 28.1777 42.0203 28.2109 41.9492L28.223 41.9232L28.2804 41.8002L28.2994 41.7596L28.305 41.7476L28.3069 41.7435L28.3084 41.7404L28.3105 41.7359L28.3142 41.7285L28.3202 41.717C28.3233 41.7112 28.3353 41.6909 28.3482 41.6705L28.3478 41.6702C28.3642 41.6452 28.3724 41.6315 28.3756 41.6262C28.3786 41.62 28.3852 41.6068 28.3934 41.5922C28.407 41.5681 28.4269 41.5364 28.455 41.5023C28.482 41.4695 28.5074 41.4457 28.5239 41.4311C28.5377 41.4189 28.5498 41.4093 28.5528 41.407L28.5531 41.4068L28.5618 41.3999C28.5657 41.3967 28.5833 41.382 28.6245 41.3437L61.4404 49.0225ZM61.4404 49.0225C61.8714 49.1777 62.3947 49.4406 62.7812 49.6642M61.4404 49.0225L62.7812 49.6642M50.5815 51.1128L51.0491 51.4887C51.4211 51.026 52.0182 50.5099 52.7021 50.0475C53.3835 49.5866 54.1134 49.2046 54.7299 48.991C55.052 48.8794 55.2751 48.8308 55.4814 48.7859C55.5697 48.7666 55.6549 48.7481 55.7434 48.7255C55.8741 48.6923 56.0562 48.6389 56.2213 48.5208C56.4101 48.3857 56.527 48.2044 56.5938 48.0017C56.6534 47.8208 56.6743 47.6195 56.6834 47.4196C56.6927 47.2136 56.691 46.9619 56.6855 46.662C56.6829 46.5218 56.6795 46.3687 56.6757 46.2008C56.6631 45.6411 56.6469 44.9172 56.6469 43.961C56.6469 40.3678 54.9652 37.3992 52.0628 36.0901C47.4038 33.9886 42.3649 36.3461 40.9454 41.0822C40.6698 42.0016 40.5545 43.4266 40.5101 45.0303C40.4652 46.6535 40.4924 48.5303 40.5275 50.3886C40.5327 50.6616 40.538 50.9342 40.5434 51.2055C40.5743 52.7876 40.6045 54.3289 40.5952 55.6777C40.5842 57.2754 40.517 58.5367 40.3508 59.2628C39.3392 63.6836 35.2609 67.4 30.6797 67.4C28.5403 67.4 27.3923 67.2852 25.6361 66.4021C22.7462 64.9488 20.7663 62.5952 19.9687 59.4868L19.3876 59.6359L19.9687 59.4868C19.7835 58.7647 19.7149 57.8103 19.6516 56.8802L19.649 56.8421C19.6191 56.4029 19.5896 55.9695 19.5466 55.5975C19.5044 55.2322 19.4423 54.8516 19.3185 54.5688L50.5815 51.1128ZM50.5815 51.1128L51.0491 51.4887C49.8547 52.9743 48.6781 54.8745 48.6781 57.375M50.5815 51.1128L48.6781 57.375M48.6781 57.375C48.6781 60.3733 49.5404 62.5785 51.3872 64.4253M48.6781 57.375L51.3872 64.4253M51.3872 64.4253C51.9704 65.0086 52.9034 65.6931 53.9884 66.23M51.3872 64.4253L53.9884 66.23M53.9884 66.23C55.0755 66.7679 56.2681 67.1344 57.375 67.1344M53.9884 66.23L57.375 67.1344M57.375 67.1344H58.7031M57.375 67.1344H58.7031M58.7031 67.1344C60.8224 67.1344 63.0018 66.0603 64.6638 64.3982M58.7031 67.1344L64.6638 64.3982M64.6638 64.3982C66.3259 62.7362 67.4 60.5567 67.4 58.4375M64.6638 64.3982L67.4 58.4375M67.4 58.4375V57.1094M67.4 58.4375V57.1094M67.4 57.1094C67.4 54.0901 65.1768 51.0506 62.7812 49.6642M67.4 57.1094L62.7812 49.6642M21.339 50.2887L20.6062 50.8257L20.4 49.9409C20.3199 49.5969 20.0682 49.0155 19.8625 48.5402C19.8434 48.4963 19.8248 48.4532 19.8067 48.4114L19.8052 48.4076L17.9084 43.9293L17.5552 43.0953H18.4609C18.8758 43.0953 19.1372 43.1321 19.3766 43.1658L19.389 43.1676C19.6138 43.1992 19.8244 43.2281 20.1875 43.2281H22.1797C22.501 43.2281 22.6606 43.2006 22.8303 43.1708L22.8415 43.1688C23.0394 43.134 23.2593 43.0953 23.6406 43.0953H24.2927L24.2386 43.7451C24.2191 43.9788 24.1229 44.2734 24.0262 44.5353C23.9218 44.818 23.7868 45.1395 23.6488 45.4555C23.5282 45.7317 23.408 45.9979 23.2995 46.2385C23.1499 46.57 23.0222 46.853 22.9452 47.0467L22.9452 47.0468C22.7738 47.4781 22.6391 47.7961 22.4896 48.149C22.4234 48.3053 22.3543 48.4684 22.2779 48.6511C22.2498 48.7181 22.2154 48.8061 22.1775 48.9031C22.1079 49.0811 22.0264 49.2894 21.9508 49.4539C21.8294 49.7184 21.6437 50.0654 21.339 50.2887ZM62.6837 53.1288C63.7858 54.2309 64.6156 56.1452 64.6156 57.7735C64.6156 60.3084 63.0338 62.7151 60.6764 63.7685C55.222 66.2057 49.5418 60.4478 52.0914 55.0348C54.0782 50.8166 59.5478 49.993 62.6837 53.1288Z" fill="#E9CC58" stroke="#171B29" stroke-width="1.2"/>
<path d="M56.6469 58.0392C56.6469 58.3282 56.7863 58.5951 57.049 58.8098C57.3169 59.0286 57.6874 59.1675 58.0587 59.1797C58.4256 59.1917 58.7546 59.0807 58.9903 58.8514C59.2216 58.6264 59.4312 58.2206 59.4312 57.508C59.4312 57.219 59.2918 56.9521 59.0291 56.7374C58.7612 56.5186 58.3908 56.3797 58.0194 56.3675C57.6526 56.3554 57.3235 56.4665 57.0878 56.6957C56.8565 56.9208 56.6469 57.3266 56.6469 58.0392Z" fill="#E9CC58" stroke="#171B29" stroke-width="1.2"/>
</svg>
