<svg width="62" height="68" viewBox="0 0 62 68" fill="none" xmlns="http://www.w3.org/2000/svg">
<mask id="path-1-inside-1_31:1129" fill="white">
<path fill-rule="evenodd" clip-rule="evenodd" d="M30.5469 65.6094C26.2773 65.6094 22.8845 59.4599 21.7648 56.0634C21.5737 55.4841 21.1729 54.7238 21.1171 54.0547C21.8791 53.9913 22.8649 53.5808 23.5907 53.3408L28.2017 51.5767C28.6329 51.3844 28.8883 51.2897 29.3071 51.0884C29.5163 50.9878 30.3415 50.6034 30.5024 50.5602C31.0685 50.4082 37.8179 53.6094 39.9766 53.789C39.9242 54.4171 39.5196 55.2992 39.3325 55.8013C39.0655 56.5184 38.8624 57.0018 38.5726 57.6977C38.2827 58.3938 38.0348 58.8979 37.7204 59.5017C37.4471 60.0269 37.0849 60.6558 36.7368 61.1743C36.3705 61.72 36.0443 62.2496 35.6262 62.72C34.3979 64.1018 32.7164 65.6094 30.5469 65.6094ZM50.6015 52.8594C48.7766 52.8594 44.3495 52.6313 43.164 52.0625C43.7122 49.7098 44.8906 44.3937 44.8906 41.9687C46.9245 40.8926 52.3914 35.5965 52.5937 35.461C53.3448 35.9639 55.7684 39.3395 56.3686 40.3188C57.9316 42.8694 59.86 46.8862 57.9095 49.8079C56.4125 52.0504 53.6029 52.8594 50.6015 52.8594ZM2.65622 47.2813C2.65622 46.2717 3.10367 44.5749 3.41306 43.7881C4.20273 41.7796 5.38138 39.9259 6.64047 38.2499C7.03331 37.727 8.20216 36.1427 8.76562 35.9922C9.33895 36.3761 9.78934 37.007 10.436 37.5093C12.1419 38.8343 13.6316 40.3556 15.8379 41.8027C16.6029 42.3044 16.3883 42.7187 16.5769 44.2512C17.0579 48.1571 17.3672 48.9065 18.1953 52.461C16.2295 52.461 9.68261 54.6718 5.1355 51.8411C3.75287 50.9803 2.65622 49.4475 2.65622 47.2813ZM40.7734 51.5312C39.5616 51.4304 34.3193 49.3078 33.6015 49.1406C33.8601 48.7877 34.1289 48.7457 34.5771 48.5224L36.7874 47.2796C38.2431 46.5259 40.7044 44.8965 42.1015 43.9609C42.1015 44.7778 41.3971 48.7577 41.1735 49.6735C41.0407 50.2168 40.7868 50.9287 40.7734 51.5312ZM18.9922 44.0938L27.5797 48.9204C27.8458 49.0799 27.7142 48.9873 27.8906 49.1406C27.2521 49.2893 26.6551 49.5819 26.0502 49.8237L22.3833 51.2037C21.8 51.3982 20.8987 51.5831 20.4531 51.7969C20.1373 50.4416 18.9922 45.4806 18.9922 44.0938ZM42.5 40.7734L39.7392 42.6612C38.7744 43.3114 37.7568 43.9004 36.7817 44.4848C36.0901 44.8993 31.0451 47.7522 30.6797 47.7522C29.8873 47.7522 23.0195 43.7233 21.5571 42.857C20.8363 42.4299 19.2427 41.2123 18.5937 41.0391C18.5937 39.0376 18.3281 37.4089 18.3281 35.3281V32.8047C18.3281 30.7705 18.5937 29.1598 18.5937 27.2266L24.312 23.5152C25.0039 23.1007 30.0484 20.2478 30.414 20.2478C31.2064 20.2478 38.0742 24.2767 39.5366 25.143C40.2574 25.5701 41.851 26.7877 42.5 26.9609C42.5 28.9624 42.7656 30.5911 42.7656 32.6719V35.1953C42.7656 37.2295 42.5 38.8402 42.5 40.7734ZM45.0234 28.9531C45.8508 29.1741 50.0784 33.2062 50.8672 33.7344C50.2975 34.5852 48.3443 36.2407 47.3836 37.0242L45.0234 38.9141C45.0234 38.2407 45.1562 38.1904 45.1562 37.4532V30.4141C45.1562 29.6767 45.0234 29.6265 45.0234 28.9531ZM15.9375 30.2813V37.5859C15.9375 38.3233 16.0702 38.3735 16.0702 39.0469C15.5783 38.7174 15.0651 38.28 14.5788 37.8821C14.0313 37.4341 13.5772 37.0903 13.0452 36.6267C12.3992 36.0637 10.5703 34.5134 10.2265 34L13.0153 31.4763C13.4522 31.1399 15.6204 29.2061 16.0702 29.0859C16.0569 29.6866 15.9375 29.6138 15.9375 30.2813ZM33.3359 18.7265C34.6465 18.4212 38.7785 16.3581 40.6406 16.2031L41.8172 21.7999C41.936 22.5144 42.1015 23.1375 42.1015 23.9062C39.1157 21.9068 38.1711 21.5817 35.6194 20.0291C35.0251 19.6674 33.6741 19.1881 33.3359 18.7265ZM18.9922 23.9062C18.9922 22.8874 19.3768 21.1475 19.5596 20.0909L20.3203 16.336L25.6893 18.1388C26.2144 18.34 26.9678 18.6829 27.4922 18.7265C27.1974 19.1667 27.0497 19.156 26.5629 19.391C24.2204 20.5219 22.2355 21.9464 20.061 23.2485C19.6853 23.4734 19.4057 23.6874 18.9922 23.9062ZM8.49997 32.539C7.15182 30.5257 4.59427 28.1883 3.24173 24.7816C2.34468 22.5222 1.7599 19.633 3.55243 17.6306C4.13394 16.981 5.30827 16.0223 6.24213 15.8047C6.75197 16.8672 6.63689 17.2874 7.99957 18.5629C9.574 20.0366 12.0519 20.318 14.1208 19.4333C15.3991 18.8866 17.0087 17.1628 17.1328 15.6719C17.5236 15.7629 17.5382 15.8047 18.0625 15.8047C17.8798 16.1854 17.4998 17.8462 17.4146 18.3444C17.08 20.3016 16.6347 22.105 16.4722 24.0426C16.2737 26.4109 16.4992 25.6883 13.7546 27.8327L10.1932 30.912C9.66705 31.4412 9.08083 32.1501 8.49997 32.539ZM42.8984 15.539C43.2957 15.506 43.6796 15.3737 43.9929 15.3054C46.7724 14.6993 50.2363 14.4308 52.9368 14.9304C60.8401 16.3923 58.7725 23.9072 55.4039 28.4431C55.0842 28.8737 54.8206 29.2126 54.4916 29.6556C54.1629 30.098 52.79 31.7875 52.4609 32.0078L48.9773 28.9837C47.7602 27.9911 46.5794 27.0583 45.303 26.1501C44.8667 25.8396 44.8055 25.8538 44.6918 25.1676C44.3037 22.8264 43.7834 17.3834 42.8984 15.539ZM11.6875 17.5312C9.97341 17.5312 8.49997 16.1133 8.49997 14.6094V13.9453C8.49997 12.4842 9.96073 11.0234 11.4218 11.0234H12.0859C15.7803 11.0234 16.1651 17.5312 11.6875 17.5312ZM30.5469 17.3985L23.558 14.8248C23.0802 14.6645 22.8378 14.5851 22.3414 14.4476C22.0664 14.3713 21.3768 14.2027 21.1171 14.0781C21.8077 11.1143 24.2986 5.9716 26.6011 4.02297C30.6517 0.594858 34.1974 2.89519 36.7891 6.77342L37.7247 8.3612C38.0909 8.99424 38.2195 9.31998 38.5602 10.0492C38.8751 10.7229 39.9195 13.1268 39.9766 13.8125L32.8424 16.3737C32.5503 16.4888 30.5547 17.3985 30.5469 17.3985ZM18.5937 13.5468C18.2062 13.4566 17.6872 13.3163 17.2656 13.2813C17.0793 11.042 14.5167 8.6328 12.0859 8.6328C10.2325 8.6328 8.48321 9.17402 7.35767 10.678C5.67069 12.9322 6.84582 13.0561 5.77265 13.4758C2.25528 14.8513 0 17.0138 0 21.25C0 23.7983 1.51112 27.0595 2.57579 28.6352C3.82945 30.4907 4.26663 31.146 5.75068 32.8977C6.13783 33.3548 6.58639 33.788 6.90624 34.2657L5.81046 35.5605C3.29052 38.2044 0.265579 43.4341 0.265579 47.5468C0.265579 51.1148 2.76256 53.9074 6.00494 54.956C8.82728 55.8687 12.5802 55.833 15.5002 55.3439C16.1946 55.2277 18.1988 54.972 18.7265 54.7187C19.2345 55.6787 19.5979 57.2185 19.9646 57.9964C21.5751 61.413 22.7471 63.86 25.6726 66.2336C27.2539 67.5165 28.7323 68 30.9453 68C35.1204 68 38.5128 63.4203 40.1743 60.0963C41.1134 58.2175 42.2157 54.9902 42.5 54.4532C46.9165 55.482 54.3619 56.1909 58.2748 52.9623C63.1117 48.9712 60.8759 43.0158 58.0653 38.6222C57.8446 38.2772 57.803 38.14 57.5409 37.8184L54.1875 33.6015C57.5557 29.7265 60.8281 25.6999 60.8281 20.0547C60.8281 17.3913 59.1271 15.1763 57.4849 14.101C54.3045 12.0187 49.8087 11.9306 45.8948 12.5589C45.0436 12.6955 42.9109 13.0204 42.3672 13.2813C42.1682 12.4272 41.0015 9.63479 40.6386 8.90039C40.4665 8.55195 40.3807 8.26808 40.2001 7.87798L38.3838 4.91301C36.9949 2.93658 34.2211 0 30.9453 0H30.1484C24.807 0 21.1894 6.72811 19.4668 11.2325C19.175 11.9956 18.9301 12.9111 18.5937 13.5468Z"/>
</mask>
<path fill-rule="evenodd" clip-rule="evenodd" d="M30.5469 65.6094C26.2773 65.6094 22.8845 59.4599 21.7648 56.0634C21.5737 55.4841 21.1729 54.7238 21.1171 54.0547C21.8791 53.9913 22.8649 53.5808 23.5907 53.3408L28.2017 51.5767C28.6329 51.3844 28.8883 51.2897 29.3071 51.0884C29.5163 50.9878 30.3415 50.6034 30.5024 50.5602C31.0685 50.4082 37.8179 53.6094 39.9766 53.789C39.9242 54.4171 39.5196 55.2992 39.3325 55.8013C39.0655 56.5184 38.8624 57.0018 38.5726 57.6977C38.2827 58.3938 38.0348 58.8979 37.7204 59.5017C37.4471 60.0269 37.0849 60.6558 36.7368 61.1743C36.3705 61.72 36.0443 62.2496 35.6262 62.72C34.3979 64.1018 32.7164 65.6094 30.5469 65.6094ZM50.6015 52.8594C48.7766 52.8594 44.3495 52.6313 43.164 52.0625C43.7122 49.7098 44.8906 44.3937 44.8906 41.9687C46.9245 40.8926 52.3914 35.5965 52.5937 35.461C53.3448 35.9639 55.7684 39.3395 56.3686 40.3188C57.9316 42.8694 59.86 46.8862 57.9095 49.8079C56.4125 52.0504 53.6029 52.8594 50.6015 52.8594ZM2.65622 47.2813C2.65622 46.2717 3.10367 44.5749 3.41306 43.7881C4.20273 41.7796 5.38138 39.9259 6.64047 38.2499C7.03331 37.727 8.20216 36.1427 8.76562 35.9922C9.33895 36.3761 9.78934 37.007 10.436 37.5093C12.1419 38.8343 13.6316 40.3556 15.8379 41.8027C16.6029 42.3044 16.3883 42.7187 16.5769 44.2512C17.0579 48.1571 17.3672 48.9065 18.1953 52.461C16.2295 52.461 9.68261 54.6718 5.1355 51.8411C3.75287 50.9803 2.65622 49.4475 2.65622 47.2813ZM40.7734 51.5312C39.5616 51.4304 34.3193 49.3078 33.6015 49.1406C33.8601 48.7877 34.1289 48.7457 34.5771 48.5224L36.7874 47.2796C38.2431 46.5259 40.7044 44.8965 42.1015 43.9609C42.1015 44.7778 41.3971 48.7577 41.1735 49.6735C41.0407 50.2168 40.7868 50.9287 40.7734 51.5312ZM18.9922 44.0938L27.5797 48.9204C27.8458 49.0799 27.7142 48.9873 27.8906 49.1406C27.2521 49.2893 26.6551 49.5819 26.0502 49.8237L22.3833 51.2037C21.8 51.3982 20.8987 51.5831 20.4531 51.7969C20.1373 50.4416 18.9922 45.4806 18.9922 44.0938ZM42.5 40.7734L39.7392 42.6612C38.7744 43.3114 37.7568 43.9004 36.7817 44.4848C36.0901 44.8993 31.0451 47.7522 30.6797 47.7522C29.8873 47.7522 23.0195 43.7233 21.5571 42.857C20.8363 42.4299 19.2427 41.2123 18.5937 41.0391C18.5937 39.0376 18.3281 37.4089 18.3281 35.3281V32.8047C18.3281 30.7705 18.5937 29.1598 18.5937 27.2266L24.312 23.5152C25.0039 23.1007 30.0484 20.2478 30.414 20.2478C31.2064 20.2478 38.0742 24.2767 39.5366 25.143C40.2574 25.5701 41.851 26.7877 42.5 26.9609C42.5 28.9624 42.7656 30.5911 42.7656 32.6719V35.1953C42.7656 37.2295 42.5 38.8402 42.5 40.7734ZM45.0234 28.9531C45.8508 29.1741 50.0784 33.2062 50.8672 33.7344C50.2975 34.5852 48.3443 36.2407 47.3836 37.0242L45.0234 38.9141C45.0234 38.2407 45.1562 38.1904 45.1562 37.4532V30.4141C45.1562 29.6767 45.0234 29.6265 45.0234 28.9531ZM15.9375 30.2813V37.5859C15.9375 38.3233 16.0702 38.3735 16.0702 39.0469C15.5783 38.7174 15.0651 38.28 14.5788 37.8821C14.0313 37.4341 13.5772 37.0903 13.0452 36.6267C12.3992 36.0637 10.5703 34.5134 10.2265 34L13.0153 31.4763C13.4522 31.1399 15.6204 29.2061 16.0702 29.0859C16.0569 29.6866 15.9375 29.6138 15.9375 30.2813ZM33.3359 18.7265C34.6465 18.4212 38.7785 16.3581 40.6406 16.2031L41.8172 21.7999C41.936 22.5144 42.1015 23.1375 42.1015 23.9062C39.1157 21.9068 38.1711 21.5817 35.6194 20.0291C35.0251 19.6674 33.6741 19.1881 33.3359 18.7265ZM18.9922 23.9062C18.9922 22.8874 19.3768 21.1475 19.5596 20.0909L20.3203 16.336L25.6893 18.1388C26.2144 18.34 26.9678 18.6829 27.4922 18.7265C27.1974 19.1667 27.0497 19.156 26.5629 19.391C24.2204 20.5219 22.2355 21.9464 20.061 23.2485C19.6853 23.4734 19.4057 23.6874 18.9922 23.9062ZM8.49997 32.539C7.15182 30.5257 4.59427 28.1883 3.24173 24.7816C2.34468 22.5222 1.7599 19.633 3.55243 17.6306C4.13394 16.981 5.30827 16.0223 6.24213 15.8047C6.75197 16.8672 6.63689 17.2874 7.99957 18.5629C9.574 20.0366 12.0519 20.318 14.1208 19.4333C15.3991 18.8866 17.0087 17.1628 17.1328 15.6719C17.5236 15.7629 17.5382 15.8047 18.0625 15.8047C17.8798 16.1854 17.4998 17.8462 17.4146 18.3444C17.08 20.3016 16.6347 22.105 16.4722 24.0426C16.2737 26.4109 16.4992 25.6883 13.7546 27.8327L10.1932 30.912C9.66705 31.4412 9.08083 32.1501 8.49997 32.539ZM42.8984 15.539C43.2957 15.506 43.6796 15.3737 43.9929 15.3054C46.7724 14.6993 50.2363 14.4308 52.9368 14.9304C60.8401 16.3923 58.7725 23.9072 55.4039 28.4431C55.0842 28.8737 54.8206 29.2126 54.4916 29.6556C54.1629 30.098 52.79 31.7875 52.4609 32.0078L48.9773 28.9837C47.7602 27.9911 46.5794 27.0583 45.303 26.1501C44.8667 25.8396 44.8055 25.8538 44.6918 25.1676C44.3037 22.8264 43.7834 17.3834 42.8984 15.539ZM11.6875 17.5312C9.97341 17.5312 8.49997 16.1133 8.49997 14.6094V13.9453C8.49997 12.4842 9.96073 11.0234 11.4218 11.0234H12.0859C15.7803 11.0234 16.1651 17.5312 11.6875 17.5312ZM30.5469 17.3985L23.558 14.8248C23.0802 14.6645 22.8378 14.5851 22.3414 14.4476C22.0664 14.3713 21.3768 14.2027 21.1171 14.0781C21.8077 11.1143 24.2986 5.9716 26.6011 4.02297C30.6517 0.594858 34.1974 2.89519 36.7891 6.77342L37.7247 8.3612C38.0909 8.99424 38.2195 9.31998 38.5602 10.0492C38.8751 10.7229 39.9195 13.1268 39.9766 13.8125L32.8424 16.3737C32.5503 16.4888 30.5547 17.3985 30.5469 17.3985ZM18.5937 13.5468C18.2062 13.4566 17.6872 13.3163 17.2656 13.2813C17.0793 11.042 14.5167 8.6328 12.0859 8.6328C10.2325 8.6328 8.48321 9.17402 7.35767 10.678C5.67069 12.9322 6.84582 13.0561 5.77265 13.4758C2.25528 14.8513 0 17.0138 0 21.25C0 23.7983 1.51112 27.0595 2.57579 28.6352C3.82945 30.4907 4.26663 31.146 5.75068 32.8977C6.13783 33.3548 6.58639 33.788 6.90624 34.2657L5.81046 35.5605C3.29052 38.2044 0.265579 43.4341 0.265579 47.5468C0.265579 51.1148 2.76256 53.9074 6.00494 54.956C8.82728 55.8687 12.5802 55.833 15.5002 55.3439C16.1946 55.2277 18.1988 54.972 18.7265 54.7187C19.2345 55.6787 19.5979 57.2185 19.9646 57.9964C21.5751 61.413 22.7471 63.86 25.6726 66.2336C27.2539 67.5165 28.7323 68 30.9453 68C35.1204 68 38.5128 63.4203 40.1743 60.0963C41.1134 58.2175 42.2157 54.9902 42.5 54.4532C46.9165 55.482 54.3619 56.1909 58.2748 52.9623C63.1117 48.9712 60.8759 43.0158 58.0653 38.6222C57.8446 38.2772 57.803 38.14 57.5409 37.8184L54.1875 33.6015C57.5557 29.7265 60.8281 25.6999 60.8281 20.0547C60.8281 17.3913 59.1271 15.1763 57.4849 14.101C54.3045 12.0187 49.8087 11.9306 45.8948 12.5589C45.0436 12.6955 42.9109 13.0204 42.3672 13.2813C42.1682 12.4272 41.0015 9.63479 40.6386 8.90039C40.4665 8.55195 40.3807 8.26808 40.2001 7.87798L38.3838 4.91301C36.9949 2.93658 34.2211 0 30.9453 0H30.1484C24.807 0 21.1894 6.72811 19.4668 11.2325C19.175 11.9956 18.9301 12.9111 18.5937 13.5468Z" fill="#E9CC58" stroke="black" mask="url(#path-1-inside-1_31:1129)"/>
<path d="M26.8745 37.3933L26.8745 37.3933C28.0726 38.6903 29.4397 38.8985 30.9458 38.8985C32.4729 38.8985 33.9103 37.9731 34.7602 36.646C35.6139 35.3129 35.8924 33.5486 35.0698 31.8513C33.8673 29.3698 31.4714 28.61 29.3869 29.1211C27.3082 29.6307 25.5161 31.4105 25.5161 34.0001C25.5161 34.2464 25.5915 34.6471 25.677 35.0103C25.7635 35.378 25.87 35.7471 25.9465 35.9382L25.9465 35.9382C26.0246 36.1333 26.1884 36.422 26.3594 36.69C26.5307 36.9587 26.7257 37.2322 26.8745 37.3933ZM36.2708 30.0882L36.4699 29.9369L36.2708 30.0882C37.1798 31.2837 37.4692 32.6782 37.4692 34.2657C37.4692 37.7699 34.2 40.922 30.6801 40.922C26.7767 40.922 23.6254 37.7596 23.6254 34.2657V33.6016C23.6254 30.7444 25.5558 28.506 28.0275 27.5441C30.4964 26.5832 33.4617 26.9137 35.5122 29.1524L35.5122 29.1524C35.7548 29.4172 36.0318 29.7737 36.2708 30.0882Z" fill="#E9CC58" stroke="black" stroke-width="0.5"/>
</svg>
