<svg width="22" height="22" viewBox="0 0 22 22" fill="none" xmlns="http://www.w3.org/2000/svg">
<path fill-rule="evenodd" clip-rule="evenodd" d="M6.46503 0.066C7.63803 0.012 8.01203 0 11 0C13.988 0 14.362 0.013 15.534 0.066C16.706 0.119 17.506 0.306 18.206 0.577C18.939 0.854 19.604 1.287 20.154 1.847C20.714 2.396 21.146 3.06 21.422 3.794C21.694 4.494 21.88 5.294 21.934 6.464C21.988 7.639 22 8.013 22 11C22 13.988 21.987 14.362 21.934 15.535C21.881 16.705 21.694 17.505 21.422 18.205C21.146 18.9391 20.7133 19.6042 20.154 20.154C19.604 20.714 18.939 21.146 18.206 21.422C17.506 21.694 16.706 21.88 15.536 21.934C14.362 21.988 13.988 22 11 22C8.01203 22 7.63803 21.987 6.46503 21.934C5.29503 21.881 4.49503 21.694 3.79503 21.422C3.06095 21.146 2.39585 20.7133 1.84603 20.154C1.28641 19.6047 0.853345 18.9399 0.57703 18.206C0.306031 17.506 0.12003 16.706 0.0660305 15.536C0.0120305 14.361 3.05176e-05 13.987 3.05176e-05 11C3.05176e-05 8.012 0.0130305 7.638 0.0660305 6.466C0.11903 5.294 0.306031 4.494 0.57703 3.794C0.853753 3.06008 1.28715 2.39531 1.84703 1.846C2.39607 1.2865 3.0605 0.853443 3.79403 0.577C4.49403 0.306 5.29403 0.12 6.46403 0.066H6.46503ZM15.445 2.046C14.285 1.993 13.937 1.982 11 1.982C8.06303 1.982 7.71503 1.993 6.55503 2.046C5.48203 2.095 4.90003 2.274 4.51203 2.425C3.99903 2.625 3.63203 2.862 3.24703 3.247C2.88208 3.60205 2.60121 4.03428 2.42503 4.512C2.27403 4.9 2.09503 5.482 2.04603 6.555C1.99303 7.715 1.98203 8.063 1.98203 11C1.98203 13.937 1.99303 14.285 2.04603 15.445C2.09503 16.518 2.27403 17.1 2.42503 17.488C2.60103 17.965 2.88203 18.398 3.24703 18.753C3.60203 19.118 4.03503 19.399 4.51203 19.575C4.90003 19.726 5.48203 19.905 6.55503 19.954C7.71503 20.007 8.06203 20.018 11 20.018C13.938 20.018 14.285 20.007 15.445 19.954C16.518 19.905 17.1 19.726 17.488 19.575C18.001 19.375 18.368 19.138 18.753 18.753C19.118 18.398 19.399 17.965 19.575 17.488C19.726 17.1 19.905 16.518 19.954 15.445C20.007 14.285 20.018 13.937 20.018 11C20.018 8.063 20.007 7.715 19.954 6.555C19.905 5.482 19.726 4.9 19.575 4.512C19.375 3.999 19.138 3.632 18.753 3.247C18.398 2.88207 17.9657 2.60121 17.488 2.425C17.1 2.274 16.518 2.095 15.445 2.046ZM9.59503 14.391C10.3797 14.7176 11.2534 14.7617 12.067 14.5157C12.8805 14.2697 13.5834 13.7489 14.0556 13.0422C14.5279 12.3356 14.7401 11.4869 14.6561 10.6411C14.5721 9.79534 14.197 9.00497 13.595 8.405C13.2113 8.02148 12.7472 7.72781 12.2364 7.54515C11.7255 7.36248 11.1805 7.29536 10.6405 7.34862C10.1006 7.40187 9.57918 7.57418 9.11383 7.85313C8.64849 8.13208 8.25077 8.51074 7.94933 8.96185C7.64789 9.41296 7.45022 9.92529 7.37055 10.462C7.29087 10.9986 7.33118 11.5463 7.48857 12.0655C7.64596 12.5847 7.91651 13.0626 8.28075 13.4647C8.64499 13.8668 9.09385 14.1832 9.59503 14.391ZM7.00203 7.002C7.52705 6.47697 8.15035 6.0605 8.83633 5.77636C9.52231 5.49222 10.2575 5.34597 11 5.34597C11.7425 5.34597 12.4778 5.49222 13.1637 5.77636C13.8497 6.0605 14.473 6.47697 14.998 7.002C15.5231 7.52702 15.9395 8.15032 16.2237 8.8363C16.5078 9.52228 16.6541 10.2575 16.6541 11C16.6541 11.7425 16.5078 12.4777 16.2237 13.1637C15.9395 13.8497 15.5231 14.473 14.998 14.998C13.9377 16.0583 12.4996 16.654 11 16.654C9.50049 16.654 8.06237 16.0583 7.00203 14.998C5.94169 13.9377 5.346 12.4995 5.346 11C5.346 9.50046 5.94169 8.06234 7.00203 7.002ZM17.908 6.188C18.0381 6.06527 18.1423 5.91768 18.2143 5.75397C18.2864 5.59027 18.3248 5.41377 18.3274 5.23493C18.3301 5.05609 18.2968 4.87855 18.2295 4.71281C18.1623 4.54707 18.0625 4.39651 17.936 4.27004C17.8095 4.14357 17.659 4.04376 17.4932 3.97652C17.3275 3.90928 17.1499 3.87598 16.9711 3.87858C16.7923 3.88119 16.6158 3.91965 16.4521 3.9917C16.2883 4.06374 16.1408 4.1679 16.018 4.298C15.7793 4.55103 15.6487 4.88712 15.6537 5.23493C15.6588 5.58274 15.7992 5.91488 16.0452 6.16084C16.2911 6.40681 16.6233 6.54723 16.9711 6.5523C17.3189 6.55737 17.655 6.42669 17.908 6.188Z" fill="#E9CC58"/>
</svg>
