<svg width="21" height="29" viewBox="0 0 21 29" fill="none" xmlns="http://www.w3.org/2000/svg">
<path d="M10.6001 1C5.30642 1 1 5.49489 1 11.0181C1 19.2904 9.96085 27.2335 10.3425 27.5677C10.4137 27.631 10.5042 27.666 10.5979 27.6666C10.6915 27.6672 10.7824 27.6334 10.8545 27.571C11.2361 27.2427 20.2001 19.4362 20.2001 11.0181C20.2001 5.49489 15.8937 1 10.6001 1ZM10.6017 26.6977C9.12884 25.3269 1.8 18.1488 1.8 11.0181C1.8 5.95322 5.74803 1.83331 10.6001 1.83331C15.4521 1.83331 19.4001 5.95322 19.4001 11.0181C19.4001 18.2696 12.0785 25.3453 10.6017 26.6977Z" stroke="#E9CC58" stroke-width="0.8"/>
<path d="M10.6002 6C7.95299 6 5.80018 8.24244 5.80018 10.9999C5.80018 13.7573 7.95299 15.9997 10.6002 15.9997C13.2474 15.9997 15.4002 13.7573 15.4002 10.9999C15.4002 8.24244 13.2474 6 10.6002 6ZM10.6002 15.1664C8.39459 15.1664 6.60018 13.2973 6.60018 10.9999C6.60018 8.70243 8.39459 6.83331 10.6002 6.83331C12.8058 6.83331 14.6002 8.70243 14.6002 10.9999C14.6002 13.2973 12.8058 15.1664 10.6002 15.1664Z" stroke="#E9CC58" stroke-width="0.8"/>
</svg>
