<svg width="68" height="70" viewBox="0 0 68 70" fill="none" xmlns="http://www.w3.org/2000/svg">
<path d="M31.6733 9.10432V8.98865L31.5614 8.95925C31.2063 8.86592 30.8057 8.56183 30.4476 8.16947C30.0925 7.78034 29.7989 7.32601 29.6505 6.96285C28.9454 5.23738 29.2213 3.70318 30.011 2.5539C30.8022 1.40239 32.1143 0.630493 33.4938 0.447119H34.7394C35.5894 0.563232 36.412 0.926245 37.1015 1.58704C37.8972 2.34958 38.427 3.19453 38.6457 4.10542C38.864 5.0149 38.7751 6.00212 38.3136 7.05635L38.3136 7.05636C38.1729 7.37791 37.8928 7.80783 37.5476 8.18321C37.1997 8.56155 36.8049 8.86349 36.4405 8.95925L36.3286 8.98865V9.10432V15.7437V15.8937H36.4786C38.1448 15.8937 39.2917 14.8911 40.2505 13.6068C40.7202 12.9776 41.1505 12.273 41.5769 11.5748L41.6038 11.5308C42.0405 10.8158 42.474 10.1092 42.9482 9.48379C44.4879 7.45289 47.6523 5.18946 51.2071 5.18946H67.8492C67.8345 6.26404 67.6594 7.19573 67.2849 8.035C66.8933 8.91258 66.2799 9.69753 65.3882 10.442C63.9832 11.6149 62.1045 12.0708 60.1543 12.0708H60.0043V12.2208V12.4917V12.63L60.142 12.6412C60.2723 12.6519 60.535 12.729 60.8883 12.856C61.2345 12.9805 61.6496 13.1459 62.0745 13.3216C62.5096 13.5014 62.9588 13.6935 63.3511 13.8614C63.7186 14.0186 64.0363 14.1545 64.2458 14.2389C64.4002 14.3012 64.5486 14.3573 64.6922 14.4117C64.9594 14.5129 65.2104 14.6079 65.4541 14.7245C64.3549 16.7112 62.9413 17.9994 61.2821 18.5861C59.5852 19.1861 57.609 19.0602 55.4117 18.1612C55.3302 18.1279 55.2533 18.0925 55.1765 18.0572C54.9451 17.9508 54.7144 17.8448 54.3612 17.7952L53.9183 17.733L54.2341 18.0496L58.0305 21.8562C57.8172 22.1303 57.5096 22.3822 57.153 22.6066C56.755 22.8571 56.3045 23.0679 55.8761 23.2341C53.8887 24.0048 51.538 23.932 49.6484 23.157C48.9658 22.877 48.5725 22.6189 48.2559 22.3824C48.1832 22.3281 48.1132 22.2737 48.0436 22.2197C47.8128 22.0406 47.5873 21.8656 47.2845 21.7079L47.1193 21.6218L47.0705 21.8017C46.9062 22.4072 46.3366 22.9903 45.5585 23.4259C44.785 23.8589 43.833 24.1299 42.9481 24.1299C42.2134 24.1299 41.3214 23.8241 40.5708 23.3693C40.197 23.1428 39.8634 22.8825 39.6057 22.6107C39.3467 22.3376 39.1714 22.0606 39.1011 21.8017L39.0444 21.5925L38.8686 21.7193C38.8037 21.7661 38.7396 21.8352 38.6775 21.9107C38.6141 21.9879 38.5456 22.0808 38.4728 22.1817C38.4472 22.2172 38.421 22.2538 38.3941 22.2913C38.2664 22.4696 38.1234 22.6691 37.96 22.8707C37.5627 23.3609 37.066 23.8349 36.4405 23.9993L36.3286 24.0287V24.1444V36.0854C35.8072 36.2166 35.0526 36.4737 34.2871 36.7345C34.143 36.7836 33.9986 36.8328 33.8553 36.8813C33.3704 37.0455 32.8961 37.2026 32.4846 37.3234C32.1613 37.4183 31.8838 37.4887 31.6733 37.5236V9.10432Z" fill="#FEFEFE" stroke="#171B29" stroke-width="0.3"/>
<path d="M36.3174 67.6102C36.1887 68.7041 35.2263 69.4437 34.1687 69.5209H33.8073C33.2836 69.4824 32.7643 69.2741 32.3412 68.8605C32.0878 68.6127 31.9136 68.2632 31.7984 67.8377C31.6832 67.4125 31.6296 66.9211 31.6103 66.4001C31.591 65.8795 31.6061 65.3352 31.6264 64.8048C31.6304 64.7007 31.6345 64.5969 31.6387 64.494C31.6556 64.0751 31.6719 63.6695 31.6719 63.3026V63.0554L31.4526 63.1696C31.2695 63.2649 31.0818 63.3579 30.8933 63.4511C30.4523 63.6694 30.0072 63.8896 29.6075 64.1483C29.03 64.5221 28.5249 64.9884 28.2159 65.6774C27.8474 66.4994 27.9133 67.2193 28.253 68.066L28.3922 68.0102L28.253 68.066C28.284 68.1434 28.3222 68.2283 28.3602 68.3129L28.3605 68.3136L28.3606 68.3137C28.3992 68.3996 28.4381 68.486 28.4727 68.5706C28.5453 68.7479 28.5857 68.8869 28.5806 68.9733C28.5644 69.2447 28.4744 69.3842 28.3691 69.4514C28.2593 69.5216 28.0926 69.5395 27.8714 69.4802C27.4284 69.3613 26.861 68.9549 26.4061 68.3639C24.811 66.2915 25.2386 63.5086 26.5826 61.9497C28.387 59.857 30.7504 58.889 33.3221 57.8358C33.5462 57.7441 33.7718 57.6516 33.9988 57.5578C34.3198 57.425 34.6978 57.277 35.1128 57.1144C36.4618 56.5858 38.2028 55.9038 39.6555 55.0951C40.6054 54.5664 41.4484 53.9751 41.9826 53.3244C42.5207 52.669 42.7579 51.9352 42.448 51.1488C42.276 50.7123 41.8607 50.3064 41.3497 49.9453C40.8341 49.5809 40.2005 49.2481 39.5623 48.9645C38.9235 48.6807 38.2759 48.4444 37.7301 48.2742C37.1884 48.1053 36.7352 47.9977 36.4895 47.9776L36.3273 47.9643V48.1271V50.9944C36.1202 51.0601 35.8091 51.1903 35.4516 51.3482C35.1399 51.4859 34.7835 51.649 34.4148 51.8177C34.2649 51.8863 34.1129 51.9559 33.9611 52.025C33.4344 52.2649 32.9082 52.5006 32.466 52.6801C32.2449 52.7699 32.0467 52.8448 31.881 52.8991C31.8014 52.9251 31.7316 52.9456 31.6719 52.9607V48.1271V47.9643L31.5097 47.9776C31.0782 48.013 30.3463 48.2493 29.6509 48.5093C28.9487 48.7719 28.2601 49.0679 27.9042 49.2356L27.9682 49.3713L27.9042 49.2356C27.5267 49.4135 26.9233 49.7268 26.4121 50.1319C25.9099 50.5299 25.453 51.0508 25.453 51.65C25.453 51.6891 25.4529 51.7275 25.4529 51.7655C25.4519 52.1824 25.4512 52.5358 25.563 52.8678C25.6884 53.2397 25.9479 53.5706 26.45 53.9605L26.542 53.8421L26.45 53.9606C26.9446 54.3445 27.253 54.4557 27.4529 54.5277C27.474 54.5353 27.4939 54.5424 27.5127 54.5495C27.6052 54.584 27.6436 54.6061 27.6752 54.6437C27.6997 54.673 27.7258 54.7188 27.7551 54.8008C26.9835 55.0499 26.0956 55.6729 25.3547 56.2617C24.9568 56.578 24.5953 56.8894 24.31 57.1368C24.2889 57.155 24.2684 57.1729 24.2484 57.1902C24.0542 57.3586 23.9056 57.4875 23.8093 57.5639C21.7485 56.1654 20.6797 53.9856 20.7662 51.7325C20.8539 49.4489 22.1298 47.0727 24.8008 45.3511C25.6639 44.7948 26.982 44.2313 28.539 43.6678C30.0934 43.1052 31.8748 42.5463 33.6587 41.997C33.9481 41.908 34.2375 41.8191 34.526 41.7305C36.0149 41.2735 37.4797 40.8239 38.7842 40.3861C40.3394 39.8642 41.6781 39.3556 42.5631 38.8666C42.6286 38.8304 42.6961 38.7934 42.7654 38.7555C43.2948 38.4654 43.9228 38.1214 44.475 37.6801C45.1012 37.1797 45.6453 36.5428 45.8457 35.6961L45.8884 35.5156L45.703 35.5115C44.8466 35.4928 43.8772 35.0002 42.9992 34.2762C42.1245 33.5549 41.3626 32.6217 40.9193 31.7583C40.2387 30.4328 40.2766 29.208 40.7448 28.3215C41.213 27.435 42.1201 26.8688 43.222 26.8688C49.2687 26.8688 53.8123 35.2573 47.9007 41.0766C47.3311 41.6374 46.2657 42.4221 45.1598 43.0823C44.6079 43.4118 44.0494 43.7081 43.5413 43.929C43.0303 44.1511 42.5817 44.2917 42.2463 44.3192L41.9767 44.3413L42.1382 44.5583C42.1773 44.6108 42.2387 44.6639 42.3048 44.7151C42.3738 44.7686 42.4602 44.8292 42.559 44.8962C42.6336 44.9469 42.715 45.0011 42.8029 45.0596C42.9518 45.1588 43.1192 45.2702 43.3034 45.3976C43.8845 45.7995 44.6033 46.3403 45.2704 47.0409C46.602 48.4393 47.7239 50.4688 47.1283 53.3054C46.7831 54.9496 45.6406 56.4395 44.2224 57.6028C42.8051 58.7654 41.1295 59.5875 39.7473 59.9045L39.6308 59.9312V60.0507V60.3217V60.4374L39.7427 60.4668C40.1305 60.5687 40.6258 60.9572 41.1032 61.5596C41.5757 62.1558 42.0132 62.94 42.2939 63.7969C42.8561 65.5131 42.7807 67.482 41.1608 68.8415L41.2573 68.9564L41.1608 68.8415C41.0301 68.9512 40.8988 69.0501 40.7627 69.1525C40.7181 69.1861 40.6731 69.22 40.6273 69.2549C40.4244 69.4094 40.249 69.4891 40.1046 69.5209H39.8208C39.6265 69.468 39.5179 69.2981 39.5179 69.129C39.5179 69.0306 39.5403 68.9127 39.5808 68.7719C39.6208 68.6331 39.6754 68.4813 39.736 68.313L39.738 68.3075C39.8591 67.9709 40.0009 67.5763 40.0616 67.1511C40.1227 66.7229 40.1025 66.2592 39.8987 65.7817C39.6952 65.3048 39.3137 64.8263 38.6724 64.3594C38.0982 63.9414 37.6471 63.7187 37.1242 63.4604C36.943 63.3709 36.7531 63.2772 36.5466 63.1696L36.3273 63.0553V63.3026C36.3273 63.6756 36.3387 64.1223 36.3507 64.5922C36.3583 64.8904 36.3662 65.1981 36.3715 65.5021C36.3853 66.2911 36.3823 67.0587 36.3174 67.6102ZM46.2627 30.3772C46.2627 29.8622 46.1065 29.4747 45.8542 29.2174C45.6025 28.9607 45.2682 28.847 44.9386 28.856C44.2819 28.8738 43.6227 29.3817 43.6227 30.2416C43.6227 30.6621 43.7878 30.9775 44.0442 31.1839C44.2963 31.3868 44.625 31.4754 44.9442 31.4722C45.2632 31.4691 45.5875 31.3743 45.8358 31.1919C46.0872 31.0074 46.2627 30.7305 46.2627 30.3772Z" fill="#FEFEFE" stroke="#171B29" stroke-width="0.3"/>
<path d="M7.99599 12.2216V12.0716H7.84599C5.86569 12.0716 3.90524 11.5837 2.54219 10.3818L2.44299 10.4943L2.54219 10.3818C1.95029 9.85984 1.34993 9.14333 0.898364 8.36289C0.445848 7.5808 0.15 6.74713 0.15 5.98878V5.19028H16.7932C18.3353 5.19028 20.1802 5.75157 21.2228 6.29941L21.2926 6.16663L21.2228 6.29942C23.8513 7.68049 24.8662 9.2258 26.2222 11.2906C26.3636 11.5059 26.5087 11.7269 26.6597 11.9539C26.6598 11.9539 26.6598 11.954 26.6599 11.9541L27.7974 13.6789L27.7972 13.6791L27.8026 13.6863C28.2188 14.2416 28.5426 14.5209 28.7593 14.7077C28.8702 14.8033 28.9373 14.8622 28.9802 14.9183C29.0163 14.9653 29.0316 15.006 29.0316 15.067C29.0316 15.653 29.0484 16.2219 29.0647 16.7731C29.0931 17.7308 29.1198 18.635 29.0539 19.4824C28.9511 20.8062 28.6227 21.9476 27.7358 22.8587C26.4117 24.2189 24.8167 24.3284 23.4909 23.9058C22.8261 23.6939 22.2319 23.3486 21.7794 22.9623C21.3236 22.5733 21.0253 22.1547 20.9298 21.8025L20.881 21.6227L20.7157 21.7087C20.4195 21.863 20.2584 21.9835 20.1067 22.1072C20.0832 22.1263 20.0602 22.1453 20.0371 22.1644C19.914 22.2661 19.788 22.3702 19.5787 22.5053C17.467 23.8689 14.5831 24.1885 12.1242 23.2349C11.3035 22.9167 10.4216 22.4417 9.93767 21.8243L13.7335 18.0184L13.5735 17.7724L11.4966 18.5693C10.7434 18.8227 10.0757 18.9819 9.08484 18.9819C5.9193 18.9819 3.89795 17.1661 2.55169 14.7353L5.10977 13.6772C5.29235 13.6061 5.54027 13.498 5.81303 13.3791C6.03911 13.2805 6.28225 13.1744 6.51939 13.0759C6.78554 12.9652 7.0483 12.8621 7.2828 12.7836C7.5199 12.7042 7.71801 12.6536 7.85823 12.6421L7.99599 12.6308V12.4926V12.2216Z" fill="#FEFEFE" stroke="#171B29" stroke-width="0.3"/>
<path d="M21.0623 41.8246C21.0609 41.8257 21.0595 41.8267 21.0582 41.8277L19.6537 40.5733C18.3734 38.9325 17.3551 37.3371 17.3551 34.8485C17.3551 32.7728 18.2427 30.775 19.5687 29.2955C20.8961 27.8146 22.6477 26.8688 24.3628 26.8688C26.0704 26.8688 27.044 27.6118 27.4399 28.6068C27.8411 29.6154 27.6641 30.9202 26.9835 32.0581C26.5364 32.8054 25.7934 33.6636 24.9414 34.3389C24.086 35.0168 23.1427 35.4929 22.2948 35.5115L22.0606 35.5167L22.1633 35.7272C22.2432 35.8913 22.2971 36.0121 22.3401 36.1107C22.3477 36.128 22.3549 36.1447 22.362 36.161C22.395 36.2368 22.4239 36.3034 22.4556 36.3679C22.5356 36.5304 22.6327 36.6793 22.8636 36.977C23.1706 37.373 23.7893 37.8733 24.4343 38.2967C25.0279 38.6865 25.6689 39.0277 26.14 39.1646V39.2017C25.3393 39.4041 24.5717 39.7876 23.8615 40.1424C23.7134 40.2164 23.5677 40.2892 23.4248 40.3588L23.4183 40.362L23.4121 40.3658L21.2064 41.7174L21.2061 41.7169L21.195 41.7252L21.1551 41.7551C21.1091 41.7894 21.0803 41.811 21.0623 41.8246ZM22.8487 31.4756C23.4011 31.4756 23.8018 31.324 24.0602 31.0733C24.3193 30.8221 24.417 30.4887 24.3962 30.1643C24.3556 29.5313 23.8519 28.8722 23.124 28.8722C22.3496 28.8722 21.8038 29.4733 21.7716 30.114C21.7576 30.3923 21.8838 30.7262 22.0698 30.9864C22.2532 31.243 22.53 31.4756 22.8487 31.4756Z" fill="#FEFEFE" stroke="#171B29" stroke-width="0.3"/>
</svg>
