<svg width="210" height="241" viewBox="0 0 210 241" fill="none" xmlns="http://www.w3.org/2000/svg">
<path d="M66.0131 30.5877V30.1901L65.6257 30.1006C64.1857 29.7678 62.587 28.6937 61.1739 27.3321C59.7671 25.9766 58.6066 24.3967 58.021 23.1367C55.242 17.1571 56.3255 11.8435 59.4457 7.85073C62.5789 3.8412 67.7896 1.13995 73.2862 0.5H78.2265C81.6191 0.905701 84.8949 2.17827 87.6338 4.48618L87.9559 4.10383L87.6338 4.48619C90.786 7.14234 92.8772 10.0797 93.739 13.2364C94.5983 16.384 94.2501 19.8027 92.4288 23.4611L92.4287 23.4612C91.8733 24.5772 90.7661 26.0724 89.3987 27.3799C88.0255 28.693 86.4496 29.7594 84.9733 30.1006L84.5859 30.1901V30.5877V53.6464V54.1464H85.0859C91.5948 54.1464 96.0978 50.7039 99.8903 46.2369C101.745 44.0529 103.444 41.6062 105.128 39.1811L105.234 39.0288C106.959 36.5458 108.672 34.0908 110.546 31.9174L110.167 31.5909L110.546 31.9174C116.629 24.8618 129.157 16.9703 143.26 16.9703H209.086C209.03 20.7052 208.34 23.9425 206.86 26.8599C205.313 29.9073 202.888 32.6381 199.357 35.2303C193.782 39.3222 186.328 40.9113 178.6 40.9113H178.1V41.4113V42.3524V42.8176L178.564 42.8511C179.102 42.8898 180.158 43.1641 181.549 43.6039C182.92 44.0372 184.561 44.6127 186.24 45.2228C187.963 45.849 189.737 46.5162 191.285 47.0987C192.735 47.6439 193.987 48.1149 194.815 48.4085C195.419 48.6225 196.002 48.8166 196.568 49.0051C197.635 49.3603 198.643 49.6958 199.619 50.1077C195.28 56.9972 189.69 61.4844 183.104 63.532C176.359 65.629 168.514 65.1844 159.813 62.0543C159.482 61.9354 159.173 61.8106 158.867 61.6868C157.957 61.319 157.07 60.9604 155.697 60.791L154.092 60.5929L155.305 61.6623L170.294 74.8765C169.447 75.8289 168.229 76.7049 166.819 77.4851C165.239 78.3591 163.453 79.0944 161.755 79.6734C153.869 82.3625 144.544 82.1079 137.049 79.4047C134.341 78.4282 132.779 77.5271 131.524 76.7025C131.233 76.5118 130.955 76.3218 130.679 76.1336C129.769 75.5125 128.888 74.9111 127.702 74.3679L127.184 74.1306L127.016 74.6751C126.368 76.7734 124.113 78.8093 121.018 80.333C117.947 81.8445 114.163 82.793 110.639 82.793C107.7 82.793 104.152 81.7198 101.177 80.1349C99.6936 79.3446 98.3699 78.436 97.347 77.4876C96.318 76.5335 95.6261 75.5696 95.3501 74.6751L95.1572 74.0497L94.6045 74.4002C94.3576 74.5568 94.109 74.7916 93.8636 75.0541C93.614 75.3211 93.3438 75.6432 93.0563 75.9936C92.9554 76.1166 92.852 76.2436 92.7458 76.3738C92.2414 76.993 91.676 77.687 91.0297 78.388C89.4635 80.0871 87.4856 81.7547 84.9733 82.3354L84.5859 82.4249V82.8225V124.299C82.5321 124.749 79.5317 125.647 76.4791 126.562C75.9097 126.733 75.3385 126.904 74.7713 127.072C72.8562 127.643 70.9805 128.189 69.3522 128.609C68.0163 128.954 66.8699 129.208 66.0131 129.325V30.5877Z" fill="#232838" stroke="#171B29"/>
<path d="M84.5406 233.776C84.0354 237.552 80.2292 240.166 75.9664 240.438H74.528C72.4215 240.303 70.3413 239.567 68.6544 238.117C66.623 236.37 65.9169 233.226 65.7631 229.576C65.687 227.77 65.7469 225.882 65.8268 224.04C65.8425 223.678 65.859 223.318 65.8754 222.961C65.9421 221.506 66.0067 220.096 66.0067 218.821V218.042L65.2985 218.366C64.5705 218.699 63.8263 219.023 63.0803 219.348C61.3413 220.105 59.593 220.865 58.0197 221.761C55.7526 223.051 53.7635 224.663 52.5439 227.054C51.8235 228.467 51.5139 229.811 51.5655 231.186C51.6167 232.553 52.0243 233.918 52.6901 235.378C52.8128 235.647 52.9637 235.942 53.1138 236.235L53.1151 236.238C53.2677 236.536 53.4211 236.837 53.5578 237.13C53.6947 237.424 53.8089 237.699 53.885 237.945C53.9629 238.197 53.9903 238.384 53.9816 238.512C53.9193 239.434 53.574 239.928 53.1278 240.179C52.6521 240.446 51.9457 240.504 51.0491 240.292C49.2608 239.87 47.0044 238.44 45.2069 236.387C38.9113 229.195 40.5921 219.551 45.9058 214.132C53.0457 206.85 62.4037 203.48 72.5607 199.823C73.4462 199.504 74.3377 199.183 75.2344 198.857C76.506 198.395 78.0015 197.88 79.6427 197.314C84.9705 195.479 91.8346 193.114 97.5644 190.31C101.31 188.476 104.629 186.429 106.732 184.177C107.787 183.047 108.556 181.844 108.906 180.569C109.258 179.282 109.174 177.95 108.568 176.597C107.889 175.082 106.255 173.679 104.246 172.431C102.218 171.17 99.722 170.017 97.2061 169.034C94.6878 168.05 92.1349 167.231 89.9836 166.642C87.8446 166.055 86.068 165.686 85.1153 165.617L84.5794 165.578V166.116V176.076C83.7746 176.295 82.5325 176.751 81.0867 177.313C79.856 177.791 78.4497 178.357 76.9934 178.943C76.4013 179.181 75.8009 179.423 75.2006 179.663C73.1202 180.496 71.0397 181.316 69.2906 181.94C68.4159 182.252 67.6296 182.514 66.9709 182.703C66.5982 182.811 66.2757 182.892 66.0067 182.947V166.116V165.578L65.4707 165.617C63.7906 165.738 60.9185 166.552 58.168 167.456C55.3976 168.367 52.681 169.394 51.2786 169.975C49.7912 170.591 47.4167 171.675 45.4061 173.076C44.401 173.777 43.4671 174.57 42.7803 175.44C42.0938 176.309 41.6282 177.289 41.6282 178.351C41.6282 178.487 41.6279 178.62 41.6275 178.753C41.6239 180.199 41.6208 181.434 42.0649 182.593C42.5609 183.887 43.5833 185.031 45.5551 186.377C47.496 187.702 48.7016 188.084 49.4861 188.332C49.5694 188.358 49.648 188.383 49.7222 188.408C50.0963 188.53 50.2677 188.615 50.405 188.758C50.5035 188.862 50.6055 189.019 50.7188 189.296C47.6875 190.145 44.1744 192.308 41.2298 194.365C39.6595 195.463 38.233 196.543 37.1058 197.403C37.0204 197.468 36.937 197.531 36.8556 197.593C36.0434 198.213 35.4292 198.681 35.049 198.941C26.8256 194.068 22.5894 186.465 22.9312 178.639C23.2767 170.729 28.3056 162.467 38.8852 156.472C42.3055 154.533 47.523 152.573 53.6746 150.615C59.8177 148.66 66.8569 146.718 73.9031 144.81C75.0462 144.501 76.1897 144.192 77.3294 143.885C83.2103 142.297 88.9936 140.736 94.1445 139.216C100.287 137.404 105.564 135.64 109.049 133.947C109.308 133.821 109.575 133.693 109.849 133.561C111.94 132.553 114.412 131.363 116.586 129.835C119.046 128.107 121.196 125.9 121.989 122.952L122.155 122.334L121.516 122.322C118.084 122.256 114.227 120.524 110.756 118.008C107.293 115.497 104.28 112.251 102.529 109.252L102.097 109.504L102.529 109.252C99.8437 104.653 99.9954 100.415 101.84 97.3441C103.691 94.2622 107.302 92.2635 111.72 92.2635C123.726 92.2635 134.208 99.5692 138.767 109.391C143.309 119.177 141.986 131.497 130.288 141.622C128.032 143.575 123.818 146.304 119.445 148.599C117.262 149.745 115.052 150.777 113.039 151.546C111.017 152.319 109.228 152.814 107.878 152.911L106.897 152.982L107.533 153.733C107.683 153.91 107.919 154.09 108.178 154.267C108.449 154.451 108.788 154.66 109.178 154.893C109.471 155.068 109.792 155.256 110.139 155.459C110.727 155.804 111.391 156.192 112.119 156.635C114.417 158.032 117.261 159.914 119.9 162.351C125.174 167.221 129.589 174.262 127.242 184.091C125.881 189.793 121.37 194.972 115.754 199.022C110.147 203.066 103.513 205.931 98.029 207.037L97.6278 207.117V207.527V208.468V208.866L98.0153 208.955C99.589 209.319 101.561 210.689 103.444 212.778C105.313 214.852 107.041 217.576 108.148 220.55C109.256 223.523 109.734 226.72 109.141 229.754C108.551 232.777 106.892 235.671 103.663 238.054C103.144 238.437 102.623 238.782 102.085 239.138C101.909 239.254 101.732 239.372 101.552 239.492C100.736 240.038 100.022 240.325 99.4228 240.438H98.2658C97.4115 240.242 96.9967 239.61 96.9967 239.056C96.9967 238.721 97.0838 238.316 97.2437 237.827C97.4013 237.346 97.6168 236.819 97.8563 236.234L97.8637 236.216C98.3419 235.048 98.9032 233.674 99.1437 232.193C99.3863 230.699 99.3056 229.08 98.4984 227.417C97.6942 225.76 96.191 224.105 93.6705 222.491C91.4103 221.044 89.6393 220.275 87.5764 219.379C86.8596 219.068 86.1076 218.742 85.2876 218.366L84.5794 218.042V218.821C84.5794 220.117 84.6245 221.669 84.6719 223.302C84.702 224.338 84.7331 225.405 84.7541 226.46C84.8087 229.201 84.7965 231.864 84.5406 233.776ZM123.637 104.469C123.637 102.665 123.013 101.318 122.027 100.434C121.05 99.5577 119.764 99.1771 118.504 99.2071C116.016 99.2665 113.395 100.97 113.395 103.999C113.395 105.479 114.058 106.571 115.05 107.273C116.024 107.962 117.29 108.262 118.52 108.252C119.752 108.241 121.004 107.919 121.964 107.299C122.932 106.674 123.637 105.718 123.637 104.469Z" fill="#232838" stroke="#171B29"/>
<path d="M-27.5099 41.4137V40.9137H-28.0099C-35.8565 40.9137 -43.6356 39.2131 -49.0443 35.0195L-49.3507 35.4147L-49.0443 35.0195C-51.3886 33.2019 -53.7626 30.7098 -55.5468 27.9984C-57.3359 25.2794 -58.5 22.3892 -58.5 19.7669V16.9728H7.32978C13.4498 16.9728 20.7597 18.9292 24.8919 20.8385L25.1016 20.3846L24.8919 20.8385C35.2956 25.6451 39.3133 31.0248 44.6662 38.1922C45.225 38.9404 45.7984 39.7081 46.3951 40.4967C46.3953 40.497 46.3956 40.4974 46.3958 40.4977L50.889 46.4883L50.8983 46.5007L50.9084 46.5126C52.549 48.4375 53.8244 49.4045 54.6777 50.0515L54.6786 50.0521C55.1152 50.3831 55.3862 50.5918 55.5596 50.791C55.7066 50.9599 55.7617 51.0975 55.7617 51.2959C55.7617 53.3031 55.8278 55.2756 55.8918 57.187C55.9158 57.9054 55.9396 58.6153 55.9595 59.315C56.0325 61.8854 56.0532 64.3286 55.85 66.627C55.4447 71.2132 54.1526 75.1767 50.6404 78.3491C45.3814 83.0994 39.024 83.4895 33.7394 82.0084C31.0955 81.2674 28.7353 80.0608 26.9397 78.713C25.1291 77.3539 23.9503 75.8956 23.5745 74.6776L23.4066 74.1331L22.8885 74.3704C21.7272 74.9023 21.0965 75.3169 20.5005 75.7442C20.4084 75.8103 20.3177 75.8761 20.2266 75.9423C19.7401 76.2957 19.2382 76.6602 18.4065 77.1324C10.0332 81.8864 -1.40782 83.003 -11.1648 79.6759C-12.8624 79.097 -14.6487 78.3618 -16.244 77.4743C-17.6746 76.6783 -18.9286 75.7722 -19.8301 74.7653L-4.84431 61.5533L-5.33481 60.7045L-13.5411 63.473C-16.5269 64.3565 -19.1808 64.9133 -23.1166 64.9133C-35.6897 64.9133 -43.6945 58.5723 -49.0078 50.1437L-38.8718 46.4573C-38.1513 46.2106 -37.1767 45.8368 -36.1021 45.4247C-35.2095 45.0824 -34.2478 44.7136 -33.3054 44.3692C-31.1759 43.5909 -29.1476 42.9381 -27.974 42.8535L-27.5099 42.8201V42.3548V41.4137Z" fill="#232838" stroke="#171B29"/>
<path d="M24.1747 144.293C24.1737 144.294 24.1727 144.295 24.1716 144.296L18.5399 139.873C13.4751 134.166 9.45847 128.628 9.45847 119.998C9.45847 112.805 12.957 105.869 18.2034 100.722C23.451 95.5738 30.3988 92.2635 37.2302 92.2635C44.0414 92.2635 47.9149 94.8779 49.4788 98.3345C51.0571 101.823 50.3657 106.34 47.6763 110.293C45.9094 112.89 42.9707 115.876 39.5974 118.227C36.2165 120.583 32.4628 122.257 29.0652 122.322L28.2349 122.338L28.6375 123.065C28.9534 123.634 29.166 124.054 29.336 124.396C29.3657 124.456 29.3944 124.514 29.4224 124.571C29.5526 124.834 29.667 125.065 29.7924 125.29C30.1078 125.854 30.4907 126.369 31.4016 127.402C32.6086 128.771 35.0442 130.504 37.5874 131.972C39.9544 133.338 42.4988 134.525 44.3419 134.986V135.122C41.1759 135.818 38.1406 137.151 35.3181 138.391C34.7319 138.648 34.1549 138.902 33.5878 139.145L33.5672 139.154L33.5475 139.164L24.8355 143.859L24.8162 143.869L24.7979 143.881L24.6379 143.986C24.4578 144.105 24.3446 144.179 24.2742 144.226C24.2307 144.255 24.198 144.277 24.1747 144.293ZM31.2496 108.263C33.3997 108.263 34.9476 107.746 35.9469 106.894C36.9572 106.032 37.3529 104.872 37.2693 103.727C37.1055 101.481 35.0971 99.2634 32.3369 99.2634C29.3873 99.2634 27.2174 101.286 27.0879 103.553C27.0318 104.535 27.5372 105.7 28.2671 106.598C28.9973 107.496 30.0642 108.263 31.2496 108.263Z" fill="#232838" stroke="#171B29"/>
</svg>
