<svg width="1118" height="560" viewBox="0 0 1118 560" fill="none" xmlns="http://www.w3.org/2000/svg">
<mask id="mask0_31_1153" style="mask-type:alpha" maskUnits="userSpaceOnUse" x="0" y="0" width="1118" height="560">
<path fill-rule="evenodd" clip-rule="evenodd" d="M71.0162 437.121C73.9986 440.21 77.1945 438.932 79.4315 434.352C81.6683 429.771 82.9467 421.889 85.6098 415.497C88.2726 409.106 92.3206 404.206 96.5815 399.732C100.842 395.258 105.316 391.21 109.79 389.186C114.264 387.163 118.738 387.162 122.679 386.417C126.621 385.671 130.029 384.18 132.373 381.304C134.716 378.428 135.994 374.167 137.166 369.48C138.338 364.793 139.403 359.68 143.025 355.312C146.647 350.945 152.825 347.323 160.282 346.471C167.738 345.619 176.473 347.536 183.823 349.347C191.173 351.158 197.138 352.862 202.571 355.952C208.004 359.041 212.903 363.514 215.14 367.669C217.377 371.823 216.951 375.658 218.656 379.386C220.36 383.114 224.195 386.736 228.669 389.186C233.143 391.636 238.256 392.915 243.049 395.791C247.843 398.667 252.317 403.141 257.43 406.443C262.543 409.745 268.295 411.876 271.384 409.851C274.473 407.828 274.899 401.649 276.817 397.175C278.734 392.701 282.143 389.932 285.445 388.547C288.747 387.162 291.943 387.162 293.967 385.565C295.991 383.967 296.843 380.771 299.186 379.919C301.53 379.067 305.364 380.558 309.625 382.475C313.886 384.393 318.573 386.736 323.367 388.121C328.16 389.506 333.06 389.932 336.469 390.145C339.878 390.358 341.795 390.358 344.991 391.317C348.186 392.275 352.66 394.193 358.732 395.258C364.804 396.323 372.473 396.536 376.521 396.856C380.569 397.176 380.995 397.602 380.569 400.691C380.143 403.78 378.864 409.532 380.249 413.153C381.634 416.775 385.682 418.267 390.475 420.823C395.269 423.38 400.808 427.002 405.602 428.812C410.395 430.623 414.443 430.623 418.171 433.18C421.9 435.736 425.308 440.85 427.439 447.347C429.569 453.845 430.421 461.728 431.913 467.48C433.404 473.232 435.534 476.854 437.239 479.41C438.943 481.967 440.221 483.458 444.056 484.417C447.891 485.376 454.282 485.802 459.076 487.08C463.869 488.358 467.065 490.489 470.687 495.069C474.308 499.65 478.356 506.68 482.83 512.113C487.304 517.545 492.204 521.38 497.85 523.51C503.495 525.641 509.887 526.067 516.704 525.002C523.521 523.937 530.765 521.38 537.263 519.25C543.761 517.119 549.513 515.415 554.839 514.456C560.165 513.497 565.065 513.285 569.007 514.563C572.948 515.841 575.93 518.611 579.87 520.954C583.809 523.298 588.705 525.215 593.179 525.641C597.653 526.067 601.705 525.002 605.116 523.191C608.526 521.38 611.296 518.824 612.361 515.948C613.426 513.072 612.787 509.876 613.426 506.893C614.065 503.911 615.983 501.141 619.178 499.543C622.374 497.945 626.848 497.519 630.363 499.33C633.879 501.141 636.435 505.189 639.524 506.999C642.613 508.81 646.235 508.384 648.685 509.556C651.135 510.728 652.413 513.498 654.437 516.16C656.461 518.824 659.231 521.38 662.32 522.871C665.409 524.363 668.817 524.789 672.12 523.937C675.422 523.085 678.618 520.954 681.813 519.676C685.009 518.398 688.205 517.971 691.614 517.971C695.022 517.971 698.644 518.397 702.159 519.569C705.674 520.741 709.083 522.658 713.237 524.682C717.392 526.706 722.292 528.837 727.937 529.263C733.583 529.689 739.974 528.411 744.342 526.387C748.709 524.363 751.052 521.593 754.035 518.717C757.018 515.841 760.64 512.858 763.835 510.089C767.031 507.319 769.801 504.763 779.068 503.804C788.335 502.845 804.101 503.484 811.983 503.058C819.866 502.632 819.866 501.141 819.866 496.561C819.866 491.98 819.866 484.311 820.398 477.706C820.931 471.102 821.996 465.563 823.807 460.343C825.618 455.123 828.175 450.224 832.968 447.135C837.761 444.045 844.792 442.767 851.183 442.128C857.575 441.489 863.327 441.489 868.227 443.832C873.127 446.176 877.175 450.863 881.755 455.336C886.335 459.81 891.449 464.071 897.201 467.586C902.953 471.102 909.344 473.872 915.629 476.854C921.914 479.837 928.092 483.032 932.46 485.376C936.827 487.719 939.383 489.211 940.662 489.956C941.94 490.702 941.94 490.702 946.734 486.654C951.527 482.606 961.114 474.511 965.908 470.25C970.701 465.989 970.701 465.563 972.406 469.824C974.11 474.084 977.518 483.032 979.542 489.53C981.566 496.028 982.205 500.076 981.886 503.378C981.566 506.68 980.288 509.236 977.625 512.112C974.962 514.989 970.914 518.185 968.784 520.954C966.653 523.724 966.44 526.067 967.186 529.049C967.931 532.032 969.636 535.654 970.594 539.169C971.553 542.685 971.766 546.093 971.021 549.289C970.275 552.485 968.57 555.467 968.357 557.171C968.144 558.876 969.423 559.302 971.447 558.876C973.47 558.45 976.24 557.172 977.838 554.402C979.436 551.632 979.862 547.372 981.14 544.283C982.418 541.193 984.549 539.276 987.106 538.317C989.662 537.359 992.644 537.359 995.84 537.145C999.036 536.932 1002.44 536.506 1005 534.269C1007.56 532.032 1009.26 527.985 1010.65 522.658C1012.03 517.332 1013.1 510.728 1014.48 500.715C1015.87 490.702 1017.57 477.28 1018.32 467.267C1019.06 457.254 1018.85 450.65 1016.72 442.767C1014.59 434.884 1010.54 425.724 1007.24 417.308C1003.94 408.893 1001.38 401.224 1000.31 396.75C999.249 392.276 999.675 390.997 1002.12 391.21C1004.57 391.423 1009.05 393.128 1012.67 397.602C1016.29 402.076 1019.06 409.319 1022.68 415.923C1026.31 422.528 1030.78 428.493 1036.32 434.991C1041.86 441.489 1048.46 448.519 1051.98 451.928C1055.49 455.337 1055.92 455.123 1056.98 452.46C1058.05 449.798 1059.75 444.684 1058.69 438.293C1057.62 431.902 1053.79 424.232 1048.25 416.456C1042.71 408.68 1035.47 400.797 1027.37 392.808C1019.27 384.819 1010.33 376.723 1003.19 370.971C996.053 365.219 990.727 361.81 987.958 359.893C985.188 357.975 984.975 357.549 985.934 360.852C986.892 364.154 989.023 371.184 986.147 374.38C983.271 377.575 975.388 376.936 968.145 376.51C960.901 376.084 954.297 375.871 948.331 375.871C942.366 375.871 937.04 376.084 934.27 376.19C931.501 376.297 931.288 376.297 932.673 364.047C934.057 351.797 937.04 327.297 940.449 312.384C943.857 297.471 947.692 292.145 952.805 287.458C957.918 282.771 964.31 278.723 972.512 272.971C980.714 267.219 990.727 259.762 996.266 255.395C1001.81 251.028 1002.87 249.749 1002.55 243.358C1002.23 236.966 1000.53 225.462 1000.53 217.154C1000.53 208.845 1002.23 203.731 1004.36 199.684C1006.49 195.636 1009.05 192.653 1010.01 191.269C1010.97 189.884 1010.33 190.097 1012.35 192.227C1014.37 194.358 1019.06 198.406 1021.19 197.98C1023.32 197.553 1022.9 192.653 1022.26 187.221C1021.62 181.788 1020.77 175.823 1019.7 171.136C1018.64 166.449 1017.36 163.04 1016.83 161.016C1016.29 158.992 1016.51 158.353 1017.89 159.845C1019.27 161.336 1021.83 164.958 1024.81 170.39C1027.8 175.823 1031.21 183.066 1034.93 197.553C1038.66 212.04 1042.71 233.771 1045.37 246.553C1048.04 259.336 1049.31 263.171 1056.13 269.669C1062.95 276.167 1075.31 285.327 1084.68 292.358C1094.05 299.388 1100.44 304.288 1105.45 308.869C1110.46 313.449 1114.08 317.71 1116.1 320.16C1118.13 322.61 1118.55 323.249 1117.28 316.752C1116 310.254 1113.01 296.619 1109.82 285.115C1106.62 273.61 1103.21 264.236 1101.4 257.525C1099.59 250.814 1099.38 246.766 1096.82 240.482C1094.27 234.197 1089.37 225.675 1083.61 219.71C1077.86 213.745 1071.26 210.336 1065.93 205.329C1060.61 200.323 1056.56 193.719 1055.49 187.008C1054.43 180.297 1056.34 173.479 1058.9 166.343C1061.46 159.205 1064.65 151.749 1066.25 146.529C1067.85 141.309 1067.85 138.327 1066.89 133.214C1065.93 128.101 1064.01 120.857 1063.06 114.253C1062.1 107.649 1062.1 101.683 1063.27 95.8246C1064.44 89.9659 1066.78 84.2139 1065.51 80.4859C1064.23 76.7575 1059.33 75.0529 1054 73.3487C1048.68 71.6445 1042.92 69.94 1039.09 66.4248C1035.25 62.9095 1033.34 57.5833 1033.23 52.0443C1033.12 46.5049 1034.83 40.7529 1038.45 35.9596C1042.07 31.1659 1047.61 27.331 1048.36 21.5788C1049.1 15.8265 1045.05 8.15726 1041.86 3.89637C1038.66 -0.36452 1036.32 -1.21697 1031.63 1.76576C1026.94 4.74848 1019.91 11.5657 1010.33 17.744C1000.74 23.9223 988.597 29.4617 979.116 35.2139C969.636 40.9658 962.818 46.9313 955.042 58.329C947.266 69.7268 938.531 86.5574 930.116 96.7834C921.701 107.009 913.605 110.631 907.214 112.442C900.823 114.253 896.136 114.253 889.531 117.236C882.927 120.218 874.405 126.184 864.818 129.699C855.231 133.214 844.579 134.279 834.885 134.812C825.192 135.344 816.457 135.344 811.025 137.049C805.592 138.753 803.461 142.162 804.42 145.571C805.379 148.979 809.427 152.388 808.042 157.501C806.657 162.614 799.84 169.431 795.685 175.503C791.531 181.575 790.04 186.901 786.098 188.286C782.157 189.671 775.766 187.114 769.801 184.345C763.835 181.575 758.296 178.593 751.053 177.101C743.809 175.61 734.861 175.61 726.979 175.823C719.096 176.036 712.278 176.462 704.396 176.675C696.513 176.888 687.566 176.888 683.411 174.012C679.257 171.136 679.896 165.384 678.618 159.419C677.339 153.453 674.144 147.275 669.137 141.949C664.13 136.623 657.313 132.149 651.241 125.438C645.169 118.727 639.844 109.779 633.772 100.938C627.7 92.0965 620.883 83.3618 615.13 82.6162C609.378 81.8705 604.691 89.1138 605.331 98.8073C605.969 108.501 611.935 120.645 608.846 130.338C605.756 140.032 593.613 147.275 582.961 151.216C572.309 155.158 563.148 155.797 555.798 158.779C548.448 161.762 542.909 167.088 535.026 167.727C527.143 168.366 516.917 164.318 506.265 165.703C495.613 167.088 484.535 173.906 477.291 180.616C470.047 187.327 466.639 193.931 464.828 200.429C463.017 206.927 462.804 213.318 462.058 217.686C461.313 222.053 460.034 224.397 459.395 225.995C458.756 227.593 458.756 228.445 455.348 223.225C451.939 218.005 445.121 206.714 440.221 199.364C435.321 192.014 432.339 188.606 430.528 183.279C428.717 177.953 428.078 170.71 429.782 163.04C431.487 155.371 435.535 147.275 435.748 141.523C435.961 135.77 432.339 132.362 425.734 132.255C419.13 132.149 409.543 135.345 404.75 142.695C399.956 150.045 399.956 161.549 396.76 167.408C393.565 173.266 387.173 173.479 379.078 172.201C370.982 170.923 361.182 168.153 355.323 162.827C349.465 157.501 347.547 149.618 343.5 144.719C339.452 139.818 333.273 137.901 330.61 129.592C327.947 121.283 328.799 106.583 326.456 95.9313C324.113 85.2789 318.573 78.6745 313.034 75.3725C307.495 72.0702 301.956 72.0703 294.073 76.9704C286.191 81.8702 275.964 91.6704 263.821 98.914C251.677 106.157 237.616 110.844 230.586 116.597C223.555 122.349 223.555 129.166 219.082 133.108C214.608 137.049 205.66 138.114 198.949 137.155C192.238 136.196 187.764 133.214 184.142 133.96C180.521 134.705 177.751 139.179 172.318 141.097C166.886 143.014 158.79 142.375 151.653 143.44C144.516 144.505 138.338 147.275 133.757 150.79C129.177 154.305 126.195 158.566 125.236 163.04C124.277 167.514 125.342 172.201 123.638 179.125C121.934 186.049 117.46 195.21 113.305 199.897C109.151 204.584 105.316 204.797 102.547 209.484C99.7771 214.171 98.0725 223.332 95.1966 231.321C92.3206 239.31 88.2726 246.127 88.0598 252.625C87.8466 259.123 91.4685 265.301 93.9184 270.947C96.3683 276.592 97.6465 281.706 93.492 287.032C89.3376 292.358 79.7508 297.897 73.5725 301.306C67.3942 304.714 64.6247 305.993 58.5532 308.123C52.4813 310.254 43.1074 313.236 36.8227 308.975C30.5379 304.714 27.342 293.21 24.5725 285.754C21.8029 278.297 19.4595 274.888 15.5182 274.036C11.577 273.184 6.03756 274.888 2.94841 277.551C-0.140746 280.214 -0.77967 283.836 0.924552 288.31C2.62877 292.784 6.67681 298.11 11.5769 302.584C16.4768 307.058 22.229 310.68 26.0638 315.691C29.8987 320.702 31.8161 327.103 32.0293 333.388C32.2421 339.673 30.7508 345.842 31.8161 350.95C32.8811 356.058 36.503 360.106 39.5922 364.793C42.6813 369.48 45.2377 374.806 47.9008 380.665C50.5639 386.523 53.3334 392.915 55.7836 399.412C58.2335 405.91 60.3638 412.515 62.814 419.545C65.2639 426.575 68.0335 434.032 71.0162 437.121Z" fill="#2B2A29"/>
</mask>
<g mask="url(#mask0_31_1153)">
<path d="M26.3967 237.523C28.9906 238.022 35.2866 239.406 37.8776 239.92C94.6419 251.179 150.921 265.883 208.592 271.562C291.048 279.681 367.9 275.903 452.152 267.274C480.584 264.363 507.785 256.538 536.923 250.456C563.849 244.835 590.478 238.38 617.614 233.783C741.348 212.825 883.546 218.082 1003.09 248.433C1008.52 249.813 1119.32 270.25 1124.66 271.734" stroke="#393B3F" stroke-width="2" stroke-miterlimit="22.9256"/>
<path d="M19.902 249.718C22.9056 250.295 36.1035 253.124 39.1035 253.722C95.4517 264.948 151.335 279.482 208.59 285.12C291.046 293.24 367.898 289.461 452.15 280.833C480.582 277.921 507.783 270.096 536.921 264.014C563.847 258.394 590.476 251.938 617.612 247.342C740.422 226.539 881.42 231.564 1000.4 261.316C1006.75 262.902 1125.4 284.493 1131.62 286.221" stroke="#393B3F" stroke-width="2" stroke-miterlimit="22.9256"/>
<path d="M15.9925 262.156C18.6409 262.665 35.3965 266.228 38.0416 266.753C94.7507 278.008 150.977 292.689 208.593 298.363C291.049 306.483 367.901 302.704 452.153 294.076C480.585 291.164 507.787 283.339 536.925 277.257C563.851 271.637 590.479 265.181 617.616 260.585C736.255 240.489 871.869 244.495 988.209 271.613C998.723 274.064 1130.04 300.025 1140.21 302.853" stroke="#393B3F" stroke-width="2" stroke-miterlimit="22.9256"/>
<path d="M15.9925 276.051C20.2224 276.864 38.5577 280.409 42.7815 281.262C97.8858 292.379 152.583 306.407 208.593 311.923C291.049 320.043 367.901 316.264 452.153 307.636C480.585 304.724 507.787 296.899 536.925 290.817C563.851 285.197 590.479 278.741 617.616 274.145C743.452 252.829 888.386 258.629 1009.16 290.364C1012.55 291.252 1135.32 315.484 1138.66 316.413" stroke="#393B3F" stroke-width="2" stroke-miterlimit="22.9256"/>
<path d="M30.0981 291.654C89.5047 303.072 148.287 318.877 208.591 324.815C291.047 332.935 367.899 329.156 452.151 320.528C480.583 317.617 507.784 309.791 536.923 303.709C563.848 298.089 590.477 291.634 617.613 287.037C745.148 265.434 892.298 271.684 1014.04 304.555C1015.78 305.025 1142.4 328.173 1144.13 328.654" stroke="#393B3F" stroke-width="2" stroke-miterlimit="22.9256"/>
<path d="M2.63044 298.191C8.18026 299.257 41.1939 307.387 46.7337 308.518C100.502 319.499 153.922 332.993 208.591 338.376C291.048 346.496 367.9 342.717 452.152 334.089C480.584 331.178 507.785 323.353 536.923 317.271C563.849 311.65 590.478 305.195 617.614 300.598C746.974 278.686 896.515 285.429 1019.25 319.544" stroke="#393B3F" stroke-width="2" stroke-miterlimit="22.9256"/>
<path d="M-10.5869 310.424C8.98224 314.184 28.5948 318.043 48.1173 322.043C101.417 332.973 154.39 346.281 208.59 351.618C291.046 359.738 367.898 355.959 452.15 347.331C480.582 344.42 507.784 336.595 536.922 330.513C563.848 324.892 590.476 318.437 617.613 313.84C746.973 291.928 896.514 298.671 1019.25 332.786" stroke="#393B3F" stroke-width="2" stroke-miterlimit="22.9256"/>
<path d="M-86.2529 314.76C-42.556 323.157 3.35197 326.456 47.0563 335.386C100.715 346.355 154.031 359.805 208.591 365.178C291.048 373.298 367.9 369.519 452.151 360.891C480.584 357.979 507.785 350.154 536.923 344.072C563.849 338.452 590.477 331.996 617.614 327.4C746.974 305.488 896.516 312.23 1019.25 346.346" stroke="#393B3F" stroke-width="2" stroke-miterlimit="22.9256"/>
<path d="M-46.0291 333.949C-8.29964 341.201 29.6044 346.134 67.325 354.174C114.169 364.161 160.905 375.028 208.591 379.723C291.047 387.843 367.899 384.064 452.151 375.436C480.583 372.525 507.785 364.7 536.923 358.618C563.849 352.997 590.477 346.542 617.614 341.945C746.974 320.033 896.515 326.776 1019.25 360.891" stroke="#393B3F" stroke-width="2" stroke-miterlimit="22.9256"/>
<path d="M-48.732 346.607C-11.9134 353.683 25.3326 358.848 62.0389 366.611C110.655 376.894 159.112 388.41 208.591 393.282C291.048 401.402 367.9 397.623 452.151 388.995C480.584 386.084 507.785 378.259 536.923 372.177C563.849 366.556 590.477 360.101 617.614 355.504C746.974 333.592 896.515 340.335 1019.25 374.45" stroke="#393B3F" stroke-width="2" stroke-miterlimit="22.9256"/>
<path d="M-41.3761 373.659C-37.2867 374.445 12.8717 383.803 35.12 387.996C93.1122 398.926 149.575 414.274 208.59 420.085C291.046 428.206 367.898 424.426 452.15 415.798C480.582 412.887 507.783 405.062 536.921 398.98C563.847 393.359 590.476 386.904 617.612 382.307C746.973 360.395 896.514 367.138 1019.25 401.253" stroke="#393B3F" stroke-width="2" stroke-miterlimit="22.9256"/>
<path d="M-38.4399 387.183C-35.3303 387.781 16.478 396.667 34.8817 399.886C93.4185 410.124 148.738 426.098 208.59 431.992C291.046 440.112 367.898 436.333 452.15 427.705C480.582 424.793 507.784 416.968 536.922 410.886C563.848 405.266 590.476 398.81 617.613 394.214C746.973 372.302 896.514 379.044 1019.25 413.16" stroke="#393B3F" stroke-width="2" stroke-miterlimit="22.9256"/>
<path d="M-33.6223 402.422C-31.7197 402.788 17.2353 410.518 32.3767 412.963C91.8636 422.571 147.41 439.526 208.593 445.551C291.05 453.671 367.901 449.892 452.153 441.264C480.585 438.352 507.787 430.527 536.925 424.445C563.851 418.825 590.479 412.369 617.616 407.773C746.976 385.861 896.517 392.603 1019.25 426.718" stroke="#393B3F" stroke-width="2" stroke-miterlimit="22.9256"/>
<path d="M-29.1429 415.412C-5.01739 420.049 19.5174 423.432 43.5856 428.294C98.4175 439.386 152.856 453.304 208.594 458.793C291.05 466.912 367.902 463.134 452.154 454.505C480.586 451.594 507.787 443.769 536.925 437.687C563.851 432.066 590.48 425.611 617.616 421.014C746.977 399.103 896.518 405.845 1019.25 439.96" stroke="#393B3F" stroke-width="2" stroke-miterlimit="22.9256"/>
<path d="M-12.794 434.169C-9.92915 434.719 35.8251 440.304 38.6868 440.873C95.1755 452.111 151.193 466.702 208.589 472.354C291.045 480.474 367.897 476.695 452.149 468.066C480.582 465.155 507.783 457.33 536.921 451.248C563.847 445.627 590.475 439.172 617.612 434.576C746.972 412.664 896.513 419.406 1019.25 453.521" stroke="#393B3F" stroke-width="2" stroke-miterlimit="22.9256"/>
<path d="M-8.67106 447.556C-6.16923 448.037 35.1003 454.708 37.5997 455.203C94.4575 466.47 150.826 481.212 208.59 486.9C291.047 495.02 367.899 491.241 452.15 482.613C480.583 479.701 507.784 471.876 536.922 465.794C563.848 460.174 590.476 453.718 617.613 449.122C746.973 427.21 896.515 433.952 1019.25 468.068" stroke="#393B3F" stroke-width="2" stroke-miterlimit="22.9256"/>
<path d="M-7.38116 459.053C-5.22087 459.469 34.4195 468.133 36.578 468.559C93.7827 479.851 150.481 494.736 208.592 500.458C291.049 508.578 367.9 504.799 452.152 496.171C480.584 493.26 507.786 485.434 536.924 479.352C563.85 473.732 590.478 467.277 617.615 462.68C746.975 440.768 896.516 447.511 1019.25 481.626" stroke="#393B3F" stroke-width="2" stroke-miterlimit="22.9256"/>
<path d="M30.0981 480.541C89.5048 491.958 148.287 507.764 208.591 513.702C291.047 521.822 367.899 518.043 452.151 509.415C480.583 506.504 507.784 498.678 536.923 492.596C563.849 486.976 590.477 480.52 617.614 475.924C746.974 454.012 896.515 460.755 1019.25 494.87" stroke="#393B3F" stroke-width="2" stroke-miterlimit="22.9256"/>
<path d="M30.0981 494.099C89.5048 505.517 148.287 521.322 208.591 527.261C291.047 535.381 367.899 531.602 452.151 522.974C480.583 520.062 507.784 512.237 536.923 506.155C563.849 500.535 590.477 494.079 617.614 489.483C746.974 467.571 896.515 474.313 1019.25 508.429" stroke="#393B3F" stroke-width="2" stroke-miterlimit="22.9256"/>
<path d="M30.0981 508.646C89.5048 520.064 148.287 535.869 208.591 541.808C291.047 549.928 367.899 546.149 452.151 537.52C480.583 534.609 507.784 526.784 536.923 520.702C563.849 515.081 590.477 508.626 617.614 504.029C746.974 482.118 896.515 488.86 1019.25 522.975" stroke="#393B3F" stroke-width="2" stroke-miterlimit="22.9256"/>
<path d="M30.0981 522.204C89.5048 533.622 148.287 549.427 208.591 555.366C291.047 563.486 367.899 559.707 452.151 551.079C480.583 548.167 507.784 540.342 536.923 534.26C563.849 528.64 590.477 522.184 617.614 517.588C746.974 495.676 896.515 502.418 1019.25 536.534" stroke="#393B3F" stroke-width="2" stroke-miterlimit="22.9256"/>
<path d="M30.0981 535.45C89.5048 546.868 148.287 562.673 208.591 568.612C291.047 576.732 367.899 572.953 452.151 564.325C480.583 561.413 507.784 553.588 536.923 547.506C563.849 541.886 590.477 535.43 617.614 530.834C746.974 508.922 896.515 515.664 1019.25 549.779" stroke="#393B3F" stroke-width="2" stroke-miterlimit="22.9256"/>
<path d="M30.0981 549.008C89.5048 560.426 148.287 576.232 208.591 582.17C291.047 590.29 367.899 586.511 452.151 577.883C480.583 574.971 507.784 567.146 536.923 561.064C563.849 555.444 590.477 548.988 617.614 544.392C746.974 522.48 896.515 529.223 1019.25 563.338" stroke="#393B3F" stroke-width="2" stroke-miterlimit="22.9256"/>
<path d="M30.0981 157.038C89.5047 168.456 148.287 184.261 208.591 190.2C291.047 198.32 367.899 194.541 452.151 185.913C480.583 183.001 507.784 175.176 536.923 169.094C563.848 163.474 590.477 157.018 617.613 152.422C743.769 131.053 889.119 136.936 1010.08 168.883C1013.15 169.694 1085.39 188.411 1088.43 189.256" stroke="#393B3F" stroke-width="2" stroke-miterlimit="22.9256"/>
<path d="M30.0981 170.598C89.5047 182.016 148.287 197.821 208.591 203.759C291.047 211.88 367.899 208.1 452.151 199.472C480.583 196.561 507.784 188.736 536.923 182.654C563.848 177.033 590.477 170.578 617.613 165.981C744.189 144.541 890.086 150.535 1011.29 182.762C1013.95 183.471 1083.45 201.059 1086.09 201.793" stroke="#393B3F" stroke-width="2" stroke-miterlimit="22.9256"/>
<path d="M30.0981 183.843C89.5047 195.261 148.287 211.066 208.591 217.005C291.047 225.125 367.899 221.346 452.151 212.717C480.583 209.806 507.784 201.981 536.922 195.899C563.848 190.278 590.477 183.823 617.613 179.226C743.979 157.822 889.602 163.761 1010.68 195.847C1013.55 196.607 1099.7 216.569 1102.54 217.358" stroke="#393B3F" stroke-width="2" stroke-miterlimit="22.9256"/>
<path d="M30.0981 197.401C89.5047 208.819 148.287 224.624 208.591 230.563C291.047 238.683 367.899 234.904 452.151 226.276C480.583 223.364 507.784 215.539 536.922 209.457C563.848 203.837 590.477 197.381 617.613 192.785C739.541 172.132 879.397 176.936 997.836 206.122C1005.06 207.9 1095.49 227.403 1102.54 229.364" stroke="#393B3F" stroke-width="2" stroke-miterlimit="22.9256"/>
<path d="M30.0981 210.295C89.5047 221.713 148.287 237.518 208.591 243.457C291.047 251.577 367.899 247.798 452.151 239.169C480.583 236.258 507.784 228.433 536.923 222.351C563.848 216.73 590.477 210.275 617.613 205.678C739.576 185.019 879.477 189.832 997.939 219.04C1005.12 220.812 1102.94 242.657 1109.96 244.608" stroke="#393B3F" stroke-width="2" stroke-miterlimit="22.9256"/>
<path d="M30.0981 223.853C89.5047 235.271 148.287 251.076 208.591 257.015C291.047 265.135 367.899 261.356 452.151 252.728C480.583 249.816 507.784 241.991 536.922 235.909C563.848 230.289 590.477 223.833 617.613 219.237C741.478 198.256 883.847 203.547 1003.47 233.983C1008.77 235.333 1112.98 256.913 1118.19 258.363" stroke="#393B3F" stroke-width="2" stroke-miterlimit="22.9256"/>
<path d="M30.0981 77.9691C89.5048 89.3869 148.287 105.192 208.591 111.131C291.047 119.251 367.899 115.472 452.151 106.843C480.583 103.932 507.784 96.1068 536.923 90.0248C563.848 84.4044 590.477 77.949 617.614 73.3525C737.612 53.0264 874.975 57.3578 992.198 85.3219C1001.34 87.5033 1071.25 104.857 1080.14 107.325" stroke="#393B3F" stroke-width="2" stroke-miterlimit="22.9256"/>
<path d="M30.0981 91.528C89.5047 102.946 148.287 118.751 208.591 124.69C291.047 132.81 367.899 129.031 452.151 120.402C480.583 117.491 507.784 109.666 536.923 103.584C563.848 97.9633 590.477 91.5079 617.613 86.9113C738 66.5197 875.864 70.9446 993.334 99.1528C1002.09 101.255 1077.58 119.295 1086.09 121.662" stroke="#393B3F" stroke-width="2" stroke-miterlimit="22.9256"/>
<path d="M30.0981 104.772C89.5047 116.19 148.287 131.995 208.591 137.934C291.047 146.054 367.899 142.275 452.151 133.647C480.583 130.735 507.784 122.91 536.923 116.828C563.848 111.208 590.477 104.752 617.613 100.156C739.795 79.4596 879.98 84.3264 998.576 113.675C1005.54 115.399 1083.43 134.049 1090.24 135.942" stroke="#393B3F" stroke-width="2" stroke-miterlimit="22.9256"/>
<path d="M30.0981 118.331C89.5047 129.749 148.287 145.554 208.591 151.492C291.047 159.612 367.899 155.833 452.151 147.205C480.583 144.294 507.784 136.468 536.923 130.386C563.848 124.766 590.477 118.311 617.613 113.714C741.132 92.7917 883.05 97.9946 1002.46 128.206C1008.11 129.634 1080.55 147.118 1086.09 148.659" stroke="#393B3F" stroke-width="2" stroke-miterlimit="22.9256"/>
<path d="M30.0981 131.223C89.5047 142.641 148.287 158.446 208.591 164.385C291.047 172.505 367.899 168.726 452.151 160.098C480.583 157.186 507.784 149.361 536.923 143.279C563.848 137.659 590.477 131.203 617.613 126.607C742.767 105.407 886.812 111.03 1007.19 142.312C1011.24 143.363 1084.44 161.776 1088.43 162.885" stroke="#393B3F" stroke-width="2" stroke-miterlimit="22.9256"/>
<path d="M30.0981 144.783C89.5047 156.2 148.287 172.005 208.591 177.944C291.047 186.064 367.899 182.285 452.151 173.657C480.583 170.745 507.784 162.92 536.923 156.838C563.848 151.218 590.477 144.762 617.613 140.166C743.728 118.804 889.023 124.677 1009.96 156.596C1013.07 157.417 1085.35 175.588 1088.43 176.444" stroke="#393B3F" stroke-width="2" stroke-miterlimit="22.9256"/>
<path d="M30.0981 561.444C89.5048 572.861 148.287 588.667 208.591 594.605C291.047 602.725 367.899 598.946 452.151 590.318C480.583 587.406 507.784 579.581 536.923 573.499C563.849 567.879 590.477 561.424 617.614 556.827C746.974 534.915 896.515 541.658 1019.25 575.773" stroke="#393B3F" stroke-width="2" stroke-miterlimit="22.9256"/>
<path d="M30.0981 574.067C89.5048 585.485 148.287 601.29 208.591 607.229C291.047 615.349 367.899 611.57 452.151 602.942C480.583 600.03 507.784 592.205 536.923 586.123C563.849 580.503 590.477 574.047 617.614 569.451C746.974 547.539 896.515 554.281 1019.25 588.397" stroke="#393B3F" stroke-width="2" stroke-miterlimit="22.9256"/>
<path d="M30.0981 48.9113C89.5048 60.3291 148.287 76.1342 208.591 82.0729C291.047 90.193 367.899 86.4139 452.151 77.7856C480.583 74.8742 507.784 67.0491 536.923 60.9671C563.848 55.3466 590.477 48.8912 617.614 44.2946C737.966 23.9088 875.786 28.3254 993.235 56.5124C1002.03 58.6218 1071.59 74.8555 1080.14 77.2312" stroke="#393B3F" stroke-width="2" stroke-miterlimit="22.9256"/>
<path d="M30.0981 62.4696C89.5048 73.8875 148.287 89.6926 208.591 95.6313C291.047 103.751 367.899 99.9723 452.151 91.344C480.583 88.4326 507.784 80.6074 536.923 74.5254C563.848 68.905 590.477 62.4496 617.614 57.8531C740.031 37.117 880.522 42.0429 999.264 71.543C1006 73.2156 1073.55 88.959 1080.14 90.79" stroke="#393B3F" stroke-width="2" stroke-miterlimit="22.9256"/>
<path d="M30.0981 -30.1587C89.5047 -18.7408 148.287 -2.93571 208.591 3.00294C291.047 11.123 367.899 7.34395 452.151 -1.28432C480.583 -4.19577 507.784 -12.0209 536.923 -18.1029C563.848 -23.7233 590.477 -30.1787 617.613 -34.7753C744.996 -56.352 891.947 -50.1435 1013.6 -17.3747C1015.49 -16.8661 1060.41 -2.60563 1062.29 -2.08419" stroke="#393B3F" stroke-width="2" stroke-miterlimit="22.9256"/>
<path d="M30.0981 -16.5998C89.5047 -5.18194 148.287 10.6232 208.591 16.5619C291.047 24.6819 367.899 20.9029 452.151 12.2746C480.583 9.36314 507.784 1.53798 536.923 -4.54403C563.848 -10.1644 590.477 -16.6199 617.613 -21.2164C745.619 -42.8989 893.384 -36.523 1015.38 -3.33341C1016.67 -2.98221 1064.16 11.5678 1065.44 11.9251" stroke="#393B3F" stroke-width="2" stroke-miterlimit="22.9256"/>
<path d="M30.0981 -3.35589C89.5047 8.06198 148.287 23.8671 208.591 29.8058C291.047 37.9259 367.899 34.1468 452.151 25.5185C480.583 22.6071 507.784 14.7819 536.923 8.6999C563.848 3.07948 590.477 -3.37594 617.613 -7.97247C744.89 -29.5313 891.703 -23.3511 1013.3 9.34604C1015.29 9.8811 1060.31 23.4933 1062.29 24.0427" stroke="#393B3F" stroke-width="2" stroke-miterlimit="22.9256"/>
<path d="M30.0981 10.2028C89.5047 21.6207 148.287 37.4258 208.591 43.3644C291.047 51.4845 367.899 47.7054 452.151 39.0771C480.583 36.1657 507.784 28.3406 536.922 22.2586C563.848 16.6382 590.477 10.1827 617.613 5.58615C744.349 -15.8809 890.454 -9.8448 1011.74 22.489C1014.26 23.1584 1056.19 33.6029 1058.68 34.2953" stroke="#393B3F" stroke-width="2" stroke-miterlimit="22.9256"/>
<path d="M30.0981 23.0969C89.5047 34.5148 148.287 50.3199 208.591 56.2586C291.047 64.3786 367.899 60.5996 452.151 51.9713C480.583 49.0599 507.784 41.2347 536.922 35.1527C563.848 29.5323 590.477 23.0769 617.613 18.4803C744.31 -2.9803 890.365 3.04616 1011.63 35.3538C1014.18 36.0329 1056.15 47.1533 1058.68 47.8557" stroke="#393B3F" stroke-width="2" stroke-miterlimit="22.9256"/>
<path d="M30.0981 36.6563C89.5047 48.0742 148.287 63.8794 208.591 69.818C291.047 77.9381 367.899 74.159 452.151 65.5307C480.583 62.6193 507.784 54.7941 536.923 48.7121C563.848 43.0917 590.477 36.6363 617.613 32.0397C743.72 10.6791 889.007 16.5496 1009.94 48.4638C1013.06 49.2866 1059.2 59.8562 1062.29 60.7141" stroke="#393B3F" stroke-width="2" stroke-miterlimit="22.9256"/>
<path d="M-52.5528 358.949C-46.0769 360.193 9.42986 370.044 38.4247 375.304C95.4639 385.651 150.496 400.805 208.59 406.526C291.047 414.646 367.899 410.867 452.15 402.239C480.583 399.327 507.784 391.502 536.922 385.42C563.848 379.8 590.477 373.344 617.613 368.748C746.973 346.836 896.515 353.579 1019.25 387.694" stroke="#393B3F" stroke-width="2" stroke-miterlimit="22.9256"/>
</g>
</svg>
