<svg width="19" height="25" viewBox="0 0 19 25" fill="none" xmlns="http://www.w3.org/2000/svg">
<path fill-rule="evenodd" clip-rule="evenodd" d="M4 2H15C16.1046 2 17 2.89543 17 4V21.2632C17 22.3677 16.1046 23.2632 15 23.2632H4C2.89543 23.2632 2 22.3677 2 21.2632V4C2 2.89543 2.89543 2 4 2ZM1 4C1 2.34314 2.34315 1 4 1H15C16.6569 1 18 2.34315 18 4V21.2632C18 22.92 16.6569 24.2632 15 24.2632H4C2.34315 24.2632 1 22.92 1 21.2632V4ZM9.5 20.6842C10.2412 20.6842 10.8421 20.0833 10.8421 19.3421C10.8421 18.6009 10.2412 18 9.5 18C8.75878 18 8.15789 18.6009 8.15789 19.3421C8.15789 20.0833 8.75878 20.6842 9.5 20.6842Z" fill="#E9CC58"/>
<path d="M15 1.5H4V2.5H15V1.5ZM17.5 4C17.5 2.61929 16.3807 1.5 15 1.5V2.5C15.8284 2.5 16.5 3.17157 16.5 4H17.5ZM17.5 21.2632V4H16.5V21.2632H17.5ZM15 23.7632C16.3807 23.7632 17.5 22.6439 17.5 21.2632H16.5C16.5 22.0916 15.8284 22.7632 15 22.7632V23.7632ZM4 23.7632H15V22.7632H4V23.7632ZM1.5 21.2632C1.5 22.6439 2.61929 23.7632 4 23.7632V22.7632C3.17157 22.7632 2.5 22.0916 2.5 21.2632H1.5ZM1.5 4V21.2632H2.5V4H1.5ZM4 1.5C2.61929 1.5 1.5 2.61929 1.5 4H2.5C2.5 3.17157 3.17157 2.5 4 2.5V1.5ZM4 0.5C2.067 0.5 0.5 2.067 0.5 4H1.5C1.5 2.61929 2.61929 1.5 4 1.5V0.5ZM15 0.5H4V1.5H15V0.5ZM18.5 4C18.5 2.067 16.933 0.5 15 0.5V1.5C16.3807 1.5 17.5 2.61929 17.5 4H18.5ZM18.5 21.2632V4H17.5V21.2632H18.5ZM15 24.7632C16.933 24.7632 18.5 23.1962 18.5 21.2632H17.5C17.5 22.6439 16.3807 23.7632 15 23.7632V24.7632ZM4 24.7632H15V23.7632H4V24.7632ZM0.5 21.2632C0.5 23.1962 2.067 24.7632 4 24.7632V23.7632C2.61929 23.7632 1.5 22.6439 1.5 21.2632H0.5ZM0.5 4V21.2632H1.5V4H0.5ZM10.3421 19.3421C10.3421 19.8072 9.96508 20.1842 9.5 20.1842V21.1842C10.5174 21.1842 11.3421 20.3595 11.3421 19.3421H10.3421ZM9.5 18.5C9.96508 18.5 10.3421 18.877 10.3421 19.3421H11.3421C11.3421 18.3247 10.5174 17.5 9.5 17.5V18.5ZM8.65789 19.3421C8.65789 18.877 9.03492 18.5 9.5 18.5V17.5C8.48263 17.5 7.65789 18.3247 7.65789 19.3421H8.65789ZM9.5 20.1842C9.03492 20.1842 8.65789 19.8072 8.65789 19.3421H7.65789C7.65789 20.3595 8.48263 21.1842 9.5 21.1842V20.1842Z" fill="#E9CC58"/>
</svg>
