<svg width="1600" height="256" viewBox="0 0 1600 256" fill="none" xmlns="http://www.w3.org/2000/svg">
<path d="M1448.11 172.696L1447.84 172.274L1448.11 172.696ZM1588.69 109.847L1588.6 109.357L1588.69 109.847ZM1330.14 221.338L1330.14 220.838L1330.14 221.338ZM1194 177.474L1194.2 177.015L1194 177.474ZM1047.43 168.874L1047.54 169.362L1047.43 168.874ZM921.769 209.905L921.948 210.372L921.769 209.905ZM900.082 218.14L899.906 217.672L900.082 218.14ZM764.849 252.719L764.862 253.219L764.849 252.719ZM654.646 200.815L655.039 200.506L654.646 200.815ZM468.418 49.9514L468.271 50.4293L468.418 49.9514ZM228.324 71.9782L228.482 72.4527L228.324 71.9782ZM169.146 92.5864L168.978 92.1156L168.978 92.1155L169.146 92.5864ZM168.704 92.7441L168.872 93.215L168.872 93.215L168.704 92.7441ZM116.99 110.664L116.837 110.188L116.99 110.664ZM33.389 126.745L33.407 126.246L33.389 126.745ZM-30.5483 98.1367L-30.9058 98.4863L-30.5483 98.1367ZM-83.6765 2.06509L-84.146 2.23699L-83.6765 2.06509ZM-84.0203 1.12609L-84.1922 0.656541L-83.7227 0.484643L-83.5508 0.954188L-84.0203 1.12609ZM-85.8984 1.81368L-86.3679 1.98558L-86.5399 1.51604L-86.0704 1.34414L-85.8984 1.81368ZM-85.5546 2.75272L-86.0241 2.92462L-85.5546 2.75272ZM-31.9779 99.5353L-31.6205 99.1856L-31.9779 99.5353ZM33.3166 128.744L33.2984 129.244L33.3166 128.744ZM117.606 112.566L117.452 112.091L117.606 112.566ZM169.377 94.6277L169.545 95.0985L169.377 94.6277ZM169.814 94.4716L169.646 94.0007L169.814 94.4716ZM228.956 73.876L229.113 74.3505L228.956 73.876ZM467.83 51.8631L467.977 51.3852L467.83 51.8631ZM653.075 202.053L652.683 202.362L653.075 202.053ZM764.901 254.718L764.888 254.218L764.901 254.718ZM900.786 220.012L900.61 219.544L900.786 220.012ZM922.511 211.763L922.332 211.296L922.511 211.763ZM1047.86 170.828L1047.96 171.317L1047.86 170.828ZM1193.2 179.307L1193.4 178.848L1193.2 179.307ZM1330.14 223.338L1330.14 222.838L1330.14 223.338ZM1449.18 174.386L1448.91 173.964L1449.18 174.386ZM1589.08 111.809L1588.98 111.319L1589.08 111.809ZM1632.21 109.82L1632.3 109.326L1632.21 109.82ZM1656.21 121.507L1656.59 121.185L1656.21 121.507ZM1656.86 122.272L1657.18 122.655L1656.8 122.977L1656.47 122.594L1656.86 122.272ZM1658.39 120.984L1658.77 120.662L1659.09 121.044L1658.71 121.366L1658.39 120.984ZM1657.74 120.219L1658.12 119.897L1658.12 119.897L1657.74 120.219ZM1632.54 107.847L1632.46 108.34L1632.54 107.847ZM1447.84 172.274C1505.95 135.484 1553.26 116.334 1588.6 109.357L1588.79 110.338C1553.61 117.284 1506.42 136.37 1448.38 173.119L1447.84 172.274ZM1330.14 220.838C1363.95 220.916 1394.91 205.787 1447.84 172.274L1448.38 173.119C1395.46 206.622 1364.28 221.917 1330.14 221.838L1330.14 220.838ZM1194.2 177.015C1259.25 205.394 1296.23 220.759 1330.14 220.838L1330.14 221.838C1295.97 221.758 1258.77 206.278 1193.8 177.932L1194.2 177.015ZM1047.32 168.385C1097.07 157.548 1146.8 156.331 1194.2 177.015L1193.8 177.932C1146.66 157.362 1097.17 158.55 1047.54 169.362L1047.32 168.385ZM921.591 209.438C962.686 193.761 1005.08 177.588 1047.32 168.385L1047.54 169.362C1005.38 178.547 963.057 194.69 921.948 210.372L921.591 209.438ZM899.906 217.672C907.09 214.97 914.32 212.211 921.591 209.438L921.948 210.372C914.677 213.146 907.444 215.905 900.258 218.608L899.906 217.672ZM764.836 252.219C806.361 251.148 852.039 235.678 899.906 217.672L900.258 218.608C852.406 236.608 806.578 252.142 764.862 253.219L764.836 252.219ZM655.039 200.506C686.196 240.049 723.445 253.287 764.836 252.219L764.862 253.219C723.19 254.294 685.627 240.942 654.254 201.125L655.039 200.506ZM468.565 49.4735C534.165 69.6402 590.601 118.724 655.039 200.506L654.254 201.125C589.855 119.392 533.576 70.5053 468.271 50.4293L468.565 49.4735ZM228.167 71.5038C328.478 38.1469 402.959 29.3052 468.565 49.4735L468.271 50.4293C402.964 30.3529 328.727 39.1183 228.482 72.4527L228.167 71.5038ZM168.978 92.1155C187.351 85.5571 207.03 78.5323 228.167 71.5038L228.482 72.4527C207.357 79.4772 187.688 86.4985 169.314 93.0573L168.978 92.1155ZM168.536 92.2732L168.978 92.1156L169.314 93.0573L168.872 93.215L168.536 92.2732ZM116.837 110.188C132.861 105.003 150.03 98.879 168.536 92.2732L168.872 93.215C150.37 99.8196 133.186 105.949 117.144 111.139L116.837 110.188ZM33.407 126.246C57.4393 127.116 84.7599 120.566 116.837 110.188L117.144 111.139C85.0523 121.522 57.5897 128.123 33.3708 127.245L33.407 126.246ZM-30.1909 97.787C-11.2554 117.143 9.46677 125.378 33.407 126.246L33.3708 127.245C9.18264 126.369 -11.785 118.032 -30.9058 98.4863L-30.1909 97.787ZM-83.207 1.89319C-66.4326 47.708 -49.186 78.3696 -30.1909 97.787L-30.9058 98.4863C-50.0462 78.9202 -67.3525 48.1041 -84.146 2.23699L-83.207 1.89319ZM-83.5508 0.954188L-83.207 1.89319L-84.146 2.23699L-84.4898 1.29799L-83.5508 0.954188ZM-86.0704 1.34414L-84.1922 0.656541L-83.8485 1.59561L-85.7266 2.2832L-86.0704 1.34414ZM-86.0241 2.92462L-86.3679 1.98558L-85.4289 1.64179L-85.0851 2.58082L-86.0241 2.92462ZM-32.3354 99.8849C-51.7666 80.0216 -69.1923 48.8962 -86.0241 2.92462L-85.0851 2.58082C-68.2724 48.5001 -50.9064 79.4709 -31.6205 99.1856L-32.3354 99.8849ZM33.2984 129.244C8.61451 128.349 -12.8443 119.809 -32.3354 99.8849L-31.6205 99.1856C-12.3147 118.921 8.89863 127.359 33.3346 128.244L33.2984 129.244ZM117.76 113.042C85.6371 123.435 57.8904 130.135 33.2984 129.244L33.3346 128.244C57.74 129.129 85.3448 122.478 117.452 112.091L117.76 113.042ZM169.545 95.0985C151.049 101.701 133.835 107.841 117.76 113.042L117.452 112.091C133.511 106.895 150.709 100.76 169.208 94.1568L169.545 95.0985ZM169.982 94.9425L169.545 95.0985L169.208 94.1568L169.646 94.0007L169.982 94.9425ZM229.113 74.3505C208.01 81.3678 188.359 88.3825 169.982 94.9425L169.646 94.0007C188.022 87.4411 207.683 80.4228 228.798 73.4016L229.113 74.3505ZM467.683 52.341C402.973 32.4482 329.223 41.0609 229.113 74.3505L228.798 73.4016C328.975 40.0896 402.969 31.4006 467.977 51.3852L467.683 52.341ZM652.683 202.362C588.361 120.728 532.398 72.2354 467.683 52.341L467.977 51.3852C532.987 71.3703 589.108 120.06 653.468 201.743L652.683 202.362ZM764.914 255.218C722.681 256.308 684.488 242.728 652.683 202.362L653.468 201.743C685.057 241.835 722.936 255.301 764.888 254.218L764.914 255.218ZM900.962 220.48C853.141 238.468 807.014 254.132 764.914 255.218L764.888 254.218C806.796 253.137 852.774 237.538 900.61 219.544L900.962 220.48ZM922.689 212.23C915.411 215.006 908.167 217.77 900.962 220.48L900.61 219.544C907.812 216.835 915.055 214.072 922.332 211.296L922.689 212.23ZM1047.96 171.317C1005.96 180.466 963.804 196.546 922.689 212.23L922.332 211.296C963.434 195.617 1005.66 179.508 1047.75 170.34L1047.96 171.317ZM1193 179.765C1146.39 159.425 1097.37 160.554 1047.96 171.317L1047.75 170.34C1097.27 159.552 1146.52 158.394 1193.4 178.848L1193 179.765ZM1330.14 223.838C1295.46 223.757 1257.83 208.048 1193 179.765L1193.4 178.848C1258.3 207.163 1295.71 222.758 1330.14 222.838L1330.14 223.838ZM1449.45 174.809C1396.56 208.293 1364.92 223.919 1330.14 223.838L1330.14 222.838C1364.6 222.918 1396.01 207.458 1448.91 173.964L1449.45 174.809ZM1589.18 112.3C1554.32 119.183 1507.36 138.142 1449.45 174.809L1448.91 173.964C1506.89 137.256 1553.96 118.233 1588.98 111.319L1589.18 112.3ZM1632.13 110.313C1620.96 108.447 1606.61 108.859 1589.18 112.3L1588.98 111.319C1606.49 107.862 1620.98 107.436 1632.3 109.326L1632.13 110.313ZM1655.83 121.83C1651.18 116.304 1643.31 112.18 1632.13 110.313L1632.3 109.326C1643.62 111.218 1651.74 115.42 1656.59 121.185L1655.83 121.83ZM1656.47 122.594L1655.83 121.83L1656.59 121.185L1657.24 121.95L1656.47 122.594ZM1658.71 121.366L1657.18 122.655L1656.53 121.89L1658.06 120.602L1658.71 121.366ZM1658.12 119.897L1658.77 120.662L1658 121.306L1657.36 120.541L1658.12 119.897ZM1632.62 107.354C1644.24 109.294 1652.86 113.652 1658.12 119.897L1657.36 120.541C1652.3 114.536 1643.93 110.256 1632.46 108.34L1632.62 107.354ZM1588.6 109.357C1606.27 105.868 1621 105.412 1632.62 107.354L1632.46 108.34C1620.99 106.424 1606.38 106.865 1588.79 110.338L1588.6 109.357Z" fill="#282D3E"/>
</svg>
