<svg width="1586" height="259" viewBox="0 0 1586 259" fill="none" xmlns="http://www.w3.org/2000/svg">
<path d="M1627.83 23.7504L1627.57 24.177L1627.57 24.177L1627.83 23.7504ZM1562.69 1.67166L1562.72 1.17242L1562.72 1.17242L1562.69 1.67166ZM1628.68 24.272L1629.11 24.5328L1629.37 24.1062L1628.94 23.8454L1628.68 24.272ZM1627.64 25.9784L1627.38 26.405L1627.8 26.6658L1628.07 26.2392L1627.64 25.9784ZM1626.79 25.4568L1626.53 25.8834L1626.53 25.8834L1626.79 25.4568ZM1562.58 3.66862L1562.61 3.16938L1562.61 3.16938L1562.58 3.66862ZM1497.42 16.428L1497.61 16.8917L1497.61 16.8917L1497.42 16.428ZM1365.52 92.412L1365.79 92.8326L1365.79 92.8326L1365.52 92.412ZM1320.98 120.881L1320.71 120.459L1320.98 120.881ZM1276.78 151.105L1277.07 151.513L1276.78 151.105ZM683.216 131.597L683.525 131.204L683.216 131.597ZM672.425 123.145L672.733 122.751L672.425 123.145ZM437.143 27.1294L437.17 27.6288L437.143 27.1294ZM329.978 61.9466L330.202 62.3934L329.978 61.9466ZM286.49 84.8751L286.728 85.3151L286.49 84.8751ZM218.938 119.377L218.731 118.922L218.938 119.377ZM108.047 144.84L108.006 145.338L108.047 144.84ZM1.61699 83.2937L2.00132 82.9739L2.00132 82.9739L1.61699 83.2937ZM0.977328 82.525L0.657501 82.1407L0.273169 82.4605L0.593001 82.8449L0.977328 82.525ZM2.51464 81.2457L2.89897 80.9259L2.57914 80.5416L2.19482 80.8614L2.51464 81.2457ZM3.15431 82.0144L3.53863 81.6946L3.53863 81.6946L3.15431 82.0144ZM108.208 142.846L108.168 143.345L108.208 142.846ZM218.112 117.556L218.318 118.011L218.112 117.556ZM285.423 83.1771L285.661 83.6171L285.423 83.1771ZM329.08 60.1596L328.855 59.7128L329.08 60.1596ZM437.038 25.1322L437.064 25.6315L437.038 25.1322ZM673.657 121.569L673.964 121.175L673.657 121.569ZM684.386 129.973L684.695 129.579L684.386 129.973ZM1275.52 149.535L1275.23 149.127L1275.52 149.535ZM1319.91 119.191L1320.18 119.613L1319.91 119.191ZM1364.34 90.7933L1364.61 91.2139L1364.34 90.7933ZM1496.67 14.5734L1496.49 14.1098L1496.67 14.5734ZM1628.09 23.3238C1605.33 9.40964 1584.13 2.35274 1562.72 1.17242L1562.66 2.1709C1583.88 3.34043 1604.92 10.3315 1627.57 24.177L1628.09 23.3238ZM1628.94 23.8454L1628.09 23.3238L1627.57 24.177L1628.42 24.6986L1628.94 23.8454ZM1628.07 26.2392L1629.11 24.5328L1628.26 24.0112L1627.21 25.7176L1628.07 26.2392ZM1626.53 25.8834L1627.38 26.405L1627.9 25.5518L1627.05 25.0302L1626.53 25.8834ZM1562.55 4.16786C1583.37 5.31579 1604.1 12.1752 1626.53 25.8834L1627.05 25.0302C1604.51 11.2533 1583.62 4.3281 1562.61 3.16938L1562.55 4.16786ZM1497.61 16.8917C1520.67 7.58113 1541.72 3.01942 1562.55 4.16786L1562.61 3.16938C1541.58 2.01048 1520.39 6.61764 1497.23 15.9644L1497.61 16.8917ZM1365.79 92.8326C1419.43 58.3661 1460.95 31.6895 1497.61 16.8917L1497.23 15.9644C1460.47 30.8056 1418.86 57.5449 1365.25 91.9913L1365.79 92.8326ZM1321.25 121.304C1337 111.335 1351.81 101.82 1365.79 92.8326L1365.25 91.9913C1351.27 100.978 1336.46 110.492 1320.71 120.459L1321.25 121.304ZM1277.07 151.513C1292.45 140.62 1307.05 130.286 1321.25 121.304L1320.71 120.459C1306.49 129.457 1291.87 139.807 1276.49 150.697L1277.07 151.513ZM920.272 252.999C1095.73 279.905 1196.96 208.226 1277.07 151.513L1276.49 150.697C1196.42 207.384 1095.47 278.854 920.424 252.011L920.272 252.999ZM682.908 131.991C748.084 183.108 816.99 237.161 920.272 252.999L920.424 252.011C817.43 236.216 748.711 182.329 683.525 131.204L682.908 131.991ZM672.117 123.539C675.706 126.343 679.301 129.162 682.908 131.991L683.525 131.204C679.918 128.375 676.323 125.555 672.733 122.751L672.117 123.539ZM437.17 27.6288C537.439 22.3504 603.626 70.0321 672.117 123.539L672.733 122.751C604.237 69.2404 537.788 21.3307 437.117 26.6301L437.17 27.6288ZM330.202 62.3934C366.827 43.9889 402.669 29.4449 437.17 27.6288L437.117 26.6301C402.397 28.4579 366.397 43.0859 329.753 61.4999L330.202 62.3934ZM286.728 85.3151C301.31 77.4487 315.821 69.6205 330.202 62.3934L329.753 61.4999C315.356 68.7346 300.832 76.5699 286.253 84.435L286.728 85.3151ZM219.144 119.833C241.67 109.622 264.283 97.4234 286.728 85.3151L286.253 84.435C263.802 96.5465 241.221 108.728 218.731 118.922L219.144 119.833ZM108.006 145.338C144.637 148.309 181.943 136.695 219.144 119.833L218.731 118.922C181.581 135.761 144.463 147.291 108.087 144.341L108.006 145.338ZM1.23266 83.6135C35.4708 124.756 71.2961 142.361 108.006 145.338L108.087 144.341C71.685 141.39 36.0951 123.943 2.00132 82.9739L1.23266 83.6135ZM0.593001 82.8449L1.23266 83.6135L2.00132 82.9739L1.36166 82.2052L0.593001 82.8449ZM2.19482 80.8614L0.657501 82.1407L1.29716 82.9094L2.83448 81.63L2.19482 80.8614ZM3.53863 81.6946L2.89897 80.9259L2.13032 81.5656L2.76998 82.3342L3.53863 81.6946ZM108.249 142.348C72.4628 139.446 37.3436 122.317 3.53863 81.6946L2.76998 82.3342C36.7194 123.13 72.0739 140.418 108.168 143.345L108.249 142.348ZM217.906 117.1C180.856 133.894 144.115 145.256 108.249 142.348L108.168 143.345C144.289 146.274 181.219 134.827 218.318 118.011L217.906 117.1ZM285.186 82.737C262.802 94.8142 240.36 106.923 217.906 117.1L218.318 118.011C240.81 107.817 263.283 95.6911 285.661 83.6171L285.186 82.737ZM328.855 59.7128C314.34 67.0073 299.775 74.8654 285.186 82.737L285.661 83.6171C300.252 75.7443 314.804 67.8931 329.304 60.6064L328.855 59.7128ZM437.012 24.6329C401.851 26.4838 365.536 41.2801 328.855 59.7128L329.304 60.6064C365.966 42.183 402.124 27.4708 437.064 25.6315L437.012 24.6329ZM673.964 121.175C605.459 67.6569 538.487 19.2912 437.012 24.6329L437.064 25.6315C538.137 20.3109 604.848 68.4486 673.349 121.963L673.964 121.175ZM684.695 129.579C681.11 126.768 677.535 123.964 673.964 121.175L673.349 121.963C676.918 124.752 680.493 127.555 684.077 130.366L684.695 129.579ZM920.727 250.034C818.265 234.321 749.923 180.734 684.695 129.579L684.077 130.366C749.296 181.513 817.825 235.265 920.575 251.022L920.727 250.034ZM1275.23 149.127C1195.18 205.786 1094.92 276.746 920.727 250.034L920.575 251.022C1095.17 277.797 1195.72 206.627 1275.81 149.943L1275.23 149.127ZM1319.64 118.768C1305.33 127.823 1290.65 138.213 1275.23 149.127L1275.81 149.943C1291.23 139.025 1305.89 128.651 1320.18 119.613L1319.64 118.768ZM1364.07 90.3726C1350.11 99.347 1335.34 108.837 1319.64 118.768L1320.18 119.613C1335.88 109.68 1350.65 100.188 1364.61 91.2139L1364.07 90.3726ZM1496.49 14.1098C1459.53 29.0282 1417.71 55.9061 1364.07 90.3726L1364.61 91.2139C1418.28 56.7273 1460.01 29.9121 1496.86 15.0371L1496.49 14.1098ZM1562.72 1.17242C1541.31 -0.00738403 1519.82 4.69064 1496.49 14.1098L1496.86 15.0371C1520.1 5.65414 1541.45 1.00155 1562.66 2.1709L1562.72 1.17242Z" fill="#282D3E"/>
</svg>
