<svg width="1600" height="789" viewBox="0 0 1600 789" fill="none" xmlns="http://www.w3.org/2000/svg">
<path d="M1599.14 13.4983L1598.95 13.9595V13.9595L1599.14 13.4983ZM1531.41 1.54867L1531.36 1.05103V1.05103L1531.41 1.54867ZM1600.07 13.8845L1600.53 14.0777L1600.72 13.6164L1600.26 13.4233L1600.07 13.8845ZM1599.29 15.7294L1599.1 16.1906L1599.56 16.3837L1599.76 15.9225L1599.29 15.7294ZM1598.37 15.3431L1598.18 15.8043V15.8043L1598.37 15.3431ZM1531.6 3.53925L1531.56 3.04161V3.04161L1531.6 3.53925ZM1469.13 26.0276L1469.39 26.4575V26.4575L1469.13 26.0276ZM1350.28 121.126L1350.61 121.501V121.501L1350.28 121.126ZM1310.56 156.019L1310.23 155.642L1310.56 156.019ZM1271.45 192.593L1271.8 192.952L1271.45 192.593ZM681.794 263.282L682.039 262.847L681.794 263.282ZM669.847 256.564L670.091 256.127L669.847 256.564ZM422.729 197.321L422.831 197.811L422.729 197.321ZM322.08 247.98L322.369 248.388L322.08 247.98ZM282.57 277.235L282.872 277.634L282.57 277.235ZM221.028 321.579L220.755 321.16L221.028 321.579ZM115.278 363.555L115.313 364.054L115.278 363.555ZM0.748781 318.853L1.08019 318.479H1.08019L0.748781 318.853ZM0 318.19L-0.37439 317.859L-0.705801 318.233L-0.331407 318.565L0 318.19ZM1.32564 316.693L1.65704 316.318L1.28265 315.987L0.951246 316.361L1.32564 316.693ZM2.07442 317.355L2.40583 316.981H2.40582L2.07442 317.355ZM115.135 361.56L115.171 362.059L115.135 361.56ZM219.936 319.903L220.209 320.322L219.936 319.903ZM281.258 275.719L281.56 276.118L281.258 275.719ZM320.921 246.35L320.632 245.942L320.921 246.35ZM422.323 195.363L422.424 195.852L422.323 195.363ZM670.825 254.819L671.069 254.383L670.825 254.819ZM682.704 261.499L682.949 261.064L682.704 261.499ZM1269.97 191.232L1269.63 190.872L1269.97 191.232ZM1309.25 154.51L1309.58 154.887L1309.25 154.51ZM1348.86 119.706L1349.19 120.08L1348.86 119.706ZM1468.11 24.3079L1467.86 23.878L1468.11 24.3079ZM1599.34 13.0371C1574.73 2.73374 1552.7 -1.02773 1531.36 1.05103L1531.46 2.04632C1552.61 -0.0134244 1574.47 3.70697 1598.95 13.9595L1599.34 13.0371ZM1600.26 13.4233L1599.34 13.0371L1598.95 13.9595L1599.87 14.3458L1600.26 13.4233ZM1599.76 15.9225L1600.53 14.0777L1599.61 13.6914L1598.83 15.5362L1599.76 15.9225ZM1598.18 15.8043L1599.1 16.1906L1599.49 15.2681L1598.57 14.8819L1598.18 15.8043ZM1531.65 4.0369C1552.41 2.01519 1573.94 5.65343 1598.18 15.8043L1598.57 14.8819C1574.2 4.6802 1552.51 1.00088 1531.56 3.04161L1531.65 4.0369ZM1469.39 26.4575C1490.78 13.7584 1510.89 6.05953 1531.65 4.0369L1531.56 3.04161C1510.6 5.08264 1490.35 12.8491 1468.88 25.5977L1469.39 26.4575ZM1350.61 121.501C1398.4 79.3028 1435.4 46.6413 1469.39 26.4575L1468.88 25.5977C1434.79 45.8405 1397.71 78.5778 1349.95 120.752L1350.61 121.501ZM1310.89 156.396C1324.95 144.154 1338.15 132.504 1350.61 121.501L1349.95 120.752C1337.49 131.755 1324.29 143.402 1310.23 155.642L1310.89 156.396ZM1271.8 192.952C1285.36 179.853 1298.22 167.426 1310.89 156.396L1310.23 155.642C1297.54 166.692 1284.66 179.138 1271.11 192.233L1271.8 192.952ZM934.513 347.349C1112.02 347.349 1201.22 261.152 1271.8 192.952L1271.11 192.233C1200.56 260.403 1111.61 346.349 934.513 346.349V347.349ZM681.549 263.718C753.72 304.366 830.023 347.349 934.513 347.349V346.349C830.315 346.349 754.221 303.5 682.039 262.847L681.549 263.718ZM669.602 257C673.574 259.227 677.555 261.469 681.549 263.718L682.039 262.847C678.046 260.598 674.065 258.355 670.091 256.127L669.602 257ZM422.831 197.811C521.142 177.395 593.792 214.493 669.602 257L670.091 256.127C594.276 213.617 521.332 176.334 422.628 196.832L422.831 197.811ZM322.369 248.388C355.781 224.644 389.005 204.835 422.831 197.811L422.628 196.832C388.586 203.901 355.219 223.817 321.79 247.572L322.369 248.388ZM282.872 277.634C296.093 267.648 309.249 257.711 322.369 248.388L321.79 247.572C308.656 256.906 295.488 266.852 282.269 276.836L282.872 277.634ZM221.301 321.997C242.019 308.49 262.521 293.005 282.872 277.634L282.269 276.836C261.913 292.211 241.439 307.675 220.755 321.16L221.301 321.997ZM115.313 364.054C151.971 361.438 187.086 344.304 221.301 321.997L220.755 321.16C186.586 343.435 151.645 360.459 115.242 363.057L115.313 364.054ZM0.417372 319.227C40.4963 354.705 78.5761 366.676 115.313 364.054L115.242 363.057C78.8133 365.657 40.9901 353.807 1.08019 318.479L0.417372 319.227ZM-0.331407 318.565L0.417374 319.227L1.08019 318.479L0.331407 317.816L-0.331407 318.565ZM0.951246 316.361L-0.37439 317.859L0.37439 318.522L1.70003 317.024L0.951246 316.361ZM2.40582 316.981L1.65704 316.318L0.994229 317.067L1.74301 317.73L2.40582 316.981ZM115.1 361.062C79.2875 363.618 41.9777 352.01 2.40583 316.981L1.74301 317.73C41.4839 352.908 79.0504 364.637 115.171 362.059L115.1 361.062ZM219.663 319.484C185.587 341.699 150.992 358.5 115.1 361.062L115.171 362.059C151.318 359.479 186.087 342.567 220.209 320.322L219.663 319.484ZM280.957 275.32C260.662 290.65 240.315 306.021 219.663 319.484L220.209 320.322C240.895 306.836 261.27 291.444 281.56 276.118L280.957 275.32ZM320.632 245.942C307.389 255.353 294.184 265.328 280.957 275.32L281.56 276.118C294.789 266.124 307.982 256.158 321.211 246.757L320.632 245.942ZM422.221 194.873C387.747 202.032 354.094 222.162 320.632 245.942L321.211 246.757C354.656 222.99 388.166 202.967 422.424 195.852L422.221 194.873ZM671.069 254.383C595.243 211.867 521.713 174.212 422.221 194.873L422.424 195.852C521.523 175.273 594.76 212.742 670.58 255.255L671.069 254.383ZM682.949 261.064C678.98 258.828 675.021 256.599 671.069 254.383L670.58 255.255C674.531 257.471 678.49 259.7 682.459 261.935L682.949 261.064ZM934.513 344.349C830.854 344.349 755.178 301.74 682.949 261.064L682.459 261.935C754.676 302.605 830.561 345.349 934.513 345.349V344.349ZM1269.63 190.872C1199.09 259.011 1110.74 344.349 934.513 344.349V345.349C1111.15 345.349 1199.75 259.761 1270.32 191.592L1269.63 190.872ZM1308.92 154.133C1296.15 165.252 1283.21 177.747 1269.63 190.872L1270.32 191.592C1283.91 178.462 1296.83 165.986 1309.58 154.887L1308.92 154.133ZM1348.53 119.331C1336.09 130.318 1322.93 141.938 1308.92 154.133L1309.58 154.887C1323.59 142.689 1336.75 131.068 1349.19 120.08L1348.53 119.331ZM1467.86 23.878C1433.59 44.2261 1396.32 77.1328 1348.53 119.331L1349.19 120.08C1397.01 77.8578 1434.2 45.0268 1468.37 24.7378L1467.86 23.878ZM1531.36 1.05103C1510.03 3.12887 1489.49 11.0307 1467.86 23.878L1468.37 24.7378C1489.92 11.9399 1510.31 4.10576 1531.46 2.04632L1531.36 1.05103Z" fill="#282D3E"/>
<path d="M1599.14 60.5706L1598.95 61.0318V61.0318L1599.14 60.5706ZM1531.41 48.6209L1531.36 48.1233V48.1233L1531.41 48.6209ZM1600.07 60.9568L1600.53 61.1499L1600.72 60.6887L1600.26 60.4956L1600.07 60.9568ZM1599.29 62.8016L1599.1 63.2628L1599.56 63.4559L1599.76 62.9947L1599.29 62.8016ZM1598.37 62.4154L1598.18 62.8766V62.8766L1598.37 62.4154ZM1531.6 50.6115L1531.56 50.1139V50.1139L1531.6 50.6115ZM1469.13 73.0999L1469.39 73.5298V73.5298L1469.13 73.0999ZM1350.28 168.199L1350.61 168.573V168.573L1350.28 168.199ZM1310.56 203.091L1310.23 202.714L1310.56 203.091ZM1271.45 239.665L1271.8 240.025L1271.45 239.665ZM681.794 310.355L682.039 309.919L681.794 310.355ZM669.847 303.636L670.091 303.2L669.847 303.636ZM422.729 244.393L422.831 244.883L422.729 244.393ZM322.08 295.052L322.369 295.46L322.08 295.052ZM282.57 324.307L282.872 324.706L282.57 324.307ZM221.028 368.651L220.755 368.232L221.028 368.651ZM115.278 410.628L115.313 411.126L115.278 410.628ZM0.748781 365.925L1.08019 365.551H1.08019L0.748781 365.925ZM0 365.262L-0.37439 364.931L-0.705801 365.305L-0.331407 365.637L0 365.262ZM1.32564 363.765L1.65704 363.39L1.28265 363.059L0.951246 363.433L1.32564 363.765ZM2.07442 364.428L2.40583 364.053H2.40582L2.07442 364.428ZM115.135 408.633L115.171 409.131L115.135 408.633ZM219.936 366.975L220.209 367.394L219.936 366.975ZM281.258 322.791L281.56 323.19L281.258 322.791ZM320.921 293.422L320.632 293.014L320.921 293.422ZM422.323 242.435L422.424 242.925L422.323 242.435ZM670.825 301.891L671.069 301.455L670.825 301.891ZM682.704 308.572L682.949 308.136L682.704 308.572ZM1269.97 238.304L1269.63 237.945L1269.97 238.304ZM1309.25 201.582L1309.58 201.96L1309.25 201.582ZM1348.86 166.778L1349.19 167.153L1348.86 166.778ZM1468.11 71.3802L1467.86 70.9502L1468.11 71.3802ZM1599.34 60.1094C1574.73 49.806 1552.7 46.0445 1531.36 48.1233L1531.46 49.1186C1552.61 47.0588 1574.47 50.7792 1598.95 61.0318L1599.34 60.1094ZM1600.26 60.4956L1599.34 60.1094L1598.95 61.0318L1599.87 61.418L1600.26 60.4956ZM1599.76 62.9947L1600.53 61.1499L1599.61 60.7637L1598.83 62.6085L1599.76 62.9947ZM1598.18 62.8766L1599.1 63.2628L1599.49 62.3404L1598.57 61.9542L1598.18 62.8766ZM1531.65 51.1092C1552.41 49.0875 1573.94 52.7257 1598.18 62.8766L1598.57 61.9542C1574.2 51.7525 1552.51 48.0731 1531.56 50.1139L1531.65 51.1092ZM1469.39 73.5298C1490.78 60.8306 1510.89 53.1318 1531.65 51.1092L1531.56 50.1139C1510.6 52.1549 1490.35 59.9214 1468.88 72.6699L1469.39 73.5298ZM1350.61 168.573C1398.4 126.375 1435.4 93.7135 1469.39 73.5298L1468.88 72.6699C1434.79 92.9128 1397.71 125.65 1349.95 167.824L1350.61 168.573ZM1310.89 203.468C1324.95 191.226 1338.15 179.576 1350.61 168.573L1349.95 167.824C1337.49 178.827 1324.29 190.475 1310.23 202.714L1310.89 203.468ZM1271.8 240.025C1285.36 226.926 1298.22 214.498 1310.89 203.468L1310.23 202.714C1297.54 213.764 1284.66 226.211 1271.11 239.306L1271.8 240.025ZM934.513 394.421C1112.02 394.421 1201.22 308.224 1271.8 240.025L1271.11 239.306C1200.56 307.475 1111.61 393.421 934.513 393.421V394.421ZM681.549 310.79C753.72 351.438 830.023 394.421 934.513 394.421V393.421C830.315 393.421 754.221 350.573 682.039 309.919L681.549 310.79ZM669.602 304.072C673.574 306.299 677.555 308.541 681.549 310.79L682.039 309.919C678.046 307.67 674.065 305.428 670.091 303.2L669.602 304.072ZM422.831 244.883C521.142 224.467 593.792 261.565 669.602 304.072L670.091 303.2C594.276 260.69 521.332 223.406 422.628 243.904L422.831 244.883ZM322.369 295.46C355.781 271.716 389.005 251.908 422.831 244.883L422.628 243.904C388.586 250.973 355.219 270.889 321.79 294.645L322.369 295.46ZM282.872 324.706C296.093 314.721 309.249 304.783 322.369 295.46L321.79 294.645C308.656 303.978 295.488 313.924 282.269 323.909L282.872 324.706ZM221.301 369.07C242.019 355.563 262.521 340.077 282.872 324.706L282.269 323.909C261.913 339.283 241.439 354.747 220.755 368.232L221.301 369.07ZM115.313 411.126C151.971 408.51 187.086 391.376 221.301 369.07L220.755 368.232C186.586 390.508 151.645 407.531 115.242 410.129L115.313 411.126ZM0.417372 366.3C40.4963 401.777 78.5761 413.748 115.313 411.126L115.242 410.129C78.8133 412.729 40.9901 400.879 1.08019 365.551L0.417372 366.3ZM-0.331407 365.637L0.417374 366.3L1.08019 365.551L0.331407 364.888L-0.331407 365.637ZM0.951246 363.433L-0.37439 364.931L0.37439 365.594L1.70003 364.096L0.951246 363.433ZM2.40582 364.053L1.65704 363.39L0.994229 364.139L1.74301 364.802L2.40582 364.053ZM115.1 408.134C79.2875 410.69 41.9777 399.082 2.40583 364.053L1.74301 364.802C41.4839 399.98 79.0504 411.709 115.171 409.131L115.1 408.134ZM219.663 366.557C185.587 388.772 150.992 405.572 115.1 408.134L115.171 409.131C151.318 406.552 186.087 389.64 220.209 367.394L219.663 366.557ZM280.957 322.392C260.662 337.722 240.315 353.093 219.663 366.557L220.209 367.394C240.895 353.908 261.27 338.516 281.56 323.19L280.957 322.392ZM320.632 293.014C307.389 302.425 294.184 312.4 280.957 322.392L281.56 323.19C294.789 313.196 307.982 303.23 321.211 293.83L320.632 293.014ZM422.221 241.946C387.747 249.105 354.094 269.235 320.632 293.014L321.211 293.83C354.656 270.062 388.166 250.039 422.424 242.925L422.221 241.946ZM671.069 301.455C595.243 258.939 521.713 221.284 422.221 241.946L422.424 242.925C521.523 222.345 594.76 259.815 670.58 302.327L671.069 301.455ZM682.949 308.136C678.98 305.901 675.021 303.671 671.069 301.455L670.58 302.327C674.531 304.543 678.49 306.772 682.459 309.007L682.949 308.136ZM934.513 391.421C830.854 391.421 755.178 348.812 682.949 308.136L682.459 309.007C754.676 349.677 830.561 392.421 934.513 392.421V391.421ZM1269.63 237.945C1199.09 306.083 1110.74 391.421 934.513 391.421V392.421C1111.15 392.421 1199.75 306.833 1270.32 238.664L1269.63 237.945ZM1308.92 201.205C1296.15 212.324 1283.21 224.819 1269.63 237.945L1270.32 238.664C1283.91 225.534 1296.83 213.058 1309.58 201.96L1308.92 201.205ZM1348.53 166.403C1336.09 177.391 1322.93 189.01 1308.92 201.205L1309.58 201.96C1323.59 189.762 1336.75 178.14 1349.19 167.153L1348.53 166.403ZM1467.86 70.9502C1433.59 91.2984 1396.32 124.205 1348.53 166.403L1349.19 167.153C1397.01 124.93 1434.2 92.0991 1468.37 71.8101L1467.86 70.9502ZM1531.36 48.1233C1510.03 50.2011 1489.49 58.103 1467.86 70.9502L1468.37 71.8101C1489.92 59.0122 1510.31 51.178 1531.46 49.1186L1531.36 48.1233Z" fill="#282D3E"/>
<path d="M1599.14 107.643L1598.95 108.104V108.104L1599.14 107.643ZM1531.41 95.6932L1531.36 95.1956V95.1956L1531.41 95.6932ZM1600.07 108.029L1600.53 108.222L1600.72 107.761L1600.26 107.568L1600.07 108.029ZM1599.29 109.874L1599.1 110.335L1599.56 110.528L1599.76 110.067L1599.29 109.874ZM1598.37 109.488L1598.18 109.949V109.949L1598.37 109.488ZM1531.6 97.6838L1531.56 97.1861V97.1861L1531.6 97.6838ZM1469.13 120.172L1469.39 120.602V120.602L1469.13 120.172ZM1350.28 215.271L1350.61 215.646V215.646L1350.28 215.271ZM1310.56 250.163L1310.23 249.786L1310.56 250.163ZM1271.45 286.737L1271.8 287.097L1271.45 286.737ZM681.794 357.427L682.039 356.991L681.794 357.427ZM669.847 350.708L670.091 350.272L669.847 350.708ZM422.729 291.466L422.831 291.955L422.729 291.466ZM322.08 342.125L322.369 342.532L322.08 342.125ZM282.57 371.38L282.872 371.779L282.57 371.38ZM221.028 415.723L220.755 415.304L221.028 415.723ZM115.278 457.7L115.313 458.199L115.278 457.7ZM0.748781 412.997L1.08019 412.623H1.08019L0.748781 412.997ZM0 412.335L-0.37439 412.003L-0.705801 412.378L-0.331407 412.709L0 412.335ZM1.32564 410.837L1.65704 410.463L1.28265 410.131L0.951246 410.506L1.32564 410.837ZM2.07442 411.5L2.40583 411.126H2.40582L2.07442 411.5ZM115.135 455.705L115.171 456.204L115.135 455.705ZM219.936 414.048L220.209 414.467L219.936 414.048ZM281.258 369.863L281.56 370.262L281.258 369.863ZM320.921 340.494L320.632 340.087L320.921 340.494ZM422.323 289.507L422.424 289.997L422.323 289.507ZM670.825 348.964L671.069 348.527L670.825 348.964ZM682.704 355.644L682.949 355.208L682.704 355.644ZM1269.97 285.377L1269.63 285.017L1269.97 285.377ZM1309.25 248.655L1309.58 249.032L1309.25 248.655ZM1348.86 213.85L1349.19 214.225L1348.86 213.85ZM1468.11 118.452L1467.86 118.023L1468.11 118.452ZM1599.34 107.182C1574.73 96.8783 1552.7 93.1168 1531.36 95.1956L1531.46 96.1908C1552.61 94.1311 1574.47 97.8515 1598.95 108.104L1599.34 107.182ZM1600.26 107.568L1599.34 107.182L1598.95 108.104L1599.87 108.49L1600.26 107.568ZM1599.76 110.067L1600.53 108.222L1599.61 107.836L1598.83 109.681L1599.76 110.067ZM1598.18 109.949L1599.1 110.335L1599.49 109.413L1598.57 109.026L1598.18 109.949ZM1531.65 98.1814C1552.41 96.1597 1573.94 99.798 1598.18 109.949L1598.57 109.026C1574.2 98.8247 1552.51 95.1454 1531.56 97.1861L1531.65 98.1814ZM1469.39 120.602C1490.78 107.903 1510.89 100.204 1531.65 98.1814L1531.56 97.1861C1510.6 99.2272 1490.35 106.994 1468.88 119.742L1469.39 120.602ZM1350.61 215.646C1398.4 173.447 1435.4 140.786 1469.39 120.602L1468.88 119.742C1434.79 139.985 1397.71 172.722 1349.95 214.896L1350.61 215.646ZM1310.89 250.54C1324.95 238.298 1338.15 226.649 1350.61 215.646L1349.95 214.896C1337.49 225.899 1324.29 237.547 1310.23 249.786L1310.89 250.54ZM1271.8 287.097C1285.36 273.998 1298.22 261.571 1310.89 250.54L1310.23 249.786C1297.54 260.837 1284.66 273.283 1271.11 286.378L1271.8 287.097ZM934.513 441.493C1112.02 441.493 1201.22 355.297 1271.8 287.097L1271.11 286.378C1200.56 354.547 1111.61 440.493 934.513 440.493V441.493ZM681.549 357.863C753.72 398.51 830.023 441.493 934.513 441.493V440.493C830.315 440.493 754.221 397.645 682.039 356.991L681.549 357.863ZM669.602 351.144C673.574 353.371 677.555 355.613 681.549 357.863L682.039 356.991C678.046 354.742 674.065 352.5 670.091 350.272L669.602 351.144ZM422.831 291.955C521.142 271.539 593.792 308.637 669.602 351.144L670.091 350.272C594.276 307.762 521.332 270.478 422.628 290.976L422.831 291.955ZM322.369 342.532C355.781 318.789 389.005 298.98 422.831 291.955L422.628 290.976C388.586 298.046 355.219 317.961 321.79 341.717L322.369 342.532ZM282.872 371.779C296.093 361.793 309.249 351.856 322.369 342.532L321.79 341.717C308.656 351.05 295.488 360.997 282.269 370.981L282.872 371.779ZM221.301 416.142C242.019 402.635 262.521 387.149 282.872 371.779L282.269 370.981C261.913 386.355 241.439 401.819 220.755 415.304L221.301 416.142ZM115.313 458.199C151.971 455.582 187.086 438.448 221.301 416.142L220.755 415.304C186.586 437.58 151.645 454.603 115.242 457.201L115.313 458.199ZM0.417372 413.372C40.4963 448.85 78.5761 460.821 115.313 458.199L115.242 457.201C78.8133 459.801 40.9901 447.951 1.08019 412.623L0.417372 413.372ZM-0.331407 412.709L0.417374 413.372L1.08019 412.623L0.331407 411.96L-0.331407 412.709ZM0.951246 410.506L-0.37439 412.003L0.37439 412.666L1.70003 411.168L0.951246 410.506ZM2.40582 411.126L1.65704 410.463L0.994229 411.211L1.74301 411.874L2.40582 411.126ZM115.1 455.206C79.2875 457.762 41.9777 446.154 2.40583 411.126L1.74301 411.874C41.4839 447.053 79.0504 458.782 115.171 456.204L115.1 455.206ZM219.663 413.629C185.587 435.844 150.992 452.645 115.1 455.206L115.171 456.204C151.318 453.624 186.087 436.712 220.209 414.467L219.663 413.629ZM280.957 369.464C260.662 384.795 240.315 400.165 219.663 413.629L220.209 414.467C240.895 400.981 261.27 385.589 281.56 370.262L280.957 369.464ZM320.632 340.087C307.389 349.497 294.184 359.472 280.957 369.464L281.56 370.262C294.789 360.268 307.982 350.302 321.211 340.902L320.632 340.087ZM422.221 289.018C387.747 296.177 354.094 316.307 320.632 340.087L321.211 340.902C354.656 317.134 388.166 297.111 422.424 289.997L422.221 289.018ZM671.069 348.527C595.243 306.012 521.713 268.356 422.221 289.018L422.424 289.997C521.523 269.417 594.76 306.887 670.58 349.4L671.069 348.527ZM682.949 355.208C678.98 352.973 675.021 350.743 671.069 348.527L670.58 349.4C674.531 351.615 678.49 353.844 682.459 356.079L682.949 355.208ZM934.513 438.493C830.854 438.493 755.178 395.884 682.949 355.208L682.459 356.079C754.676 396.749 830.561 439.493 934.513 439.493V438.493ZM1269.63 285.017C1199.09 353.155 1110.74 438.493 934.513 438.493V439.493C1111.15 439.493 1199.75 353.905 1270.32 285.736L1269.63 285.017ZM1308.92 248.278C1296.15 259.396 1283.21 271.891 1269.63 285.017L1270.32 285.736C1283.91 272.607 1296.83 260.131 1309.58 249.032L1308.92 248.278ZM1348.53 213.475C1336.09 224.463 1322.93 236.082 1308.92 248.278L1309.58 249.032C1323.59 236.834 1336.75 225.212 1349.19 214.225L1348.53 213.475ZM1467.86 118.023C1433.59 138.371 1396.32 171.277 1348.53 213.475L1349.19 214.225C1397.01 172.002 1434.2 139.171 1468.37 118.882L1467.86 118.023ZM1531.36 95.1956C1510.03 97.2734 1489.49 105.175 1467.86 118.023L1468.37 118.882C1489.92 106.084 1510.31 98.2503 1531.46 96.1908L1531.36 95.1956Z" fill="#282D3E"/>
<path d="M1599.14 154.715L1598.95 155.176V155.176L1599.14 154.715ZM1531.41 142.765L1531.36 142.268V142.268L1531.41 142.765ZM1600.07 155.101L1600.53 155.294L1600.72 154.833L1600.26 154.64L1600.07 155.101ZM1599.29 156.946L1599.1 157.407L1599.56 157.6L1599.76 157.139L1599.29 156.946ZM1598.37 156.56L1598.18 157.021V157.021L1598.37 156.56ZM1531.6 144.756L1531.56 144.258V144.258L1531.6 144.756ZM1469.13 167.244L1469.39 167.674V167.674L1469.13 167.244ZM1350.28 262.343L1350.61 262.718V262.718L1350.28 262.343ZM1310.56 297.235L1310.23 296.858L1310.56 297.235ZM1271.45 333.81L1271.8 334.169L1271.45 333.81ZM681.794 404.499L682.039 404.064L681.794 404.499ZM669.847 397.78L670.091 397.344L669.847 397.78ZM422.729 338.538L422.831 339.027L422.729 338.538ZM322.08 389.197L322.369 389.604L322.08 389.197ZM282.57 418.452L282.872 418.851L282.57 418.452ZM221.028 462.795L220.755 462.376L221.028 462.795ZM115.278 504.772L115.313 505.271L115.278 504.772ZM0.748781 460.07L1.08019 459.695H1.08019L0.748781 460.07ZM0 459.407L-0.37439 459.076L-0.705801 459.45L-0.331407 459.781L0 459.407ZM1.32564 457.909L1.65704 457.535L1.28265 457.204L0.951246 457.578L1.32564 457.909ZM2.07442 458.572L2.40583 458.198H2.40582L2.07442 458.572ZM115.135 502.777L115.171 503.276L115.135 502.777ZM219.936 461.12L220.209 461.539L219.936 461.12ZM281.258 416.935L281.56 417.334L281.258 416.935ZM320.921 387.566L320.632 387.159L320.921 387.566ZM422.323 336.58L422.424 337.069L422.323 336.58ZM670.825 396.036L671.069 395.6L670.825 396.036ZM682.704 402.716L682.949 402.28L682.704 402.716ZM1269.97 332.449L1269.63 332.089L1269.97 332.449ZM1309.25 295.727L1309.58 296.104L1309.25 295.727ZM1348.86 260.922L1349.19 261.297L1348.86 260.922ZM1468.11 165.525L1467.86 165.095L1468.11 165.525ZM1599.34 154.254C1574.73 143.951 1552.7 140.189 1531.36 142.268L1531.46 143.263C1552.61 141.203 1574.47 144.924 1598.95 155.176L1599.34 154.254ZM1600.26 154.64L1599.34 154.254L1598.95 155.176L1599.87 155.563L1600.26 154.64ZM1599.76 157.139L1600.53 155.294L1599.61 154.908L1598.83 156.753L1599.76 157.139ZM1598.18 157.021L1599.1 157.407L1599.49 156.485L1598.57 156.099L1598.18 157.021ZM1531.65 145.254C1552.41 143.232 1573.94 146.87 1598.18 157.021L1598.57 156.099C1574.2 145.897 1552.51 142.218 1531.56 144.258L1531.65 145.254ZM1469.39 167.674C1490.78 154.975 1510.89 147.276 1531.65 145.254L1531.56 144.258C1510.6 146.299 1490.35 154.066 1468.88 166.814L1469.39 167.674ZM1350.61 262.718C1398.4 220.52 1435.4 187.858 1469.39 167.674L1468.88 166.814C1434.79 187.057 1397.71 219.795 1349.95 261.968L1350.61 262.718ZM1310.89 297.613C1324.95 285.371 1338.15 273.721 1350.61 262.718L1349.95 261.968C1337.49 272.972 1324.29 284.619 1310.23 296.858L1310.89 297.613ZM1271.8 334.169C1285.36 321.07 1298.22 308.643 1310.89 297.613L1310.23 296.858C1297.54 307.909 1284.66 320.355 1271.11 333.45L1271.8 334.169ZM934.513 488.565C1112.02 488.565 1201.22 402.369 1271.8 334.169L1271.11 333.45C1200.56 401.619 1111.61 487.565 934.513 487.565V488.565ZM681.549 404.935C753.72 445.582 830.023 488.565 934.513 488.565V487.565C830.315 487.565 754.221 444.717 682.039 404.064L681.549 404.935ZM669.602 398.216C673.574 400.444 677.555 402.686 681.549 404.935L682.039 404.064C678.046 401.814 674.065 399.572 670.091 397.344L669.602 398.216ZM422.831 339.027C521.142 318.611 593.792 355.709 669.602 398.216L670.091 397.344C594.276 354.834 521.332 317.55 422.628 338.048L422.831 339.027ZM322.369 389.604C355.781 365.861 389.005 346.052 422.831 339.027L422.628 338.048C388.586 345.118 355.219 365.034 321.79 388.789L322.369 389.604ZM282.872 418.851C296.093 408.865 309.249 398.928 322.369 389.604L321.79 388.789C308.656 398.123 295.488 408.069 282.269 418.053L282.872 418.851ZM221.301 463.214C242.019 449.707 262.521 434.222 282.872 418.851L282.269 418.053C261.913 433.428 241.439 448.892 220.755 462.376L221.301 463.214ZM115.313 505.271C151.971 502.655 187.086 485.52 221.301 463.214L220.755 462.376C186.586 484.652 151.645 501.675 115.242 504.273L115.313 505.271ZM0.417372 460.444C40.4963 495.922 78.5761 507.893 115.313 505.271L115.242 504.273C78.8133 506.873 40.9901 495.023 1.08019 459.695L0.417372 460.444ZM-0.331407 459.781L0.417374 460.444L1.08019 459.695L0.331407 459.033L-0.331407 459.781ZM0.951246 457.578L-0.37439 459.076L0.37439 459.738L1.70003 458.241L0.951246 457.578ZM2.40582 458.198L1.65704 457.535L0.994229 458.284L1.74301 458.947L2.40582 458.198ZM115.1 502.279C79.2875 504.835 41.9777 493.227 2.40583 458.198L1.74301 458.947C41.4839 494.125 79.0504 505.854 115.171 503.276L115.1 502.279ZM219.663 460.701C185.587 482.916 150.992 499.717 115.1 502.279L115.171 503.276C151.318 500.696 186.087 483.784 220.209 461.539L219.663 460.701ZM280.957 416.536C260.662 431.867 240.315 447.237 219.663 460.701L220.209 461.539C240.895 448.053 261.27 432.661 281.56 417.334L280.957 416.536ZM320.632 387.159C307.389 396.569 294.184 406.544 280.957 416.536L281.56 417.334C294.789 407.341 307.982 397.375 321.211 387.974L320.632 387.159ZM422.221 336.09C387.747 343.249 354.094 363.379 320.632 387.159L321.211 387.974C354.656 364.206 388.166 344.184 422.424 337.069L422.221 336.09ZM671.069 395.6C595.243 353.084 521.713 315.429 422.221 336.09L422.424 337.069C521.523 316.49 594.76 353.959 670.58 396.472L671.069 395.6ZM682.949 402.28C678.98 400.045 675.021 397.816 671.069 395.6L670.58 396.472C674.531 398.687 678.49 400.916 682.459 403.152L682.949 402.28ZM934.513 485.565C830.854 485.565 755.178 442.956 682.949 402.28L682.459 403.152C754.676 443.822 830.561 486.565 934.513 486.565V485.565ZM1269.63 332.089C1199.09 400.228 1110.74 485.565 934.513 485.565V486.565C1111.15 486.565 1199.75 400.977 1270.32 332.808L1269.63 332.089ZM1308.92 295.35C1296.15 306.469 1283.21 318.964 1269.63 332.089L1270.32 332.808C1283.91 319.679 1296.83 307.203 1309.58 296.104L1308.92 295.35ZM1348.53 260.548C1336.09 271.535 1322.93 283.154 1308.92 295.35L1309.58 296.104C1323.59 283.906 1336.75 272.285 1349.19 261.297L1348.53 260.548ZM1467.86 165.095C1433.59 185.443 1396.32 218.35 1348.53 260.548L1349.19 261.297C1397.01 219.075 1434.2 186.244 1468.37 165.955L1467.86 165.095ZM1531.36 142.268C1510.03 144.346 1489.49 152.247 1467.86 165.095L1468.37 165.955C1489.92 153.157 1510.31 145.323 1531.46 143.263L1531.36 142.268Z" fill="#282D3E"/>
<path d="M1599.14 201.787L1598.95 202.249V202.249L1599.14 201.787ZM1531.41 189.838L1531.36 189.34V189.34L1531.41 189.838ZM1600.07 202.174L1600.53 202.367L1600.72 201.906L1600.26 201.712L1600.07 202.174ZM1599.29 204.018L1599.1 204.48L1599.56 204.673L1599.76 204.212L1599.29 204.018ZM1598.37 203.632L1598.18 204.093V204.093L1598.37 203.632ZM1531.6 191.828L1531.56 191.331V191.331L1531.6 191.828ZM1469.13 214.317L1469.39 214.747V214.747L1469.13 214.317ZM1350.28 309.415L1350.61 309.79V309.79L1350.28 309.415ZM1310.56 344.308L1310.23 343.931L1310.56 344.308ZM1271.45 380.882L1271.8 381.241L1271.45 380.882ZM681.794 451.571L682.039 451.136L681.794 451.571ZM669.847 444.853L670.091 444.416L669.847 444.853ZM422.729 385.61L422.831 386.1L422.729 385.61ZM322.08 436.269L322.369 436.677L322.08 436.269ZM282.57 465.524L282.872 465.923L282.57 465.524ZM221.028 509.868L220.755 509.449L221.028 509.868ZM115.278 551.844L115.313 552.343L115.278 551.844ZM0.748781 507.142L1.08019 506.768H1.08019L0.748781 507.142ZM0 506.479L-0.37439 506.148L-0.705801 506.522L-0.331407 506.854L0 506.479ZM1.32564 504.982L1.65704 504.607L1.28265 504.276L0.951246 504.65L1.32564 504.982ZM2.07442 505.644L2.40583 505.27H2.40582L2.07442 505.644ZM115.135 549.85L115.171 550.348L115.135 549.85ZM219.936 508.192L220.209 508.611L219.936 508.192ZM281.258 464.008L281.56 464.407L281.258 464.008ZM320.921 434.639L320.632 434.231L320.921 434.639ZM422.323 383.652L422.424 384.141L422.323 383.652ZM670.825 443.108L671.069 442.672L670.825 443.108ZM682.704 449.788L682.949 449.353L682.704 449.788ZM1269.97 379.521L1269.63 379.161L1269.97 379.521ZM1309.25 342.799L1309.58 343.176L1309.25 342.799ZM1348.86 307.995L1349.19 308.37L1348.86 307.995ZM1468.11 212.597L1467.86 212.167L1468.11 212.597ZM1599.34 201.326C1574.73 191.023 1552.7 187.261 1531.36 189.34L1531.46 190.335C1552.61 188.276 1574.47 191.996 1598.95 202.249L1599.34 201.326ZM1600.26 201.712L1599.34 201.326L1598.95 202.249L1599.87 202.635L1600.26 201.712ZM1599.76 204.212L1600.53 202.367L1599.61 201.98L1598.83 203.825L1599.76 204.212ZM1598.18 204.093L1599.1 204.48L1599.49 203.557L1598.57 203.171L1598.18 204.093ZM1531.65 192.326C1552.41 190.304 1573.94 193.942 1598.18 204.093L1598.57 203.171C1574.2 192.969 1552.51 189.29 1531.56 191.331L1531.65 192.326ZM1469.39 214.747C1490.78 202.047 1510.89 194.349 1531.65 192.326L1531.56 191.331C1510.6 193.372 1490.35 201.138 1468.88 213.887L1469.39 214.747ZM1350.61 309.79C1398.4 267.592 1435.4 234.93 1469.39 214.747L1468.88 213.887C1434.79 234.13 1397.71 266.867 1349.95 309.041L1350.61 309.79ZM1310.89 344.685C1324.95 332.443 1338.15 320.793 1350.61 309.79L1349.95 309.041C1337.49 320.044 1324.29 331.691 1310.23 343.931L1310.89 344.685ZM1271.8 381.241C1285.36 368.143 1298.22 355.715 1310.89 344.685L1310.23 343.931C1297.54 354.981 1284.66 367.428 1271.11 380.522L1271.8 381.241ZM934.513 535.638C1112.02 535.638 1201.22 449.441 1271.8 381.241L1271.11 380.522C1200.56 448.692 1111.61 534.638 934.513 534.638V535.638ZM681.549 452.007C753.72 492.655 830.023 535.638 934.513 535.638V534.638C830.315 534.638 754.221 491.789 682.039 451.136L681.549 452.007ZM669.602 445.289C673.574 447.516 677.555 449.758 681.549 452.007L682.039 451.136C678.046 448.887 674.065 446.644 670.091 444.416L669.602 445.289ZM422.831 386.1C521.142 365.684 593.792 402.782 669.602 445.289L670.091 444.416C594.276 401.907 521.332 364.623 422.628 385.121L422.831 386.1ZM322.369 436.677C355.781 412.933 389.005 393.124 422.831 386.1L422.628 385.121C388.586 392.19 355.219 412.106 321.79 435.861L322.369 436.677ZM282.872 465.923C296.093 455.938 309.249 446 322.369 436.677L321.79 435.861C308.656 445.195 295.488 455.141 282.269 465.125L282.872 465.923ZM221.301 510.286C242.019 496.779 262.521 481.294 282.872 465.923L282.269 465.125C261.913 480.5 241.439 495.964 220.755 509.449L221.301 510.286ZM115.313 552.343C151.971 549.727 187.086 532.593 221.301 510.286L220.755 509.449C186.586 531.725 151.645 548.748 115.242 551.346L115.313 552.343ZM0.417372 507.516C40.4963 542.994 78.5761 554.965 115.313 552.343L115.242 551.346C78.8133 553.946 40.9901 542.096 1.08019 506.768L0.417372 507.516ZM-0.331407 506.854L0.417374 507.516L1.08019 506.768L0.331407 506.105L-0.331407 506.854ZM0.951246 504.65L-0.37439 506.148L0.37439 506.811L1.70003 505.313L0.951246 504.65ZM2.40582 505.27L1.65704 504.607L0.994229 505.356L1.74301 506.019L2.40582 505.27ZM115.1 549.351C79.2875 551.907 41.9777 540.299 2.40583 505.27L1.74301 506.019C41.4839 541.197 79.0504 552.926 115.171 550.348L115.1 549.351ZM219.663 507.773C185.587 529.988 150.992 546.789 115.1 549.351L115.171 550.348C151.318 547.768 186.087 530.856 220.209 508.611L219.663 507.773ZM280.957 463.609C260.662 478.939 240.315 494.31 219.663 507.773L220.209 508.611C240.895 495.125 261.27 479.733 281.56 464.407L280.957 463.609ZM320.632 434.231C307.389 443.642 294.184 453.617 280.957 463.609L281.56 464.407C294.789 454.413 307.982 444.447 321.211 435.046L320.632 434.231ZM422.221 383.162C387.747 390.322 354.094 410.451 320.632 434.231L321.211 435.046C354.656 411.279 388.166 391.256 422.424 384.141L422.221 383.162ZM671.069 442.672C595.243 400.156 521.713 362.501 422.221 383.162L422.424 384.141C521.523 363.562 594.76 401.031 670.58 443.544L671.069 442.672ZM682.949 449.353C678.98 447.117 675.021 444.888 671.069 442.672L670.58 443.544C674.531 445.76 678.49 447.989 682.459 450.224L682.949 449.353ZM934.513 532.638C830.854 532.638 755.178 490.029 682.949 449.353L682.459 450.224C754.676 490.894 830.561 533.638 934.513 533.638V532.638ZM1269.63 379.161C1199.09 447.3 1110.74 532.638 934.513 532.638V533.638C1111.15 533.638 1199.75 448.05 1270.32 379.881L1269.63 379.161ZM1308.92 342.422C1296.15 353.541 1283.21 366.036 1269.63 379.161L1270.32 379.881C1283.91 366.751 1296.83 354.275 1309.58 343.176L1308.92 342.422ZM1348.53 307.62C1336.09 318.607 1322.93 330.227 1308.92 342.422L1309.58 343.176C1323.59 330.978 1336.75 319.357 1349.19 308.37L1348.53 307.62ZM1467.86 212.167C1433.59 232.515 1396.32 265.422 1348.53 307.62L1349.19 308.37C1397.01 266.147 1434.2 233.316 1468.37 213.027L1467.86 212.167ZM1531.36 189.34C1510.03 191.418 1489.49 199.32 1467.86 212.167L1468.37 213.027C1489.92 200.229 1510.31 192.395 1531.46 190.335L1531.36 189.34Z" fill="#282D3E"/>
<path d="M1599.14 248.86L1598.95 249.321V249.321L1599.14 248.86ZM1531.41 236.91L1531.36 236.412V236.412L1531.41 236.91ZM1600.07 249.246L1600.53 249.439L1600.72 248.978L1600.26 248.785L1600.07 249.246ZM1599.29 251.091L1599.1 251.552L1599.56 251.745L1599.76 251.284L1599.29 251.091ZM1598.37 250.704L1598.18 251.166V251.166L1598.37 250.704ZM1531.6 238.901L1531.56 238.403V238.403L1531.6 238.901ZM1469.13 261.389L1469.39 261.819V261.819L1469.13 261.389ZM1350.28 356.488L1350.61 356.863V356.863L1350.28 356.488ZM1310.56 391.38L1310.23 391.003L1310.56 391.38ZM1271.45 427.954L1271.8 428.314L1271.45 427.954ZM681.794 498.644L682.039 498.208L681.794 498.644ZM669.847 491.925L670.091 491.489L669.847 491.925ZM422.729 432.682L422.831 433.172L422.729 432.682ZM322.08 483.341L322.369 483.749L322.08 483.341ZM282.57 512.597L282.872 512.996L282.57 512.597ZM221.028 556.94L220.755 556.521L221.028 556.94ZM115.278 598.917L115.313 599.415L115.278 598.917ZM0.748781 554.214L1.08019 553.84H1.08019L0.748781 554.214ZM0 553.551L-0.37439 553.22L-0.705801 553.594L-0.331407 553.926L0 553.551ZM1.32564 552.054L1.65704 551.68L1.28265 551.348L0.951246 551.722L1.32564 552.054ZM2.07442 552.717L2.40583 552.342H2.40582L2.07442 552.717ZM115.135 596.922L115.171 597.421L115.135 596.922ZM219.936 555.264L220.209 555.683L219.936 555.264ZM281.258 511.08L281.56 511.479L281.258 511.08ZM320.921 481.711L320.632 481.303L320.921 481.711ZM422.323 430.724L422.424 431.214L422.323 430.724ZM670.825 490.18L671.069 489.744L670.825 490.18ZM682.704 496.861L682.949 496.425L682.704 496.861ZM1269.97 426.593L1269.63 426.234L1269.97 426.593ZM1309.25 389.872L1309.58 390.249L1309.25 389.872ZM1348.86 355.067L1349.19 355.442L1348.86 355.067ZM1468.11 259.669L1467.86 259.239L1468.11 259.669ZM1599.34 248.398C1574.73 238.095 1552.7 234.334 1531.36 236.412L1531.46 237.408C1552.61 235.348 1574.47 239.068 1598.95 249.321L1599.34 248.398ZM1600.26 248.785L1599.34 248.398L1598.95 249.321L1599.87 249.707L1600.26 248.785ZM1599.76 251.284L1600.53 249.439L1599.61 249.053L1598.83 250.898L1599.76 251.284ZM1598.18 251.166L1599.1 251.552L1599.49 250.629L1598.57 250.243L1598.18 251.166ZM1531.65 239.398C1552.41 237.377 1573.94 241.015 1598.18 251.166L1598.57 250.243C1574.2 240.042 1552.51 236.362 1531.56 238.403L1531.65 239.398ZM1469.39 261.819C1490.78 249.12 1510.89 241.421 1531.65 239.398L1531.56 238.403C1510.6 240.444 1490.35 248.21 1468.88 260.959L1469.39 261.819ZM1350.61 356.863C1398.4 314.664 1435.4 282.003 1469.39 261.819L1468.88 260.959C1434.79 281.202 1397.71 313.939 1349.95 356.113L1350.61 356.863ZM1310.89 391.757C1324.95 379.515 1338.15 367.866 1350.61 356.863L1349.95 356.113C1337.49 367.116 1324.29 378.764 1310.23 391.003L1310.89 391.757ZM1271.8 428.314C1285.36 415.215 1298.22 402.787 1310.89 391.757L1310.23 391.003C1297.54 402.053 1284.66 414.5 1271.11 427.595L1271.8 428.314ZM934.513 582.71C1112.02 582.71 1201.22 496.513 1271.8 428.314L1271.11 427.595C1200.56 495.764 1111.61 581.71 934.513 581.71V582.71ZM681.549 499.079C753.72 539.727 830.023 582.71 934.513 582.71V581.71C830.315 581.71 754.221 538.862 682.039 498.208L681.549 499.079ZM669.602 492.361C673.574 494.588 677.555 496.83 681.549 499.079L682.039 498.208C678.046 495.959 674.065 493.717 670.091 491.489L669.602 492.361ZM422.831 433.172C521.142 412.756 593.792 449.854 669.602 492.361L670.091 491.489C594.276 448.979 521.332 411.695 422.628 432.193L422.831 433.172ZM322.369 483.749C355.781 460.005 389.005 440.197 422.831 433.172L422.628 432.193C388.586 439.262 355.219 459.178 321.79 482.934L322.369 483.749ZM282.872 512.996C296.093 503.01 309.249 493.072 322.369 483.749L321.79 482.934C308.656 492.267 295.488 502.213 282.269 512.198L282.872 512.996ZM221.301 557.359C242.019 543.852 262.521 528.366 282.872 512.996L282.269 512.198C261.913 527.572 241.439 543.036 220.755 556.521L221.301 557.359ZM115.313 599.415C151.971 596.799 187.086 579.665 221.301 557.359L220.755 556.521C186.586 578.797 151.645 595.82 115.242 598.418L115.313 599.415ZM0.417372 554.589C40.4963 590.066 78.5761 602.037 115.313 599.415L115.242 598.418C78.8133 601.018 40.9901 589.168 1.08019 553.84L0.417372 554.589ZM-0.331407 553.926L0.417374 554.589L1.08019 553.84L0.331407 553.177L-0.331407 553.926ZM0.951246 551.722L-0.37439 553.22L0.37439 553.883L1.70003 552.385L0.951246 551.722ZM2.40582 552.342L1.65704 551.68L0.994229 552.428L1.74301 553.091L2.40582 552.342ZM115.1 596.423C79.2875 598.979 41.9777 587.371 2.40583 552.342L1.74301 553.091C41.4839 588.27 79.0504 599.999 115.171 597.421L115.1 596.423ZM219.663 554.846C185.587 577.061 150.992 593.861 115.1 596.423L115.171 597.421C151.318 594.841 186.087 577.929 220.209 555.683L219.663 554.846ZM280.957 510.681C260.662 526.012 240.315 541.382 219.663 554.846L220.209 555.683C240.895 542.197 261.27 526.805 281.56 511.479L280.957 510.681ZM320.632 481.303C307.389 490.714 294.184 500.689 280.957 510.681L281.56 511.479C294.789 501.485 307.982 491.519 321.211 482.119L320.632 481.303ZM422.221 430.235C387.747 437.394 354.094 457.524 320.632 481.303L321.211 482.119C354.656 458.351 388.166 438.328 422.424 431.214L422.221 430.235ZM671.069 489.744C595.243 447.228 521.713 409.573 422.221 430.235L422.424 431.214C521.523 410.634 594.76 448.104 670.58 490.616L671.069 489.744ZM682.949 496.425C678.98 494.19 675.021 491.96 671.069 489.744L670.58 490.616C674.531 492.832 678.49 495.061 682.459 497.296L682.949 496.425ZM934.513 579.71C830.854 579.71 755.178 537.101 682.949 496.425L682.459 497.296C754.676 537.966 830.561 580.71 934.513 580.71V579.71ZM1269.63 426.234C1199.09 494.372 1110.74 579.71 934.513 579.71V580.71C1111.15 580.71 1199.75 495.122 1270.32 426.953L1269.63 426.234ZM1308.92 389.494C1296.15 400.613 1283.21 413.108 1269.63 426.234L1270.32 426.953C1283.91 413.823 1296.83 401.347 1309.58 390.249L1308.92 389.494ZM1348.53 354.692C1336.09 365.68 1322.93 377.299 1308.92 389.494L1309.58 390.249C1323.59 378.051 1336.75 366.429 1349.19 355.442L1348.53 354.692ZM1467.86 259.239C1433.59 279.587 1396.32 312.494 1348.53 354.692L1349.19 355.442C1397.01 313.219 1434.2 280.388 1468.37 260.099L1467.86 259.239ZM1531.36 236.412C1510.03 238.49 1489.49 246.392 1467.86 259.239L1468.37 260.099C1489.92 247.301 1510.31 239.467 1531.46 237.408L1531.36 236.412Z" fill="#282D3E"/>
<path d="M1599.14 295.931L1598.95 296.393V296.393L1599.14 295.931ZM1531.41 283.982L1531.36 283.484V283.484L1531.41 283.982ZM1600.07 296.318L1600.53 296.511L1600.72 296.05L1600.26 295.856L1600.07 296.318ZM1599.29 298.162L1599.1 298.624L1599.56 298.817L1599.76 298.356L1599.29 298.162ZM1598.37 297.776L1598.18 298.237V298.237L1598.37 297.776ZM1531.6 285.972L1531.56 285.475V285.475L1531.6 285.972ZM1469.13 308.461L1469.39 308.891V308.891L1469.13 308.461ZM1350.28 403.56L1350.61 403.934V403.934L1350.28 403.56ZM1310.56 438.452L1310.23 438.075L1310.56 438.452ZM1271.45 475.026L1271.8 475.385L1271.45 475.026ZM681.794 545.716L682.039 545.28L681.794 545.716ZM669.847 538.997L670.091 538.561L669.847 538.997ZM422.729 479.754L422.831 480.244L422.729 479.754ZM322.08 530.413L322.369 530.821L322.08 530.413ZM282.57 559.668L282.872 560.067L282.57 559.668ZM221.028 604.012L220.755 603.593L221.028 604.012ZM115.278 645.988L115.313 646.487L115.278 645.988ZM0.748781 601.286L1.08019 600.912H1.08019L0.748781 601.286ZM0 600.623L-0.37439 600.292L-0.705801 600.666L-0.331407 600.998L0 600.623ZM1.32564 599.126L1.65704 598.751L1.28265 598.42L0.951246 598.794L1.32564 599.126ZM2.07442 599.788L2.40583 599.414H2.40582L2.07442 599.788ZM115.135 643.994L115.171 644.492L115.135 643.994ZM219.936 602.336L220.209 602.755L219.936 602.336ZM281.258 558.152L281.56 558.551L281.258 558.152ZM320.921 528.783L320.632 528.375L320.921 528.783ZM422.323 477.796L422.424 478.286L422.323 477.796ZM670.825 537.252L671.069 536.816L670.825 537.252ZM682.704 543.932L682.949 543.497L682.704 543.932ZM1269.97 473.665L1269.63 473.306L1269.97 473.665ZM1309.25 436.943L1309.58 437.32L1309.25 436.943ZM1348.86 402.139L1349.19 402.514L1348.86 402.139ZM1468.11 306.741L1467.86 306.311L1468.11 306.741ZM1599.34 295.47C1574.73 285.167 1552.7 281.405 1531.36 283.484L1531.46 284.479C1552.61 282.42 1574.47 286.14 1598.95 296.393L1599.34 295.47ZM1600.26 295.856L1599.34 295.47L1598.95 296.393L1599.87 296.779L1600.26 295.856ZM1599.76 298.356L1600.53 296.511L1599.61 296.125L1598.83 297.969L1599.76 298.356ZM1598.18 298.237L1599.1 298.624L1599.49 297.701L1598.57 297.315L1598.18 298.237ZM1531.65 286.47C1552.41 284.448 1573.94 288.087 1598.18 298.237L1598.57 297.315C1574.2 287.113 1552.51 283.434 1531.56 285.475L1531.65 286.47ZM1469.39 308.891C1490.78 296.191 1510.89 288.493 1531.65 286.47L1531.56 285.475C1510.6 287.516 1490.35 295.282 1468.88 308.031L1469.39 308.891ZM1350.61 403.934C1398.4 361.736 1435.4 329.074 1469.39 308.891L1468.88 308.031C1434.79 328.274 1397.71 361.011 1349.95 403.185L1350.61 403.934ZM1310.89 438.829C1324.95 426.587 1338.15 414.937 1350.61 403.934L1349.95 403.185C1337.49 414.188 1324.29 425.835 1310.23 438.075L1310.89 438.829ZM1271.8 475.385C1285.36 462.287 1298.22 449.859 1310.89 438.829L1310.23 438.075C1297.54 449.125 1284.66 461.572 1271.11 474.666L1271.8 475.385ZM934.513 629.782C1112.02 629.782 1201.22 543.585 1271.8 475.385L1271.11 474.666C1200.56 542.836 1111.61 628.782 934.513 628.782V629.782ZM681.549 546.151C753.72 586.799 830.023 629.782 934.513 629.782V628.782C830.315 628.782 754.221 585.933 682.039 545.28L681.549 546.151ZM669.602 539.433C673.574 541.66 677.555 543.902 681.549 546.151L682.039 545.28C678.046 543.031 674.065 540.788 670.091 538.561L669.602 539.433ZM422.831 480.244C521.142 459.828 593.792 496.926 669.602 539.433L670.091 538.561C594.276 496.051 521.332 458.767 422.628 479.265L422.831 480.244ZM322.369 530.821C355.781 507.077 389.005 487.268 422.831 480.244L422.628 479.265C388.586 486.334 355.219 506.25 321.79 530.006L322.369 530.821ZM282.872 560.067C296.093 550.082 309.249 540.144 322.369 530.821L321.79 530.006C308.656 539.339 295.488 549.285 282.269 559.269L282.872 560.067ZM221.301 604.43C242.019 590.923 262.521 575.438 282.872 560.067L282.269 559.269C261.913 574.644 241.439 590.108 220.755 603.593L221.301 604.43ZM115.313 646.487C151.971 643.871 187.086 626.737 221.301 604.43L220.755 603.593C186.586 625.869 151.645 642.892 115.242 645.49L115.313 646.487ZM0.417372 601.66C40.4963 637.138 78.5761 649.109 115.313 646.487L115.242 645.49C78.8133 648.09 40.9901 636.24 1.08019 600.912L0.417372 601.66ZM-0.331407 600.998L0.417374 601.66L1.08019 600.912L0.331407 600.249L-0.331407 600.998ZM0.951246 598.794L-0.37439 600.292L0.37439 600.955L1.70003 599.457L0.951246 598.794ZM2.40582 599.414L1.65704 598.751L0.994229 599.5L1.74301 600.163L2.40582 599.414ZM115.1 643.495C79.2875 646.051 41.9777 634.443 2.40583 599.414L1.74301 600.163C41.4839 635.341 79.0504 647.07 115.171 644.492L115.1 643.495ZM219.663 601.917C185.587 624.132 150.992 640.933 115.1 643.495L115.171 644.492C151.318 641.912 186.087 625 220.209 602.755L219.663 601.917ZM280.957 557.753C260.662 573.083 240.315 588.454 219.663 601.917L220.209 602.755C240.895 589.269 261.27 573.877 281.56 558.551L280.957 557.753ZM320.632 528.375C307.389 537.786 294.184 547.761 280.957 557.753L281.56 558.551C294.789 548.557 307.982 538.591 321.211 529.19L320.632 528.375ZM422.221 477.306C387.747 484.466 354.094 504.595 320.632 528.375L321.211 529.19C354.656 505.423 388.166 485.4 422.424 478.286L422.221 477.306ZM671.069 536.816C595.243 494.3 521.713 456.645 422.221 477.306L422.424 478.286C521.523 457.706 594.76 495.175 670.58 537.688L671.069 536.816ZM682.949 543.497C678.98 541.261 675.021 539.032 671.069 536.816L670.58 537.688C674.531 539.904 678.49 542.133 682.459 544.368L682.949 543.497ZM934.513 626.782C830.854 626.782 755.178 584.173 682.949 543.497L682.459 544.368C754.676 585.038 830.561 627.782 934.513 627.782V626.782ZM1269.63 473.306C1199.09 541.444 1110.74 626.782 934.513 626.782V627.782C1111.15 627.782 1199.75 542.194 1270.32 474.025L1269.63 473.306ZM1308.92 436.566C1296.15 447.685 1283.21 460.18 1269.63 473.306L1270.32 474.025C1283.91 460.895 1296.83 448.419 1309.58 437.32L1308.92 436.566ZM1348.53 401.764C1336.09 412.752 1322.93 424.371 1308.92 436.566L1309.58 437.32C1323.59 425.122 1336.75 413.501 1349.19 402.514L1348.53 401.764ZM1467.86 306.311C1433.59 326.659 1396.32 359.566 1348.53 401.764L1349.19 402.514C1397.01 360.291 1434.2 327.46 1468.37 307.171L1467.86 306.311ZM1531.36 283.484C1510.03 285.562 1489.49 293.464 1467.86 306.311L1468.37 307.171C1489.92 294.373 1510.31 286.539 1531.46 284.479L1531.36 283.484Z" fill="#282D3E"/>
<path d="M1599.14 343.004L1598.95 343.465V343.465L1599.14 343.004ZM1531.41 331.054L1531.36 330.556V330.556L1531.41 331.054ZM1600.07 343.39L1600.53 343.583L1600.72 343.122L1600.26 342.929L1600.07 343.39ZM1599.29 345.235L1599.1 345.696L1599.56 345.889L1599.76 345.428L1599.29 345.235ZM1598.37 344.848L1598.18 345.31V345.31L1598.37 344.848ZM1531.6 333.045L1531.56 332.547V332.547L1531.6 333.045ZM1469.13 355.533L1469.39 355.963V355.963L1469.13 355.533ZM1350.28 450.632L1350.61 451.007V451.007L1350.28 450.632ZM1310.56 485.524L1310.23 485.147L1310.56 485.524ZM1271.45 522.098L1271.8 522.458L1271.45 522.098ZM681.794 592.788L682.039 592.352L681.794 592.788ZM669.847 586.069L670.091 585.633L669.847 586.069ZM422.729 526.826L422.831 527.316L422.729 526.826ZM322.08 577.485L322.369 577.893L322.08 577.485ZM282.57 606.741L282.872 607.14L282.57 606.741ZM221.028 651.084L220.755 650.665L221.028 651.084ZM115.278 693.061L115.313 693.559L115.278 693.061ZM0.748781 648.358L1.08019 647.984H1.08019L0.748781 648.358ZM0 647.695L-0.37439 647.364L-0.705801 647.738L-0.331407 648.07L0 647.695ZM1.32564 646.198L1.65704 645.824L1.28265 645.492L0.951246 645.867L1.32564 646.198ZM2.07442 646.861L2.40583 646.486H2.40582L2.07442 646.861ZM115.135 691.066L115.171 691.565L115.135 691.066ZM219.936 649.409L220.209 649.827L219.936 649.409ZM281.258 605.224L281.56 605.623L281.258 605.224ZM320.921 575.855L320.632 575.448L320.921 575.855ZM422.323 524.868L422.424 525.358L422.323 524.868ZM670.825 584.324L671.069 583.888L670.825 584.324ZM682.704 591.005L682.949 590.569L682.704 591.005ZM1269.97 520.737L1269.63 520.378L1269.97 520.737ZM1309.25 484.016L1309.58 484.393L1309.25 484.016ZM1348.86 449.211L1349.19 449.586L1348.86 449.211ZM1468.11 353.813L1467.86 353.383L1468.11 353.813ZM1599.34 342.542C1574.73 332.239 1552.7 328.478 1531.36 330.556L1531.46 331.552C1552.61 329.492 1574.47 333.212 1598.95 343.465L1599.34 342.542ZM1600.26 342.929L1599.34 342.542L1598.95 343.465L1599.87 343.851L1600.26 342.929ZM1599.76 345.428L1600.53 343.583L1599.61 343.197L1598.83 345.042L1599.76 345.428ZM1598.18 345.31L1599.1 345.696L1599.49 344.774L1598.57 344.387L1598.18 345.31ZM1531.65 333.542C1552.41 331.521 1573.94 335.159 1598.18 345.31L1598.57 344.387C1574.2 334.186 1552.51 330.506 1531.56 332.547L1531.65 333.542ZM1469.39 355.963C1490.78 343.264 1510.89 335.565 1531.65 333.542L1531.56 332.547C1510.6 334.588 1490.35 342.355 1468.88 355.103L1469.39 355.963ZM1350.61 451.007C1398.4 408.808 1435.4 376.147 1469.39 355.963L1468.88 355.103C1434.79 375.346 1397.71 408.083 1349.95 450.257L1350.61 451.007ZM1310.89 485.901C1324.95 473.659 1338.15 462.01 1350.61 451.007L1349.95 450.257C1337.49 461.26 1324.29 472.908 1310.23 485.147L1310.89 485.901ZM1271.8 522.458C1285.36 509.359 1298.22 496.931 1310.89 485.901L1310.23 485.147C1297.54 496.197 1284.66 508.644 1271.11 521.739L1271.8 522.458ZM934.513 676.854C1112.02 676.854 1201.22 590.658 1271.8 522.458L1271.11 521.739C1200.56 589.908 1111.61 675.854 934.513 675.854V676.854ZM681.549 593.223C753.72 633.871 830.023 676.854 934.513 676.854V675.854C830.315 675.854 754.221 633.006 682.039 592.352L681.549 593.223ZM669.602 586.505C673.574 588.732 677.555 590.974 681.549 593.223L682.039 592.352C678.046 590.103 674.065 587.861 670.091 585.633L669.602 586.505ZM422.831 527.316C521.142 506.9 593.792 543.998 669.602 586.505L670.091 585.633C594.276 543.123 521.332 505.839 422.628 526.337L422.831 527.316ZM322.369 577.893C355.781 554.15 389.005 534.341 422.831 527.316L422.628 526.337C388.586 533.406 355.219 553.322 321.79 577.078L322.369 577.893ZM282.872 607.14C296.093 597.154 309.249 587.216 322.369 577.893L321.79 577.078C308.656 586.411 295.488 596.357 282.269 606.342L282.872 607.14ZM221.301 651.503C242.019 637.996 262.521 622.51 282.872 607.14L282.269 606.342C261.913 621.716 241.439 637.18 220.755 650.665L221.301 651.503ZM115.313 693.559C151.971 690.943 187.086 673.809 221.301 651.503L220.755 650.665C186.586 672.941 151.645 689.964 115.242 692.562L115.313 693.559ZM0.417372 648.733C40.4963 684.21 78.5761 696.181 115.313 693.559L115.242 692.562C78.8133 695.162 40.9901 683.312 1.08019 647.984L0.417372 648.733ZM-0.331407 648.07L0.417374 648.733L1.08019 647.984L0.331407 647.321L-0.331407 648.07ZM0.951246 645.867L-0.37439 647.364L0.37439 648.027L1.70003 646.529L0.951246 645.867ZM2.40582 646.486L1.65704 645.824L0.994229 646.572L1.74301 647.235L2.40582 646.486ZM115.1 690.567C79.2875 693.123 41.9777 681.515 2.40583 646.486L1.74301 647.235C41.4839 682.414 79.0504 694.143 115.171 691.565L115.1 690.567ZM219.663 648.99C185.587 671.205 150.992 688.005 115.1 690.567L115.171 691.565C151.318 688.985 186.087 672.073 220.209 649.827L219.663 648.99ZM280.957 604.825C260.662 620.156 240.315 635.526 219.663 648.99L220.209 649.827C240.895 636.341 261.27 620.949 281.56 605.623L280.957 604.825ZM320.632 575.448C307.389 584.858 294.184 594.833 280.957 604.825L281.56 605.623C294.789 595.629 307.982 585.663 321.211 576.263L320.632 575.448ZM422.221 524.379C387.747 531.538 354.094 551.668 320.632 575.448L321.211 576.263C354.656 552.495 388.166 532.472 422.424 525.358L422.221 524.379ZM671.069 583.888C595.243 541.372 521.713 503.717 422.221 524.379L422.424 525.358C521.523 504.778 594.76 542.248 670.58 584.761L671.069 583.888ZM682.949 590.569C678.98 588.334 675.021 586.104 671.069 583.888L670.58 584.761C674.531 586.976 678.49 589.205 682.459 591.44L682.949 590.569ZM934.513 673.854C830.854 673.854 755.178 631.245 682.949 590.569L682.459 591.44C754.676 632.11 830.561 674.854 934.513 674.854V673.854ZM1269.63 520.378C1199.09 588.516 1110.74 673.854 934.513 673.854V674.854C1111.15 674.854 1199.75 589.266 1270.32 521.097L1269.63 520.378ZM1308.92 483.638C1296.15 494.757 1283.21 507.252 1269.63 520.378L1270.32 521.097C1283.91 507.967 1296.83 495.491 1309.58 484.393L1308.92 483.638ZM1348.53 448.836C1336.09 459.824 1322.93 471.443 1308.92 483.638L1309.58 484.393C1323.59 472.195 1336.75 460.573 1349.19 449.586L1348.53 448.836ZM1467.86 353.383C1433.59 373.731 1396.32 406.638 1348.53 448.836L1349.19 449.586C1397.01 407.363 1434.2 374.532 1468.37 354.243L1467.86 353.383ZM1531.36 330.556C1510.03 332.634 1489.49 340.536 1467.86 353.383L1468.37 354.243C1489.92 341.445 1510.31 333.611 1531.46 331.552L1531.36 330.556Z" fill="#282D3E"/>
<path d="M1599.14 390.076L1598.95 390.537V390.537L1599.14 390.076ZM1531.41 378.126L1531.36 377.629V377.629L1531.41 378.126ZM1600.07 390.462L1600.53 390.655L1600.72 390.194L1600.26 390.001L1600.07 390.462ZM1599.29 392.307L1599.1 392.768L1599.56 392.961L1599.76 392.5L1599.29 392.307ZM1598.37 391.921L1598.18 392.382V392.382L1598.37 391.921ZM1531.6 380.117L1531.56 379.619V379.619L1531.6 380.117ZM1469.13 402.605L1469.39 403.035V403.035L1469.13 402.605ZM1350.28 497.704L1350.61 498.079V498.079L1350.28 497.704ZM1310.56 532.596L1310.23 532.219L1310.56 532.596ZM1271.45 569.17L1271.8 569.53L1271.45 569.17ZM681.794 639.86L682.039 639.424L681.794 639.86ZM669.847 633.141L670.091 632.705L669.847 633.141ZM422.729 573.899L422.831 574.388L422.729 573.899ZM322.08 624.558L322.369 624.965L322.08 624.558ZM282.57 653.813L282.872 654.212L282.57 653.813ZM221.028 698.156L220.755 697.737L221.028 698.156ZM115.278 740.133L115.313 740.632L115.278 740.133ZM0.748781 695.431L1.08019 695.056H1.08019L0.748781 695.431ZM0 694.768L-0.37439 694.436L-0.705801 694.811L-0.331407 695.142L0 694.768ZM1.32564 693.27L1.65704 692.896L1.28265 692.564L0.951246 692.939L1.32564 693.27ZM2.07442 693.933L2.40583 693.559H2.40582L2.07442 693.933ZM115.135 738.138L115.171 738.637L115.135 738.138ZM219.936 696.481L220.209 696.9L219.936 696.481ZM281.258 652.296L281.56 652.695L281.258 652.296ZM320.921 622.927L320.632 622.52L320.921 622.927ZM422.323 571.941L422.424 572.43L422.323 571.941ZM670.825 631.397L671.069 630.961L670.825 631.397ZM682.704 638.077L682.949 637.641L682.704 638.077ZM1269.97 567.81L1269.63 567.45L1269.97 567.81ZM1309.25 531.088L1309.58 531.465L1309.25 531.088ZM1348.86 496.283L1349.19 496.658L1348.86 496.283ZM1468.11 400.886L1467.86 400.456L1468.11 400.886ZM1599.34 389.615C1574.73 379.311 1552.7 375.55 1531.36 377.629L1531.46 378.624C1552.61 376.564 1574.47 380.285 1598.95 390.537L1599.34 389.615ZM1600.26 390.001L1599.34 389.615L1598.95 390.537L1599.87 390.923L1600.26 390.001ZM1599.76 392.5L1600.53 390.655L1599.61 390.269L1598.83 392.114L1599.76 392.5ZM1598.18 392.382L1599.1 392.768L1599.49 391.846L1598.57 391.46L1598.18 392.382ZM1531.65 380.615C1552.41 378.593 1573.94 382.231 1598.18 392.382L1598.57 391.46C1574.2 381.258 1552.51 377.579 1531.56 379.619L1531.65 380.615ZM1469.39 403.035C1490.78 390.336 1510.89 382.637 1531.65 380.615L1531.56 379.619C1510.6 381.66 1490.35 389.427 1468.88 402.175L1469.39 403.035ZM1350.61 498.079C1398.4 455.88 1435.4 423.219 1469.39 403.035L1468.88 402.175C1434.79 422.418 1397.71 455.155 1349.95 497.329L1350.61 498.079ZM1310.89 532.973C1324.95 520.731 1338.15 509.082 1350.61 498.079L1349.95 497.329C1337.49 508.333 1324.29 519.98 1310.23 532.219L1310.89 532.973ZM1271.8 569.53C1285.36 556.431 1298.22 544.004 1310.89 532.973L1310.23 532.219C1297.54 543.27 1284.66 555.716 1271.11 568.811L1271.8 569.53ZM934.513 723.926C1112.02 723.926 1201.22 637.73 1271.8 569.53L1271.11 568.811C1200.56 636.98 1111.61 722.926 934.513 722.926V723.926ZM681.549 640.296C753.72 680.943 830.023 723.926 934.513 723.926V722.926C830.315 722.926 754.221 680.078 682.039 639.424L681.549 640.296ZM669.602 633.577C673.574 635.805 677.555 638.047 681.549 640.296L682.039 639.424C678.046 637.175 674.065 634.933 670.091 632.705L669.602 633.577ZM422.831 574.388C521.142 553.972 593.792 591.07 669.602 633.577L670.091 632.705C594.276 590.195 521.332 552.911 422.628 573.409L422.831 574.388ZM322.369 624.965C355.781 601.222 389.005 581.413 422.831 574.388L422.628 573.409C388.586 580.479 355.219 600.395 321.79 624.15L322.369 624.965ZM282.872 654.212C296.093 644.226 309.249 634.289 322.369 624.965L321.79 624.15C308.656 633.483 295.488 643.43 282.269 653.414L282.872 654.212ZM221.301 698.575C242.019 685.068 262.521 669.582 282.872 654.212L282.269 653.414C261.913 668.788 241.439 684.253 220.755 697.737L221.301 698.575ZM115.313 740.632C151.971 738.015 187.086 720.881 221.301 698.575L220.755 697.737C186.586 720.013 151.645 737.036 115.242 739.634L115.313 740.632ZM0.417372 695.805C40.4963 731.283 78.5761 743.254 115.313 740.632L115.242 739.634C78.8133 742.234 40.9901 730.384 1.08019 695.056L0.417372 695.805ZM-0.331407 695.142L0.417374 695.805L1.08019 695.056L0.331407 694.393L-0.331407 695.142ZM0.951246 692.939L-0.37439 694.436L0.37439 695.099L1.70003 693.602L0.951246 692.939ZM2.40582 693.559L1.65704 692.896L0.994229 693.645L1.74301 694.307L2.40582 693.559ZM115.1 737.639C79.2875 740.195 41.9777 728.587 2.40583 693.559L1.74301 694.307C41.4839 729.486 79.0504 741.215 115.171 738.637L115.1 737.639ZM219.663 696.062C185.587 718.277 150.992 735.078 115.1 737.639L115.171 738.637C151.318 736.057 186.087 719.145 220.209 696.9L219.663 696.062ZM280.957 651.897C260.662 667.228 240.315 682.598 219.663 696.062L220.209 696.9C240.895 683.414 261.27 668.022 281.56 652.695L280.957 651.897ZM320.632 622.52C307.389 631.93 294.184 641.905 280.957 651.897L281.56 652.695C294.789 642.702 307.982 632.735 321.211 623.335L320.632 622.52ZM422.221 571.451C387.747 578.61 354.094 598.74 320.632 622.52L321.211 623.335C354.656 599.567 388.166 579.544 422.424 572.43L422.221 571.451ZM671.069 630.961C595.243 588.445 521.713 550.79 422.221 571.451L422.424 572.43C521.523 551.85 594.76 589.32 670.58 631.833L671.069 630.961ZM682.949 637.641C678.98 635.406 675.021 633.177 671.069 630.961L670.58 631.833C674.531 634.048 678.49 636.277 682.459 638.513L682.949 637.641ZM934.513 720.926C830.854 720.926 755.178 678.317 682.949 637.641L682.459 638.513C754.676 679.182 830.561 721.926 934.513 721.926V720.926ZM1269.63 567.45C1199.09 635.589 1110.74 720.926 934.513 720.926V721.926C1111.15 721.926 1199.75 636.338 1270.32 568.169L1269.63 567.45ZM1308.92 530.711C1296.15 541.83 1283.21 554.324 1269.63 567.45L1270.32 568.169C1283.91 555.04 1296.83 542.564 1309.58 531.465L1308.92 530.711ZM1348.53 495.908C1336.09 506.896 1322.93 518.515 1308.92 530.711L1309.58 531.465C1323.59 519.267 1336.75 507.645 1349.19 496.658L1348.53 495.908ZM1467.86 400.456C1433.59 420.804 1396.32 453.71 1348.53 495.908L1349.19 496.658C1397.01 454.435 1434.2 421.604 1468.37 401.315L1467.86 400.456ZM1531.36 377.629C1510.03 379.707 1489.49 387.608 1467.86 400.456L1468.37 401.315C1489.92 388.518 1510.31 380.683 1531.46 378.624L1531.36 377.629Z" fill="#282D3E"/>
<path d="M1599.14 437.148L1598.95 437.609V437.609L1599.14 437.148ZM1531.41 425.199L1531.36 424.701V424.701L1531.41 425.199ZM1600.07 437.534L1600.53 437.728L1600.72 437.266L1600.26 437.073L1600.07 437.534ZM1599.29 439.379L1599.1 439.84L1599.56 440.034L1599.76 439.572L1599.29 439.379ZM1598.37 438.993L1598.18 439.454V439.454L1598.37 438.993ZM1531.6 427.189L1531.56 426.692V426.692L1531.6 427.189ZM1469.13 449.678L1469.39 450.107V450.107L1469.13 449.678ZM1350.28 544.776L1350.61 545.151V545.151L1350.28 544.776ZM1310.56 579.669L1310.23 579.291L1310.56 579.669ZM1271.45 616.243L1271.8 616.602L1271.45 616.243ZM681.794 686.932L682.039 686.497L681.794 686.932ZM669.847 680.213L670.091 679.777L669.847 680.213ZM422.729 620.971L422.831 621.461L422.729 620.971ZM322.08 671.63L322.369 672.037L322.08 671.63ZM282.57 700.885L282.872 701.284L282.57 700.885ZM221.028 745.228L220.755 744.81L221.028 745.228ZM115.278 787.205L115.313 787.704L115.278 787.205ZM0.748781 742.503L1.08019 742.128H1.08019L0.748781 742.503ZM0 741.84L-0.37439 741.509L-0.705801 741.883L-0.331407 742.214L0 741.84ZM1.32564 740.342L1.65704 739.968L1.28265 739.637L0.951246 740.011L1.32564 740.342ZM2.07442 741.005L2.40583 740.631H2.40582L2.07442 741.005ZM115.135 785.21L115.171 785.709L115.135 785.21ZM219.936 743.553L220.209 743.972L219.936 743.553ZM281.258 699.369L281.56 699.767L281.258 699.369ZM320.921 670L320.632 669.592L320.921 670ZM422.323 619.013L422.424 619.502L422.323 619.013ZM670.825 678.469L671.069 678.033L670.825 678.469ZM682.704 685.149L682.949 684.714L682.704 685.149ZM1269.97 614.882L1269.63 614.522L1269.97 614.882ZM1309.25 578.16L1309.58 578.537L1309.25 578.16ZM1348.86 543.356L1349.19 543.73L1348.86 543.356ZM1468.11 447.958L1467.86 447.528L1468.11 447.958ZM1599.34 436.687C1574.73 426.384 1552.7 422.622 1531.36 424.701L1531.46 425.696C1552.61 423.636 1574.47 427.357 1598.95 437.609L1599.34 436.687ZM1600.26 437.073L1599.34 436.687L1598.95 437.609L1599.87 437.996L1600.26 437.073ZM1599.76 439.572L1600.53 437.728L1599.61 437.341L1598.83 439.186L1599.76 439.572ZM1598.18 439.454L1599.1 439.84L1599.49 438.918L1598.57 438.532L1598.18 439.454ZM1531.65 427.687C1552.41 425.665 1573.94 429.303 1598.18 439.454L1598.57 438.532C1574.2 428.33 1552.51 424.651 1531.56 426.692L1531.65 427.687ZM1469.39 450.107C1490.78 437.408 1510.89 429.709 1531.65 427.687L1531.56 426.692C1510.6 428.733 1490.35 436.499 1468.88 449.248L1469.39 450.107ZM1350.61 545.151C1398.4 502.953 1435.4 470.291 1469.39 450.107L1468.88 449.248C1434.79 469.49 1397.71 502.228 1349.95 544.402L1350.61 545.151ZM1310.89 580.046C1324.95 567.804 1338.15 556.154 1350.61 545.151L1349.95 544.402C1337.49 555.405 1324.29 567.052 1310.23 579.291L1310.89 580.046ZM1271.8 616.602C1285.36 603.503 1298.22 591.076 1310.89 580.046L1310.23 579.291C1297.54 590.342 1284.66 602.788 1271.11 615.883L1271.8 616.602ZM934.513 770.999C1112.02 770.999 1201.22 684.802 1271.8 616.602L1271.11 615.883C1200.56 684.053 1111.61 769.999 934.513 769.999V770.999ZM681.549 687.368C753.72 728.015 830.023 770.999 934.513 770.999V769.999C830.315 769.999 754.221 727.15 682.039 686.497L681.549 687.368ZM669.602 680.65C673.574 682.877 677.555 685.119 681.549 687.368L682.039 686.497C678.046 684.248 674.065 682.005 670.091 679.777L669.602 680.65ZM422.831 621.461C521.142 601.044 593.792 638.143 669.602 680.65L670.091 679.777C594.276 637.267 521.332 599.984 422.628 620.481L422.831 621.461ZM322.369 672.037C355.781 648.294 389.005 628.485 422.831 621.461L422.628 620.481C388.586 627.551 355.219 647.467 321.79 671.222L322.369 672.037ZM282.872 701.284C296.093 691.298 309.249 681.361 322.369 672.037L321.79 671.222C308.656 680.556 295.488 690.502 282.269 700.486L282.872 701.284ZM221.301 745.647C242.019 732.14 262.521 716.655 282.872 701.284L282.269 700.486C261.913 715.861 241.439 731.325 220.755 744.81L221.301 745.647ZM115.313 787.704C151.971 785.088 187.086 767.953 221.301 745.647L220.755 744.81C186.586 767.085 151.645 784.108 115.242 786.707L115.313 787.704ZM0.417372 742.877C40.4963 778.355 78.5761 790.326 115.313 787.704L115.242 786.707C78.8133 789.307 40.9901 777.457 1.08019 742.128L0.417372 742.877ZM-0.331407 742.214L0.417374 742.877L1.08019 742.128L0.331407 741.466L-0.331407 742.214ZM0.951246 740.011L-0.37439 741.509L0.37439 742.171L1.70003 740.674L0.951246 740.011ZM2.40582 740.631L1.65704 739.968L0.994229 740.717L1.74301 741.38L2.40582 740.631ZM115.1 784.712C79.2875 787.268 41.9777 775.66 2.40583 740.631L1.74301 741.38C41.4839 776.558 79.0504 788.287 115.171 785.709L115.1 784.712ZM219.663 743.134C185.587 765.349 150.992 782.15 115.1 784.712L115.171 785.709C151.318 783.129 186.087 766.217 220.209 743.972L219.663 743.134ZM280.957 698.97C260.662 714.3 240.315 729.67 219.663 743.134L220.209 743.972C240.895 730.486 261.27 715.094 281.56 699.767L280.957 698.97ZM320.632 669.592C307.389 679.002 294.184 688.977 280.957 698.97L281.56 699.767C294.789 689.774 307.982 679.808 321.211 670.407L320.632 669.592ZM422.221 618.523C387.747 625.682 354.094 645.812 320.632 669.592L321.211 670.407C354.656 646.64 388.166 626.617 422.424 619.502L422.221 618.523ZM671.069 678.033C595.243 635.517 521.713 597.862 422.221 618.523L422.424 619.502C521.523 598.923 594.76 636.392 670.58 678.905L671.069 678.033ZM682.949 684.714C678.98 682.478 675.021 680.249 671.069 678.033L670.58 678.905C674.531 681.121 678.49 683.35 682.459 685.585L682.949 684.714ZM934.513 767.999C830.854 767.999 755.178 725.39 682.949 684.714L682.459 685.585C754.676 726.255 830.561 768.999 934.513 768.999V767.999ZM1269.63 614.522C1199.09 682.661 1110.74 767.999 934.513 767.999V768.999C1111.15 768.999 1199.75 683.411 1270.32 615.242L1269.63 614.522ZM1308.92 577.783C1296.15 588.902 1283.21 601.397 1269.63 614.522L1270.32 615.242C1283.91 602.112 1296.83 589.636 1309.58 578.537L1308.92 577.783ZM1348.53 542.981C1336.09 553.968 1322.93 565.588 1308.92 577.783L1309.58 578.537C1323.59 566.339 1336.75 554.718 1349.19 543.73L1348.53 542.981ZM1467.86 447.528C1433.59 467.876 1396.32 500.783 1348.53 542.981L1349.19 543.73C1397.01 501.508 1434.2 468.677 1468.37 448.388L1467.86 447.528ZM1531.36 424.701C1510.03 426.779 1489.49 434.681 1467.86 447.528L1468.37 448.388C1489.92 435.59 1510.31 427.756 1531.46 425.696L1531.36 424.701Z" fill="#282D3E"/>
</svg>
