<svg xmlns="http://www.w3.org/2000/svg" fill="none" viewBox="-38.34 232.9 1681.71 600.97">
<path d="M1641.83 255.656L1641.57 256.083L1641.57 256.083L1641.83 255.656ZM1576.69 233.578L1576.72 233.078L1576.72 233.078L1576.69 233.578ZM1642.68 256.178L1643.11 256.439L1643.37 256.012L1642.94 255.751L1642.68 256.178ZM1641.64 257.884L1641.38 258.311L1641.8 258.572L1642.07 258.145L1641.64 257.884ZM1640.79 257.363L1640.53 257.789L1640.53 257.789L1640.79 257.363ZM1576.58 235.575L1576.61 235.075L1576.61 235.075L1576.58 235.575ZM1511.42 248.334L1511.61 248.798L1511.61 248.798L1511.42 248.334ZM1379.52 324.318L1379.79 324.739L1379.79 324.739L1379.52 324.318ZM1334.98 352.787L1334.71 352.365L1334.98 352.787ZM1290.78 383.011L1291.07 383.419L1290.78 383.011ZM697.216 363.503L697.525 363.11L697.216 363.503ZM686.425 355.051L686.733 354.657L686.425 355.051ZM451.143 259.035L451.17 259.535L451.143 259.035ZM343.978 293.853L344.202 294.299L343.978 293.853ZM300.49 316.781L300.728 317.221L300.49 316.781ZM232.938 351.283L232.731 350.828L232.938 351.283ZM122.047 376.746L122.006 377.244L122.047 376.746ZM15.617 315.2L16.0013 314.88L16.0013 314.88L15.617 315.2ZM14.9773 314.431L14.6575 314.047L14.2732 314.367L14.593 314.751L14.9773 314.431ZM16.5146 313.152L16.899 312.832L16.5791 312.448L16.1948 312.767L16.5146 313.152ZM17.1543 313.92L17.5386 313.601L17.5386 313.601L17.1543 313.92ZM122.208 374.752L122.168 375.251L122.208 374.752ZM232.112 349.462L232.318 349.917L232.112 349.462ZM299.423 315.083L299.661 315.523L299.423 315.083ZM343.08 292.066L342.855 291.619L343.08 292.066ZM451.038 257.038L451.064 257.538L451.038 257.038ZM687.657 353.475L687.964 353.081L687.657 353.475ZM698.386 361.879L698.695 361.485L698.386 361.879ZM1289.52 381.441L1289.23 381.033L1289.52 381.441ZM1333.91 351.097L1334.18 351.519L1333.91 351.097ZM1378.34 322.699L1378.61 323.12L1378.34 322.699ZM1510.67 246.479L1510.49 246.016L1510.67 246.479ZM1642.09 255.23C1619.33 241.316 1598.13 234.259 1576.72 233.078L1576.66 234.077C1597.88 235.246 1618.92 242.237 1641.57 256.083L1642.09 255.23ZM1642.94 255.751L1642.09 255.23L1641.57 256.083L1642.42 256.605L1642.94 255.751ZM1642.07 258.145L1643.11 256.439L1642.26 255.917L1641.21 257.624L1642.07 258.145ZM1640.53 257.789L1641.38 258.311L1641.9 257.458L1641.05 256.936L1640.53 257.789ZM1576.55 236.074C1597.37 237.222 1618.1 244.081 1640.53 257.789L1641.05 256.936C1618.51 243.159 1597.62 236.234 1576.61 235.075L1576.55 236.074ZM1511.61 248.798C1534.67 239.487 1555.72 234.925 1576.55 236.074L1576.61 235.075C1555.58 233.916 1534.39 238.524 1511.23 247.87L1511.61 248.798ZM1379.79 324.739C1433.43 290.272 1474.95 263.596 1511.61 248.798L1511.23 247.87C1474.47 262.712 1432.86 289.451 1379.25 323.897L1379.79 324.739ZM1335.25 353.21C1351 343.241 1365.81 333.726 1379.79 324.739L1379.25 323.897C1365.27 332.885 1350.46 342.398 1334.71 352.365L1335.25 353.21ZM1291.07 383.419C1306.45 372.526 1321.05 362.192 1335.25 353.21L1334.71 352.365C1320.49 361.363 1305.87 371.713 1290.49 382.603L1291.07 383.419ZM934.272 484.905C1109.73 511.811 1210.96 440.132 1291.07 383.419L1290.49 382.603C1210.42 439.29 1109.47 510.76 934.424 483.917L934.272 484.905ZM696.908 363.897C762.084 415.014 830.99 469.067 934.272 484.905L934.424 483.917C831.43 468.122 762.711 414.235 697.525 363.11L696.908 363.897ZM686.117 355.445C689.706 358.249 693.301 361.068 696.908 363.897L697.525 363.11C693.918 360.281 690.323 357.461 686.733 354.657L686.117 355.445ZM451.17 259.535C551.439 254.256 617.626 301.938 686.117 355.445L686.733 354.657C618.237 301.146 551.788 253.237 451.117 258.536L451.17 259.535ZM344.202 294.299C380.827 275.895 416.669 261.351 451.17 259.535L451.117 258.536C416.397 260.364 380.397 274.992 343.753 293.406L344.202 294.299ZM300.728 317.221C315.31 309.355 329.821 301.526 344.202 294.299L343.753 293.406C329.356 300.641 314.832 308.476 300.253 316.341L300.728 317.221ZM233.144 351.739C255.67 341.528 278.283 329.329 300.728 317.221L300.253 316.341C277.802 328.452 255.221 340.634 232.731 350.828L233.144 351.739ZM122.006 377.244C158.637 380.215 195.943 368.601 233.144 351.739L232.731 350.828C195.581 367.667 158.463 379.197 122.087 376.247L122.006 377.244ZM15.2327 315.52C49.4708 356.662 85.2961 374.267 122.006 377.244L122.087 376.247C85.685 373.296 50.0951 355.849 16.0013 314.88L15.2327 315.52ZM14.593 314.751L15.2327 315.52L16.0013 314.88L15.3617 314.111L14.593 314.751ZM16.1948 312.767L14.6575 314.047L15.2972 314.815L16.8345 313.536L16.1948 312.767ZM17.5386 313.601L16.899 312.832L16.1303 313.472L16.77 314.24L17.5386 313.601ZM122.249 374.254C86.4628 371.352 51.3436 354.223 17.5386 313.601L16.77 314.24C50.7194 355.036 86.0739 372.324 122.168 375.251L122.249 374.254ZM231.906 349.006C194.856 365.8 158.115 377.162 122.249 374.254L122.168 375.251C158.289 378.18 195.219 366.733 232.318 349.917L231.906 349.006ZM299.186 314.643C276.802 326.72 254.36 338.829 231.906 349.006L232.318 349.917C254.81 339.723 277.283 327.597 299.661 315.523L299.186 314.643ZM342.855 291.619C328.34 298.913 313.775 306.771 299.186 314.643L299.661 315.523C314.252 307.65 328.804 299.799 343.304 292.512L342.855 291.619ZM451.012 256.539C415.851 258.39 379.536 273.186 342.855 291.619L343.304 292.512C379.966 274.089 416.124 259.377 451.064 257.538L451.012 256.539ZM687.964 353.081C619.459 299.563 552.487 251.197 451.012 256.539L451.064 257.538C552.137 252.217 618.848 300.355 687.349 353.869L687.964 353.081ZM698.695 361.485C695.11 358.674 691.535 355.87 687.964 353.081L687.349 353.869C690.918 356.658 694.493 359.461 698.077 362.272L698.695 361.485ZM934.727 481.94C832.265 466.227 763.923 412.64 698.695 361.485L698.077 362.272C763.296 413.419 831.825 467.171 934.575 482.928L934.727 481.94ZM1289.23 381.033C1209.18 437.692 1108.92 508.652 934.727 481.94L934.575 482.928C1109.17 509.703 1209.72 438.533 1289.81 381.849L1289.23 381.033ZM1333.64 350.674C1319.33 359.729 1304.65 370.119 1289.23 381.033L1289.81 381.849C1305.23 370.931 1319.89 360.557 1334.18 351.519L1333.64 350.674ZM1378.07 322.279C1364.11 331.253 1349.34 340.743 1333.64 350.674L1334.18 351.519C1349.88 341.586 1364.65 332.094 1378.61 323.12L1378.07 322.279ZM1510.49 246.016C1473.53 260.934 1431.71 287.812 1378.07 322.279L1378.61 323.12C1432.28 288.633 1474.01 261.818 1510.86 246.943L1510.49 246.016ZM1576.72 233.078C1555.31 231.899 1533.82 236.597 1510.49 246.016L1510.86 246.943C1534.1 237.56 1555.45 232.908 1576.66 234.077L1576.72 233.078Z" fill="#282D3E"/>
<path d="M1637.45 284.25L1637.18 284.677L1637.18 284.677L1637.45 284.25ZM1572.3 262.171L1572.33 261.672L1572.33 261.672L1572.3 262.171ZM1638.3 284.772L1638.72 285.033L1638.99 284.606L1638.56 284.345L1638.3 284.772ZM1637.26 286.478L1636.99 286.905L1637.42 287.166L1637.68 286.739L1637.26 286.478ZM1636.4 285.957L1636.14 286.383L1636.14 286.383L1636.4 285.957ZM1572.19 264.168L1572.22 263.669L1572.22 263.669L1572.19 264.168ZM1507.04 276.928L1507.22 277.391L1507.22 277.391L1507.04 276.928ZM1375.14 352.912L1375.41 353.332L1375.41 353.332L1375.14 352.912ZM1330.59 381.381L1330.33 380.958L1330.59 381.381ZM1286.39 411.604L1286.68 412.013L1286.39 411.604ZM692.832 392.097L693.141 391.704L692.832 392.097ZM682.041 383.645L682.349 383.251L682.041 383.645ZM446.759 287.629L446.786 288.129L446.759 287.629ZM339.594 322.446L339.818 322.893L339.594 322.446ZM296.107 345.375L296.344 345.815L296.107 345.375ZM228.554 379.877L228.347 379.422L228.554 379.877ZM117.663 405.34L117.622 405.838L117.663 405.34ZM11.233 343.793L11.6173 343.474L11.6173 343.474L11.233 343.793ZM10.5934 343.025L10.2735 342.64L9.8892 342.96L10.209 343.345L10.5934 343.025ZM12.1307 341.745L12.515 341.426L12.1952 341.041L11.8108 341.361L12.1307 341.745ZM12.7703 342.514L13.1547 342.194L13.1547 342.194L12.7703 342.514ZM117.824 403.346L117.784 403.844L117.824 403.346ZM227.728 378.056L227.934 378.511L227.728 378.056ZM295.039 343.677L295.277 344.117L295.039 343.677ZM338.696 320.659L338.471 320.213L338.696 320.659ZM446.654 285.632L446.68 286.131L446.654 285.632ZM683.273 382.069L683.58 381.675L683.273 382.069ZM694.002 390.472L694.311 390.079L694.002 390.472ZM1285.14 410.035L1284.85 409.627L1285.14 410.035ZM1329.53 379.691L1329.79 380.113L1329.53 379.691ZM1373.96 351.293L1374.23 351.714L1373.96 351.293ZM1506.29 275.073L1506.1 274.61L1506.29 275.073ZM1637.71 283.824C1614.95 269.909 1593.74 262.852 1572.33 261.672L1572.28 262.671C1593.49 263.84 1614.54 270.831 1637.18 284.677L1637.71 283.824ZM1638.56 284.345L1637.71 283.824L1637.18 284.677L1638.04 285.198L1638.56 284.345ZM1637.68 286.739L1638.72 285.033L1637.87 284.511L1636.83 286.217L1637.68 286.739ZM1636.14 286.383L1636.99 286.905L1637.52 286.052L1636.66 285.53L1636.14 286.383ZM1572.17 264.668C1592.99 265.816 1613.72 272.675 1636.14 286.383L1636.66 285.53C1614.13 271.753 1593.24 264.828 1572.22 263.669L1572.17 264.668ZM1507.22 277.391C1530.29 268.081 1551.33 263.519 1572.17 264.668L1572.22 263.669C1551.2 262.51 1530.01 267.117 1506.85 276.464L1507.22 277.391ZM1375.41 353.332C1429.05 318.866 1470.56 292.189 1507.22 277.391L1506.85 276.464C1470.08 291.305 1428.48 318.045 1374.87 352.491L1375.41 353.332ZM1330.86 381.803C1346.62 371.834 1361.42 362.319 1375.41 353.332L1374.87 352.491C1360.88 361.478 1346.08 370.992 1330.33 380.958L1330.86 381.803ZM1286.68 412.013C1302.07 401.12 1316.67 390.785 1330.86 381.803L1330.33 380.958C1316.1 389.957 1301.49 400.307 1286.11 411.196L1286.68 412.013ZM929.888 513.499C1105.34 540.405 1206.58 468.726 1286.68 412.013L1286.11 411.196C1206.04 467.884 1105.09 539.354 930.04 512.51L929.888 513.499ZM692.524 392.49C757.7 443.608 826.606 497.66 929.888 513.499L930.04 512.51C827.046 496.716 758.327 442.829 693.141 391.704L692.524 392.49ZM681.734 384.039C685.322 386.843 688.917 389.662 692.524 392.49L693.141 391.704C689.534 388.875 685.939 386.055 682.349 383.251L681.734 384.039ZM446.786 288.129C547.055 282.85 613.243 330.532 681.734 384.039L682.349 383.251C613.853 329.74 547.404 281.83 446.733 287.13L446.786 288.129ZM339.818 322.893C376.443 304.489 412.285 289.945 446.786 288.129L446.733 287.13C412.013 288.958 376.013 303.586 339.369 322L339.818 322.893ZM296.344 345.815C310.926 337.948 325.437 330.12 339.818 322.893L339.369 322C324.973 329.234 310.448 337.07 295.869 344.935L296.344 345.815ZM228.76 380.333C251.286 370.122 273.899 357.923 296.344 345.815L295.869 344.935C273.418 357.046 250.837 369.228 228.347 379.422L228.76 380.333ZM117.622 405.838C154.253 408.808 191.559 397.195 228.76 380.333L228.347 379.422C191.197 396.261 154.079 407.791 117.703 404.841L117.622 405.838ZM10.8487 344.113C45.0868 385.256 80.9121 402.861 117.622 405.838L117.703 404.841C81.301 401.889 45.7111 384.443 11.6173 343.474L10.8487 344.113ZM10.209 343.345L10.8487 344.113L11.6173 343.474L10.9777 342.705L10.209 343.345ZM11.8108 341.361L10.2735 342.64L10.9132 343.409L12.4505 342.13L11.8108 341.361ZM13.1547 342.194L12.515 341.426L11.7463 342.065L12.386 342.834L13.1547 342.194ZM117.865 402.848C82.0788 399.946 46.9597 382.817 13.1547 342.194L12.386 342.834C46.3354 383.63 81.6899 400.918 117.784 403.844L117.865 402.848ZM227.522 377.6C190.473 394.393 153.731 405.756 117.865 402.848L117.784 403.844C153.905 406.774 190.835 395.327 227.934 378.511L227.522 377.6ZM294.802 343.237C272.418 355.314 249.976 367.422 227.522 377.6L227.934 378.511C250.426 368.316 272.899 356.191 295.277 344.117L294.802 343.237ZM338.471 320.213C323.956 327.507 309.391 335.365 294.802 343.237L295.277 344.117C309.868 336.244 324.42 328.393 338.92 321.106L338.471 320.213ZM446.628 285.133C411.467 286.984 375.152 301.78 338.471 320.213L338.92 321.106C375.582 302.683 411.74 287.971 446.68 286.131L446.628 285.133ZM683.58 381.675C615.075 328.157 548.103 279.791 446.628 285.133L446.68 286.131C547.753 280.811 614.464 328.948 682.965 382.463L683.58 381.675ZM694.311 390.079C690.726 387.268 687.151 384.464 683.58 381.675L682.965 382.463C686.534 385.252 690.109 388.055 693.693 390.866L694.311 390.079ZM930.343 510.533C827.881 494.821 759.539 441.233 694.311 390.079L693.693 390.866C758.912 442.012 827.441 495.765 930.191 511.522L930.343 510.533ZM1284.85 409.627C1204.8 466.286 1104.53 537.245 930.343 510.533L930.191 511.522C1104.79 538.297 1205.34 467.127 1285.43 410.443L1284.85 409.627ZM1329.26 379.268C1314.95 388.323 1300.27 398.712 1284.85 409.627L1285.43 410.443C1300.85 399.525 1315.51 389.151 1329.79 380.113L1329.26 379.268ZM1373.69 350.872C1359.72 359.847 1344.95 369.337 1329.26 379.268L1329.79 380.113C1345.49 370.18 1360.26 360.688 1374.23 351.714L1373.69 350.872ZM1506.1 274.61C1469.14 289.528 1427.32 316.406 1373.69 350.872L1374.23 351.714C1427.89 317.227 1469.62 290.412 1506.48 275.537L1506.1 274.61ZM1572.33 261.672C1550.93 260.492 1529.44 265.19 1506.1 274.61L1506.48 275.537C1529.72 266.154 1551.06 261.501 1572.28 262.671L1572.33 261.672Z" fill="#282D3E"/>
<path d="M1633.06 312.844L1632.8 313.271L1632.8 313.271L1633.06 312.844ZM1567.92 290.765L1567.95 290.266L1567.95 290.266L1567.92 290.765ZM1633.91 313.366L1634.34 313.626L1634.6 313.2L1634.17 312.939L1633.91 313.366ZM1632.87 315.072L1632.61 315.499L1633.04 315.759L1633.3 315.333L1632.87 315.072ZM1632.02 314.55L1631.76 314.977L1631.76 314.977L1632.02 314.55ZM1567.81 292.762L1567.84 292.263L1567.84 292.263L1567.81 292.762ZM1502.65 305.522L1502.84 305.985L1502.84 305.985L1502.65 305.522ZM1370.76 381.505L1371.03 381.926L1371.03 381.926L1370.76 381.505ZM1326.21 409.975L1325.94 409.552L1326.21 409.975ZM1282.01 440.198L1282.3 440.606L1282.01 440.198ZM688.447 420.691L688.756 420.297L688.447 420.691ZM677.656 412.239L677.964 411.845L677.656 412.239ZM442.374 316.223L442.401 316.722L442.374 316.223ZM335.209 351.04L335.434 351.487L335.209 351.04ZM291.722 373.969L291.959 374.409L291.722 373.969ZM224.169 408.471L223.962 408.016L224.169 408.471ZM113.278 433.933L113.237 434.432L113.278 433.933ZM6.84814 372.387L7.23247 372.067L7.23247 372.067L6.84814 372.387ZM6.20848 371.619L5.88866 371.234L5.50432 371.554L5.82416 371.938L6.20848 371.619ZM7.7458 370.339L8.13013 370.019L7.8103 369.635L7.42597 369.955L7.7458 370.339ZM8.38546 371.108L8.76979 370.788L8.76979 370.788L8.38546 371.108ZM113.44 431.94L113.399 432.438L113.44 431.94ZM223.343 406.649L223.55 407.105L223.343 406.649ZM290.655 372.271L290.892 372.711L290.655 372.271ZM334.311 349.253L334.086 348.806L334.311 349.253ZM442.269 314.226L442.296 314.725L442.269 314.226ZM678.888 410.663L679.195 410.269L678.888 410.663ZM689.617 419.066L689.926 418.673L689.617 419.066ZM1280.75 438.629L1280.46 438.22L1280.75 438.629ZM1325.14 408.284L1325.41 408.707L1325.14 408.284ZM1369.57 379.887L1369.84 380.307L1369.57 379.887ZM1501.9 303.667L1501.72 303.203L1501.9 303.667ZM1633.32 312.417C1610.56 298.503 1589.36 291.446 1567.95 290.266L1567.89 291.264C1589.11 292.434 1610.15 299.425 1632.8 313.271L1633.32 312.417ZM1634.17 312.939L1633.32 312.417L1632.8 313.271L1633.65 313.792L1634.17 312.939ZM1633.3 315.333L1634.34 313.626L1633.49 313.105L1632.44 314.811L1633.3 315.333ZM1631.76 314.977L1632.61 315.499L1633.13 314.645L1632.28 314.124L1631.76 314.977ZM1567.78 293.261C1588.6 294.409 1609.33 301.269 1631.76 314.977L1632.28 314.124C1609.74 300.347 1588.86 293.422 1567.84 292.263L1567.78 293.261ZM1502.84 305.985C1525.9 296.675 1546.95 292.113 1567.78 293.261L1567.84 292.263C1546.81 291.104 1525.62 295.711 1502.47 305.058L1502.84 305.985ZM1371.03 381.926C1424.66 347.46 1466.18 320.783 1502.84 305.985L1502.47 305.058C1465.7 319.899 1424.09 346.638 1370.48 381.085L1371.03 381.926ZM1326.48 410.397C1342.23 400.428 1357.04 390.913 1371.03 381.926L1370.48 381.085C1356.5 390.072 1341.69 399.585 1325.94 409.552L1326.48 410.397ZM1282.3 440.606C1297.68 429.714 1312.28 419.379 1326.48 410.397L1325.94 409.552C1311.72 418.551 1297.1 428.901 1281.72 439.79L1282.3 440.606ZM925.503 542.093C1100.96 568.999 1202.2 497.319 1282.3 440.606L1281.72 439.79C1201.65 496.478 1100.7 567.948 925.655 541.104L925.503 542.093ZM688.139 421.084C753.315 472.202 822.221 526.254 925.503 542.093L925.655 541.104C822.661 525.31 753.942 471.423 688.756 420.297L688.139 421.084ZM677.349 412.633C680.937 415.436 684.532 418.256 688.139 421.084L688.756 420.297C685.15 417.469 681.554 414.649 677.964 411.845L677.349 412.633ZM442.401 316.722C542.67 311.444 608.858 359.126 677.349 412.633L677.964 411.845C609.469 358.334 543.019 310.424 442.348 315.724L442.401 316.722ZM335.434 351.487C372.058 333.082 407.901 318.538 442.401 316.722L442.348 315.724C407.628 317.551 371.628 332.179 334.985 350.593L335.434 351.487ZM291.959 374.409C306.541 366.542 321.052 358.714 335.434 351.487L334.985 350.593C320.588 357.828 306.064 365.663 291.484 373.529L291.959 374.409ZM224.375 408.926C246.902 398.716 269.514 386.517 291.959 374.409L291.484 373.529C269.033 385.64 246.452 397.822 223.962 408.016L224.375 408.926ZM113.237 434.432C149.868 437.402 187.174 425.788 224.375 408.926L223.962 408.016C186.812 424.855 149.694 436.385 113.318 433.435L113.237 434.432ZM6.46382 372.707C40.7019 413.85 76.5272 431.455 113.237 434.432L113.318 433.435C76.9162 430.483 41.3262 413.037 7.23247 372.067L6.46382 372.707ZM5.82416 371.938L6.46382 372.707L7.23247 372.067L6.59281 371.299L5.82416 371.938ZM7.42597 369.955L5.88866 371.234L6.52832 372.003L8.06563 370.724L7.42597 369.955ZM8.76979 370.788L8.13013 370.019L7.36147 370.659L8.00113 371.428L8.76979 370.788ZM113.48 431.441C77.694 428.54 42.5748 411.41 8.76979 370.788L8.00113 371.428C41.9505 412.224 77.3051 429.511 113.399 432.438L113.48 431.441ZM223.137 406.194C186.088 422.987 149.346 434.35 113.48 431.441L113.399 432.438C149.52 435.367 186.45 423.921 223.55 407.105L223.137 406.194ZM290.417 371.831C268.033 383.908 245.591 396.016 223.137 406.194L223.55 407.105C246.041 396.91 268.514 384.785 290.892 372.711L290.417 371.831ZM334.086 348.806C319.571 356.101 305.006 363.959 290.417 371.831L290.892 372.711C305.484 364.838 320.035 356.987 334.535 349.7L334.086 348.806ZM442.243 313.726C407.082 315.577 370.767 330.374 334.086 348.806L334.535 349.7C371.197 331.277 407.355 316.564 442.296 314.725L442.243 313.726ZM679.195 410.269C610.69 356.75 543.718 308.385 442.243 313.726L442.296 314.725C543.369 309.404 610.079 357.542 678.58 411.057L679.195 410.269ZM689.926 418.673C686.341 415.862 682.766 413.058 679.195 410.269L678.58 411.057C682.15 413.845 685.724 416.649 689.309 419.46L689.926 418.673ZM925.958 539.127C823.497 523.415 755.154 469.827 689.926 418.673L689.309 419.46C754.527 470.606 823.056 524.359 925.806 540.116L925.958 539.127ZM1280.46 438.22C1200.41 494.879 1100.15 565.839 925.958 539.127L925.806 540.116C1100.41 566.891 1200.95 495.721 1281.04 439.037L1280.46 438.22ZM1324.87 407.862C1310.56 416.916 1295.88 427.306 1280.46 438.22L1281.04 439.037C1296.47 428.119 1311.12 417.745 1325.41 408.707L1324.87 407.862ZM1369.3 379.466C1355.34 388.441 1340.57 397.931 1324.87 407.862L1325.41 408.707C1341.11 398.774 1355.88 389.282 1369.84 380.307L1369.3 379.466ZM1501.72 303.203C1464.76 318.122 1422.94 345 1369.3 379.466L1369.84 380.307C1423.51 345.821 1465.24 319.006 1502.09 304.131L1501.72 303.203ZM1567.95 290.266C1546.55 289.086 1525.05 293.784 1501.72 303.203L1502.09 304.131C1525.34 294.748 1546.68 290.095 1567.89 291.264L1567.95 290.266Z" fill="#282D3E"/>
<path d="M1628.68 341.438L1628.41 341.864L1628.41 341.864L1628.68 341.438ZM1563.53 319.359L1563.56 318.86L1563.56 318.86L1563.53 319.359ZM1629.53 341.959L1629.96 342.22L1630.22 341.793L1629.79 341.533L1629.53 341.959ZM1628.49 343.666L1628.22 344.092L1628.65 344.353L1628.91 343.926L1628.49 343.666ZM1627.63 343.144L1627.37 343.571L1627.37 343.571L1627.63 343.144ZM1563.42 321.356L1563.45 320.857L1563.45 320.857L1563.42 321.356ZM1498.27 334.115L1498.45 334.579L1498.45 334.579L1498.27 334.115ZM1366.37 410.099L1366.64 410.52L1366.64 410.52L1366.37 410.099ZM1321.82 438.568L1321.56 438.146L1321.82 438.568ZM1277.63 468.792L1277.91 469.2L1277.63 468.792ZM684.062 449.285L684.371 448.891L684.062 449.285ZM673.272 440.832L673.579 440.438L673.272 440.832ZM437.99 344.817L438.016 345.316L437.99 344.817ZM330.824 379.634L331.049 380.081L330.824 379.634ZM287.337 402.562L287.574 403.002L287.337 402.562ZM219.784 437.065L219.578 436.609L219.784 437.065ZM108.893 462.527L108.853 463.025L108.893 462.527ZM2.46327 400.981L2.8476 400.661L2.8476 400.661L2.46327 400.981ZM1.82361 400.212L1.50378 399.828L1.11945 400.148L1.43928 400.532L1.82361 400.212ZM3.36093 398.933L3.74526 398.613L3.42543 398.229L3.0411 398.549L3.36093 398.933ZM4.00059 399.702L4.38492 399.382L4.38492 399.382L4.00059 399.702ZM109.055 460.534L109.014 461.032L109.055 460.534ZM218.958 435.243L219.165 435.699L218.958 435.243ZM286.27 400.864L286.507 401.304L286.27 400.864ZM329.926 377.847L329.702 377.4L329.926 377.847ZM437.884 342.819L437.911 343.319L437.884 342.819ZM674.503 439.256L674.811 438.862L674.503 439.256ZM685.232 447.66L685.541 447.267L685.232 447.66ZM1276.37 467.222L1276.08 466.814L1276.37 467.222ZM1320.76 436.878L1321.02 437.301L1320.76 436.878ZM1365.19 408.481L1365.46 408.901L1365.19 408.481ZM1497.52 332.261L1497.33 331.797L1497.52 332.261ZM1628.94 341.011C1606.18 327.097 1584.97 320.04 1563.56 318.86L1563.51 319.858C1584.72 321.028 1605.77 328.019 1628.41 341.864L1628.94 341.011ZM1629.79 341.533L1628.94 341.011L1628.41 341.864L1629.27 342.386L1629.79 341.533ZM1628.91 343.926L1629.96 342.22L1629.1 341.698L1628.06 343.405L1628.91 343.926ZM1627.37 343.571L1628.22 344.092L1628.75 343.239L1627.89 342.717L1627.37 343.571ZM1563.4 321.855C1584.22 323.003 1604.95 329.862 1627.37 343.571L1627.89 342.717C1605.36 328.941 1584.47 322.015 1563.45 320.857L1563.4 321.855ZM1498.45 334.579C1521.52 325.268 1542.56 320.707 1563.4 321.855L1563.45 320.857C1542.43 319.698 1521.24 324.305 1498.08 333.652L1498.45 334.579ZM1366.64 410.52C1420.28 376.053 1461.79 349.377 1498.45 334.579L1498.08 333.652C1461.31 348.493 1419.71 375.232 1366.1 409.679L1366.64 410.52ZM1322.09 438.991C1337.85 429.022 1352.66 419.507 1366.64 410.52L1366.1 409.679C1352.11 418.666 1337.31 428.179 1321.56 438.146L1322.09 438.991ZM1277.91 469.2C1293.3 458.307 1307.9 447.973 1322.09 438.991L1321.56 438.146C1307.34 447.144 1292.72 457.495 1277.34 468.384L1277.91 469.2ZM921.118 570.686C1096.57 597.593 1197.81 525.913 1277.91 469.2L1277.34 468.384C1197.27 525.072 1096.32 596.541 921.27 569.698L921.118 570.686ZM683.754 449.678C748.93 500.795 817.836 554.848 921.118 570.686L921.27 569.698C818.277 553.904 749.557 500.016 684.371 448.891L683.754 449.678ZM672.964 441.226C676.553 444.03 680.147 446.85 683.754 449.678L684.371 448.891C680.765 446.063 677.169 443.243 673.579 440.438L672.964 441.226ZM438.016 345.316C538.285 340.038 604.473 387.719 672.964 441.226L673.579 440.438C605.084 386.928 538.635 339.018 437.963 344.317L438.016 345.316ZM331.049 380.081C367.673 361.676 403.516 347.132 438.016 345.316L437.963 344.317C403.243 346.145 367.243 360.773 330.6 379.187L331.049 380.081ZM287.574 403.002C302.156 395.136 316.667 387.308 331.049 380.081L330.6 379.187C316.203 386.422 301.679 394.257 287.099 402.122L287.574 403.002ZM219.99 437.52C242.517 427.31 265.129 415.111 287.574 403.002L287.099 402.122C264.649 414.234 242.067 426.416 219.578 436.609L219.99 437.52ZM108.853 463.025C145.483 465.996 182.789 454.382 219.99 437.52L219.578 436.609C182.427 453.448 145.309 464.978 108.933 462.029L108.853 463.025ZM2.07894 401.301C36.3171 442.444 72.1424 460.049 108.853 463.025L108.933 462.029C72.5313 459.077 36.9414 441.631 2.8476 400.661L2.07894 401.301ZM1.43928 400.532L2.07894 401.301L2.8476 400.661L2.20794 399.892L1.43928 400.532ZM3.0411 398.549L1.50378 399.828L2.14344 400.597L3.68076 399.317L3.0411 398.549ZM4.38492 399.382L3.74526 398.613L2.9766 399.253L3.61626 400.021L4.38492 399.382ZM109.095 460.035C73.3091 457.133 38.1899 440.004 4.38492 399.382L3.61626 400.021C37.5656 440.817 72.9202 458.105 109.014 461.032L109.095 460.035ZM218.752 434.788C181.703 451.581 144.961 462.944 109.095 460.035L109.014 461.032C145.135 463.961 182.065 452.515 219.165 435.699L218.752 434.788ZM286.032 400.424C263.648 412.501 241.206 424.61 218.752 434.788L219.165 435.699C241.656 425.504 264.129 413.378 286.507 401.304L286.032 400.424ZM329.702 377.4C315.186 384.695 300.622 392.553 286.032 400.424L286.507 401.304C301.099 393.432 315.65 385.58 330.151 378.294L329.702 377.4ZM437.858 342.32C402.697 344.171 366.382 358.967 329.702 377.4L330.151 378.294C366.812 359.87 402.97 345.158 437.911 343.319L437.858 342.32ZM674.811 438.862C606.305 385.344 539.333 336.978 437.858 342.32L437.911 343.319C538.984 337.998 605.695 386.136 674.195 439.65L674.811 438.862ZM685.541 447.267C681.956 444.456 678.381 441.652 674.811 438.862L674.195 439.65C677.765 442.439 681.339 445.242 684.924 448.053L685.541 447.267ZM921.573 567.721C819.112 552.008 750.769 498.421 685.541 447.267L684.924 448.053C750.142 499.2 818.671 552.953 921.422 568.709L921.573 567.721ZM1276.08 466.814C1196.03 523.473 1095.76 594.433 921.573 567.721L921.422 568.709C1096.02 595.484 1196.57 524.315 1276.66 467.63L1276.08 466.814ZM1320.49 436.456C1306.18 445.51 1291.5 455.9 1276.08 466.814L1276.66 467.63C1292.08 456.713 1306.74 446.339 1321.02 437.301L1320.49 436.456ZM1364.92 408.06C1350.95 417.034 1336.18 426.525 1320.49 436.456L1321.02 437.301C1336.72 427.368 1351.49 417.875 1365.46 408.901L1364.92 408.06ZM1497.33 331.797C1460.37 346.715 1418.55 373.593 1364.92 408.06L1365.46 408.901C1419.12 374.415 1460.86 347.599 1497.71 332.724L1497.33 331.797ZM1563.56 318.86C1542.16 317.68 1520.67 322.378 1497.33 331.797L1497.71 332.724C1520.95 323.341 1542.29 318.689 1563.51 319.858L1563.56 318.86Z" fill="#282D3E"/>
<path d="M1624.29 370.031L1624.03 370.458L1624.03 370.458L1624.29 370.031ZM1559.15 347.953L1559.18 347.453L1559.18 347.453L1559.15 347.953ZM1625.14 370.553L1625.57 370.814L1625.83 370.387L1625.4 370.126L1625.14 370.553ZM1624.1 372.259L1623.84 372.686L1624.27 372.947L1624.53 372.52L1624.1 372.259ZM1623.25 371.738L1622.99 372.164L1622.99 372.164L1623.25 371.738ZM1559.04 349.95L1559.07 349.45L1559.07 349.45L1559.04 349.95ZM1493.88 362.709L1494.07 363.173L1494.07 363.173L1493.88 362.709ZM1361.99 438.693L1362.26 439.114L1362.26 439.114L1361.99 438.693ZM1317.44 467.162L1317.17 466.74L1317.44 467.162ZM1273.24 497.386L1273.53 497.794L1273.24 497.386ZM679.678 477.878L679.986 477.485L679.678 477.878ZM668.887 469.426L669.195 469.032L668.887 469.426ZM433.605 373.41L433.631 373.91L433.605 373.41ZM326.439 408.228L326.664 408.674L326.439 408.228ZM282.952 431.156L283.189 431.596L282.952 431.156ZM215.399 465.658L215.193 465.203L215.399 465.658ZM104.508 491.121L104.468 491.619L104.508 491.121ZM-1.9216 429.575L-1.53727 429.255L-1.53727 429.255L-1.9216 429.575ZM-2.56126 428.806L-2.88109 428.422L-3.26542 428.742L-2.94559 429.126L-2.56126 428.806ZM-1.02394 427.527L-0.639617 427.207L-0.959445 426.823L-1.34377 427.142L-1.02394 427.527ZM-0.384284 428.295L4.49106e-05 427.976L4.30253e-05 427.976L-0.384284 428.295ZM104.67 489.127L104.629 489.626L104.67 489.127ZM214.573 463.837L214.78 464.292L214.573 463.837ZM281.885 429.458L282.122 429.898L281.885 429.458ZM325.541 406.441L325.317 405.994L325.541 406.441ZM433.5 371.413L433.526 371.913L433.5 371.413ZM670.118 467.85L670.426 467.456L670.118 467.85ZM680.847 476.254L681.156 475.86L680.847 476.254ZM1271.98 495.816L1271.69 495.408L1271.98 495.816ZM1316.37 465.472L1316.64 465.894L1316.37 465.472ZM1360.8 437.074L1361.07 437.495L1360.8 437.074ZM1493.13 360.854L1492.95 360.391L1493.13 360.854ZM1624.55 369.605C1601.79 355.691 1580.59 348.634 1559.18 347.453L1559.12 348.452C1580.34 349.621 1601.38 356.612 1624.03 370.458L1624.55 369.605ZM1625.4 370.126L1624.55 369.605L1624.03 370.458L1624.88 370.98L1625.4 370.126ZM1624.53 372.52L1625.57 370.814L1624.72 370.292L1623.67 371.999L1624.53 372.52ZM1622.99 372.164L1623.84 372.686L1624.36 371.833L1623.51 371.311L1622.99 372.164ZM1559.01 350.449C1579.84 351.597 1600.56 358.456 1622.99 372.164L1623.51 371.311C1600.97 357.534 1580.09 350.609 1559.07 349.45L1559.01 350.449ZM1494.07 363.173C1517.14 353.862 1538.18 349.3 1559.01 350.449L1559.07 349.45C1538.04 348.291 1516.85 352.899 1493.7 362.245L1494.07 363.173ZM1362.26 439.114C1415.89 404.647 1457.41 377.971 1494.07 363.173L1493.7 362.245C1456.93 377.087 1415.32 403.826 1361.72 438.272L1362.26 439.114ZM1317.71 467.585C1333.46 457.616 1348.27 448.101 1362.26 439.114L1361.72 438.272C1347.73 447.26 1332.92 456.773 1317.17 466.74L1317.71 467.585ZM1273.53 497.794C1288.91 486.901 1303.51 476.567 1317.71 467.585L1317.17 466.74C1302.95 475.738 1288.33 486.088 1272.95 496.978L1273.53 497.794ZM916.733 599.28C1092.19 626.186 1193.43 554.507 1273.53 497.794L1272.95 496.978C1192.88 553.665 1091.93 625.135 916.885 598.292L916.733 599.28ZM679.369 478.272C744.545 529.389 813.452 583.442 916.733 599.28L916.885 598.292C813.892 582.497 745.172 528.61 679.986 477.485L679.369 478.272ZM668.579 469.82C672.168 472.624 675.763 475.443 679.369 478.272L679.986 477.485C676.38 474.656 672.784 471.836 669.195 469.032L668.579 469.82ZM433.631 373.91C533.901 368.631 600.088 416.313 668.579 469.82L669.195 469.032C600.699 415.521 534.25 367.612 433.578 372.911L433.631 373.91ZM326.664 408.674C363.288 390.27 399.131 375.726 433.631 373.91L433.578 372.911C398.858 374.739 362.858 389.367 326.215 407.781L326.664 408.674ZM283.189 431.596C297.771 423.73 312.282 415.901 326.664 408.674L326.215 407.781C311.818 415.016 297.294 422.851 282.715 430.716L283.189 431.596ZM215.606 466.114C238.132 455.903 260.744 443.704 283.189 431.596L282.715 430.716C260.264 442.827 237.682 455.009 215.193 465.203L215.606 466.114ZM104.468 491.619C141.098 494.59 178.404 482.976 215.606 466.114L215.193 465.203C178.042 482.042 140.924 493.572 104.549 490.622L104.468 491.619ZM-2.30593 429.895C31.9322 471.037 67.7575 488.642 104.468 491.619L104.549 490.622C68.1464 487.671 32.5565 470.224 -1.53727 429.255L-2.30593 429.895ZM-2.94559 429.126L-2.30593 429.895L-1.53727 429.255L-2.17693 428.486L-2.94559 429.126ZM-1.34377 427.142L-2.88109 428.422L-2.24143 429.19L-0.704112 427.911L-1.34377 427.142ZM4.30253e-05 427.976L-0.639617 427.207L-1.40827 427.847L-0.768612 428.615L4.30253e-05 427.976ZM104.71 488.629C68.9242 485.727 33.805 468.598 4.49106e-05 427.976L-0.768613 428.615C33.1808 469.411 68.5353 486.699 104.629 489.626L104.71 488.629ZM214.367 463.381C177.318 480.175 140.576 491.537 104.71 488.629L104.629 489.626C140.75 492.555 177.68 481.108 214.78 464.292L214.367 463.381ZM281.647 429.018C259.264 441.095 236.821 453.204 214.367 463.381L214.78 464.292C237.271 454.098 259.744 441.972 282.122 429.898L281.647 429.018ZM325.317 405.994C310.801 413.288 296.237 421.146 281.647 429.018L282.122 429.898C296.714 422.025 311.265 414.174 325.766 406.887L325.317 405.994ZM433.473 370.914C398.313 372.765 361.997 387.561 325.317 405.994L325.766 406.887C362.428 388.464 398.585 373.752 433.526 371.913L433.473 370.914ZM670.426 467.456C601.921 413.938 534.948 365.572 433.473 370.914L433.526 371.913C534.599 366.592 601.31 414.73 669.81 468.244L670.426 467.456ZM681.156 475.86C677.572 473.049 673.996 470.245 670.426 467.456L669.81 468.244C673.38 471.033 676.954 473.836 680.539 476.647L681.156 475.86ZM917.188 596.315C814.727 580.602 746.384 527.015 681.156 475.86L680.539 476.647C745.757 527.794 814.287 581.546 917.037 597.303L917.188 596.315ZM1271.69 495.408C1191.64 552.067 1091.38 623.027 917.188 596.315L917.037 597.303C1091.64 624.078 1192.18 552.908 1272.27 496.224L1271.69 495.408ZM1316.1 465.049C1301.79 474.104 1287.11 484.494 1271.69 495.408L1272.27 496.224C1287.7 485.306 1302.35 474.932 1316.64 465.894L1316.1 465.049ZM1360.53 436.654C1346.57 445.628 1331.8 455.118 1316.1 465.049L1316.64 465.894C1332.34 455.961 1347.11 446.469 1361.07 437.495L1360.53 436.654ZM1492.95 360.391C1455.99 375.309 1414.17 402.187 1360.53 436.654L1361.07 437.495C1414.74 403.008 1456.47 376.193 1493.32 361.318L1492.95 360.391ZM1559.18 347.453C1537.78 346.274 1516.28 350.972 1492.95 360.391L1493.32 361.318C1516.57 351.935 1537.91 347.283 1559.12 348.452L1559.18 347.453Z" fill="#282D3E"/>
<path d="M1619.91 398.625L1619.64 399.052L1619.64 399.052L1619.91 398.625ZM1554.76 376.546L1554.79 376.047L1554.79 376.047L1554.76 376.546ZM1620.76 399.147L1621.19 399.408L1621.45 398.981L1621.02 398.72L1620.76 399.147ZM1619.72 400.853L1619.45 401.28L1619.88 401.541L1620.14 401.114L1619.72 400.853ZM1618.86 400.332L1618.6 400.758L1618.6 400.758L1618.86 400.332ZM1554.65 378.543L1554.68 378.044L1554.68 378.044L1554.65 378.543ZM1489.5 391.303L1489.68 391.766L1489.68 391.766L1489.5 391.303ZM1357.6 467.287L1357.87 467.707L1357.87 467.707L1357.6 467.287ZM1313.05 495.756L1312.79 495.333L1313.05 495.756ZM1268.86 525.979L1269.14 526.388L1268.86 525.979ZM675.293 506.472L675.601 506.079L675.293 506.472ZM664.502 498.02L664.81 497.626L664.502 498.02ZM429.22 402.004L429.246 402.504L429.22 402.004ZM322.054 436.821L322.279 437.268L322.054 436.821ZM278.567 459.75L278.804 460.19L278.567 459.75ZM211.014 494.252L210.808 493.797L211.014 494.252ZM100.123 519.715L100.083 520.213L100.123 519.715ZM-6.30647 458.168L-5.92214 457.849L-5.92214 457.849L-6.30647 458.168ZM-6.94613 457.4L-7.26595 457.015L-7.65028 457.335L-7.33045 457.72L-6.94613 457.4ZM-5.40881 456.12L-5.02448 455.801L-5.34431 455.416L-5.72864 455.736L-5.40881 456.12ZM-4.76915 456.889L-4.38482 456.569L-4.38482 456.569L-4.76915 456.889ZM100.285 517.721L100.245 518.219L100.285 517.721ZM210.189 492.431L210.395 492.886L210.189 492.431ZM277.5 458.052L277.737 458.492L277.5 458.052ZM321.156 435.034L320.932 434.588L321.156 435.034ZM429.115 400.007L429.141 400.506L429.115 400.007ZM665.733 496.444L666.041 496.05L665.733 496.444ZM676.463 504.847L676.771 504.454L676.463 504.847ZM1267.6 524.41L1267.31 524.002L1267.6 524.41ZM1311.99 494.066L1312.25 494.488L1311.99 494.066ZM1356.42 465.668L1356.69 466.089L1356.42 465.668ZM1488.75 389.448L1488.56 388.985L1488.75 389.448ZM1620.17 398.199C1597.41 384.284 1576.2 377.227 1554.79 376.047L1554.74 377.046C1575.95 378.215 1597 385.206 1619.64 399.052L1620.17 398.199ZM1621.02 398.72L1620.17 398.199L1619.64 399.052L1620.5 399.573L1621.02 398.72ZM1620.14 401.114L1621.19 399.408L1620.33 398.886L1619.29 400.592L1620.14 401.114ZM1618.6 400.758L1619.45 401.28L1619.98 400.427L1619.12 399.905L1618.6 400.758ZM1554.63 379.043C1575.45 380.191 1596.18 387.05 1618.6 400.758L1619.12 399.905C1596.59 386.128 1575.7 379.203 1554.68 378.044L1554.63 379.043ZM1489.68 391.766C1512.75 382.456 1533.79 377.894 1554.63 379.043L1554.68 378.044C1533.66 376.885 1512.47 381.492 1489.31 390.839L1489.68 391.766ZM1357.87 467.707C1411.51 433.241 1453.03 406.564 1489.68 391.766L1489.31 390.839C1452.54 405.68 1410.94 432.42 1357.33 466.866L1357.87 467.707ZM1313.32 496.178C1329.08 486.209 1343.89 476.694 1357.87 467.707L1357.33 466.866C1343.34 475.853 1328.54 485.367 1312.79 495.333L1313.32 496.178ZM1269.14 526.388C1284.53 515.495 1299.13 505.16 1313.32 496.178L1312.79 495.333C1298.57 504.332 1283.95 514.682 1268.57 525.571L1269.14 526.388ZM912.349 627.874C1087.81 654.78 1189.04 583.101 1269.14 526.388L1268.57 525.571C1188.5 582.259 1087.55 653.729 912.5 626.885L912.349 627.874ZM674.984 506.865C740.16 557.983 809.067 612.035 912.349 627.874L912.5 626.885C809.507 611.091 740.787 557.204 675.601 506.079L674.984 506.865ZM664.194 498.414C667.783 501.218 671.378 504.037 674.984 506.865L675.601 506.079C671.995 503.25 668.399 500.43 664.81 497.626L664.194 498.414ZM429.246 402.504C529.516 397.225 595.703 444.907 664.194 498.414L664.81 497.626C596.314 444.115 529.865 396.205 429.193 401.505L429.246 402.504ZM322.279 437.268C358.903 418.864 394.746 404.32 429.246 402.504L429.193 401.505C394.473 403.333 358.473 417.961 321.83 436.375L322.279 437.268ZM278.804 460.19C293.386 452.323 307.897 444.495 322.279 437.268L321.83 436.375C307.433 443.609 292.909 451.445 278.33 459.31L278.804 460.19ZM211.221 494.708C233.747 484.497 256.36 472.298 278.804 460.19L278.33 459.31C255.879 471.421 233.297 483.603 210.808 493.797L211.221 494.708ZM100.083 520.213C136.713 523.183 174.02 511.57 211.221 494.708L210.808 493.797C173.657 510.636 136.539 522.166 100.164 519.216L100.083 520.213ZM-6.69079 458.488C27.5473 499.631 63.3726 517.236 100.083 520.213L100.164 519.216C63.7615 516.264 28.1716 498.818 -5.92214 457.849L-6.69079 458.488ZM-7.33045 457.72L-6.69079 458.488L-5.92214 457.849L-6.5618 457.08L-7.33045 457.72ZM-5.72864 455.736L-7.26595 457.015L-6.62629 457.784L-5.08898 456.505L-5.72864 455.736ZM-4.38482 456.569L-5.02448 455.801L-5.79314 456.44L-5.15348 457.209L-4.38482 456.569ZM100.325 517.223C64.5394 514.321 29.4202 497.192 -4.38482 456.569L-5.15348 457.209C28.7959 498.005 64.1505 515.293 100.245 518.219L100.325 517.223ZM209.982 491.975C172.933 508.768 136.191 520.131 100.325 517.223L100.245 518.219C136.365 521.149 173.295 509.702 210.395 492.886L209.982 491.975ZM277.263 457.612C254.879 469.689 232.436 481.797 209.982 491.975L210.395 492.886C232.886 482.691 255.359 470.566 277.737 458.492L277.263 457.612ZM320.932 434.588C306.416 441.882 291.852 449.74 277.263 457.612L277.737 458.492C292.329 450.619 306.88 442.768 321.381 435.481L320.932 434.588ZM429.088 399.508C393.928 401.359 357.612 416.155 320.932 434.588L321.381 435.481C358.043 417.058 394.2 402.346 429.141 400.506L429.088 399.508ZM666.041 496.05C597.536 442.532 530.563 394.166 429.088 399.508L429.141 400.506C530.214 395.186 596.925 443.323 665.425 496.838L666.041 496.05ZM676.771 504.454C673.187 501.643 669.612 498.839 666.041 496.05L665.425 496.838C668.995 499.627 672.569 502.43 676.154 505.241L676.771 504.454ZM912.803 624.908C810.342 609.196 741.999 555.608 676.771 504.454L676.154 505.241C741.372 556.387 809.902 610.14 912.652 625.897L912.803 624.908ZM1267.31 524.002C1187.26 580.661 1086.99 651.62 912.803 624.908L912.652 625.897C1087.25 652.672 1187.8 581.502 1267.89 524.818L1267.31 524.002ZM1311.72 493.643C1297.41 502.698 1282.73 513.087 1267.31 524.002L1267.89 524.818C1283.31 513.9 1297.97 503.526 1312.25 494.488L1311.72 493.643ZM1356.15 465.247C1342.18 474.222 1327.41 483.712 1311.72 493.643L1312.25 494.488C1327.95 484.555 1342.72 475.063 1356.69 466.089L1356.15 465.247ZM1488.56 388.985C1451.6 403.903 1409.78 430.781 1356.15 465.247L1356.69 466.089C1410.35 431.602 1452.09 404.787 1488.94 389.912L1488.56 388.985ZM1554.79 376.047C1533.39 374.867 1511.9 379.565 1488.56 388.985L1488.94 389.912C1512.18 380.529 1533.53 375.876 1554.74 377.046L1554.79 376.047Z" fill="#282D3E"/>
<path d="M1615.52 427.219L1615.26 427.646L1615.26 427.646L1615.52 427.219ZM1550.38 405.14L1550.41 404.641L1550.41 404.641L1550.38 405.14ZM1616.37 427.741L1616.8 428.001L1617.06 427.575L1616.63 427.314L1616.37 427.741ZM1615.33 429.447L1615.07 429.874L1615.5 430.134L1615.76 429.708L1615.33 429.447ZM1614.48 428.925L1614.22 429.352L1614.22 429.352L1614.48 428.925ZM1550.27 407.137L1550.3 406.638L1550.3 406.638L1550.27 407.137ZM1485.11 419.897L1485.3 420.36L1485.3 420.36L1485.11 419.897ZM1353.22 495.88L1353.49 496.301L1353.49 496.301L1353.22 495.88ZM1308.67 524.35L1308.4 523.927L1308.67 524.35ZM1264.47 554.573L1264.76 554.981L1264.47 554.573ZM670.908 535.066L671.216 534.672L670.908 535.066ZM660.117 526.614L660.425 526.22L660.117 526.614ZM424.835 430.598L424.861 431.097L424.835 430.598ZM317.67 465.415L317.894 465.862L317.67 465.415ZM274.182 488.344L274.42 488.784L274.182 488.344ZM206.629 522.846L206.423 522.391L206.629 522.846ZM95.7384 548.308L95.698 548.807L95.7384 548.308ZM-10.6913 486.762L-10.307 486.442L-10.307 486.442L-10.6913 486.762ZM-11.331 485.994L-11.6508 485.609L-12.0351 485.929L-11.7153 486.313L-11.331 485.994ZM-9.79367 484.714L-9.40935 484.394L-9.72917 484.01L-10.1135 484.33L-9.79367 484.714ZM-9.15401 485.483L-8.76968 485.163L-8.76969 485.163L-9.15401 485.483ZM95.9001 546.315L95.8597 546.813L95.9001 546.315ZM205.804 521.024L206.01 521.48L205.804 521.024ZM273.115 486.646L273.353 487.086L273.115 486.646ZM316.771 463.628L316.547 463.181L316.771 463.628ZM424.73 428.601L424.756 429.1L424.73 428.601ZM661.348 525.038L661.656 524.644L661.348 525.038ZM672.078 533.441L672.386 533.048L672.078 533.441ZM1263.21 553.004L1262.92 552.595L1263.21 553.004ZM1307.6 522.659L1307.87 523.082L1307.6 522.659ZM1352.03 494.262L1352.3 494.682L1352.03 494.262ZM1484.36 418.042L1484.18 417.578L1484.36 418.042ZM1615.78 426.792C1593.02 412.878 1571.82 405.821 1550.41 404.641L1550.35 405.639C1571.57 406.809 1592.61 413.8 1615.26 427.646L1615.78 426.792ZM1616.63 427.314L1615.78 426.792L1615.26 427.646L1616.11 428.167L1616.63 427.314ZM1615.76 429.708L1616.8 428.001L1615.95 427.48L1614.9 429.186L1615.76 429.708ZM1614.22 429.352L1615.07 429.874L1615.59 429.02L1614.74 428.499L1614.22 429.352ZM1550.24 407.636C1571.07 408.784 1591.79 415.644 1614.22 429.352L1614.74 428.499C1592.2 414.722 1571.32 407.797 1550.3 406.638L1550.24 407.636ZM1485.3 420.36C1508.37 411.05 1529.41 406.488 1550.24 407.636L1550.3 406.638C1529.27 405.479 1508.08 410.086 1484.93 419.433L1485.3 420.36ZM1353.49 496.301C1407.12 461.835 1448.64 435.158 1485.3 420.36L1484.93 419.433C1448.16 434.274 1406.55 461.013 1352.95 495.46L1353.49 496.301ZM1308.94 524.772C1324.69 514.803 1339.5 505.288 1353.49 496.301L1352.95 495.46C1338.96 504.447 1324.16 513.96 1308.4 523.927L1308.94 524.772ZM1264.76 554.981C1280.14 544.089 1294.74 533.754 1308.94 524.772L1308.4 523.927C1294.18 532.926 1279.56 543.276 1264.18 554.165L1264.76 554.981ZM907.964 656.468C1083.42 683.374 1184.66 611.694 1264.76 554.981L1264.18 554.165C1184.11 610.853 1083.16 682.323 908.115 655.479L907.964 656.468ZM670.599 535.459C735.775 586.577 804.682 640.629 907.964 656.468L908.115 655.479C805.122 639.685 736.402 585.798 671.216 534.672L670.599 535.459ZM659.809 527.008C663.398 529.811 666.993 532.631 670.599 535.459L671.216 534.672C667.61 531.844 664.015 529.024 660.425 526.22L659.809 527.008ZM424.861 431.097C525.131 425.819 591.318 473.501 659.809 527.008L660.425 526.22C591.929 472.709 525.48 424.799 424.809 430.099L424.861 431.097ZM317.894 465.862C354.519 447.457 390.361 432.913 424.861 431.097L424.809 430.099C390.088 431.926 354.088 446.554 317.445 464.968L317.894 465.862ZM274.42 488.784C289.001 480.917 303.512 473.089 317.894 465.862L317.445 464.968C303.048 472.203 288.524 480.038 273.945 487.904L274.42 488.784ZM206.836 523.301C229.362 513.091 251.975 500.892 274.42 488.784L273.945 487.904C251.494 500.015 228.912 512.197 206.423 522.391L206.836 523.301ZM95.698 548.807C132.328 551.777 169.635 540.163 206.836 523.301L206.423 522.391C169.273 539.23 132.154 550.76 95.7788 547.81L95.698 548.807ZM-11.0757 487.082C23.1625 528.225 58.9878 545.83 95.698 548.807L95.7789 547.81C59.3767 544.858 23.7868 527.412 -10.307 486.442L-11.0757 487.082ZM-11.7153 486.313L-11.0757 487.082L-10.307 486.442L-10.9467 485.674L-11.7153 486.313ZM-10.1135 484.33L-11.6508 485.609L-11.0112 486.378L-9.47384 485.099L-10.1135 484.33ZM-8.76969 485.163L-9.40935 484.394L-10.178 485.034L-9.53834 485.803L-8.76969 485.163ZM95.9405 545.816C60.1545 542.915 25.0353 525.785 -8.76968 485.163L-9.53834 485.803C24.411 526.599 59.7656 543.886 95.8597 546.813L95.9405 545.816ZM205.597 520.569C168.548 537.362 131.806 548.725 95.9405 545.816L95.8597 546.813C131.98 549.742 168.91 538.296 206.01 521.48L205.597 520.569ZM272.878 486.206C250.494 498.283 228.051 510.391 205.597 520.569L206.01 521.48C228.501 511.285 250.974 499.16 273.353 487.086L272.878 486.206ZM316.547 463.181C302.031 470.476 287.467 478.334 272.878 486.206L273.353 487.086C287.944 479.213 302.496 471.362 316.996 464.075L316.547 463.181ZM424.704 428.101C389.543 429.952 353.228 444.749 316.547 463.181L316.996 464.075C353.658 445.652 389.816 430.939 424.756 429.1L424.704 428.101ZM661.656 524.644C593.151 471.125 526.178 422.76 424.704 428.101L424.756 429.1C525.829 423.779 592.54 471.917 661.04 525.432L661.656 524.644ZM672.386 533.048C668.802 530.237 665.227 527.433 661.656 524.644L661.04 525.432C664.61 528.22 668.185 531.024 671.769 533.835L672.386 533.048ZM908.418 653.502C805.957 637.79 737.614 584.202 672.386 533.048L671.769 533.835C736.987 584.981 805.517 638.734 908.267 654.491L908.418 653.502ZM1262.92 552.595C1182.87 609.254 1082.61 680.214 908.418 653.502L908.267 654.491C1082.87 681.266 1183.41 610.096 1263.5 553.412L1262.92 552.595ZM1307.33 522.237C1293.02 531.291 1278.34 541.681 1262.92 552.595L1263.5 553.412C1278.93 542.494 1293.58 532.12 1307.87 523.082L1307.33 522.237ZM1351.76 493.841C1337.8 502.816 1323.03 512.306 1307.33 522.237L1307.87 523.082C1323.57 513.149 1338.34 503.657 1352.3 494.682L1351.76 493.841ZM1484.18 417.578C1447.22 432.497 1405.4 459.375 1351.76 493.841L1352.3 494.682C1405.97 460.196 1447.7 433.381 1484.55 418.506L1484.18 417.578ZM1550.41 404.641C1529.01 403.461 1507.51 408.159 1484.18 417.578L1484.55 418.506C1507.8 409.123 1529.14 404.47 1550.35 405.639L1550.41 404.641Z" fill="#282D3E"/>
<path d="M1611.14 455.812L1610.88 456.239L1610.88 456.239L1611.14 455.812ZM1545.99 433.734L1546.02 433.234L1546.02 433.234L1545.99 433.734ZM1611.99 456.334L1612.42 456.595L1612.68 456.168L1612.25 455.907L1611.99 456.334ZM1610.95 458.04L1610.69 458.467L1611.11 458.728L1611.37 458.301L1610.95 458.04ZM1610.09 457.519L1609.83 457.945L1609.83 457.945L1610.09 457.519ZM1545.88 435.731L1545.91 435.231L1545.91 435.231L1545.88 435.731ZM1480.73 448.49L1480.92 448.954L1480.92 448.954L1480.73 448.49ZM1348.83 524.474L1349.1 524.895L1349.1 524.895L1348.83 524.474ZM1304.29 552.943L1304.02 552.521L1304.29 552.943ZM1260.09 583.167L1260.37 583.575L1260.09 583.167ZM666.523 563.659L666.832 563.266L666.523 563.659ZM655.732 555.207L656.04 554.813L655.732 555.207ZM420.45 459.191L420.476 459.691L420.45 459.191ZM313.285 494.009L313.509 494.455L313.285 494.009ZM269.797 516.937L270.035 517.377L269.797 516.937ZM202.245 551.439L202.038 550.984L202.245 551.439ZM91.3536 576.902L91.3132 577.4L91.3536 576.902ZM-15.0762 515.356L-14.6919 515.036L-14.6919 515.036L-15.0762 515.356ZM-15.7159 514.587L-16.0357 514.203L-16.42 514.523L-16.1002 514.907L-15.7159 514.587ZM-14.1785 513.308L-13.7942 512.988L-14.114 512.604L-14.4984 512.923L-14.1785 513.308ZM-13.5389 514.076L-13.1546 513.757L-13.1546 513.757L-13.5389 514.076ZM91.5152 574.908L91.4748 575.407L91.5152 574.908ZM201.419 549.618L201.625 550.073L201.419 549.618ZM268.73 515.239L268.968 515.679L268.73 515.239ZM312.387 492.222L312.162 491.775L312.387 492.222ZM420.345 457.194L420.371 457.694L420.345 457.194ZM656.963 553.631L657.271 553.237L656.963 553.631ZM667.693 562.035L668.001 561.641L667.693 562.035ZM1258.83 581.597L1258.54 581.189L1258.83 581.597ZM1303.22 551.253L1303.48 551.675L1303.22 551.253ZM1347.65 522.855L1347.92 523.276L1347.65 522.855ZM1479.98 446.635L1479.79 446.172L1479.98 446.635ZM1611.4 455.386C1588.64 441.472 1567.43 434.415 1546.02 433.234L1545.97 434.233C1567.18 435.402 1588.23 442.393 1610.88 456.239L1611.4 455.386ZM1612.25 455.907L1611.4 455.386L1610.88 456.239L1611.73 456.761L1612.25 455.907ZM1611.37 458.301L1612.42 456.595L1611.56 456.073L1610.52 457.78L1611.37 458.301ZM1609.83 457.945L1610.69 458.467L1611.21 457.614L1610.35 457.092L1609.83 457.945ZM1545.86 436.23C1566.68 437.378 1587.41 444.237 1609.83 457.945L1610.35 457.092C1587.82 443.315 1566.93 436.39 1545.91 435.231L1545.86 436.23ZM1480.92 448.954C1503.98 439.643 1525.02 435.081 1545.86 436.23L1545.91 435.231C1524.89 434.072 1503.7 438.68 1480.54 448.026L1480.92 448.954ZM1349.1 524.895C1402.74 490.428 1444.26 463.752 1480.92 448.954L1480.54 448.026C1443.77 462.868 1402.17 489.607 1348.56 524.053L1349.1 524.895ZM1304.55 553.366C1320.31 543.397 1335.12 533.882 1349.1 524.895L1348.56 524.053C1334.57 533.041 1319.77 542.554 1304.02 552.521L1304.55 553.366ZM1260.37 583.575C1275.76 572.682 1290.36 562.348 1304.55 553.366L1304.02 552.521C1289.8 561.519 1275.18 571.869 1259.8 582.759L1260.37 583.575ZM903.579 685.061C1079.04 711.967 1180.27 640.288 1260.37 583.575L1259.8 582.759C1179.73 639.446 1078.78 710.916 903.73 684.073L903.579 685.061ZM666.214 564.053C731.391 615.17 800.297 669.223 903.579 685.061L903.73 684.073C800.737 668.279 732.017 614.391 666.832 563.266L666.214 564.053ZM655.424 555.601C659.013 558.405 662.608 561.224 666.214 564.053L666.832 563.266C663.225 560.437 659.63 557.617 656.04 554.813L655.424 555.601ZM420.476 459.691C520.746 454.412 586.933 502.094 655.424 555.601L656.04 554.813C587.544 501.302 521.095 453.393 420.424 458.692L420.476 459.691ZM313.509 494.455C350.134 476.051 385.976 461.507 420.476 459.691L420.424 458.692C385.703 460.52 349.703 475.148 313.06 493.562L313.509 494.455ZM270.035 517.377C284.616 509.511 299.128 501.682 313.509 494.455L313.06 493.562C298.663 500.797 284.139 508.632 269.56 516.497L270.035 517.377ZM202.451 551.895C224.977 541.684 247.59 529.485 270.035 517.377L269.56 516.497C247.109 528.608 224.527 540.79 202.038 550.984L202.451 551.895ZM91.3132 577.4C127.944 580.371 165.25 568.757 202.451 551.895L202.038 550.984C164.888 567.823 127.77 579.353 91.394 576.403L91.3132 577.4ZM-15.4605 515.676C18.7776 556.818 54.6029 574.423 91.3132 577.4L91.394 576.403C54.9918 573.452 19.4019 556.005 -14.6919 515.036L-15.4605 515.676ZM-16.1002 514.907L-15.4605 515.676L-14.6919 515.036L-15.3315 514.267L-16.1002 514.907ZM-14.4984 512.923L-16.0357 514.203L-15.396 514.971L-13.8587 513.692L-14.4984 512.923ZM-13.1546 513.757L-13.7942 512.988L-14.5629 513.628L-13.9232 514.396L-13.1546 513.757ZM91.5556 574.41C55.7696 571.508 20.6504 554.379 -13.1546 513.757L-13.9232 514.396C20.0262 555.192 55.3807 572.48 91.4748 575.407L91.5556 574.41ZM201.212 549.162C164.163 565.956 127.421 577.318 91.5556 574.41L91.4748 575.407C127.595 578.336 164.525 566.889 201.625 550.073L201.212 549.162ZM268.493 514.799C246.109 526.876 223.667 538.985 201.212 549.162L201.625 550.073C224.116 539.879 246.59 527.753 268.968 515.679L268.493 514.799ZM312.162 491.775C297.646 499.069 283.082 506.927 268.493 514.799L268.968 515.679C283.559 507.806 298.111 499.955 312.611 492.668L312.162 491.775ZM420.319 456.695C385.158 458.546 348.843 473.342 312.162 491.775L312.611 492.668C349.273 474.245 385.431 459.533 420.371 457.694L420.319 456.695ZM657.271 553.237C588.766 499.719 521.793 451.353 420.319 456.695L420.371 457.694C521.444 452.373 588.155 500.511 656.656 554.025L657.271 553.237ZM668.001 561.641C664.417 558.83 660.842 556.026 657.271 553.237L656.656 554.025C660.225 556.814 663.8 559.617 667.384 562.428L668.001 561.641ZM904.034 682.096C801.572 666.383 733.23 612.796 668.001 561.641L667.384 562.428C732.602 613.575 801.132 667.327 903.882 683.084L904.034 682.096ZM1258.54 581.189C1178.49 637.848 1078.22 708.808 904.034 682.096L903.882 683.084C1078.48 709.859 1179.03 638.689 1259.12 582.005L1258.54 581.189ZM1302.95 550.83C1288.64 559.885 1273.96 570.275 1258.54 581.189L1259.12 582.005C1274.54 571.087 1289.2 560.713 1303.48 551.675L1302.95 550.83ZM1347.38 522.435C1333.41 531.409 1318.64 540.899 1302.95 550.83L1303.48 551.675C1319.18 541.742 1333.95 532.25 1347.92 523.276L1347.38 522.435ZM1479.79 446.172C1442.83 461.09 1401.01 487.968 1347.38 522.435L1347.92 523.276C1401.58 488.789 1443.32 461.974 1480.17 447.099L1479.79 446.172ZM1546.02 433.234C1524.62 432.055 1503.13 436.753 1479.79 446.172L1480.17 447.099C1503.41 437.716 1524.76 433.064 1545.97 434.233L1546.02 433.234Z" fill="#282D3E"/>
<path d="M1606.75 484.406L1606.49 484.833L1606.49 484.833L1606.75 484.406ZM1541.61 462.327L1541.64 461.828L1541.64 461.828L1541.61 462.327ZM1607.6 484.928L1608.03 485.189L1608.29 484.762L1607.87 484.501L1607.6 484.928ZM1606.56 486.634L1606.3 487.061L1606.73 487.322L1606.99 486.895L1606.56 486.634ZM1605.71 486.113L1605.45 486.539L1605.45 486.539L1605.71 486.113ZM1541.5 464.324L1541.53 463.825L1541.53 463.825L1541.5 464.324ZM1476.34 477.084L1476.53 477.547L1476.53 477.547L1476.34 477.084ZM1344.45 553.068L1344.72 553.488L1344.72 553.488L1344.45 553.068ZM1299.9 581.537L1299.63 581.114L1299.9 581.537ZM1255.7 611.76L1255.99 612.169L1255.7 611.76ZM662.138 592.253L662.447 591.86L662.138 592.253ZM651.347 583.801L651.655 583.407L651.347 583.801ZM416.065 487.785L416.091 488.285L416.065 487.785ZM308.9 522.602L309.124 523.049L308.9 522.602ZM265.412 545.531L265.65 545.971L265.412 545.531ZM197.86 580.033L197.653 579.578L197.86 580.033ZM86.9687 605.496L86.9283 605.994L86.9687 605.496ZM-19.4611 543.949L-19.0767 543.63L-19.0767 543.63L-19.4611 543.949ZM-20.1007 543.181L-20.4206 542.796L-20.8049 543.116L-20.4851 543.501L-20.1007 543.181ZM-18.5634 541.901L-18.1791 541.582L-18.4989 541.197L-18.8832 541.517L-18.5634 541.901ZM-17.9238 542.67L-17.5394 542.35L-17.5394 542.35L-17.9238 542.67ZM87.1303 603.502L87.0899 604L87.1303 603.502ZM197.034 578.212L197.24 578.667L197.034 578.212ZM264.345 543.833L264.583 544.273L264.345 543.833ZM308.002 520.815L307.777 520.369L308.002 520.815ZM415.96 485.788L415.986 486.287L415.96 485.788ZM652.578 582.225L652.886 581.831L652.578 582.225ZM663.308 590.629L663.616 590.235L663.308 590.629ZM1254.44 610.191L1254.15 609.783L1254.44 610.191ZM1298.83 579.847L1299.1 580.269L1298.83 579.847ZM1343.26 551.449L1343.53 551.87L1343.26 551.449ZM1475.59 475.229L1475.41 474.766L1475.59 475.229ZM1607.01 483.98C1584.25 470.065 1563.05 463.008 1541.64 461.828L1541.58 462.827C1562.8 463.996 1583.84 470.987 1606.49 484.833L1607.01 483.98ZM1607.87 484.501L1607.01 483.98L1606.49 484.833L1607.34 485.354L1607.87 484.501ZM1606.99 486.895L1608.03 485.189L1607.18 484.667L1606.13 486.373L1606.99 486.895ZM1605.45 486.539L1606.3 487.061L1606.82 486.208L1605.97 485.686L1605.45 486.539ZM1541.47 464.824C1562.3 465.972 1583.02 472.831 1605.45 486.539L1605.97 485.686C1583.43 471.909 1562.55 464.984 1541.53 463.825L1541.47 464.824ZM1476.53 477.547C1499.6 468.237 1520.64 463.675 1541.47 464.824L1541.53 463.825C1520.51 462.666 1499.31 467.273 1476.16 476.62L1476.53 477.547ZM1344.72 553.488C1398.35 519.022 1439.87 492.345 1476.53 477.547L1476.16 476.62C1439.39 491.461 1397.78 518.201 1344.18 552.647L1344.72 553.488ZM1300.17 581.959C1315.92 571.99 1330.73 562.475 1344.72 553.488L1344.18 552.647C1330.19 561.634 1315.39 571.148 1299.63 581.114L1300.17 581.959ZM1255.99 612.169C1271.37 601.276 1285.97 590.941 1300.17 581.959L1299.63 581.114C1285.41 590.113 1270.79 600.463 1255.41 611.352L1255.99 612.169ZM899.194 713.655C1074.65 740.561 1175.89 668.882 1255.99 612.169L1255.41 611.352C1175.34 668.04 1074.39 739.51 899.346 712.666L899.194 713.655ZM661.83 592.647C727.006 643.764 795.912 697.816 899.194 713.655L899.346 712.666C796.352 696.872 727.633 642.985 662.447 591.86L661.83 592.647ZM651.039 584.195C654.628 586.999 658.223 589.818 661.83 592.647L662.447 591.86C658.84 589.031 655.245 586.211 651.655 583.407L651.039 584.195ZM416.091 488.285C516.361 483.006 582.548 530.688 651.039 584.195L651.655 583.407C583.159 529.896 516.71 481.986 416.039 487.286L416.091 488.285ZM309.124 523.049C345.749 504.645 381.591 490.101 416.091 488.285L416.039 487.286C381.319 489.114 345.318 503.742 308.675 522.156L309.124 523.049ZM265.65 545.971C280.232 538.104 294.743 530.276 309.124 523.049L308.675 522.156C294.278 529.39 279.754 537.226 265.175 545.091L265.65 545.971ZM198.066 580.489C220.592 570.278 243.205 558.079 265.65 545.971L265.175 545.091C242.724 557.202 220.143 569.384 197.653 579.578L198.066 580.489ZM86.9283 605.994C123.559 608.964 160.865 597.351 198.066 580.489L197.653 579.578C160.503 596.417 123.385 607.947 87.0091 604.997L86.9283 605.994ZM-19.8454 544.269C14.3927 585.412 50.218 603.017 86.9283 605.994L87.0091 604.997C50.6069 602.045 15.017 584.599 -19.0767 543.63L-19.8454 544.269ZM-20.4851 543.501L-19.8454 544.269L-19.0767 543.63L-19.7164 542.861L-20.4851 543.501ZM-18.8832 541.517L-20.4206 542.796L-19.7809 543.565L-18.2436 542.286L-18.8832 541.517ZM-17.5394 542.35L-18.1791 541.582L-18.9477 542.221L-18.3081 542.99L-17.5394 542.35ZM87.1708 603.004C51.3847 600.102 16.2656 582.973 -17.5394 542.35L-18.3081 542.99C15.6413 583.786 50.9958 601.074 87.0899 604L87.1708 603.004ZM196.828 577.756C159.778 594.549 123.037 605.912 87.1708 603.004L87.0899 604C123.211 606.93 160.141 595.483 197.24 578.667L196.828 577.756ZM264.108 543.393C241.724 555.47 219.282 567.578 196.828 577.756L197.24 578.667C219.732 568.472 242.205 556.347 264.583 544.273L264.108 543.393ZM307.777 520.369C293.262 527.663 278.697 535.521 264.108 543.393L264.583 544.273C279.174 536.4 293.726 528.549 308.226 521.262L307.777 520.369ZM415.934 485.289C380.773 487.14 344.458 501.936 307.777 520.369L308.226 521.262C344.888 502.839 381.046 488.127 415.986 486.287L415.934 485.289ZM652.886 581.831C584.381 528.313 517.408 479.947 415.934 485.289L415.986 486.287C517.059 480.967 583.77 529.104 652.271 582.619L652.886 581.831ZM663.616 590.235C660.032 587.424 656.457 584.62 652.886 581.831L652.271 582.619C655.84 585.408 659.415 588.211 662.999 591.022L663.616 590.235ZM899.649 710.689C797.187 694.977 728.845 641.389 663.616 590.235L662.999 591.022C728.218 642.168 796.747 695.921 899.497 711.678L899.649 710.689ZM1254.15 609.783C1174.1 666.442 1073.84 737.401 899.649 710.689L899.497 711.678C1074.1 738.453 1174.64 667.283 1254.73 610.599L1254.15 609.783ZM1298.56 579.424C1284.25 588.479 1269.57 598.868 1254.15 609.783L1254.73 610.599C1270.16 599.681 1284.81 589.307 1299.1 580.269L1298.56 579.424ZM1342.99 551.028C1329.03 560.003 1314.26 569.493 1298.56 579.424L1299.1 580.269C1314.8 570.336 1329.57 560.844 1343.53 551.87L1342.99 551.028ZM1475.41 474.766C1438.45 489.684 1396.63 516.562 1342.99 551.028L1343.53 551.87C1397.2 517.383 1438.93 490.568 1475.78 475.693L1475.41 474.766ZM1541.64 461.828C1520.24 460.648 1498.74 465.346 1475.41 474.766L1475.78 475.693C1499.03 466.31 1520.37 461.657 1541.58 462.827L1541.64 461.828Z" fill="#282D3E"/>
<path d="M1602.37 513L1602.11 513.427L1602.11 513.427L1602.37 513ZM1537.23 490.921L1537.25 490.422L1537.25 490.422L1537.23 490.921ZM1603.22 513.522L1603.65 513.782L1603.91 513.356L1603.48 513.095L1603.22 513.522ZM1602.18 515.228L1601.92 515.655L1602.34 515.915L1602.6 515.489L1602.18 515.228ZM1601.32 514.706L1601.06 515.133L1601.06 515.133L1601.32 514.706ZM1537.12 492.918L1537.14 492.419L1537.14 492.419L1537.12 492.918ZM1471.96 505.678L1472.15 506.141L1472.15 506.141L1471.96 505.678ZM1340.06 581.661L1340.33 582.082L1340.33 582.082L1340.06 581.661ZM1295.52 610.131L1295.25 609.708L1295.52 610.131ZM1251.32 640.354L1251.6 640.762L1251.32 640.354ZM657.753 620.847L658.062 620.453L657.753 620.847ZM646.962 612.395L647.27 612.001L646.962 612.395ZM411.68 516.379L411.707 516.878L411.68 516.379ZM304.515 551.196L304.739 551.643L304.515 551.196ZM261.028 574.125L261.265 574.565L261.028 574.125ZM193.475 608.627L193.268 608.172L193.475 608.627ZM82.5838 634.089L82.5434 634.588L82.5838 634.089ZM-23.8459 572.543L-23.4616 572.223L-23.4616 572.223L-23.8459 572.543ZM-24.4856 571.775L-24.8054 571.39L-25.1898 571.71L-24.8699 572.094L-24.4856 571.775ZM-22.9483 570.495L-22.564 570.175L-22.8838 569.791L-23.2681 570.111L-22.9483 570.495ZM-22.3086 571.264L-21.9243 570.944L-21.9243 570.944L-22.3086 571.264ZM82.7455 632.096L82.7051 632.594L82.7455 632.096ZM192.649 606.805L192.856 607.261L192.649 606.805ZM259.96 572.427L260.198 572.867L259.96 572.427ZM303.617 549.409L303.392 548.962L303.617 549.409ZM411.575 514.382L411.601 514.881L411.575 514.382ZM648.194 610.819L648.501 610.425L648.194 610.819ZM658.923 619.222L659.232 618.829L658.923 619.222ZM1250.06 638.785L1249.77 638.376L1250.06 638.785ZM1294.45 608.44L1294.71 608.863L1294.45 608.44ZM1338.88 580.043L1339.15 580.463L1338.88 580.043ZM1471.21 503.823L1471.02 503.359L1471.21 503.823ZM1602.63 512.573C1579.87 498.659 1558.66 491.602 1537.25 490.422L1537.2 491.42C1558.41 492.59 1579.46 499.581 1602.11 513.427L1602.63 512.573ZM1603.48 513.095L1602.63 512.573L1602.11 513.427L1602.96 513.948L1603.48 513.095ZM1602.6 515.489L1603.65 513.782L1602.79 513.261L1601.75 514.967L1602.6 515.489ZM1601.06 515.133L1601.92 515.655L1602.44 514.801L1601.58 514.28L1601.06 515.133ZM1537.09 493.417C1557.91 494.565 1578.64 501.425 1601.06 515.133L1601.58 514.28C1579.05 500.503 1558.16 493.578 1537.14 492.419L1537.09 493.417ZM1472.15 506.141C1495.21 496.831 1516.25 492.269 1537.09 493.417L1537.14 492.419C1516.12 491.26 1494.93 495.867 1471.77 505.214L1472.15 506.141ZM1340.33 582.082C1393.97 547.616 1435.49 520.939 1472.15 506.141L1471.77 505.214C1435 520.055 1393.4 546.794 1339.79 581.241L1340.33 582.082ZM1295.78 610.553C1311.54 600.584 1326.35 591.069 1340.33 582.082L1339.79 581.241C1325.8 590.228 1311 599.741 1295.25 609.708L1295.78 610.553ZM1251.6 640.762C1266.99 629.87 1281.59 619.535 1295.78 610.553L1295.25 609.708C1281.03 618.707 1266.41 629.057 1251.03 639.946L1251.6 640.762ZM894.809 742.249C1070.27 769.155 1171.5 697.475 1251.6 640.762L1251.03 639.946C1170.96 696.634 1070.01 768.104 894.961 741.26L894.809 742.249ZM657.445 621.24C722.621 672.358 791.527 726.41 894.809 742.249L894.961 741.26C791.967 725.466 723.248 671.579 658.062 620.453L657.445 621.24ZM646.655 612.789C650.243 615.592 653.838 618.412 657.445 621.24L658.062 620.453C654.456 617.625 650.86 614.805 647.27 612.001L646.655 612.789ZM411.707 516.878C511.976 511.6 578.164 559.282 646.655 612.789L647.27 612.001C578.774 558.49 512.325 510.58 411.654 515.88L411.707 516.878ZM304.739 551.643C341.364 533.238 377.206 518.694 411.707 516.878L411.654 515.88C376.934 517.707 340.934 532.335 304.29 550.749L304.739 551.643ZM261.265 574.565C275.847 566.698 290.358 558.87 304.739 551.643L304.29 550.749C289.894 557.984 275.37 565.819 260.79 573.685L261.265 574.565ZM193.681 609.082C216.208 598.872 238.82 586.673 261.265 574.565L260.79 573.685C238.339 585.796 215.758 597.978 193.268 608.172L193.681 609.082ZM82.5434 634.588C119.174 637.558 156.48 625.944 193.681 609.082L193.268 608.172C156.118 625.011 119 636.541 82.6242 633.591L82.5434 634.588ZM-24.2303 572.863C10.0078 614.006 45.8331 631.611 82.5434 634.588L82.6242 633.591C46.2221 630.639 10.6321 613.193 -23.4616 572.223L-24.2303 572.863ZM-24.8699 572.094L-24.2303 572.863L-23.4616 572.223L-24.1013 571.455L-24.8699 572.094ZM-23.2681 570.111L-24.8054 571.39L-24.1658 572.159L-22.6285 570.88L-23.2681 570.111ZM-21.9243 570.944L-22.564 570.175L-23.3326 570.815L-22.693 571.584L-21.9243 570.944ZM82.7859 631.597C46.9999 628.696 11.8807 611.566 -21.9243 570.944L-22.693 571.584C11.2564 612.38 46.611 629.667 82.7051 632.594L82.7859 631.597ZM192.443 606.35C155.394 623.143 118.652 634.506 82.7859 631.597L82.7051 632.594C118.826 635.523 155.756 624.077 192.856 607.261L192.443 606.35ZM259.723 571.987C237.339 584.064 214.897 596.172 192.443 606.35L192.856 607.261C215.347 597.066 237.82 584.941 260.198 572.867L259.723 571.987ZM303.392 548.962C288.877 556.257 274.312 564.115 259.723 571.987L260.198 572.867C274.79 564.994 289.341 557.143 303.841 549.856L303.392 548.962ZM411.549 513.882C376.388 515.733 340.073 530.53 303.392 548.962L303.841 549.856C340.503 531.433 376.661 516.72 411.601 514.881L411.549 513.882ZM648.501 610.425C579.996 556.906 513.024 508.541 411.549 513.882L411.601 514.881C512.674 509.56 579.385 557.698 647.886 611.213L648.501 610.425ZM659.232 618.829C655.647 616.018 652.072 613.214 648.501 610.425L647.886 611.213C651.456 614.001 655.03 616.805 658.615 619.616L659.232 618.829ZM895.264 739.283C792.802 723.571 724.46 669.983 659.232 618.829L658.615 619.616C723.833 670.762 792.362 724.515 895.112 740.272L895.264 739.283ZM1249.77 638.376C1169.72 695.035 1069.45 765.995 895.264 739.283L895.112 740.272C1069.71 767.047 1170.26 695.877 1250.35 639.193L1249.77 638.376ZM1294.18 608.018C1279.87 617.072 1265.19 627.462 1249.77 638.376L1250.35 639.193C1265.77 628.275 1280.43 617.901 1294.71 608.863L1294.18 608.018ZM1338.61 579.622C1324.64 588.597 1309.87 598.087 1294.18 608.018L1294.71 608.863C1310.41 598.93 1325.18 589.438 1339.15 580.463L1338.61 579.622ZM1471.02 503.359C1434.06 518.278 1392.24 545.156 1338.61 579.622L1339.15 580.463C1392.81 545.977 1434.55 519.162 1471.4 504.287L1471.02 503.359ZM1537.25 490.422C1515.85 489.242 1494.36 493.94 1471.02 503.359L1471.4 504.287C1494.64 494.904 1515.99 490.251 1537.2 491.42L1537.25 490.422Z" fill="#282D3E"/>
<path d="M1597.98 541.594L1597.72 542.02L1597.72 542.02L1597.98 541.594ZM1532.84 519.515L1532.87 519.016L1532.87 519.016L1532.84 519.515ZM1598.83 542.115L1599.26 542.376L1599.52 541.949L1599.1 541.689L1598.83 542.115ZM1597.79 543.822L1597.53 544.248L1597.96 544.509L1598.22 544.082L1597.79 543.822ZM1596.94 543.3L1596.68 543.727L1596.68 543.727L1596.94 543.3ZM1532.73 521.512L1532.76 521.013L1532.76 521.013L1532.73 521.512ZM1467.57 534.271L1467.76 534.735L1467.76 534.735L1467.57 534.271ZM1335.68 610.255L1335.95 610.676L1335.95 610.676L1335.68 610.255ZM1291.13 638.724L1290.86 638.302L1291.13 638.724ZM1246.93 668.948L1247.22 669.356L1246.93 668.948ZM653.368 649.441L653.677 649.047L653.368 649.441ZM642.578 640.988L642.885 640.594L642.578 640.988ZM407.295 544.973L407.322 545.472L407.295 544.973ZM300.13 579.79L300.355 580.237L300.13 579.79ZM256.643 602.718L256.88 603.158L256.643 602.718ZM189.09 637.221L188.883 636.765L189.09 637.221ZM78.1989 662.683L78.1585 663.181L78.1989 662.683ZM-28.2308 601.137L-27.8465 600.817L-27.8465 600.817L-28.2308 601.137ZM-28.8705 600.368L-29.1903 599.984L-29.5746 600.304L-29.2548 600.688L-28.8705 600.368ZM-27.3332 599.089L-26.9488 598.769L-27.2687 598.385L-27.653 598.705L-27.3332 599.089ZM-26.6935 599.858L-26.3092 599.538L-26.3092 599.538L-26.6935 599.858ZM78.3606 660.69L78.3202 661.188L78.3606 660.69ZM188.264 635.399L188.471 635.855L188.264 635.399ZM255.576 601.02L255.813 601.46L255.576 601.02ZM299.232 578.003L299.008 577.556L299.232 578.003ZM407.19 542.975L407.217 543.475L407.19 542.975ZM643.809 639.412L644.117 639.018L643.809 639.412ZM654.538 647.816L654.847 647.423L654.538 647.816ZM1245.67 667.378L1245.38 666.97L1245.67 667.378ZM1290.06 637.034L1290.33 637.457L1290.06 637.034ZM1334.49 608.637L1334.76 609.057L1334.49 608.637ZM1466.82 532.417L1466.64 531.953L1466.82 532.417ZM1598.24 541.167C1575.48 527.253 1554.28 520.196 1532.87 519.016L1532.81 520.014C1554.03 521.184 1575.07 528.175 1597.72 542.02L1598.24 541.167ZM1599.1 541.689L1598.24 541.167L1597.72 542.02L1598.57 542.542L1599.1 541.689ZM1598.22 544.082L1599.26 542.376L1598.41 541.854L1597.36 543.561L1598.22 544.082ZM1596.68 543.727L1597.53 544.248L1598.05 543.395L1597.2 542.873L1596.68 543.727ZM1532.7 522.011C1553.53 523.159 1574.25 530.018 1596.68 543.727L1597.2 542.873C1574.66 529.097 1553.78 522.171 1532.76 521.013L1532.7 522.011ZM1467.76 534.735C1490.83 525.424 1511.87 520.863 1532.7 522.011L1532.76 521.013C1511.74 519.854 1490.54 524.461 1467.39 533.808L1467.76 534.735ZM1335.95 610.676C1389.58 576.209 1431.1 549.533 1467.76 534.735L1467.39 533.808C1430.62 548.649 1389.01 575.388 1335.41 609.835L1335.95 610.676ZM1291.4 639.147C1307.15 629.178 1321.96 619.663 1335.95 610.676L1335.41 609.835C1321.42 618.822 1306.62 628.335 1290.86 638.302L1291.4 639.147ZM1247.22 669.356C1262.6 658.463 1277.2 648.129 1291.4 639.147L1290.86 638.302C1276.64 647.3 1262.02 657.651 1246.64 668.54L1247.22 669.356ZM890.424 770.842C1065.88 797.749 1167.12 726.069 1247.22 669.356L1246.64 668.54C1166.57 725.228 1065.62 796.697 890.576 769.854L890.424 770.842ZM653.06 649.834C718.236 700.951 787.142 755.004 890.424 770.842L890.576 769.854C787.582 754.06 718.863 700.172 653.677 649.047L653.06 649.834ZM642.27 641.382C645.859 644.186 649.453 647.006 653.06 649.834L653.677 649.047C650.071 646.219 646.475 643.399 642.885 640.594L642.27 641.382ZM407.322 545.472C507.591 540.194 573.779 587.875 642.27 641.382L642.885 640.594C574.39 587.084 507.94 539.174 407.269 544.473L407.322 545.472ZM300.355 580.237C336.979 561.832 372.822 547.288 407.322 545.472L407.269 544.473C372.549 546.301 336.549 560.929 299.906 579.343L300.355 580.237ZM256.88 603.158C271.462 595.292 285.973 587.464 300.355 580.237L299.906 579.343C285.509 586.578 270.985 594.413 256.405 602.278L256.88 603.158ZM189.296 637.676C211.823 627.466 234.435 615.267 256.88 603.158L256.405 602.278C233.954 614.39 211.373 626.572 188.883 636.765L189.296 637.676ZM78.1585 663.181C114.789 666.152 152.095 654.538 189.296 637.676L188.883 636.765C151.733 653.604 114.615 665.134 78.2394 662.185L78.1585 663.181ZM-28.6151 601.457C5.62296 642.6 41.4483 660.205 78.1585 663.181L78.2394 662.185C41.8372 659.233 6.24726 641.787 -27.8465 600.817L-28.6151 601.457ZM-29.2548 600.688L-28.6151 601.457L-27.8465 600.817L-28.4862 600.048L-29.2548 600.688ZM-27.653 598.705L-29.1903 599.984L-28.5506 600.753L-27.0133 599.473L-27.653 598.705ZM-26.3092 599.538L-26.9488 598.769L-27.7175 599.409L-27.0778 600.177L-26.3092 599.538ZM78.401 660.191C42.615 657.289 7.49582 640.16 -26.3092 599.538L-27.0778 600.177C6.87155 640.973 42.2261 658.261 78.3202 661.188L78.401 660.191ZM188.058 634.944C151.009 651.737 114.267 663.1 78.401 660.191L78.3202 661.188C114.441 664.117 151.371 652.671 188.471 635.855L188.058 634.944ZM255.338 600.58C232.954 612.657 210.512 624.766 188.058 634.944L188.471 635.855C210.962 625.66 233.435 613.534 255.813 601.46L255.338 600.58ZM299.008 577.556C284.492 584.851 269.928 592.709 255.338 600.58L255.813 601.46C270.405 593.588 284.956 585.736 299.457 578.45L299.008 577.556ZM407.164 542.476C372.003 544.327 335.688 559.123 299.008 577.556L299.457 578.45C336.118 560.026 372.276 545.314 407.217 543.475L407.164 542.476ZM644.117 639.018C575.611 585.5 508.639 537.134 407.164 542.476L407.217 543.475C508.29 538.154 575 586.292 643.501 639.806L644.117 639.018ZM654.847 647.423C651.262 644.612 647.687 641.808 644.117 639.018L643.501 639.806C647.071 642.595 650.645 645.398 654.23 648.209L654.847 647.423ZM890.879 767.877C788.418 752.164 720.075 698.577 654.847 647.423L654.23 648.209C719.448 699.356 787.977 753.109 890.727 768.865L890.879 767.877ZM1245.38 666.97C1165.33 723.629 1065.07 794.589 890.879 767.877L890.727 768.865C1065.33 795.64 1165.87 724.471 1245.96 667.786L1245.38 666.97ZM1289.79 636.612C1275.48 645.666 1260.8 656.056 1245.38 666.97L1245.96 667.786C1261.39 656.869 1276.04 646.495 1290.33 637.457L1289.79 636.612ZM1334.22 608.216C1320.26 617.19 1305.49 626.681 1289.79 636.612L1290.33 637.457C1306.03 627.524 1320.8 618.031 1334.76 609.057L1334.22 608.216ZM1466.64 531.953C1429.68 546.871 1387.86 573.749 1334.22 608.216L1334.76 609.057C1388.43 574.571 1430.16 547.755 1467.01 532.88L1466.64 531.953ZM1532.87 519.016C1511.47 517.836 1489.97 522.534 1466.64 531.953L1467.01 532.88C1490.26 523.497 1511.6 518.845 1532.81 520.014L1532.87 519.016Z" fill="#282D3E"/>
<path d="M1593.6 570.187L1593.34 570.614L1593.34 570.614L1593.6 570.187ZM1528.46 548.109L1528.48 547.609L1528.48 547.609L1528.46 548.109ZM1594.45 570.709L1594.88 570.97L1595.14 570.543L1594.71 570.282L1594.45 570.709ZM1593.41 572.415L1593.15 572.842L1593.57 573.103L1593.83 572.676L1593.41 572.415ZM1592.55 571.894L1592.29 572.32L1592.29 572.32L1592.55 571.894ZM1528.35 550.106L1528.37 549.606L1528.37 549.606L1528.35 550.106ZM1463.19 562.865L1463.38 563.329L1463.38 563.329L1463.19 562.865ZM1331.29 638.849L1331.56 639.27L1331.56 639.27L1331.29 638.849ZM1286.75 667.318L1286.48 666.896L1286.75 667.318ZM1242.55 697.542L1242.83 697.95L1242.55 697.542ZM648.983 678.034L649.292 677.641L648.983 678.034ZM638.193 669.582L638.5 669.188L638.193 669.582ZM402.911 573.566L402.937 574.066L402.911 573.566ZM295.745 608.384L295.97 608.83L295.745 608.384ZM252.258 631.312L252.495 631.752L252.258 631.312ZM184.705 665.814L184.499 665.359L184.705 665.814ZM73.8141 691.277L73.7737 691.775L73.8141 691.277ZM-32.6157 629.731L-32.2313 629.411L-32.2313 629.411L-32.6157 629.731ZM-33.2553 628.962L-33.5752 628.578L-33.9595 628.898L-33.6397 629.282L-33.2553 628.962ZM-31.718 627.683L-31.3337 627.363L-31.6535 626.979L-32.0378 627.298L-31.718 627.683ZM-31.0784 628.451L-30.694 628.132L-30.694 628.132L-31.0784 628.451ZM73.9757 689.283L73.9353 689.782L73.9757 689.283ZM183.879 663.993L184.086 664.448L183.879 663.993ZM251.191 629.614L251.428 630.054L251.191 629.614ZM294.847 606.597L294.623 606.15L294.847 606.597ZM402.805 571.569L402.832 572.069L402.805 571.569ZM639.424 668.006L639.732 667.612L639.424 668.006ZM650.153 676.41L650.462 676.016L650.153 676.41ZM1241.29 695.972L1241 695.564L1241.29 695.972ZM1285.68 665.628L1285.94 666.05L1285.68 665.628ZM1330.11 637.23L1330.38 637.651L1330.11 637.23ZM1462.44 561.01L1462.25 560.547L1462.44 561.01ZM1593.86 569.761C1571.1 555.847 1549.89 548.79 1528.48 547.609L1528.43 548.608C1549.64 549.777 1570.69 556.768 1593.34 570.614L1593.86 569.761ZM1594.71 570.282L1593.86 569.761L1593.34 570.614L1594.19 571.136L1594.71 570.282ZM1593.83 572.676L1594.88 570.97L1594.02 570.448L1592.98 572.155L1593.83 572.676ZM1592.29 572.32L1593.15 572.842L1593.67 571.989L1592.81 571.467L1592.29 572.32ZM1528.32 550.605C1549.14 551.753 1569.87 558.612 1592.29 572.32L1592.81 571.467C1570.28 557.69 1549.39 550.765 1528.37 549.606L1528.32 550.605ZM1463.38 563.329C1486.44 554.018 1507.49 549.456 1528.32 550.605L1528.37 549.606C1507.35 548.447 1486.16 553.055 1463 562.401L1463.38 563.329ZM1331.56 639.27C1385.2 604.803 1426.72 578.127 1463.38 563.329L1463 562.401C1426.23 577.243 1384.63 603.982 1331.02 638.428L1331.56 639.27ZM1287.01 667.741C1302.77 657.772 1317.58 648.257 1331.56 639.27L1331.02 638.428C1317.04 647.416 1302.23 656.929 1286.48 666.896L1287.01 667.741ZM1242.83 697.95C1258.22 687.057 1272.82 676.723 1287.01 667.741L1286.48 666.896C1272.26 675.894 1257.64 686.244 1242.26 697.134L1242.83 697.95ZM886.039 799.436C1061.5 826.342 1162.73 754.663 1242.83 697.95L1242.26 697.134C1162.19 753.821 1061.24 825.291 886.191 798.448L886.039 799.436ZM648.675 678.428C713.851 729.545 782.757 783.598 886.039 799.436L886.191 798.448C783.198 782.654 714.478 728.766 649.292 677.641L648.675 678.428ZM637.885 669.976C641.474 672.78 645.068 675.599 648.675 678.428L649.292 677.641C645.686 674.812 642.09 671.992 638.5 669.188L637.885 669.976ZM402.937 574.066C503.206 568.787 569.394 616.469 637.885 669.976L638.5 669.188C570.005 615.677 503.556 567.768 402.884 573.067L402.937 574.066ZM295.97 608.83C332.594 590.426 368.437 575.882 402.937 574.066L402.884 573.067C368.164 574.895 332.164 589.523 295.521 607.937L295.97 608.83ZM252.495 631.752C267.077 623.886 281.588 616.057 295.97 608.83L295.521 607.937C281.124 615.172 266.6 623.007 252.02 630.872L252.495 631.752ZM184.911 666.27C207.438 656.059 230.05 643.86 252.495 631.752L252.02 630.872C229.57 642.983 206.988 655.165 184.499 665.359L184.911 666.27ZM73.7737 691.775C110.404 694.746 147.71 683.132 184.911 666.27L184.499 665.359C147.348 682.198 110.23 693.728 73.8545 690.778L73.7737 691.775ZM-33 630.051C1.23811 671.193 37.0634 688.798 73.7737 691.775L73.8545 690.778C37.4523 687.827 1.8624 670.38 -32.2313 629.411L-33 630.051ZM-33.6397 629.282L-33 630.051L-32.2313 629.411L-32.871 628.642L-33.6397 629.282ZM-32.0378 627.298L-33.5752 628.578L-32.9355 629.346L-31.3982 628.067L-32.0378 627.298ZM-30.694 628.132L-31.3337 627.363L-32.1023 628.003L-31.4627 628.771L-30.694 628.132ZM74.0162 688.785C38.2301 685.883 3.11096 668.754 -30.694 628.132L-31.4627 628.771C2.48669 669.567 37.8412 686.855 73.9353 689.782L74.0162 688.785ZM183.673 663.537C146.624 680.331 109.882 691.693 74.0162 688.785L73.9353 689.782C110.056 692.711 146.986 681.264 184.086 664.448L183.673 663.537ZM250.953 629.174C228.569 641.251 206.127 653.36 183.673 663.537L184.086 664.448C206.577 654.254 229.05 642.128 251.428 630.054L250.953 629.174ZM294.623 606.15C280.107 613.444 265.543 621.302 250.953 629.174L251.428 630.054C266.02 622.181 280.571 614.33 295.072 607.043L294.623 606.15ZM402.779 571.07C367.618 572.921 331.303 587.717 294.623 606.15L295.072 607.043C331.734 588.62 367.891 573.908 402.832 572.069L402.779 571.07ZM639.732 667.612C571.227 614.094 504.254 565.728 402.779 571.07L402.832 572.069C503.905 566.748 570.616 614.886 639.116 668.4L639.732 667.612ZM650.462 676.016C646.877 673.205 643.302 670.401 639.732 667.612L639.116 668.4C642.686 671.189 646.26 673.992 649.845 676.803L650.462 676.016ZM886.494 796.471C784.033 780.758 715.69 727.171 650.462 676.016L649.845 676.803C715.063 727.95 783.592 781.702 886.343 797.459L886.494 796.471ZM1241 695.564C1160.95 752.223 1060.68 823.183 886.494 796.471L886.343 797.459C1060.94 824.234 1161.49 753.064 1241.58 696.38L1241 695.564ZM1285.41 665.205C1271.1 674.26 1256.42 684.65 1241 695.564L1241.58 696.38C1257 685.462 1271.66 675.088 1285.94 666.05L1285.41 665.205ZM1329.84 636.81C1315.87 645.784 1301.1 655.274 1285.41 665.205L1285.94 666.05C1301.64 656.117 1316.41 646.625 1330.38 637.651L1329.84 636.81ZM1462.25 560.547C1425.29 575.465 1383.47 602.343 1329.84 636.81L1330.38 637.651C1384.04 603.164 1425.78 576.349 1462.63 561.474L1462.25 560.547ZM1528.48 547.609C1507.08 546.43 1485.59 551.128 1462.25 560.547L1462.63 561.474C1485.87 552.091 1507.22 547.439 1528.43 548.608L1528.48 547.609Z" fill="#282D3E"/>
<path d="M1589.21 598.781L1588.95 599.208L1588.95 599.208L1589.21 598.781ZM1524.07 576.702L1524.1 576.203L1524.1 576.203L1524.07 576.702ZM1590.06 599.303L1590.49 599.564L1590.75 599.137L1590.33 598.876L1590.06 599.303ZM1589.02 601.009L1588.76 601.436L1589.19 601.697L1589.45 601.27L1589.02 601.009ZM1588.17 600.488L1587.91 600.914L1587.91 600.914L1588.17 600.488ZM1523.96 578.699L1523.99 578.2L1523.99 578.2L1523.96 578.699ZM1458.8 591.459L1458.99 591.922L1458.99 591.922L1458.8 591.459ZM1326.91 667.443L1327.18 667.863L1327.18 667.863L1326.91 667.443ZM1282.36 695.912L1282.09 695.489L1282.36 695.912ZM1238.16 726.135L1238.45 726.544L1238.16 726.135ZM644.599 706.628L644.907 706.235L644.599 706.628ZM633.808 698.176L634.116 697.782L633.808 698.176ZM398.526 602.16L398.552 602.66L398.526 602.16ZM291.36 636.977L291.585 637.424L291.36 636.977ZM247.873 659.906L248.11 660.346L247.873 659.906ZM180.32 694.408L180.114 693.953L180.32 694.408ZM69.4292 719.871L69.3888 720.369L69.4292 719.871ZM-37.0005 658.324L-36.6162 658.005L-36.6162 658.005L-37.0005 658.324ZM-37.6402 657.556L-37.96 657.171L-38.3444 657.491L-38.0245 657.876L-37.6402 657.556ZM-36.1029 656.276L-35.7186 655.957L-36.0384 655.572L-36.4227 655.892L-36.1029 656.276ZM-35.4632 657.045L-35.0789 656.725L-35.0789 656.725L-35.4632 657.045ZM69.5909 717.877L69.5505 718.375L69.5909 717.877ZM179.495 692.587L179.701 693.042L179.495 692.587ZM246.806 658.208L247.043 658.648L246.806 658.208ZM290.462 635.19L290.238 634.744L290.462 635.19ZM398.421 600.163L398.447 600.662L398.421 600.163ZM635.039 696.6L635.347 696.206L635.039 696.6ZM645.768 705.004L646.077 704.61L645.768 705.004ZM1236.9 724.566L1236.61 724.158L1236.9 724.566ZM1281.29 694.222L1281.56 694.644L1281.29 694.222ZM1325.72 665.824L1325.99 666.245L1325.72 665.824ZM1458.05 589.604L1457.87 589.141L1458.05 589.604ZM1589.47 598.355C1566.71 584.44 1545.51 577.383 1524.1 576.203L1524.04 577.202C1545.26 578.371 1566.3 585.362 1588.95 599.208L1589.47 598.355ZM1590.33 598.876L1589.47 598.355L1588.95 599.208L1589.8 599.729L1590.33 598.876ZM1589.45 601.27L1590.49 599.564L1589.64 599.042L1588.6 600.748L1589.45 601.27ZM1587.91 600.914L1588.76 601.436L1589.28 600.583L1588.43 600.061L1587.91 600.914ZM1523.93 579.199C1544.76 580.347 1565.48 587.206 1587.91 600.914L1588.43 600.061C1565.89 586.284 1545.01 579.359 1523.99 578.2L1523.93 579.199ZM1458.99 591.922C1482.06 582.612 1503.1 578.05 1523.93 579.199L1523.99 578.2C1502.97 577.041 1481.77 581.648 1458.62 590.995L1458.99 591.922ZM1327.18 667.863C1380.81 633.397 1422.33 606.72 1458.99 591.922L1458.62 590.995C1421.85 605.836 1380.24 632.576 1326.64 667.022L1327.18 667.863ZM1282.63 696.334C1298.38 686.365 1313.19 676.85 1327.18 667.863L1326.64 667.022C1312.65 676.009 1297.85 685.523 1282.09 695.489L1282.63 696.334ZM1238.45 726.544C1253.84 715.651 1268.43 705.316 1282.63 696.334L1282.09 695.489C1267.87 704.488 1253.25 714.838 1237.87 725.727L1238.45 726.544ZM881.655 828.03C1057.11 854.936 1158.35 783.257 1238.45 726.544L1237.87 725.727C1157.8 782.415 1056.85 853.885 881.806 827.041L881.655 828.03ZM644.29 707.022C709.466 758.139 778.373 812.191 881.655 828.03L881.806 827.041C778.813 811.247 710.093 757.36 644.907 706.235L644.29 707.022ZM633.5 698.57C637.089 701.374 640.684 704.193 644.29 707.022L644.907 706.235C641.301 703.406 637.705 700.586 634.116 697.782L633.5 698.57ZM398.552 602.66C498.822 597.381 565.009 645.063 633.5 698.57L634.116 697.782C565.62 644.271 499.171 596.361 398.499 601.661L398.552 602.66ZM291.585 637.424C328.209 619.02 364.052 604.476 398.552 602.66L398.499 601.661C363.779 603.489 327.779 618.117 291.136 636.531L291.585 637.424ZM248.11 660.346C262.692 652.479 277.203 644.651 291.585 637.424L291.136 636.531C276.739 643.765 262.215 651.601 247.636 659.466L248.11 660.346ZM180.527 694.864C203.053 684.653 225.665 672.454 248.11 660.346L247.636 659.466C225.185 671.577 202.603 683.759 180.114 693.953L180.527 694.864ZM69.3888 720.369C106.019 723.339 143.325 711.726 180.527 694.864L180.114 693.953C142.963 710.792 105.845 722.322 69.4696 719.372L69.3888 720.369ZM-37.3849 658.644C-3.14677 699.787 32.6785 717.392 69.3888 720.369L69.4696 719.372C33.0675 716.42 -2.52247 698.974 -36.6162 658.005L-37.3849 658.644ZM-38.0245 657.876L-37.3849 658.644L-36.6162 658.005L-37.2559 657.236L-38.0245 657.876ZM-36.4227 655.892L-37.96 657.171L-37.3204 657.94L-35.7831 656.661L-36.4227 655.892ZM-35.0789 656.725L-35.7186 655.957L-36.4872 656.596L-35.8476 657.365L-35.0789 656.725ZM69.6313 717.379C33.8453 714.477 -1.27391 697.348 -35.0789 656.725L-35.8476 657.365C-1.89818 698.161 33.4564 715.449 69.5505 718.375L69.6313 717.379ZM179.288 692.131C142.239 708.924 105.497 720.287 69.6313 717.379L69.5505 718.375C105.671 721.305 142.601 709.858 179.701 693.042L179.288 692.131ZM246.568 657.768C224.185 669.845 201.742 681.953 179.288 692.131L179.701 693.042C202.192 682.847 224.665 670.722 247.043 658.648L246.568 657.768ZM290.238 634.744C275.722 642.038 261.158 649.896 246.568 657.768L247.043 658.648C261.635 650.775 276.186 642.924 290.687 635.637L290.238 634.744ZM398.394 599.664C363.234 601.515 326.918 616.311 290.238 634.744L290.687 635.637C327.349 617.214 363.506 602.502 398.447 600.662L398.394 599.664ZM635.347 696.206C566.842 642.688 499.869 594.322 398.394 599.664L398.447 600.662C499.52 595.342 566.231 643.479 634.731 696.994L635.347 696.206ZM646.077 704.61C642.493 701.799 638.917 698.995 635.347 696.206L634.731 696.994C638.301 699.783 641.875 702.586 645.46 705.397L646.077 704.61ZM882.109 825.064C779.648 809.352 711.305 755.764 646.077 704.61L645.46 705.397C710.678 756.543 779.208 810.296 881.958 826.053L882.109 825.064ZM1236.61 724.158C1156.56 780.817 1056.3 851.776 882.109 825.064L881.958 826.053C1056.56 852.828 1157.1 781.658 1237.19 724.974L1236.61 724.158ZM1281.02 693.799C1266.71 702.854 1252.03 713.243 1236.61 724.158L1237.19 724.974C1252.62 714.056 1267.27 703.682 1281.56 694.644L1281.02 693.799ZM1325.45 665.403C1311.49 674.378 1296.72 683.868 1281.02 693.799L1281.56 694.644C1297.26 684.711 1312.03 675.219 1325.99 666.245L1325.45 665.403ZM1457.87 589.141C1420.91 604.059 1379.09 630.937 1325.45 665.403L1325.99 666.245C1379.66 631.758 1421.39 604.943 1458.24 590.068L1457.87 589.141ZM1524.1 576.203C1502.7 575.023 1481.2 579.721 1457.87 589.141L1458.24 590.068C1481.49 580.685 1502.83 576.032 1524.04 577.202L1524.1 576.203Z" fill="#282D3E"/>
</svg>