<svg width="1600" height="499" viewBox="0 0 1600 499" fill="none" xmlns="http://www.w3.org/2000/svg">
<path d="M-59.2994 99.0328L-58.8448 99.241L-58.8448 99.241L-59.2994 99.0328ZM-17.9451 31.4331L-17.5773 31.7718L-17.9451 31.4331ZM-59.716 99.9419L-59.9242 100.396L-60.3788 100.188L-60.1705 99.7336L-59.716 99.9419ZM-57.8977 100.775L-57.443 100.983L-57.6513 101.438L-58.1059 101.23L-57.8977 100.775ZM-57.4811 99.8658L-57.0265 100.074L-57.0265 100.074L-57.4811 99.8658ZM-16.4741 32.7881L-16.8419 32.4493L-16.8419 32.4493L-16.4741 32.7881ZM33.3191 5.77622L33.3647 6.27414L33.3647 6.27414L33.3191 5.77622ZM99.9914 24.5091L99.7461 24.9448L99.9914 24.5091ZM191.428 95.5918L191.087 95.957L191.428 95.5918ZM232.166 136.514L232.526 136.168L232.166 136.514ZM864.729 235.381L864.959 235.825L864.959 235.825L864.729 235.381ZM877.859 228.602L878.088 229.047L877.859 228.602ZM1146.47 174.28L1146.35 174.766L1146.47 174.28ZM1253 232.758L1252.7 233.155L1253 232.758ZM1294.45 265.808L1294.77 265.42L1294.45 265.808ZM1359.05 315.954L1358.76 316.363L1359.05 315.954ZM1471.35 365.245L1471.29 365.742L1471.35 365.245ZM1596.42 321.506L1596.1 321.12L1596.1 321.12L1596.42 321.506ZM1597.19 320.871L1597.58 320.553L1597.9 320.939L1597.51 321.257L1597.19 320.871ZM1595.92 319.327L1595.6 318.941L1595.99 318.623L1596.31 319.009L1595.92 319.327ZM1595.15 319.962L1594.83 319.576L1594.83 319.576L1595.15 319.962ZM1471.56 363.257L1471.61 362.759L1471.61 362.759L1471.56 363.257ZM1360.2 314.318L1360.49 313.91L1360.2 314.318ZM1295.82 264.339L1296.14 263.951L1295.82 264.339ZM1254.22 231.17L1253.92 231.567L1254.22 231.17ZM1146.95 172.338L1147.07 171.852L1146.95 172.338ZM876.944 226.824L877.172 227.269L876.944 226.824ZM863.883 233.566L864.113 234.01L863.883 233.566ZM233.695 135.207L233.335 135.554L233.695 135.207ZM192.795 94.1312L193.136 93.7661L193.136 93.7661L192.795 94.1312ZM100.972 22.7663L101.218 22.3306L100.972 22.7663ZM33.1369 3.78453L33.0914 3.28661L33.0914 3.28661L33.1369 3.78453ZM-59.754 98.8245C-46.7057 70.3438 -33.3206 47.3874 -18.3129 31.0943L-17.5773 31.7718C-32.4797 47.9505 -45.8128 70.7956 -58.8448 99.241L-59.754 98.8245ZM-60.1705 99.7336L-59.754 98.8245L-58.8448 99.241L-59.2613 100.15L-60.1705 99.7336ZM-58.1059 101.23L-59.9242 100.396L-59.5077 99.4873L-57.6894 100.32L-58.1059 101.23ZM-57.0265 100.074L-57.443 100.983L-58.3522 100.567L-57.9356 99.6575L-57.0265 100.074ZM-16.1064 33.1268C-30.7979 49.0767 -44.0269 71.6993 -57.0265 100.074L-57.9356 99.6575C-44.9197 71.2475 -31.6388 48.5136 -16.8419 32.4493L-16.1064 33.1268ZM33.3647 6.27414C14.6287 7.98756 -1.44036 17.205 -16.1064 33.1268L-16.8419 32.4493C-2.05327 16.3944 14.2314 7.01972 33.2737 5.2783L33.3647 6.27414ZM99.7461 24.9448C73.8301 10.3559 52.1435 4.5568 33.3647 6.27414L33.2737 5.2783C52.33 3.53556 74.2242 9.43025 100.237 24.0734L99.7461 24.9448ZM191.087 95.957C155.682 62.8397 125.659 39.5316 99.7461 24.9448L100.237 24.0734C126.248 38.7158 156.338 62.0839 191.77 95.2267L191.087 95.957ZM231.806 136.861C217.702 122.223 204.319 108.334 191.087 95.957L191.77 95.2267C205.024 107.625 218.426 121.534 232.526 136.168L231.806 136.861ZM589.215 316.183C397.995 309.347 305.231 213.066 231.806 136.861L232.526 136.168C305.92 212.34 398.445 308.362 589.251 315.184L589.215 316.183ZM864.959 235.825C785.623 276.844 701.773 320.207 589.215 316.183L589.251 315.184C701.517 319.197 785.153 275.962 864.499 234.936L864.959 235.825ZM878.088 229.047C873.722 231.293 869.347 233.555 864.959 235.825L864.499 234.936C868.888 232.667 873.264 230.405 877.63 228.158L878.088 229.047ZM1146.35 174.766C1041.16 148.968 961.414 186.164 878.088 229.047L877.63 228.158C960.961 185.272 1041.01 147.901 1146.59 173.794L1146.35 174.766ZM1252.7 233.155C1217.61 206.282 1182.56 183.644 1146.35 174.766L1146.59 173.794C1183.01 182.725 1218.2 205.475 1253.31 232.361L1252.7 233.155ZM1294.14 266.196C1280.28 254.926 1266.48 243.71 1252.7 233.155L1253.31 232.361C1267.1 242.927 1280.91 254.152 1294.77 265.42L1294.14 266.196ZM1358.76 316.363C1336.96 301.012 1315.47 283.541 1294.14 266.196L1294.77 265.42C1316.11 282.769 1337.57 300.218 1359.34 315.545L1358.76 316.363ZM1471.29 365.742C1431.93 361.514 1394.77 341.713 1358.76 316.363L1359.34 315.545C1395.3 340.863 1432.29 360.547 1471.4 364.748L1471.29 365.742ZM1596.74 321.892C1552.21 358.56 1510.74 369.979 1471.29 365.742L1471.4 364.748C1510.54 368.952 1551.74 357.644 1596.1 321.12L1596.74 321.892ZM1597.51 321.257L1596.74 321.892L1596.1 321.12L1596.87 320.485L1597.51 321.257ZM1596.31 319.009L1597.58 320.553L1596.81 321.188L1595.54 319.644L1596.31 319.009ZM1594.83 319.576L1595.6 318.941L1596.24 319.713L1595.47 320.348L1594.83 319.576ZM1471.61 362.759C1510.14 366.897 1550.82 355.813 1594.83 319.576L1595.47 320.348C1551.28 356.729 1510.34 367.924 1471.51 363.754L1471.61 362.759ZM1360.49 313.91C1396.36 339.164 1433.01 358.613 1471.61 362.759L1471.51 363.754C1432.65 359.58 1395.83 340.013 1359.92 314.727L1360.49 313.91ZM1296.14 263.951C1317.42 281.254 1338.75 298.605 1360.49 313.91L1359.92 314.727C1338.15 299.399 1316.78 282.026 1295.5 264.727L1296.14 263.951ZM1254.52 230.773C1268.43 241.42 1282.27 252.675 1296.14 263.951L1295.5 264.727C1281.63 253.449 1267.8 242.203 1253.92 231.567L1254.52 230.773ZM1147.07 171.852C1183.91 180.888 1219.38 203.862 1254.52 230.773L1253.92 231.567C1218.79 204.669 1183.46 181.807 1146.83 172.823L1147.07 171.852ZM876.715 226.379C960.057 183.489 1040.7 145.767 1147.07 171.852L1146.83 172.823C1040.86 146.834 960.509 184.381 877.172 227.269L876.715 226.379ZM863.653 233.122C868.017 230.866 872.37 228.615 876.715 226.379L877.172 227.269C872.829 229.504 868.477 231.754 864.113 234.01L863.653 233.122ZM589.322 313.185C701.051 317.179 784.26 274.168 863.653 233.122L864.113 234.01C784.731 275.051 701.307 318.189 589.286 314.184L589.322 313.185ZM234.055 134.86C307.439 211.002 399.384 306.394 589.322 313.185L589.286 314.184C398.933 307.379 306.75 211.727 233.335 135.554L234.055 134.86ZM193.136 93.7661C206.467 106.235 219.92 120.195 234.055 134.86L233.335 135.554C219.196 120.884 205.761 106.945 192.453 94.4964L193.136 93.7661ZM101.218 22.3306C127.427 37.0842 157.649 60.5721 193.136 93.7661L192.453 94.4964C156.994 61.328 126.837 37.9 100.727 23.202L101.218 22.3306ZM33.0914 3.28661C52.7033 1.49309 75.0126 7.57892 101.218 22.3306L100.727 23.202C74.6184 8.50459 52.5167 2.51432 33.1825 4.28245L33.0914 3.28661ZM-18.3129 31.0943C-3.27934 14.7733 13.4368 5.08406 33.0914 3.28661L33.1825 4.28245C13.8341 6.05189 -2.6663 15.5839 -17.5773 31.7718L-18.3129 31.0943Z" fill="#282D3E"/>
<path d="M-63.5045 141.827L-63.0499 142.035L-63.0499 142.035L-63.5045 141.827ZM-22.1502 74.2273L-21.7824 74.566L-22.1502 74.2273ZM-63.9211 142.736L-64.1293 143.191L-64.5838 142.982L-64.3756 142.528L-63.9211 142.736ZM-62.1027 143.569L-61.6481 143.777L-61.8564 144.232L-62.311 144.024L-62.1027 143.569ZM-61.6862 142.66L-61.2316 142.868L-61.2316 142.868L-61.6862 142.66ZM-20.6792 75.5823L-21.047 75.2435L-21.047 75.2435L-20.6792 75.5823ZM29.1141 48.5704L29.1597 49.0683L29.1597 49.0683L29.1141 48.5704ZM95.7863 67.3033L95.5411 67.739L95.7863 67.3033ZM187.223 138.386L186.882 138.751L187.223 138.386ZM227.961 179.309L228.321 178.962L227.961 179.309ZM860.524 278.175L860.754 278.619L860.753 278.619L860.524 278.175ZM873.654 271.397L873.883 271.841L873.654 271.397ZM1142.27 217.074L1142.15 217.56L1142.27 217.074ZM1248.8 275.552L1248.49 275.949L1248.8 275.552ZM1290.25 308.602L1290.57 308.214L1290.25 308.602ZM1354.85 358.748L1354.56 359.157L1354.85 358.748ZM1467.14 408.039L1467.09 408.537L1467.14 408.039ZM1592.22 364.3L1591.9 363.914L1591.9 363.914L1592.22 364.3ZM1592.99 363.665L1593.37 363.347L1593.69 363.733L1593.31 364.051L1592.99 363.665ZM1591.72 362.121L1591.4 361.735L1591.78 361.417L1592.1 361.803L1591.72 362.121ZM1590.94 362.756L1590.63 362.37L1590.63 362.37L1590.94 362.756ZM1467.36 406.051L1467.41 405.554L1467.41 405.554L1467.36 406.051ZM1356 357.113L1356.29 356.704L1356 357.113ZM1291.62 307.133L1291.93 306.746L1291.62 307.133ZM1250.01 273.964L1249.71 274.361L1250.01 273.964ZM1142.74 215.132L1142.86 214.646L1142.74 215.132ZM872.738 269.618L872.967 270.063L872.738 269.618ZM859.678 276.36L859.908 276.804L859.678 276.36ZM229.49 178.001L229.13 178.348L229.49 178.001ZM188.589 136.925L188.931 136.56L188.931 136.56L188.589 136.925ZM96.7674 65.5604L97.0127 65.1247L96.7674 65.5604ZM28.9318 46.5787L28.8863 46.0808L28.8863 46.0808L28.9318 46.5787ZM-63.959 141.619C-50.9108 113.138 -37.5257 90.1815 -22.5179 73.8885L-21.7824 74.566C-36.6848 90.7447 -50.0179 113.59 -63.0499 142.035L-63.959 141.619ZM-64.3756 142.528L-63.959 141.619L-63.0499 142.035L-63.4664 142.944L-64.3756 142.528ZM-62.311 144.024L-64.1293 143.191L-63.7128 142.282L-61.8945 143.115L-62.311 144.024ZM-61.2316 142.868L-61.6481 143.777L-62.5573 143.361L-62.1407 142.452L-61.2316 142.868ZM-20.3114 75.921C-35.003 91.8709 -48.2319 114.493 -61.2316 142.868L-62.1407 142.452C-49.1248 114.042 -35.8439 91.3078 -21.047 75.2435L-20.3114 75.921ZM29.1597 49.0683C10.4236 50.7817 -5.64544 59.9992 -20.3114 75.921L-21.047 75.2435C-6.25835 59.1886 10.0263 49.8139 29.0686 48.0725L29.1597 49.0683ZM95.5411 67.739C69.625 53.1501 47.9385 47.351 29.1597 49.0683L29.0686 48.0725C48.125 46.3297 70.0192 52.2244 96.0316 66.8676L95.5411 67.739ZM186.882 138.751C151.477 105.634 121.453 82.3258 95.5411 67.739L96.0316 66.8676C122.043 81.51 152.133 104.878 187.565 138.021L186.882 138.751ZM227.601 179.656C213.497 165.018 200.114 151.128 186.882 138.751L187.565 138.021C200.819 150.419 214.221 164.328 228.321 178.962L227.601 179.656ZM585.01 358.977C393.79 352.141 301.026 255.86 227.601 179.656L228.321 178.962C301.715 255.134 394.24 351.156 585.046 357.978L585.01 358.977ZM860.753 278.619C781.418 319.639 697.568 363.001 585.01 358.977L585.046 357.978C697.312 361.991 780.948 318.756 860.294 277.731L860.753 278.619ZM873.883 271.841C869.517 274.088 865.142 276.35 860.754 278.619L860.294 277.731C864.683 275.461 869.059 273.199 873.425 270.952L873.883 271.841ZM1142.15 217.56C1036.96 191.762 957.209 228.959 873.883 271.841L873.425 270.952C956.756 228.067 1036.8 190.695 1142.39 216.589L1142.15 217.56ZM1248.49 275.949C1213.4 249.076 1178.35 226.438 1142.15 217.56L1142.39 216.589C1178.8 225.52 1214 248.269 1249.1 275.155L1248.49 275.949ZM1289.93 308.99C1276.07 297.721 1262.28 286.504 1248.49 275.949L1249.1 275.155C1262.9 285.721 1276.71 296.946 1290.57 308.214L1289.93 308.99ZM1354.56 359.157C1332.76 343.806 1311.27 326.335 1289.93 308.99L1290.57 308.214C1311.9 325.563 1333.37 343.012 1355.14 358.339L1354.56 359.157ZM1467.09 408.537C1427.72 404.308 1390.56 384.507 1354.56 359.157L1355.14 358.339C1391.09 383.657 1428.08 403.341 1467.2 407.542L1467.09 408.537ZM1592.53 364.686C1548 401.354 1506.54 412.773 1467.09 408.537L1467.2 407.542C1506.34 411.746 1547.54 400.439 1591.9 363.914L1592.53 364.686ZM1593.31 364.051L1592.53 364.686L1591.9 363.914L1592.67 363.279L1593.31 364.051ZM1592.1 361.803L1593.37 363.347L1592.6 363.983L1591.33 362.439L1592.1 361.803ZM1590.63 362.37L1591.4 361.735L1592.03 362.507L1591.26 363.142L1590.63 362.37ZM1467.41 405.554C1505.94 409.691 1546.62 398.608 1590.63 362.37L1591.26 363.142C1547.08 399.523 1506.14 410.719 1467.3 406.548L1467.41 405.554ZM1356.29 356.704C1392.15 381.958 1428.8 401.408 1467.41 405.554L1467.3 406.548C1428.44 402.374 1391.62 382.807 1355.71 357.521L1356.29 356.704ZM1291.93 306.746C1313.21 324.048 1334.55 341.399 1356.29 356.704L1355.71 357.521C1333.94 342.193 1312.57 324.82 1291.3 307.521L1291.93 306.746ZM1250.32 273.567C1264.22 284.214 1278.06 295.469 1291.93 306.746L1291.3 307.521C1277.43 296.244 1263.6 284.997 1249.71 274.361L1250.32 273.567ZM1142.86 214.646C1179.71 223.682 1215.18 246.656 1250.32 273.567L1249.71 274.361C1214.59 247.463 1179.26 224.601 1142.62 215.617L1142.86 214.646ZM872.51 269.174C955.852 226.283 1036.5 188.561 1142.86 214.646L1142.62 215.617C1036.65 189.628 956.304 227.175 872.967 270.063L872.51 269.174ZM859.448 275.916C863.812 273.66 868.165 271.41 872.51 269.174L872.967 270.063C868.623 272.298 864.272 274.548 859.908 276.804L859.448 275.916ZM585.117 355.979C696.846 359.974 780.055 316.962 859.448 275.916L859.908 276.804C780.526 317.845 697.102 360.983 585.081 356.978L585.117 355.979ZM229.85 177.654C303.234 253.796 395.178 349.189 585.117 355.979L585.081 356.978C394.728 350.173 302.545 254.521 229.13 178.348L229.85 177.654ZM188.931 136.56C202.262 149.03 215.715 162.989 229.85 177.654L229.13 178.348C214.991 163.679 201.556 149.739 188.248 137.291L188.931 136.56ZM97.0127 65.1247C123.221 79.8784 153.444 103.366 188.931 136.56L188.248 137.291C152.789 104.122 122.632 80.6942 96.5222 65.9962L97.0127 65.1247ZM28.8863 46.0808C48.4982 44.2873 70.8075 50.3731 97.0127 65.1247L96.5222 65.9962C70.4133 51.2988 48.3116 45.3085 28.9774 47.0766L28.8863 46.0808ZM-22.5179 73.8885C-7.48441 57.5675 9.23169 47.8782 28.8863 46.0808L28.9774 47.0766C9.62901 48.8461 -6.87138 58.3781 -21.7824 74.566L-22.5179 73.8885Z" fill="#282D3E"/>
<path d="M-67.7076 184.621L-67.253 184.829L-67.253 184.829L-67.7076 184.621ZM-26.3533 117.021L-25.9855 117.36L-26.3533 117.021ZM-68.1242 185.53L-68.3325 185.985L-68.787 185.776L-68.5787 185.322L-68.1242 185.53ZM-66.3059 186.363L-65.8512 186.571L-66.0595 187.026L-66.5141 186.818L-66.3059 186.363ZM-65.8893 185.454L-65.4347 185.662L-65.4347 185.662L-65.8893 185.454ZM-24.8823 118.376L-25.2501 118.037L-25.2501 118.037L-24.8823 118.376ZM24.9109 91.3644L24.9565 91.8623L24.9565 91.8623L24.9109 91.3644ZM91.5832 110.097L91.3379 110.533L91.5832 110.097ZM183.02 181.18L182.679 181.545L183.02 181.18ZM223.758 222.103L224.118 221.756L223.758 222.103ZM856.321 320.969L856.55 321.413L856.55 321.413L856.321 320.969ZM869.451 314.19L869.679 314.635L869.451 314.19ZM1138.06 259.868L1137.95 260.354L1138.06 259.868ZM1244.6 318.346L1244.29 318.743L1244.6 318.346ZM1286.05 351.396L1286.36 351.008L1286.05 351.396ZM1350.64 401.542L1350.36 401.951L1350.64 401.542ZM1462.94 450.833L1462.89 451.33L1462.94 450.833ZM1588.01 407.094L1587.69 406.708L1587.69 406.708L1588.01 407.094ZM1588.78 406.459L1589.17 406.141L1589.49 406.527L1589.1 406.845L1588.78 406.459ZM1587.51 404.915L1587.2 404.529L1587.58 404.211L1587.9 404.597L1587.51 404.915ZM1586.74 405.55L1586.42 405.164L1586.42 405.164L1586.74 405.55ZM1463.15 448.845L1463.21 448.348L1463.21 448.348L1463.15 448.845ZM1351.8 399.907L1352.08 399.498L1351.8 399.907ZM1287.41 349.927L1287.73 349.539L1287.41 349.927ZM1245.81 316.758L1245.51 317.155L1245.81 316.758ZM1138.54 257.926L1138.66 257.44L1138.54 257.926ZM868.535 312.412L868.764 312.857L868.535 312.412ZM855.475 319.154L855.705 319.598L855.475 319.154ZM225.287 220.795L224.927 221.142L225.287 220.795ZM184.386 179.719L184.728 179.354L184.728 179.354L184.386 179.719ZM92.5643 108.354L92.8096 107.919L92.5643 108.354ZM24.7287 89.3727L24.6832 88.8747L24.6832 88.8747L24.7287 89.3727ZM-68.1622 184.413C-55.1139 155.932 -41.7288 132.975 -26.7211 116.682L-25.9855 117.36C-40.8879 133.539 -54.221 156.384 -67.253 184.829L-68.1622 184.413ZM-68.5787 185.322L-68.1622 184.413L-67.253 184.829L-67.6695 185.738L-68.5787 185.322ZM-66.5141 186.818L-68.3325 185.985L-67.9159 185.075L-66.0976 185.908L-66.5141 186.818ZM-65.4347 185.662L-65.8512 186.571L-66.7604 186.155L-66.3438 185.246L-65.4347 185.662ZM-24.5146 118.715C-39.2061 134.665 -52.4351 157.287 -65.4347 185.662L-66.3438 185.246C-53.3279 156.836 -40.047 134.102 -25.2501 118.037L-24.5146 118.715ZM24.9565 91.8623C6.22051 93.5757 -9.84856 102.793 -24.5146 118.715L-25.2501 118.037C-10.4615 101.983 5.8232 92.6079 24.8655 90.8664L24.9565 91.8623ZM91.3379 110.533C65.4219 95.9441 43.7353 90.1449 24.9565 91.8623L24.8655 90.8664C43.9218 89.1237 65.816 95.0184 91.8285 109.662L91.3379 110.533ZM182.679 181.545C147.274 148.428 117.25 125.12 91.3379 110.533L91.8285 109.662C117.84 124.304 147.93 147.672 183.362 180.815L182.679 181.545ZM223.398 222.45C209.294 207.812 195.911 193.922 182.679 181.545L183.362 180.815C196.616 193.213 210.018 207.122 224.118 221.756L223.398 222.45ZM580.807 401.771C389.587 394.935 296.822 298.654 223.398 222.45L224.118 221.756C297.512 297.928 390.037 393.95 580.842 400.772L580.807 401.771ZM856.55 321.413C777.215 362.433 693.365 405.795 580.807 401.771L580.842 400.772C693.109 404.785 776.745 361.55 856.091 320.524L856.55 321.413ZM869.679 314.635C865.314 316.882 860.939 319.144 856.55 321.413L856.091 320.524C860.48 318.255 864.855 315.993 869.222 313.746L869.679 314.635ZM1137.95 260.354C1032.75 234.556 953.005 271.752 869.679 314.635L869.222 313.746C952.553 270.861 1032.6 233.489 1138.18 259.382L1137.95 260.354ZM1244.29 318.743C1209.2 291.87 1174.15 269.232 1137.95 260.354L1138.18 259.382C1174.6 268.314 1209.79 291.063 1244.9 317.949L1244.29 318.743ZM1285.73 351.784C1271.87 340.514 1258.07 329.298 1244.29 318.743L1244.9 317.949C1258.7 328.515 1272.5 339.74 1286.36 351.008L1285.73 351.784ZM1350.36 401.951C1328.55 386.6 1307.06 369.129 1285.73 351.784L1286.36 351.008C1307.7 368.357 1329.16 385.806 1350.93 401.133L1350.36 401.951ZM1462.89 451.33C1423.52 447.102 1386.36 427.301 1350.36 401.951L1350.93 401.133C1386.89 426.451 1423.88 446.135 1462.99 450.336L1462.89 451.33ZM1588.33 407.48C1543.8 444.148 1502.33 455.567 1462.89 451.33L1462.99 450.336C1502.13 454.54 1543.34 443.233 1587.69 406.708L1588.33 407.48ZM1589.1 406.845L1588.33 407.48L1587.69 406.708L1588.47 406.073L1589.1 406.845ZM1587.9 404.597L1589.17 406.141L1588.4 406.777L1587.13 405.233L1587.9 404.597ZM1586.42 405.164L1587.2 404.529L1587.83 405.301L1587.06 405.936L1586.42 405.164ZM1463.21 448.348C1501.73 452.485 1542.41 441.402 1586.42 405.164L1587.06 405.936C1542.87 442.317 1501.93 453.513 1463.1 449.342L1463.21 448.348ZM1352.08 399.498C1387.95 424.752 1424.6 444.201 1463.21 448.348L1463.1 449.342C1424.24 445.168 1387.42 425.601 1351.51 400.315L1352.08 399.498ZM1287.73 349.539C1309.01 366.842 1330.35 384.193 1352.08 399.498L1351.51 400.315C1329.74 384.987 1308.37 367.614 1287.1 350.315L1287.73 349.539ZM1246.12 316.361C1260.02 327.008 1273.86 338.263 1287.73 349.539L1287.1 350.315C1273.23 339.038 1259.4 327.791 1245.51 317.155L1246.12 316.361ZM1138.66 257.44C1175.51 266.476 1210.98 289.45 1246.12 316.361L1245.51 317.155C1210.38 290.257 1175.05 267.395 1138.42 258.411L1138.66 257.44ZM868.307 311.968C951.649 269.077 1032.3 231.355 1138.66 257.44L1138.42 258.411C1032.45 232.422 952.101 269.969 868.764 312.857L868.307 311.968ZM855.245 318.71C859.609 316.454 863.962 314.204 868.307 311.968L868.764 312.857C864.42 315.092 860.069 317.342 855.705 319.598L855.245 318.71ZM580.914 398.773C692.643 402.767 775.852 359.756 855.245 318.71L855.705 319.598C776.323 360.639 692.899 403.777 580.878 399.772L580.914 398.773ZM225.647 220.448C299.031 296.59 390.975 391.982 580.914 398.773L580.878 399.772C390.525 392.967 298.342 297.315 224.927 221.142L225.647 220.448ZM184.728 179.354C198.058 191.824 211.512 205.783 225.647 220.448L224.927 221.142C210.788 206.473 197.353 192.533 184.045 180.085L184.728 179.354ZM92.8096 107.919C119.018 122.672 149.241 146.16 184.728 179.354L184.045 180.085C148.585 146.916 118.429 123.488 92.3191 108.79L92.8096 107.919ZM24.6832 88.8747C44.2951 87.0812 66.6044 93.1671 92.8096 107.919L92.3191 108.79C66.2102 94.0927 44.1085 88.1025 24.7743 89.8706L24.6832 88.8747ZM-26.7211 116.682C-11.6875 100.361 5.02857 90.6722 24.6832 88.8747L24.7743 89.8706C5.42588 91.64 -11.0745 101.172 -25.9855 117.36L-26.7211 116.682Z" fill="#282D3E"/>
<path d="M-71.9108 227.415L-71.4561 227.623L-71.4561 227.623L-71.9108 227.415ZM-30.5564 159.815L-30.1886 160.154L-30.5564 159.815ZM-72.3273 228.324L-72.5356 228.779L-72.9901 228.57L-72.7818 228.116L-72.3273 228.324ZM-70.509 229.157L-70.0543 229.365L-70.2626 229.82L-70.7173 229.612L-70.509 229.157ZM-70.0924 228.248L-69.6378 228.456L-69.6378 228.456L-70.0924 228.248ZM-29.0855 161.17L-29.4532 160.831L-29.4532 160.831L-29.0855 161.17ZM20.7078 134.158L20.7534 134.656L20.7534 134.656L20.7078 134.158ZM87.38 152.891L87.1348 153.327L87.38 152.891ZM178.817 223.974L178.475 224.339L178.817 223.974ZM219.555 264.897L219.915 264.55L219.555 264.897ZM852.118 363.763L852.347 364.207L852.347 364.207L852.118 363.763ZM865.247 356.984L865.476 357.429L865.247 356.984ZM1133.86 302.662L1133.74 303.148L1133.86 302.662ZM1240.39 361.14L1240.09 361.537L1240.39 361.14ZM1281.84 394.19L1282.16 393.802L1281.84 394.19ZM1346.44 444.336L1346.15 444.745L1346.44 444.336ZM1458.74 493.627L1458.68 494.124L1458.74 493.627ZM1583.81 449.888L1583.49 449.502L1583.49 449.502L1583.81 449.888ZM1584.58 449.253L1584.97 448.935L1585.29 449.321L1584.9 449.639L1584.58 449.253ZM1583.31 447.709L1582.99 447.323L1583.38 447.005L1583.7 447.391L1583.31 447.709ZM1582.54 448.344L1582.22 447.958L1582.22 447.958L1582.54 448.344ZM1458.95 491.639L1459 491.142L1459 491.142L1458.95 491.639ZM1347.59 442.7L1347.88 442.292L1347.59 442.7ZM1283.21 392.721L1283.52 392.333L1283.21 392.721ZM1241.61 359.552L1241.3 359.949L1241.61 359.552ZM1134.34 300.72L1134.46 300.234L1134.34 300.72ZM864.332 355.206L864.561 355.651L864.332 355.206ZM851.272 361.948L851.501 362.392L851.272 361.948ZM221.083 263.589L220.723 263.936L221.083 263.589ZM180.183 222.513L180.525 222.148L180.525 222.148L180.183 222.513ZM88.3611 151.148L88.6065 150.713L88.3611 151.148ZM20.5256 132.167L20.4801 131.669L20.4801 131.669L20.5256 132.167ZM-72.3653 227.207C-59.317 198.726 -45.9319 175.769 -30.9242 159.476L-30.1886 160.154C-45.091 176.333 -58.4242 199.178 -71.4561 227.623L-72.3653 227.207ZM-72.7818 228.116L-72.3653 227.207L-71.4561 227.623L-71.8727 228.532L-72.7818 228.116ZM-70.7173 229.612L-72.5356 228.779L-72.119 227.869L-70.3007 228.702L-70.7173 229.612ZM-69.6378 228.456L-70.0543 229.365L-70.9635 228.949L-70.547 228.04L-69.6378 228.456ZM-28.7177 161.509C-43.4092 177.459 -56.6382 200.081 -69.6378 228.456L-70.547 228.04C-57.5311 199.63 -44.2501 176.896 -29.4532 160.831L-28.7177 161.509ZM20.7534 134.656C2.01739 136.37 -14.0517 145.587 -28.7177 161.509L-29.4532 160.831C-14.6646 144.777 1.62007 135.402 20.6623 133.66L20.7534 134.656ZM87.1348 153.327C61.2187 138.738 39.5322 132.939 20.7534 134.656L20.6623 133.66C39.7187 131.918 61.6129 137.812 87.6254 152.455L87.1348 153.327ZM178.475 224.339C143.071 191.222 113.047 167.914 87.1348 153.327L87.6254 152.455C113.637 167.098 143.726 190.466 179.159 223.609L178.475 224.339ZM219.195 265.243C205.09 250.606 191.708 236.716 178.475 224.339L179.159 223.609C192.413 236.007 205.815 249.916 219.915 264.55L219.195 265.243ZM576.604 444.565C385.383 437.729 292.619 341.448 219.195 265.243L219.915 264.55C293.309 340.722 385.834 436.744 576.639 443.566L576.604 444.565ZM852.347 364.207C773.012 405.227 689.162 448.589 576.604 444.565L576.639 443.566C688.906 447.579 772.542 404.344 851.888 363.318L852.347 364.207ZM865.476 357.429C861.111 359.676 856.736 361.938 852.347 364.207L851.888 363.318C856.277 361.049 860.652 358.787 865.019 356.54L865.476 357.429ZM1133.74 303.148C1028.55 277.35 948.802 314.546 865.476 357.429L865.019 356.54C948.35 313.655 1028.4 276.283 1133.98 302.176L1133.74 303.148ZM1240.09 361.537C1205 334.664 1169.95 312.026 1133.74 303.148L1133.98 302.176C1170.4 311.107 1205.59 333.857 1240.7 360.743L1240.09 361.537ZM1281.53 394.578C1267.67 383.308 1253.87 372.092 1240.09 361.537L1240.7 360.743C1254.49 371.309 1268.3 382.534 1282.16 393.802L1281.53 394.578ZM1346.15 444.745C1324.35 429.394 1302.86 411.923 1281.53 394.578L1282.16 393.802C1303.5 411.151 1324.96 428.6 1346.73 443.927L1346.15 444.745ZM1458.68 494.124C1419.31 489.896 1382.16 470.095 1346.15 444.745L1346.73 443.927C1382.69 469.245 1419.68 488.929 1458.79 493.13L1458.68 494.124ZM1584.13 450.274C1539.59 486.942 1498.13 498.361 1458.68 494.124L1458.79 493.13C1497.93 497.334 1539.13 486.026 1583.49 449.502L1584.13 450.274ZM1584.9 449.639L1584.13 450.274L1583.49 449.502L1584.26 448.867L1584.9 449.639ZM1583.7 447.391L1584.97 448.935L1584.2 449.57L1582.92 448.027L1583.7 447.391ZM1582.22 447.958L1582.99 447.323L1583.63 448.095L1582.86 448.73L1582.22 447.958ZM1459 491.142C1497.53 495.279 1538.21 484.196 1582.22 447.958L1582.86 448.73C1538.67 485.111 1497.73 496.307 1458.9 492.136L1459 491.142ZM1347.88 442.292C1383.75 467.546 1420.4 486.995 1459 491.142L1458.9 492.136C1420.04 487.962 1383.22 468.395 1347.3 443.109L1347.88 442.292ZM1283.52 392.333C1304.8 409.636 1326.14 426.987 1347.88 442.292L1347.3 443.109C1325.53 427.781 1304.17 410.408 1282.89 393.109L1283.52 392.333ZM1241.91 359.155C1255.81 369.802 1269.66 381.057 1283.52 392.333L1282.89 393.109C1269.02 381.832 1255.19 370.585 1241.3 359.949L1241.91 359.155ZM1134.46 300.234C1171.3 309.27 1206.77 332.244 1241.91 359.155L1241.3 359.949C1206.18 333.051 1170.85 310.189 1134.22 301.205L1134.46 300.234ZM864.103 354.762C947.446 311.871 1028.09 274.149 1134.46 300.234L1134.22 301.205C1028.24 275.216 947.898 312.763 864.561 355.651L864.103 354.762ZM851.042 361.504C855.406 359.248 859.759 356.998 864.103 354.762L864.561 355.651C860.217 357.886 855.865 360.136 851.501 362.392L851.042 361.504ZM576.711 441.567C688.439 445.561 771.649 402.55 851.042 361.504L851.501 362.392C772.12 403.433 688.696 446.571 576.675 442.566L576.711 441.567ZM221.443 263.242C294.828 339.384 386.772 434.776 576.711 441.567L576.675 442.566C386.322 435.761 294.138 340.109 220.723 263.936L221.443 263.242ZM180.525 222.148C193.855 234.618 207.309 248.577 221.443 263.242L220.723 263.936C206.585 249.266 193.15 235.327 179.842 222.878L180.525 222.148ZM88.6065 150.713C114.815 165.466 145.038 188.954 180.525 222.148L179.842 222.878C144.382 189.71 114.226 166.282 88.1159 151.584L88.6065 150.713ZM20.4801 131.669C40.092 129.875 62.4012 135.961 88.6065 150.713L88.1159 151.584C62.0071 136.887 39.9053 130.896 20.5712 132.665L20.4801 131.669ZM-30.9242 159.476C-15.8907 143.155 0.825445 133.466 20.4801 131.669L20.5712 132.665C1.22276 134.434 -15.2776 143.966 -30.1886 160.154L-30.9242 159.476Z" fill="#282D3E"/>
</svg>
