<svg width="25" height="25" viewBox="0 0 25 25" fill="none" xmlns="http://www.w3.org/2000/svg">
<path fill-rule="evenodd" clip-rule="evenodd" d="M12.366 23.0949H12.3615C10.5568 23.0943 8.78353 22.6436 7.20853 21.7887L1.49219 23.281L3.02198 17.72C2.07833 16.0925 1.58179 14.2463 1.58259 12.3549C1.58496 6.43796 6.42231 1.62402 12.3659 1.62402C15.2505 1.62526 17.958 2.74287 19.9938 4.77136C22.0297 6.79975 23.1503 9.49598 23.1492 12.3634C23.1468 18.279 18.3113 23.0925 12.366 23.0949V23.0949Z" stroke="#E9CC58" stroke-width="2"/>
<path fill-rule="evenodd" clip-rule="evenodd" d="M17.5238 14.9974C17.4594 14.8815 17.2875 14.812 17.0297 14.6729C16.7719 14.5339 15.5043 13.8622 15.2679 13.7694C15.0316 13.6768 14.8597 13.6305 14.6878 13.9084C14.516 14.1864 14.0219 14.812 13.8714 14.9974C13.721 15.1827 13.5706 15.2059 13.3129 15.0669C13.0551 14.9279 12.2243 14.6346 11.2395 13.6884C10.473 12.952 9.95556 12.0426 9.80516 11.7645C9.65477 11.4865 9.78913 11.3362 9.9182 11.1977C10.0342 11.0733 10.1761 10.8733 10.305 10.7112C10.4339 10.5491 10.4768 10.4331 10.5628 10.2479C10.6487 10.0625 10.6058 9.90036 10.5413 9.76133C10.4768 9.62231 9.9612 8.25531 9.74635 7.69922C9.53705 7.15768 9.3245 7.23104 9.16625 7.22248C9.01603 7.21436 8.84396 7.21265 8.6721 7.21265C8.50023 7.21265 8.22089 7.28216 7.98456 7.5602C7.74824 7.83824 7.08218 8.51014 7.08218 9.87704C7.08218 11.244 8.00604 12.5646 8.13496 12.75C8.26386 12.9354 9.953 15.7405 12.5394 16.9435C13.1545 17.2296 13.6348 17.4005 14.0092 17.5285C14.6269 17.7399 15.189 17.7101 15.6332 17.6385C16.1286 17.5588 17.1586 16.9667 17.3735 16.318C17.5883 15.6692 17.5883 15.1132 17.5238 14.9974Z" fill="#E9CC58"/>
</svg>
